G75*
%MOIN*%
%OFA0B0*%
%FSLAX25Y25*%
%IPPOS*%
%LPD*%
%AMOC8*
5,1,8,0,0,1.08239X$1,22.5*
%
%ADD10C,0.00400*%
%ADD11R,0.05000X0.02200*%
%ADD12R,0.02200X0.05000*%
%ADD13R,0.01700X0.06500*%
%ADD14C,0.07400*%
%ADD15R,0.06299X0.07087*%
%ADD16R,0.07087X0.06299*%
%ADD17R,0.02100X0.07800*%
%ADD18C,0.10000*%
%ADD19OC8,0.07400*%
%ADD20C,0.05200*%
%ADD21R,0.05512X0.12992*%
%ADD22R,0.07874X0.06299*%
%ADD23R,0.06000X0.03000*%
%ADD24R,0.07795X0.02087*%
%ADD25R,0.02362X0.08661*%
%ADD26R,0.06300X0.04600*%
%ADD27OC8,0.06600*%
%ADD28C,0.10000*%
%ADD29C,0.31496*%
%ADD30R,0.12500X0.12500*%
%ADD31C,0.07600*%
%ADD32C,0.02400*%
%ADD33C,0.03962*%
%ADD34C,0.01600*%
%ADD35C,0.01200*%
D10*
X0044294Y0010804D02*
X0047363Y0010804D01*
X0045829Y0010804D02*
X0045829Y0006200D01*
X0048898Y0006967D02*
X0049665Y0006200D01*
X0051200Y0006200D01*
X0051967Y0006967D01*
X0051967Y0010037D01*
X0051200Y0010804D01*
X0049665Y0010804D01*
X0048898Y0010037D01*
X0048898Y0006967D01*
X0053502Y0006200D02*
X0053502Y0010804D01*
X0055804Y0010804D01*
X0056571Y0010037D01*
X0056571Y0008502D01*
X0055804Y0007735D01*
X0053502Y0007735D01*
X0384946Y0032450D02*
X0389550Y0032450D01*
X0388015Y0032450D02*
X0384946Y0035519D01*
X0384946Y0037054D02*
X0388783Y0037054D01*
X0389550Y0037821D01*
X0389550Y0039356D01*
X0388783Y0040123D01*
X0384946Y0040123D01*
X0384946Y0041658D02*
X0389550Y0041658D01*
X0389550Y0044727D01*
X0389550Y0046262D02*
X0389550Y0049331D01*
X0388783Y0050866D02*
X0384946Y0050866D01*
X0384946Y0049331D02*
X0384946Y0046262D01*
X0389550Y0046262D01*
X0387248Y0046262D02*
X0387248Y0047796D01*
X0388783Y0050866D02*
X0389550Y0051633D01*
X0389550Y0053168D01*
X0388783Y0053935D01*
X0384946Y0053935D01*
X0384946Y0055470D02*
X0388015Y0055470D01*
X0389550Y0057004D01*
X0388015Y0058539D01*
X0384946Y0058539D01*
X0384946Y0060074D02*
X0389550Y0060074D01*
X0389550Y0063143D01*
X0389550Y0064677D02*
X0384946Y0064677D01*
X0389550Y0067747D01*
X0384946Y0067747D01*
X0384946Y0063143D02*
X0384946Y0060074D01*
X0387248Y0060074D02*
X0387248Y0061608D01*
X0387248Y0073885D02*
X0387248Y0076955D01*
X0384946Y0083093D02*
X0384946Y0084628D01*
X0384946Y0083860D02*
X0389550Y0083860D01*
X0389550Y0083093D02*
X0389550Y0084628D01*
X0389550Y0086162D02*
X0384946Y0086162D01*
X0386481Y0087697D01*
X0384946Y0089232D01*
X0389550Y0089232D01*
X0389550Y0090766D02*
X0389550Y0093836D01*
X0388783Y0095370D02*
X0385713Y0095370D01*
X0384946Y0096138D01*
X0384946Y0097672D01*
X0385713Y0098440D01*
X0388783Y0098440D02*
X0389550Y0097672D01*
X0389550Y0096138D01*
X0388783Y0095370D01*
X0387248Y0092301D02*
X0387248Y0090766D01*
X0384946Y0090766D02*
X0389550Y0090766D01*
X0384946Y0090766D02*
X0384946Y0093836D01*
X0389550Y0035519D02*
X0387248Y0033217D01*
D11*
X0376100Y0164800D03*
X0376100Y0168500D03*
X0376100Y0172200D03*
X0365900Y0172200D03*
X0365900Y0168500D03*
X0365900Y0164800D03*
X0140400Y0092024D03*
X0140400Y0088874D03*
X0140400Y0085724D03*
X0140400Y0082575D03*
X0140400Y0079425D03*
X0140400Y0076276D03*
X0140400Y0073126D03*
X0140400Y0069976D03*
X0106600Y0069976D03*
X0106600Y0073126D03*
X0106600Y0076276D03*
X0106600Y0079425D03*
X0106600Y0082575D03*
X0106600Y0085724D03*
X0106600Y0088874D03*
X0106600Y0092024D03*
D12*
X0112476Y0097900D03*
X0115626Y0097900D03*
X0118776Y0097900D03*
X0121925Y0097900D03*
X0125075Y0097900D03*
X0128224Y0097900D03*
X0131374Y0097900D03*
X0134524Y0097900D03*
X0134524Y0064100D03*
X0131374Y0064100D03*
X0128224Y0064100D03*
X0125075Y0064100D03*
X0121925Y0064100D03*
X0118776Y0064100D03*
X0115626Y0064100D03*
X0112476Y0064100D03*
X0364800Y0075900D03*
X0372200Y0075900D03*
X0372200Y0086100D03*
X0368500Y0086100D03*
X0364800Y0086100D03*
D13*
X0312600Y0111700D03*
X0310100Y0111700D03*
X0307500Y0111700D03*
X0305000Y0111700D03*
X0302400Y0111700D03*
X0299800Y0111700D03*
X0297300Y0111700D03*
X0294700Y0111700D03*
X0292200Y0111700D03*
X0289600Y0111700D03*
X0287000Y0111700D03*
X0284500Y0111700D03*
X0281900Y0111700D03*
X0279400Y0111700D03*
X0279400Y0140300D03*
X0281900Y0140300D03*
X0284500Y0140300D03*
X0287000Y0140300D03*
X0289600Y0140300D03*
X0292200Y0140300D03*
X0294700Y0140300D03*
X0297300Y0140300D03*
X0299800Y0140300D03*
X0302400Y0140300D03*
X0305000Y0140300D03*
X0307500Y0140300D03*
X0310100Y0140300D03*
X0312600Y0140300D03*
D14*
X0331000Y0118500D03*
X0331000Y0108500D03*
X0331000Y0098500D03*
X0331000Y0088500D03*
X0238500Y0151000D03*
X0238500Y0161000D03*
X0158185Y0113815D03*
X0148185Y0113815D03*
X0156000Y0251000D03*
X0166000Y0251000D03*
X0176000Y0251000D03*
X0203500Y0251000D03*
X0213500Y0251000D03*
X0223500Y0251000D03*
X0223500Y0291000D03*
X0213500Y0291000D03*
X0203500Y0291000D03*
X0176000Y0291000D03*
X0166000Y0291000D03*
X0156000Y0291000D03*
D15*
X0121512Y0261000D03*
X0110488Y0261000D03*
X0096512Y0261000D03*
X0085488Y0261000D03*
X0085488Y0246000D03*
X0096512Y0246000D03*
X0110488Y0246000D03*
X0121512Y0246000D03*
X0132988Y0186000D03*
X0144012Y0186000D03*
X0119012Y0166000D03*
X0107988Y0166000D03*
X0094012Y0166000D03*
X0082988Y0166000D03*
X0082988Y0151000D03*
X0094012Y0151000D03*
X0107988Y0151000D03*
X0119012Y0151000D03*
X0079012Y0081000D03*
X0067988Y0081000D03*
X0162988Y0051000D03*
X0174012Y0051000D03*
X0212988Y0078500D03*
X0224012Y0078500D03*
X0330488Y0173500D03*
X0341512Y0173500D03*
X0341512Y0186000D03*
X0330488Y0186000D03*
X0316512Y0186000D03*
X0305488Y0186000D03*
X0305488Y0176000D03*
X0316512Y0176000D03*
X0316512Y0196000D03*
X0305488Y0196000D03*
X0284012Y0196000D03*
X0284012Y0186000D03*
X0272988Y0186000D03*
X0261512Y0186000D03*
X0261512Y0196000D03*
X0272988Y0196000D03*
X0250488Y0196000D03*
X0250488Y0186000D03*
X0236512Y0186000D03*
X0236512Y0196000D03*
X0225488Y0196000D03*
X0225488Y0186000D03*
X0362988Y0106000D03*
X0374012Y0106000D03*
X0376512Y0138500D03*
X0376512Y0148500D03*
X0365488Y0148500D03*
X0365488Y0138500D03*
X0365488Y0186000D03*
X0376512Y0186000D03*
X0371512Y0063500D03*
X0360488Y0063500D03*
D16*
X0348500Y0095488D03*
X0348500Y0106512D03*
X0296000Y0056512D03*
X0296000Y0045488D03*
X0276000Y0045488D03*
X0276000Y0056512D03*
X0261000Y0092988D03*
X0261000Y0104012D03*
X0248500Y0104012D03*
X0248500Y0092988D03*
X0173500Y0084012D03*
X0173500Y0072988D03*
X0156000Y0077988D03*
X0156000Y0089012D03*
X0096000Y0029012D03*
X0096000Y0017988D03*
X0081000Y0017988D03*
X0081000Y0029012D03*
X0116000Y0026512D03*
X0116000Y0015488D03*
X0026000Y0142988D03*
X0026000Y0154012D03*
X0041000Y0150488D03*
X0041000Y0161512D03*
X0026000Y0170488D03*
X0026000Y0181512D03*
X0026000Y0230488D03*
X0026000Y0241512D03*
X0041000Y0255488D03*
X0041000Y0266512D03*
X0026000Y0271512D03*
X0026000Y0260488D03*
X0133500Y0169012D03*
X0133500Y0157988D03*
D17*
X0118500Y0187500D03*
X0113500Y0187500D03*
X0108500Y0187500D03*
X0103500Y0187500D03*
X0098500Y0187500D03*
X0093500Y0187500D03*
X0088500Y0187500D03*
X0083500Y0187500D03*
X0083500Y0224500D03*
X0088500Y0224500D03*
X0093500Y0224500D03*
X0098500Y0224500D03*
X0103500Y0224500D03*
X0108500Y0224500D03*
X0113500Y0224500D03*
X0118500Y0224500D03*
D18*
X0289748Y0236000D02*
X0289748Y0246000D01*
X0316362Y0246000D02*
X0316362Y0236000D01*
X0354386Y0236000D02*
X0354386Y0246000D01*
X0381000Y0246000D02*
X0381000Y0236000D01*
D19*
X0028500Y0091000D03*
X0028500Y0081000D03*
X0028500Y0071000D03*
X0018500Y0071000D03*
X0018500Y0081000D03*
X0018500Y0091000D03*
D20*
X0079000Y0043500D03*
X0098000Y0043500D03*
X0276500Y0076000D03*
X0295500Y0076000D03*
D21*
X0275587Y0217535D03*
X0261413Y0217535D03*
X0261413Y0234465D03*
X0275587Y0234465D03*
D22*
X0223500Y0265488D03*
X0223500Y0276512D03*
X0203500Y0276512D03*
X0203500Y0265488D03*
X0176000Y0265488D03*
X0176000Y0276512D03*
X0156000Y0276512D03*
X0156000Y0265488D03*
X0166000Y0231512D03*
X0166000Y0220488D03*
X0213500Y0220488D03*
X0213500Y0231512D03*
D23*
X0034500Y0058500D03*
X0034500Y0043500D03*
X0012500Y0043500D03*
X0012500Y0058500D03*
D24*
X0155055Y0146000D03*
X0155055Y0151000D03*
X0155055Y0156000D03*
X0155055Y0161000D03*
X0155055Y0166000D03*
X0155055Y0171000D03*
X0155055Y0176000D03*
X0155055Y0181000D03*
X0155055Y0186000D03*
X0155055Y0191000D03*
X0191945Y0191000D03*
X0191945Y0186000D03*
X0191945Y0181000D03*
X0191945Y0176000D03*
X0191945Y0171000D03*
X0191945Y0166000D03*
X0191945Y0161000D03*
X0191945Y0156000D03*
X0191945Y0151000D03*
X0191945Y0146000D03*
D25*
X0063500Y0195764D03*
X0058500Y0195764D03*
X0053500Y0195764D03*
X0048500Y0195764D03*
X0043500Y0195764D03*
X0038500Y0195764D03*
X0033500Y0195764D03*
X0028500Y0195764D03*
X0028500Y0216236D03*
X0033500Y0216236D03*
X0038500Y0216236D03*
X0043500Y0216236D03*
X0048500Y0216236D03*
X0053500Y0216236D03*
X0058500Y0216236D03*
X0063500Y0216236D03*
D26*
X0238500Y0139000D03*
X0238500Y0133000D03*
X0238500Y0121500D03*
X0238500Y0115500D03*
D27*
X0048500Y0113500D03*
X0048500Y0123500D03*
X0038500Y0123500D03*
X0028500Y0123500D03*
X0028500Y0113500D03*
X0038500Y0113500D03*
X0018500Y0113500D03*
X0018500Y0123500D03*
X0053500Y0288500D03*
X0053500Y0298500D03*
X0063500Y0298500D03*
X0073500Y0298500D03*
X0073500Y0288500D03*
X0063500Y0288500D03*
X0083500Y0288500D03*
X0083500Y0298500D03*
D28*
X0261315Y0284750D03*
X0300685Y0284750D03*
X0336315Y0284750D03*
X0375685Y0284750D03*
D29*
X0211000Y0026000D03*
D30*
X0180000Y0026000D03*
X0242000Y0026000D03*
D31*
X0151000Y0016000D03*
X0141000Y0016000D03*
X0131000Y0016000D03*
D32*
X0226000Y0113500D02*
X0236000Y0103500D01*
X0226000Y0113500D02*
X0226000Y0127250D01*
X0226000Y0168500D01*
X0193500Y0201000D01*
X0141000Y0201000D01*
X0133500Y0193500D01*
X0133500Y0186512D01*
X0132988Y0186000D01*
X0118500Y0187500D02*
X0118500Y0166512D01*
X0119012Y0166000D01*
X0119012Y0151000D01*
X0118500Y0151000D01*
X0118500Y0138500D01*
X0107988Y0144238D02*
X0104750Y0141000D01*
X0101000Y0141000D01*
X0107988Y0144238D02*
X0107988Y0151000D01*
X0107988Y0166000D01*
X0108500Y0166512D01*
X0108500Y0187500D01*
X0088500Y0187500D02*
X0088500Y0178500D01*
X0093500Y0173500D01*
X0093500Y0166512D01*
X0094012Y0166000D01*
X0094012Y0151000D01*
X0094750Y0150262D01*
X0094750Y0133500D01*
X0088500Y0141000D02*
X0086000Y0141000D01*
X0082988Y0144012D01*
X0082988Y0151000D01*
X0082988Y0166000D01*
X0083500Y0166512D01*
X0083500Y0187500D01*
X0088500Y0221000D02*
X0088500Y0224500D01*
X0088500Y0233500D01*
X0096512Y0241512D01*
X0096512Y0246000D01*
X0096512Y0261000D01*
X0096512Y0280488D01*
X0096000Y0281000D01*
X0096000Y0291000D01*
X0088500Y0298500D01*
X0083500Y0298500D01*
X0096000Y0281000D02*
X0113500Y0281000D01*
X0121000Y0273500D01*
X0121000Y0261512D01*
X0121512Y0261000D02*
X0121512Y0246000D01*
X0121000Y0245488D01*
X0121000Y0236000D01*
X0118500Y0233500D01*
X0118500Y0221000D01*
X0110488Y0234012D02*
X0110488Y0246000D01*
X0110488Y0261000D01*
X0110488Y0270488D01*
X0111000Y0271000D01*
X0096512Y0261000D02*
X0096000Y0261512D01*
X0085488Y0261000D02*
X0085488Y0270488D01*
X0086000Y0271000D01*
X0085488Y0261000D02*
X0085488Y0246000D01*
X0086000Y0245488D02*
X0086000Y0241000D01*
X0083500Y0238500D01*
X0156000Y0251000D02*
X0156000Y0265488D01*
X0156000Y0276512D02*
X0156000Y0291000D01*
X0166000Y0291000D02*
X0166000Y0296000D01*
X0176000Y0306000D01*
X0213500Y0306000D01*
X0213500Y0291000D01*
X0203500Y0291000D02*
X0203500Y0276512D01*
X0203500Y0265488D02*
X0203500Y0251000D01*
X0213500Y0251000D02*
X0213500Y0231512D01*
X0213500Y0221000D02*
X0228500Y0221000D01*
X0231000Y0218500D01*
X0215488Y0218500D02*
X0215488Y0219012D01*
X0213500Y0221000D01*
X0196000Y0211000D02*
X0186512Y0220488D01*
X0166000Y0220488D01*
X0166000Y0231512D02*
X0166000Y0251000D01*
X0176000Y0251000D02*
X0176000Y0265488D01*
X0176000Y0276512D02*
X0176000Y0291000D01*
X0213500Y0306000D02*
X0292250Y0306000D01*
X0301000Y0297250D01*
X0296000Y0301000D02*
X0341000Y0301000D01*
X0346000Y0296000D01*
X0346000Y0278500D01*
X0341000Y0273500D01*
X0296000Y0273500D01*
X0291000Y0278500D01*
X0291000Y0296000D01*
X0296000Y0301000D01*
X0295814Y0300814D02*
X0341186Y0300814D01*
X0343585Y0298415D02*
X0293415Y0298415D01*
X0291017Y0296017D02*
X0345983Y0296017D01*
X0346000Y0293618D02*
X0291000Y0293618D01*
X0291000Y0291220D02*
X0346000Y0291220D01*
X0346000Y0288821D02*
X0291000Y0288821D01*
X0291000Y0286423D02*
X0346000Y0286423D01*
X0346000Y0284024D02*
X0291000Y0284024D01*
X0291000Y0281626D02*
X0346000Y0281626D01*
X0346000Y0279227D02*
X0291000Y0279227D01*
X0292671Y0276829D02*
X0344329Y0276829D01*
X0341930Y0274430D02*
X0295070Y0274430D01*
X0281000Y0256000D02*
X0323500Y0256000D01*
X0326000Y0253500D01*
X0326000Y0231000D01*
X0323500Y0228500D01*
X0276000Y0228500D01*
X0276000Y0251000D01*
X0281000Y0256000D01*
X0280242Y0255242D02*
X0324258Y0255242D01*
X0326000Y0252844D02*
X0277844Y0252844D01*
X0276000Y0250445D02*
X0326000Y0250445D01*
X0326000Y0248047D02*
X0276000Y0248047D01*
X0276000Y0245648D02*
X0326000Y0245648D01*
X0326000Y0243250D02*
X0276000Y0243250D01*
X0276000Y0240851D02*
X0326000Y0240851D01*
X0326000Y0238453D02*
X0276000Y0238453D01*
X0276000Y0236054D02*
X0326000Y0236054D01*
X0326000Y0233656D02*
X0276000Y0233656D01*
X0276000Y0231257D02*
X0326000Y0231257D01*
X0323859Y0228859D02*
X0276000Y0228859D01*
X0261000Y0228859D02*
X0248141Y0228859D01*
X0248500Y0228500D02*
X0241000Y0236000D01*
X0241000Y0288500D01*
X0248500Y0296000D01*
X0266000Y0296000D01*
X0271000Y0291000D01*
X0271000Y0268500D01*
X0261000Y0258500D01*
X0261000Y0228500D01*
X0248500Y0228500D01*
X0245743Y0231257D02*
X0261000Y0231257D01*
X0261000Y0233656D02*
X0243344Y0233656D01*
X0241000Y0236054D02*
X0261000Y0236054D01*
X0261000Y0238453D02*
X0241000Y0238453D01*
X0241000Y0240851D02*
X0261000Y0240851D01*
X0261000Y0243250D02*
X0241000Y0243250D01*
X0241000Y0245648D02*
X0261000Y0245648D01*
X0261000Y0248047D02*
X0241000Y0248047D01*
X0241000Y0250445D02*
X0261000Y0250445D01*
X0261000Y0252844D02*
X0241000Y0252844D01*
X0241000Y0255242D02*
X0261000Y0255242D01*
X0261000Y0257641D02*
X0241000Y0257641D01*
X0241000Y0260039D02*
X0262539Y0260039D01*
X0264938Y0262438D02*
X0241000Y0262438D01*
X0241000Y0264836D02*
X0267336Y0264836D01*
X0269735Y0267235D02*
X0241000Y0267235D01*
X0241000Y0269633D02*
X0271000Y0269633D01*
X0271000Y0272032D02*
X0241000Y0272032D01*
X0241000Y0274430D02*
X0271000Y0274430D01*
X0271000Y0276829D02*
X0241000Y0276829D01*
X0241000Y0279227D02*
X0271000Y0279227D01*
X0271000Y0281626D02*
X0241000Y0281626D01*
X0241000Y0284024D02*
X0271000Y0284024D01*
X0271000Y0286423D02*
X0241000Y0286423D01*
X0241321Y0288821D02*
X0271000Y0288821D01*
X0270780Y0291220D02*
X0243720Y0291220D01*
X0246118Y0293618D02*
X0268382Y0293618D01*
X0223500Y0291000D02*
X0223500Y0276512D01*
X0223500Y0265488D02*
X0223500Y0251000D01*
X0346000Y0250445D02*
X0389501Y0250445D01*
X0389501Y0248047D02*
X0346000Y0248047D01*
X0346000Y0245648D02*
X0389501Y0245648D01*
X0389501Y0243250D02*
X0346000Y0243250D01*
X0346000Y0240851D02*
X0389501Y0240851D01*
X0389501Y0238453D02*
X0346000Y0238453D01*
X0346000Y0236054D02*
X0389501Y0236054D01*
X0389501Y0233656D02*
X0346000Y0233656D01*
X0346000Y0231257D02*
X0389501Y0231257D01*
X0389501Y0229501D02*
X0381000Y0221000D01*
X0351000Y0221000D01*
X0346000Y0226000D01*
X0346000Y0256000D01*
X0361000Y0271000D01*
X0361000Y0301000D01*
X0366000Y0306000D01*
X0383500Y0306000D01*
X0389501Y0299999D01*
X0389501Y0229501D01*
X0388859Y0228859D02*
X0346000Y0228859D01*
X0346000Y0226460D02*
X0386460Y0226460D01*
X0384062Y0224062D02*
X0347938Y0224062D01*
X0350337Y0221663D02*
X0381663Y0221663D01*
X0389501Y0252844D02*
X0346000Y0252844D01*
X0346000Y0255242D02*
X0389501Y0255242D01*
X0389501Y0257641D02*
X0347641Y0257641D01*
X0350039Y0260039D02*
X0389501Y0260039D01*
X0389501Y0262438D02*
X0352438Y0262438D01*
X0354836Y0264836D02*
X0389501Y0264836D01*
X0389501Y0267235D02*
X0357235Y0267235D01*
X0359633Y0269633D02*
X0389501Y0269633D01*
X0389501Y0272032D02*
X0361000Y0272032D01*
X0361000Y0274430D02*
X0389501Y0274430D01*
X0389501Y0276829D02*
X0361000Y0276829D01*
X0361000Y0279227D02*
X0389501Y0279227D01*
X0389501Y0281626D02*
X0361000Y0281626D01*
X0361000Y0284024D02*
X0389501Y0284024D01*
X0389501Y0286423D02*
X0361000Y0286423D01*
X0361000Y0288821D02*
X0389501Y0288821D01*
X0389501Y0291220D02*
X0361000Y0291220D01*
X0361000Y0293618D02*
X0389501Y0293618D01*
X0389501Y0296017D02*
X0361000Y0296017D01*
X0361000Y0298415D02*
X0389501Y0298415D01*
X0388686Y0300814D02*
X0361000Y0300814D01*
X0363212Y0303212D02*
X0386288Y0303212D01*
X0383889Y0305611D02*
X0365611Y0305611D01*
X0191000Y0138500D02*
X0191000Y0111000D01*
X0026000Y0162250D02*
X0017250Y0162250D01*
X0008500Y0153500D01*
X0008500Y0113500D01*
X0018500Y0113500D01*
X0008500Y0113500D02*
X0008500Y0076000D01*
X0013500Y0071000D01*
X0018500Y0071000D01*
X0371512Y0063500D02*
X0372200Y0064188D01*
X0372200Y0075900D01*
X0371512Y0063500D02*
X0372250Y0062762D01*
X0372250Y0048500D01*
D33*
X0372250Y0048500D03*
X0351000Y0063500D03*
X0361000Y0093500D03*
X0378500Y0093500D03*
X0363500Y0116000D03*
X0376000Y0123500D03*
X0351000Y0133500D03*
X0343500Y0123500D03*
X0298500Y0091000D03*
X0281000Y0091000D03*
X0248500Y0083500D03*
X0236000Y0103500D03*
X0221000Y0103500D03*
X0206000Y0103500D03*
X0198500Y0113500D03*
X0191000Y0111000D03*
X0183500Y0103500D03*
X0178500Y0098500D03*
X0193500Y0083500D03*
X0203500Y0061000D03*
X0211000Y0056000D03*
X0181000Y0058500D03*
X0148500Y0053500D03*
X0138500Y0053500D03*
X0148500Y0063500D03*
X0113500Y0056000D03*
X0103500Y0063500D03*
X0093500Y0086000D03*
X0078500Y0096000D03*
X0078500Y0103500D03*
X0061000Y0108500D03*
X0066000Y0118500D03*
X0078500Y0131000D03*
X0088500Y0141000D03*
X0094750Y0133500D03*
X0101000Y0141000D03*
X0111000Y0131000D03*
X0118500Y0138500D03*
X0101000Y0126000D03*
X0099750Y0117250D03*
X0096000Y0108500D03*
X0106000Y0108500D03*
X0111000Y0113500D03*
X0116000Y0111000D03*
X0121000Y0113500D03*
X0138500Y0132250D03*
X0138500Y0146000D03*
X0167250Y0138500D03*
X0173500Y0131000D03*
X0191000Y0138500D03*
X0213500Y0126000D03*
X0251000Y0126000D03*
X0256000Y0121000D03*
X0258500Y0131000D03*
X0313500Y0161000D03*
X0333500Y0196000D03*
X0351000Y0226000D03*
X0366000Y0234750D03*
X0381000Y0226000D03*
X0366000Y0252250D03*
X0353500Y0257250D03*
X0367250Y0264750D03*
X0366000Y0277250D03*
X0381000Y0271000D03*
X0381000Y0258500D03*
X0381000Y0301000D03*
X0366000Y0301000D03*
X0332250Y0297250D03*
X0318500Y0293500D03*
X0318500Y0286000D03*
X0318500Y0278500D03*
X0331000Y0277250D03*
X0306000Y0276000D03*
X0301000Y0297250D03*
X0268500Y0276000D03*
X0258500Y0272250D03*
X0258500Y0262250D03*
X0246000Y0262250D03*
X0246000Y0247250D03*
X0257250Y0247250D03*
X0247250Y0234750D03*
X0231000Y0218500D03*
X0196000Y0211000D03*
X0146000Y0196000D03*
X0071000Y0196000D03*
X0071000Y0216000D03*
X0041000Y0246000D03*
X0026000Y0251000D03*
X0011000Y0227250D03*
X0013500Y0191000D03*
X0039750Y0169750D03*
X0026000Y0162250D03*
X0056000Y0166000D03*
X0061000Y0171000D03*
X0066000Y0163500D03*
X0146000Y0096000D03*
X0156000Y0098500D03*
X0078500Y0071000D03*
X0056000Y0061000D03*
X0046000Y0043500D03*
X0046000Y0026000D03*
X0066000Y0026000D03*
X0051000Y0091000D03*
X0086000Y0271000D03*
X0096000Y0281000D03*
X0111000Y0271000D03*
X0246000Y0276000D03*
X0246000Y0288500D03*
X0281000Y0251000D03*
X0302250Y0247250D03*
X0302250Y0234750D03*
X0282250Y0231000D03*
X0323500Y0233500D03*
X0323500Y0251000D03*
X0358500Y0161000D03*
X0286000Y0051000D03*
D34*
X0285810Y0050810D01*
X0285810Y0045488D01*
X0296000Y0045488D01*
X0301000Y0038500D02*
X0266000Y0038500D01*
X0236000Y0068500D01*
X0203500Y0068500D01*
X0186000Y0051000D01*
X0174012Y0051000D01*
X0181000Y0058500D02*
X0186000Y0058500D01*
X0206000Y0078500D01*
X0211000Y0078500D01*
X0211000Y0080488D01*
X0212988Y0078500D01*
X0213500Y0079012D01*
X0213500Y0083500D01*
X0221000Y0091000D01*
X0221000Y0103500D01*
X0213500Y0096000D02*
X0181000Y0063500D01*
X0148500Y0063500D01*
X0135124Y0063500D01*
X0134524Y0064100D01*
X0131374Y0064100D02*
X0131374Y0060626D01*
X0133500Y0058500D01*
X0181000Y0058500D01*
X0176000Y0071000D02*
X0175488Y0071000D01*
X0173500Y0072988D01*
X0170488Y0069976D01*
X0140400Y0069976D01*
X0140400Y0073126D02*
X0151138Y0073126D01*
X0156000Y0077988D01*
X0162988Y0077988D01*
X0167250Y0082250D01*
X0167250Y0138500D01*
X0173500Y0131000D02*
X0173500Y0084012D01*
X0183500Y0078500D02*
X0176000Y0071000D01*
X0183500Y0078500D02*
X0183500Y0103500D01*
X0183500Y0181000D01*
X0183500Y0188500D01*
X0186000Y0191000D01*
X0191945Y0191000D01*
X0191945Y0186000D02*
X0198500Y0186000D01*
X0213500Y0171000D01*
X0213500Y0126000D01*
X0213500Y0096000D01*
X0206000Y0103500D02*
X0209750Y0107250D01*
X0209750Y0167250D01*
X0201000Y0176000D01*
X0191945Y0176000D01*
X0191945Y0181000D02*
X0183500Y0181000D01*
X0178500Y0173500D02*
X0178500Y0098500D01*
X0193500Y0101000D02*
X0193500Y0083500D01*
X0193500Y0101000D02*
X0206000Y0113500D01*
X0206000Y0163500D01*
X0198500Y0171000D01*
X0191945Y0171000D01*
X0191945Y0166000D02*
X0198500Y0166000D01*
X0201000Y0163500D01*
X0201000Y0161000D01*
X0191945Y0161000D01*
X0191945Y0156000D02*
X0201000Y0156000D01*
X0201000Y0161000D01*
X0201000Y0156000D02*
X0201000Y0151000D01*
X0201000Y0146000D01*
X0201000Y0116000D01*
X0198500Y0113500D01*
X0226000Y0127250D02*
X0238500Y0127250D01*
X0238500Y0121500D01*
X0238500Y0127250D02*
X0238500Y0133000D01*
X0239000Y0138500D02*
X0238500Y0139000D01*
X0239000Y0138500D02*
X0243500Y0138500D01*
X0245300Y0140300D01*
X0279400Y0140300D01*
X0281900Y0140300D02*
X0281900Y0147600D01*
X0278500Y0151000D01*
X0238500Y0151000D01*
X0248500Y0156000D02*
X0278500Y0156000D01*
X0284500Y0150000D01*
X0284500Y0140300D01*
X0287000Y0140300D02*
X0287000Y0152500D01*
X0278500Y0161000D01*
X0253500Y0161000D01*
X0238500Y0176000D01*
X0231000Y0176000D01*
X0226000Y0181000D01*
X0226000Y0185488D01*
X0225488Y0186000D01*
X0225488Y0196000D01*
X0211000Y0196000D01*
X0196000Y0211000D01*
X0211000Y0208500D02*
X0188500Y0231000D01*
X0166512Y0231000D01*
X0166000Y0231512D01*
X0121512Y0261000D02*
X0121000Y0261512D01*
X0096512Y0246000D02*
X0096000Y0245488D01*
X0086000Y0245488D02*
X0085488Y0246000D01*
X0083500Y0238500D02*
X0078500Y0238500D01*
X0073500Y0233500D01*
X0073500Y0221000D01*
X0083500Y0221000D01*
X0083500Y0238500D01*
X0083500Y0224500D01*
X0083500Y0224792D02*
X0073500Y0224792D01*
X0073500Y0226390D02*
X0083500Y0226390D01*
X0083500Y0227989D02*
X0073500Y0227989D01*
X0073500Y0229587D02*
X0083500Y0229587D01*
X0083500Y0231186D02*
X0073500Y0231186D01*
X0073500Y0232784D02*
X0083500Y0232784D01*
X0083500Y0234383D02*
X0074383Y0234383D01*
X0075981Y0235981D02*
X0083500Y0235981D01*
X0083500Y0237580D02*
X0077580Y0237580D01*
X0068500Y0233500D02*
X0068500Y0261000D01*
X0078500Y0271000D01*
X0078500Y0293500D01*
X0073500Y0298500D01*
X0068500Y0293500D02*
X0068500Y0276000D01*
X0058500Y0266000D01*
X0058500Y0241000D01*
X0048500Y0231000D01*
X0048500Y0216236D01*
X0053500Y0216236D02*
X0053500Y0226000D01*
X0063500Y0236000D01*
X0063500Y0263500D01*
X0073500Y0273500D01*
X0073500Y0288500D01*
X0068500Y0293500D02*
X0063500Y0298500D01*
X0058500Y0293500D02*
X0058500Y0281000D01*
X0048500Y0271000D01*
X0048500Y0266000D01*
X0047988Y0266512D01*
X0041000Y0266512D01*
X0048500Y0266000D02*
X0048500Y0246000D01*
X0038500Y0236000D01*
X0038500Y0216236D01*
X0033500Y0216236D02*
X0033500Y0268500D01*
X0030488Y0271512D01*
X0026000Y0271512D01*
X0026000Y0278500D01*
X0036000Y0288500D01*
X0053500Y0288500D01*
X0058500Y0293500D02*
X0053500Y0298500D01*
X0063500Y0288500D02*
X0063500Y0278500D01*
X0053500Y0268500D01*
X0053500Y0243500D01*
X0043500Y0233500D01*
X0043500Y0216236D01*
X0028500Y0216236D02*
X0028500Y0223500D01*
X0026000Y0226000D01*
X0026000Y0230488D01*
X0014238Y0230488D01*
X0011000Y0227250D01*
X0026000Y0241512D02*
X0026000Y0251000D01*
X0026000Y0260488D01*
X0041000Y0255488D02*
X0041000Y0246000D01*
X0058500Y0223500D02*
X0068500Y0233500D01*
X0073500Y0223193D02*
X0083500Y0223193D01*
X0083500Y0221595D02*
X0073500Y0221595D01*
X0071000Y0216000D02*
X0063736Y0216000D01*
X0063500Y0216236D01*
X0058500Y0216236D02*
X0058500Y0223500D01*
X0058500Y0195764D02*
X0058500Y0191000D01*
X0071000Y0178500D01*
X0071000Y0138500D01*
X0078500Y0131000D01*
X0076000Y0126000D02*
X0053500Y0148500D01*
X0051000Y0148500D01*
X0051000Y0166000D01*
X0038500Y0178500D01*
X0038500Y0195764D01*
X0033500Y0195764D02*
X0033500Y0142250D01*
X0026738Y0142250D01*
X0026000Y0142988D01*
X0026512Y0141000D01*
X0028500Y0141000D01*
X0033500Y0142250D02*
X0054750Y0142250D01*
X0068500Y0128500D01*
X0063500Y0123500D01*
X0048500Y0123500D01*
X0048500Y0113500D02*
X0071000Y0113500D01*
X0074750Y0117250D01*
X0099750Y0117250D01*
X0098500Y0108500D02*
X0096000Y0108500D01*
X0068500Y0108500D01*
X0051000Y0091000D01*
X0028500Y0091000D01*
X0028500Y0113500D01*
X0033500Y0118500D02*
X0066000Y0118500D01*
X0074750Y0122250D02*
X0068500Y0128500D01*
X0076000Y0126000D02*
X0101000Y0126000D01*
X0128500Y0126000D01*
X0133500Y0121000D01*
X0133500Y0107250D01*
X0128224Y0101974D01*
X0128224Y0097900D01*
X0125075Y0097900D02*
X0125075Y0102575D01*
X0129750Y0107250D01*
X0129750Y0118500D01*
X0126000Y0122250D01*
X0074750Y0122250D01*
X0061000Y0108500D02*
X0056000Y0103500D01*
X0043500Y0103500D01*
X0038500Y0108500D01*
X0038500Y0113500D01*
X0033500Y0118500D02*
X0028500Y0123500D01*
X0042988Y0148500D02*
X0041000Y0150488D01*
X0042988Y0148500D02*
X0051000Y0148500D01*
X0041000Y0161512D02*
X0041000Y0168500D01*
X0039750Y0169750D01*
X0043500Y0178500D02*
X0056000Y0166000D01*
X0061000Y0171000D02*
X0048500Y0183500D01*
X0048500Y0195764D01*
X0053500Y0195764D02*
X0053500Y0188500D01*
X0066000Y0176000D01*
X0066000Y0163500D01*
X0077111Y0173639D02*
X0083500Y0173639D01*
X0083500Y0173500D02*
X0083500Y0191000D01*
X0074750Y0191000D01*
X0074750Y0176000D01*
X0077250Y0173500D01*
X0083500Y0173500D01*
X0083500Y0175238D02*
X0075512Y0175238D01*
X0074750Y0176836D02*
X0083500Y0176836D01*
X0083500Y0178435D02*
X0074750Y0178435D01*
X0074750Y0180033D02*
X0083500Y0180033D01*
X0083500Y0181632D02*
X0074750Y0181632D01*
X0074750Y0183230D02*
X0083500Y0183230D01*
X0083500Y0184829D02*
X0074750Y0184829D01*
X0074750Y0186427D02*
X0083500Y0186427D01*
X0083500Y0188026D02*
X0074750Y0188026D01*
X0074750Y0189624D02*
X0083500Y0189624D01*
X0071000Y0196000D02*
X0070764Y0195764D01*
X0063500Y0195764D01*
X0043500Y0195764D02*
X0043500Y0178500D01*
X0028500Y0188500D02*
X0026000Y0186000D01*
X0026000Y0181512D01*
X0017988Y0181512D01*
X0013500Y0186000D01*
X0013500Y0191000D01*
X0028500Y0188500D02*
X0028500Y0195764D01*
X0026000Y0170488D02*
X0026000Y0162250D01*
X0026000Y0154012D01*
X0071000Y0103500D02*
X0078500Y0103500D01*
X0078500Y0096000D02*
X0068500Y0096000D01*
X0043500Y0071000D01*
X0028500Y0071000D01*
X0028500Y0081000D02*
X0048500Y0081000D01*
X0071000Y0103500D01*
X0093500Y0086000D02*
X0096374Y0088874D01*
X0106600Y0088874D01*
X0106600Y0085724D02*
X0111276Y0085724D01*
X0113500Y0083500D01*
X0113500Y0079425D01*
X0121925Y0079425D01*
X0125075Y0082575D01*
X0140400Y0082575D01*
X0145075Y0082575D01*
X0151000Y0088500D01*
X0155488Y0088500D01*
X0156000Y0089012D01*
X0156000Y0098500D01*
X0146000Y0096000D02*
X0138500Y0103500D01*
X0138500Y0132250D01*
X0138500Y0146000D01*
X0146000Y0146000D01*
X0155055Y0146000D01*
X0148500Y0146000D01*
X0146000Y0146000D02*
X0146000Y0151000D01*
X0155055Y0151000D01*
X0155055Y0156000D02*
X0146000Y0156000D01*
X0146000Y0158500D01*
X0148500Y0161000D01*
X0155055Y0161000D01*
X0161000Y0161000D01*
X0166000Y0166000D01*
X0166000Y0181000D01*
X0161000Y0186000D01*
X0155055Y0186000D01*
X0144012Y0186000D01*
X0144012Y0194012D01*
X0146000Y0196000D01*
X0155055Y0191000D02*
X0161000Y0191000D01*
X0178500Y0173500D01*
X0155055Y0171000D02*
X0146000Y0171000D01*
X0141000Y0166000D01*
X0141000Y0159750D01*
X0138500Y0157250D01*
X0134238Y0157250D01*
X0133500Y0157988D01*
X0133500Y0143500D01*
X0121000Y0131000D01*
X0111000Y0131000D01*
X0108500Y0118500D02*
X0098500Y0108500D01*
X0106000Y0108500D02*
X0106600Y0107900D01*
X0106600Y0092024D01*
X0112476Y0097900D02*
X0112476Y0104524D01*
X0111000Y0106000D01*
X0111000Y0113500D01*
X0115626Y0110626D02*
X0116000Y0111000D01*
X0115626Y0110626D02*
X0115626Y0097900D01*
X0118776Y0097900D02*
X0118776Y0106276D01*
X0121000Y0108500D01*
X0121000Y0113500D01*
X0126000Y0116000D02*
X0126000Y0108500D01*
X0121925Y0104425D01*
X0121925Y0097900D01*
X0106600Y0082575D02*
X0100075Y0082575D01*
X0098500Y0081000D01*
X0079012Y0081000D01*
X0067988Y0081000D02*
X0067988Y0072988D01*
X0056000Y0061000D01*
X0053500Y0058500D01*
X0034500Y0058500D01*
X0012500Y0058500D01*
X0012500Y0043500D02*
X0034500Y0043500D01*
X0046000Y0043500D01*
X0046000Y0026000D01*
X0057988Y0024012D02*
X0073500Y0008500D01*
X0101000Y0008500D01*
X0106000Y0013500D01*
X0106000Y0021000D01*
X0111000Y0026000D01*
X0115488Y0026000D01*
X0116000Y0026512D01*
X0135488Y0026512D01*
X0141000Y0021000D01*
X0141000Y0016000D01*
X0131000Y0016000D02*
X0130488Y0015488D01*
X0116000Y0015488D01*
X0096000Y0017988D02*
X0081000Y0017988D01*
X0074012Y0017988D01*
X0066000Y0026000D01*
X0057988Y0024012D02*
X0057988Y0056738D01*
X0072250Y0071000D01*
X0078500Y0071000D01*
X0078500Y0056000D02*
X0078500Y0044000D01*
X0079000Y0043500D01*
X0079000Y0038000D01*
X0081000Y0036000D01*
X0081000Y0029012D01*
X0096000Y0029012D02*
X0096000Y0036000D01*
X0098000Y0038000D01*
X0098000Y0043500D01*
X0098500Y0044000D01*
X0098500Y0066000D01*
X0102476Y0069976D01*
X0106600Y0069976D01*
X0106600Y0073126D02*
X0095626Y0073126D01*
X0078500Y0056000D01*
X0103500Y0063500D02*
X0111876Y0063500D01*
X0112476Y0064100D01*
X0115626Y0064100D02*
X0115626Y0058126D01*
X0113500Y0056000D01*
X0118776Y0055724D02*
X0131000Y0043500D01*
X0148500Y0043500D01*
X0156000Y0051000D01*
X0162988Y0051000D01*
X0148500Y0053500D02*
X0143500Y0048500D01*
X0131000Y0048500D01*
X0121925Y0057575D01*
X0121925Y0064100D01*
X0118776Y0064100D02*
X0118776Y0055724D01*
X0128224Y0058776D02*
X0133500Y0053500D01*
X0138500Y0053500D01*
X0128224Y0058776D02*
X0128224Y0064100D01*
X0131374Y0073126D02*
X0140400Y0073126D01*
X0131374Y0073126D02*
X0128224Y0076276D01*
X0106600Y0076276D01*
X0100724Y0076276D01*
X0098500Y0078500D01*
X0098500Y0081000D01*
X0106600Y0079425D02*
X0113500Y0079425D01*
X0153638Y0075626D02*
X0156000Y0077988D01*
X0181000Y0038500D02*
X0203500Y0061000D01*
X0223500Y0061000D01*
X0241000Y0043500D01*
X0241000Y0027000D01*
X0242000Y0026000D01*
X0211000Y0026000D02*
X0211000Y0056000D01*
X0224012Y0078500D02*
X0266000Y0078500D01*
X0278500Y0091000D01*
X0281000Y0091000D01*
X0287000Y0086500D02*
X0276500Y0076000D01*
X0276500Y0057012D01*
X0276000Y0056512D01*
X0276000Y0045488D02*
X0285810Y0045488D01*
X0296000Y0056512D02*
X0295500Y0057012D01*
X0295500Y0076000D01*
X0289600Y0081900D01*
X0289600Y0111700D01*
X0292200Y0111700D02*
X0292200Y0087300D01*
X0306000Y0073500D01*
X0306000Y0043500D01*
X0301000Y0038500D01*
X0351000Y0063500D02*
X0360488Y0063500D01*
X0371000Y0064012D02*
X0371512Y0063500D01*
X0364800Y0075900D02*
X0356100Y0075900D01*
X0348500Y0083500D01*
X0348500Y0095488D01*
X0349012Y0106000D02*
X0348500Y0106512D01*
X0349012Y0106000D02*
X0362988Y0106000D01*
X0362988Y0115488D01*
X0363500Y0116000D01*
X0362988Y0106000D02*
X0363500Y0105488D01*
X0363500Y0098500D01*
X0368500Y0093500D01*
X0368500Y0086100D01*
X0364800Y0086100D02*
X0364800Y0089700D01*
X0361000Y0093500D01*
X0372200Y0093500D02*
X0372200Y0086100D01*
X0372200Y0093500D02*
X0378500Y0093500D01*
X0372200Y0093500D02*
X0372200Y0097200D01*
X0373500Y0098500D01*
X0373500Y0105488D01*
X0374012Y0106000D01*
X0374750Y0106738D01*
X0374750Y0113500D01*
X0376000Y0114750D01*
X0376000Y0123500D01*
X0376000Y0137988D01*
X0376512Y0138500D01*
X0376512Y0148500D01*
X0376100Y0148912D01*
X0376100Y0164800D01*
X0365900Y0164800D01*
X0365900Y0168500D02*
X0361000Y0168500D01*
X0358500Y0166000D01*
X0358500Y0161000D01*
X0348500Y0161000D02*
X0343500Y0156000D01*
X0343500Y0123500D01*
X0331000Y0118500D02*
X0324200Y0111700D01*
X0312600Y0111700D01*
X0310100Y0111700D02*
X0310100Y0106900D01*
X0313500Y0103500D01*
X0326000Y0103500D01*
X0331000Y0108500D01*
X0331000Y0098500D02*
X0313500Y0098500D01*
X0307500Y0104500D01*
X0307500Y0111700D01*
X0305000Y0111700D02*
X0305000Y0102000D01*
X0318500Y0088500D01*
X0331000Y0088500D01*
X0299800Y0092300D02*
X0299800Y0111700D01*
X0297300Y0111700D02*
X0297300Y0119700D01*
X0291000Y0126000D01*
X0251000Y0126000D01*
X0256000Y0121000D02*
X0291000Y0121000D01*
X0294700Y0117300D01*
X0294700Y0111700D01*
X0302400Y0111700D02*
X0302400Y0119600D01*
X0291000Y0131000D01*
X0258500Y0131000D01*
X0246500Y0115500D02*
X0238500Y0115500D01*
X0246500Y0115500D02*
X0251000Y0111000D01*
X0278700Y0111000D01*
X0279400Y0111700D01*
X0281900Y0111700D02*
X0281900Y0106900D01*
X0278500Y0103500D01*
X0261512Y0103500D01*
X0261000Y0104012D01*
X0248500Y0104012D01*
X0247988Y0103500D01*
X0236000Y0103500D01*
X0248500Y0092988D02*
X0248500Y0083500D01*
X0248500Y0092988D02*
X0249012Y0093500D01*
X0251000Y0093500D01*
X0251512Y0092988D01*
X0261000Y0092988D01*
X0261512Y0093500D01*
X0273500Y0093500D01*
X0284500Y0104500D01*
X0284500Y0111700D01*
X0287000Y0111700D02*
X0287000Y0086500D01*
X0298500Y0091000D02*
X0299800Y0092300D01*
X0351000Y0133500D02*
X0356000Y0138500D01*
X0365488Y0138500D01*
X0365488Y0148500D01*
X0356000Y0148500D01*
X0353500Y0151000D01*
X0353500Y0168500D01*
X0357200Y0172200D01*
X0365900Y0172200D01*
X0365900Y0185588D01*
X0365488Y0186000D01*
X0365488Y0194012D01*
X0358500Y0201000D01*
X0321512Y0201000D01*
X0316512Y0196000D01*
X0316512Y0186000D01*
X0316512Y0176000D01*
X0316000Y0175488D01*
X0316000Y0163500D01*
X0307500Y0155000D01*
X0307500Y0140300D01*
X0305000Y0140300D02*
X0305000Y0168500D01*
X0301000Y0168500D01*
X0296000Y0173500D01*
X0296000Y0201000D01*
X0306000Y0211000D01*
X0368500Y0211000D01*
X0383500Y0196000D01*
X0383500Y0171000D01*
X0381000Y0168500D01*
X0376000Y0168500D01*
X0376100Y0172200D02*
X0376100Y0185588D01*
X0376512Y0186000D01*
X0376512Y0192988D01*
X0363500Y0206000D01*
X0311000Y0206000D01*
X0306000Y0201000D01*
X0306000Y0196512D01*
X0305488Y0196000D01*
X0305488Y0186000D01*
X0305488Y0176000D01*
X0305000Y0175512D01*
X0305000Y0168500D01*
X0299800Y0164700D02*
X0283500Y0181000D01*
X0283500Y0185488D01*
X0284012Y0186000D01*
X0284012Y0196000D01*
X0283500Y0196512D01*
X0283500Y0201000D01*
X0275587Y0208913D01*
X0275587Y0217535D01*
X0261413Y0217535D02*
X0261413Y0210587D01*
X0273500Y0198500D01*
X0273500Y0196512D01*
X0272988Y0196000D01*
X0272988Y0186000D01*
X0273500Y0185488D01*
X0273500Y0181000D01*
X0276000Y0178500D01*
X0281000Y0178500D01*
X0297300Y0162200D01*
X0297300Y0140300D01*
X0299800Y0140300D02*
X0299800Y0164700D01*
X0294700Y0159800D02*
X0278500Y0176000D01*
X0268500Y0176000D01*
X0261000Y0183500D01*
X0261000Y0185488D01*
X0261512Y0186000D01*
X0261512Y0196000D01*
X0261000Y0196512D01*
X0261000Y0198500D01*
X0227988Y0231512D01*
X0213500Y0231512D01*
X0213500Y0220488D02*
X0215488Y0218500D01*
X0211000Y0208500D02*
X0231000Y0208500D01*
X0236512Y0202988D01*
X0236512Y0196000D01*
X0236512Y0186000D01*
X0256512Y0166000D01*
X0278500Y0166000D01*
X0289600Y0154900D01*
X0289600Y0140300D01*
X0292200Y0140300D02*
X0292200Y0157300D01*
X0278500Y0171000D01*
X0261000Y0171000D01*
X0251000Y0181000D01*
X0251000Y0185488D01*
X0250488Y0186000D01*
X0250488Y0196000D01*
X0250488Y0199012D01*
X0231000Y0218500D01*
X0238500Y0161000D02*
X0243500Y0161000D01*
X0248500Y0156000D01*
X0294700Y0159800D02*
X0294700Y0140300D01*
X0310100Y0140300D02*
X0310100Y0147600D01*
X0331000Y0168500D01*
X0331000Y0172988D01*
X0330488Y0173500D01*
X0330488Y0186000D01*
X0330488Y0192988D01*
X0333500Y0196000D01*
X0341512Y0186000D02*
X0346000Y0186000D01*
X0348500Y0183500D01*
X0348500Y0161000D01*
X0341000Y0161000D02*
X0320300Y0140300D01*
X0312600Y0140300D01*
X0341000Y0161000D02*
X0341000Y0172988D01*
X0341512Y0173500D01*
X0341512Y0186000D01*
X0211000Y0081000D02*
X0211000Y0080488D01*
X0181000Y0038500D02*
X0181000Y0031000D01*
X0126000Y0116000D02*
X0123500Y0118500D01*
X0108500Y0118500D01*
X0146000Y0151000D02*
X0146000Y0156000D01*
X0133500Y0169012D02*
X0133500Y0176000D01*
X0155055Y0176000D01*
X0133500Y0176000D02*
X0133500Y0185488D01*
X0132988Y0186000D01*
X0118500Y0187500D02*
X0118500Y0193500D01*
X0116000Y0196000D01*
X0106000Y0196000D01*
X0103500Y0193500D01*
X0103500Y0187500D01*
X0108500Y0188026D02*
X0113500Y0188026D01*
X0113500Y0189624D02*
X0108500Y0189624D01*
X0108500Y0191000D02*
X0113500Y0191000D01*
X0113500Y0176000D01*
X0108500Y0171000D01*
X0108500Y0191000D01*
X0108500Y0186427D02*
X0113500Y0186427D01*
X0113500Y0184829D02*
X0108500Y0184829D01*
X0108500Y0183230D02*
X0113500Y0183230D01*
X0113500Y0181632D02*
X0108500Y0181632D01*
X0108500Y0180033D02*
X0113500Y0180033D01*
X0113500Y0178435D02*
X0108500Y0178435D01*
X0108500Y0176836D02*
X0113500Y0176836D01*
X0112738Y0175238D02*
X0108500Y0175238D01*
X0108500Y0173639D02*
X0111139Y0173639D01*
X0109541Y0172041D02*
X0108500Y0172041D01*
X0116000Y0216000D02*
X0096000Y0216000D01*
X0093500Y0218500D01*
X0093500Y0224500D01*
X0108500Y0224792D02*
X0113500Y0224792D01*
X0113500Y0224500D02*
X0113500Y0231000D01*
X0110488Y0234012D01*
X0108500Y0234383D02*
X0113500Y0234383D01*
X0113500Y0235981D02*
X0108500Y0235981D01*
X0108500Y0237580D02*
X0113500Y0237580D01*
X0113500Y0238500D02*
X0108500Y0238500D01*
X0108500Y0221000D01*
X0113500Y0221000D01*
X0113500Y0238500D01*
X0113500Y0232784D02*
X0108500Y0232784D01*
X0108500Y0231186D02*
X0113500Y0231186D01*
X0113500Y0229587D02*
X0108500Y0229587D01*
X0108500Y0227989D02*
X0113500Y0227989D01*
X0113500Y0226390D02*
X0108500Y0226390D01*
X0108500Y0223193D02*
X0113500Y0223193D01*
X0113500Y0221595D02*
X0108500Y0221595D01*
X0116000Y0216000D02*
X0118500Y0218500D01*
X0118500Y0221000D01*
X0118500Y0224500D01*
X0191945Y0151000D02*
X0201000Y0151000D01*
X0201000Y0146000D02*
X0191945Y0146000D01*
D35*
X0302400Y0140300D02*
X0302400Y0134600D01*
X0303500Y0133500D01*
X0308500Y0133500D01*
X0310100Y0135100D01*
X0310100Y0140300D01*
M02*
