G75*
%MOIN*%
%OFA0B0*%
%FSLAX25Y25*%
%IPPOS*%
%LPD*%
%AMOC8*
5,1,8,0,0,1.08239X$1,22.5*
%
%ADD10C,0.00000*%
%ADD11C,0.00600*%
%ADD12C,0.00400*%
%ADD13C,0.00300*%
%ADD14C,0.00500*%
%ADD15C,0.00800*%
%ADD16C,0.00200*%
%ADD17C,0.00700*%
%ADD18R,0.02500X0.04500*%
%ADD19R,0.17500X0.02000*%
%ADD20R,0.32000X0.02000*%
%ADD21R,0.12500X0.00500*%
%ADD22R,0.16000X0.02000*%
%ADD23C,0.01600*%
%ADD24C,0.01000*%
D10*
X0001000Y0001000D02*
X0001000Y0315961D01*
X0394701Y0315961D01*
X0394701Y0001000D01*
X0001000Y0001000D01*
X0012811Y0020685D02*
X0012813Y0020878D01*
X0012820Y0021071D01*
X0012832Y0021264D01*
X0012849Y0021457D01*
X0012870Y0021649D01*
X0012896Y0021840D01*
X0012927Y0022031D01*
X0012962Y0022221D01*
X0013002Y0022410D01*
X0013047Y0022598D01*
X0013096Y0022785D01*
X0013150Y0022971D01*
X0013208Y0023155D01*
X0013271Y0023338D01*
X0013339Y0023519D01*
X0013410Y0023698D01*
X0013487Y0023876D01*
X0013567Y0024052D01*
X0013652Y0024225D01*
X0013741Y0024397D01*
X0013834Y0024566D01*
X0013931Y0024733D01*
X0014033Y0024898D01*
X0014138Y0025060D01*
X0014247Y0025219D01*
X0014361Y0025376D01*
X0014478Y0025529D01*
X0014598Y0025680D01*
X0014723Y0025828D01*
X0014851Y0025973D01*
X0014982Y0026114D01*
X0015117Y0026253D01*
X0015256Y0026388D01*
X0015397Y0026519D01*
X0015542Y0026647D01*
X0015690Y0026772D01*
X0015841Y0026892D01*
X0015994Y0027009D01*
X0016151Y0027123D01*
X0016310Y0027232D01*
X0016472Y0027337D01*
X0016637Y0027439D01*
X0016804Y0027536D01*
X0016973Y0027629D01*
X0017145Y0027718D01*
X0017318Y0027803D01*
X0017494Y0027883D01*
X0017672Y0027960D01*
X0017851Y0028031D01*
X0018032Y0028099D01*
X0018215Y0028162D01*
X0018399Y0028220D01*
X0018585Y0028274D01*
X0018772Y0028323D01*
X0018960Y0028368D01*
X0019149Y0028408D01*
X0019339Y0028443D01*
X0019530Y0028474D01*
X0019721Y0028500D01*
X0019913Y0028521D01*
X0020106Y0028538D01*
X0020299Y0028550D01*
X0020492Y0028557D01*
X0020685Y0028559D01*
X0020878Y0028557D01*
X0021071Y0028550D01*
X0021264Y0028538D01*
X0021457Y0028521D01*
X0021649Y0028500D01*
X0021840Y0028474D01*
X0022031Y0028443D01*
X0022221Y0028408D01*
X0022410Y0028368D01*
X0022598Y0028323D01*
X0022785Y0028274D01*
X0022971Y0028220D01*
X0023155Y0028162D01*
X0023338Y0028099D01*
X0023519Y0028031D01*
X0023698Y0027960D01*
X0023876Y0027883D01*
X0024052Y0027803D01*
X0024225Y0027718D01*
X0024397Y0027629D01*
X0024566Y0027536D01*
X0024733Y0027439D01*
X0024898Y0027337D01*
X0025060Y0027232D01*
X0025219Y0027123D01*
X0025376Y0027009D01*
X0025529Y0026892D01*
X0025680Y0026772D01*
X0025828Y0026647D01*
X0025973Y0026519D01*
X0026114Y0026388D01*
X0026253Y0026253D01*
X0026388Y0026114D01*
X0026519Y0025973D01*
X0026647Y0025828D01*
X0026772Y0025680D01*
X0026892Y0025529D01*
X0027009Y0025376D01*
X0027123Y0025219D01*
X0027232Y0025060D01*
X0027337Y0024898D01*
X0027439Y0024733D01*
X0027536Y0024566D01*
X0027629Y0024397D01*
X0027718Y0024225D01*
X0027803Y0024052D01*
X0027883Y0023876D01*
X0027960Y0023698D01*
X0028031Y0023519D01*
X0028099Y0023338D01*
X0028162Y0023155D01*
X0028220Y0022971D01*
X0028274Y0022785D01*
X0028323Y0022598D01*
X0028368Y0022410D01*
X0028408Y0022221D01*
X0028443Y0022031D01*
X0028474Y0021840D01*
X0028500Y0021649D01*
X0028521Y0021457D01*
X0028538Y0021264D01*
X0028550Y0021071D01*
X0028557Y0020878D01*
X0028559Y0020685D01*
X0028557Y0020492D01*
X0028550Y0020299D01*
X0028538Y0020106D01*
X0028521Y0019913D01*
X0028500Y0019721D01*
X0028474Y0019530D01*
X0028443Y0019339D01*
X0028408Y0019149D01*
X0028368Y0018960D01*
X0028323Y0018772D01*
X0028274Y0018585D01*
X0028220Y0018399D01*
X0028162Y0018215D01*
X0028099Y0018032D01*
X0028031Y0017851D01*
X0027960Y0017672D01*
X0027883Y0017494D01*
X0027803Y0017318D01*
X0027718Y0017145D01*
X0027629Y0016973D01*
X0027536Y0016804D01*
X0027439Y0016637D01*
X0027337Y0016472D01*
X0027232Y0016310D01*
X0027123Y0016151D01*
X0027009Y0015994D01*
X0026892Y0015841D01*
X0026772Y0015690D01*
X0026647Y0015542D01*
X0026519Y0015397D01*
X0026388Y0015256D01*
X0026253Y0015117D01*
X0026114Y0014982D01*
X0025973Y0014851D01*
X0025828Y0014723D01*
X0025680Y0014598D01*
X0025529Y0014478D01*
X0025376Y0014361D01*
X0025219Y0014247D01*
X0025060Y0014138D01*
X0024898Y0014033D01*
X0024733Y0013931D01*
X0024566Y0013834D01*
X0024397Y0013741D01*
X0024225Y0013652D01*
X0024052Y0013567D01*
X0023876Y0013487D01*
X0023698Y0013410D01*
X0023519Y0013339D01*
X0023338Y0013271D01*
X0023155Y0013208D01*
X0022971Y0013150D01*
X0022785Y0013096D01*
X0022598Y0013047D01*
X0022410Y0013002D01*
X0022221Y0012962D01*
X0022031Y0012927D01*
X0021840Y0012896D01*
X0021649Y0012870D01*
X0021457Y0012849D01*
X0021264Y0012832D01*
X0021071Y0012820D01*
X0020878Y0012813D01*
X0020685Y0012811D01*
X0020492Y0012813D01*
X0020299Y0012820D01*
X0020106Y0012832D01*
X0019913Y0012849D01*
X0019721Y0012870D01*
X0019530Y0012896D01*
X0019339Y0012927D01*
X0019149Y0012962D01*
X0018960Y0013002D01*
X0018772Y0013047D01*
X0018585Y0013096D01*
X0018399Y0013150D01*
X0018215Y0013208D01*
X0018032Y0013271D01*
X0017851Y0013339D01*
X0017672Y0013410D01*
X0017494Y0013487D01*
X0017318Y0013567D01*
X0017145Y0013652D01*
X0016973Y0013741D01*
X0016804Y0013834D01*
X0016637Y0013931D01*
X0016472Y0014033D01*
X0016310Y0014138D01*
X0016151Y0014247D01*
X0015994Y0014361D01*
X0015841Y0014478D01*
X0015690Y0014598D01*
X0015542Y0014723D01*
X0015397Y0014851D01*
X0015256Y0014982D01*
X0015117Y0015117D01*
X0014982Y0015256D01*
X0014851Y0015397D01*
X0014723Y0015542D01*
X0014598Y0015690D01*
X0014478Y0015841D01*
X0014361Y0015994D01*
X0014247Y0016151D01*
X0014138Y0016310D01*
X0014033Y0016472D01*
X0013931Y0016637D01*
X0013834Y0016804D01*
X0013741Y0016973D01*
X0013652Y0017145D01*
X0013567Y0017318D01*
X0013487Y0017494D01*
X0013410Y0017672D01*
X0013339Y0017851D01*
X0013271Y0018032D01*
X0013208Y0018215D01*
X0013150Y0018399D01*
X0013096Y0018585D01*
X0013047Y0018772D01*
X0013002Y0018960D01*
X0012962Y0019149D01*
X0012927Y0019339D01*
X0012896Y0019530D01*
X0012870Y0019721D01*
X0012849Y0019913D01*
X0012832Y0020106D01*
X0012820Y0020299D01*
X0012813Y0020492D01*
X0012811Y0020685D01*
X0128835Y0006000D02*
X0128837Y0006093D01*
X0128843Y0006185D01*
X0128853Y0006277D01*
X0128867Y0006368D01*
X0128884Y0006459D01*
X0128906Y0006549D01*
X0128931Y0006638D01*
X0128960Y0006726D01*
X0128993Y0006812D01*
X0129030Y0006897D01*
X0129070Y0006981D01*
X0129114Y0007062D01*
X0129161Y0007142D01*
X0129211Y0007220D01*
X0129265Y0007295D01*
X0129322Y0007368D01*
X0129382Y0007438D01*
X0129445Y0007506D01*
X0129511Y0007571D01*
X0129579Y0007633D01*
X0129650Y0007693D01*
X0129724Y0007749D01*
X0129800Y0007802D01*
X0129878Y0007851D01*
X0129958Y0007898D01*
X0130040Y0007940D01*
X0130124Y0007980D01*
X0130209Y0008015D01*
X0130296Y0008047D01*
X0130384Y0008076D01*
X0130473Y0008100D01*
X0130563Y0008121D01*
X0130654Y0008137D01*
X0130746Y0008150D01*
X0130838Y0008159D01*
X0130931Y0008164D01*
X0131023Y0008165D01*
X0131116Y0008162D01*
X0131208Y0008155D01*
X0131300Y0008144D01*
X0131391Y0008129D01*
X0131482Y0008111D01*
X0131572Y0008088D01*
X0131660Y0008062D01*
X0131748Y0008032D01*
X0131834Y0007998D01*
X0131918Y0007961D01*
X0132001Y0007919D01*
X0132082Y0007875D01*
X0132162Y0007827D01*
X0132239Y0007776D01*
X0132313Y0007721D01*
X0132386Y0007663D01*
X0132456Y0007603D01*
X0132523Y0007539D01*
X0132587Y0007473D01*
X0132649Y0007403D01*
X0132707Y0007332D01*
X0132762Y0007258D01*
X0132814Y0007181D01*
X0132863Y0007102D01*
X0132909Y0007022D01*
X0132951Y0006939D01*
X0132989Y0006855D01*
X0133024Y0006769D01*
X0133055Y0006682D01*
X0133082Y0006594D01*
X0133105Y0006504D01*
X0133125Y0006414D01*
X0133141Y0006323D01*
X0133153Y0006231D01*
X0133161Y0006139D01*
X0133165Y0006046D01*
X0133165Y0005954D01*
X0133161Y0005861D01*
X0133153Y0005769D01*
X0133141Y0005677D01*
X0133125Y0005586D01*
X0133105Y0005496D01*
X0133082Y0005406D01*
X0133055Y0005318D01*
X0133024Y0005231D01*
X0132989Y0005145D01*
X0132951Y0005061D01*
X0132909Y0004978D01*
X0132863Y0004898D01*
X0132814Y0004819D01*
X0132762Y0004742D01*
X0132707Y0004668D01*
X0132649Y0004597D01*
X0132587Y0004527D01*
X0132523Y0004461D01*
X0132456Y0004397D01*
X0132386Y0004337D01*
X0132313Y0004279D01*
X0132239Y0004224D01*
X0132162Y0004173D01*
X0132083Y0004125D01*
X0132001Y0004081D01*
X0131918Y0004039D01*
X0131834Y0004002D01*
X0131748Y0003968D01*
X0131660Y0003938D01*
X0131572Y0003912D01*
X0131482Y0003889D01*
X0131391Y0003871D01*
X0131300Y0003856D01*
X0131208Y0003845D01*
X0131116Y0003838D01*
X0131023Y0003835D01*
X0130931Y0003836D01*
X0130838Y0003841D01*
X0130746Y0003850D01*
X0130654Y0003863D01*
X0130563Y0003879D01*
X0130473Y0003900D01*
X0130384Y0003924D01*
X0130296Y0003953D01*
X0130209Y0003985D01*
X0130124Y0004020D01*
X0130040Y0004060D01*
X0129958Y0004102D01*
X0129878Y0004149D01*
X0129800Y0004198D01*
X0129724Y0004251D01*
X0129650Y0004307D01*
X0129579Y0004367D01*
X0129511Y0004429D01*
X0129445Y0004494D01*
X0129382Y0004562D01*
X0129322Y0004632D01*
X0129265Y0004705D01*
X0129211Y0004780D01*
X0129161Y0004858D01*
X0129114Y0004938D01*
X0129070Y0005019D01*
X0129030Y0005103D01*
X0128993Y0005188D01*
X0128960Y0005274D01*
X0128931Y0005362D01*
X0128906Y0005451D01*
X0128884Y0005541D01*
X0128867Y0005632D01*
X0128853Y0005723D01*
X0128843Y0005815D01*
X0128837Y0005907D01*
X0128835Y0006000D01*
X0138835Y0006000D02*
X0138837Y0006093D01*
X0138843Y0006185D01*
X0138853Y0006277D01*
X0138867Y0006368D01*
X0138884Y0006459D01*
X0138906Y0006549D01*
X0138931Y0006638D01*
X0138960Y0006726D01*
X0138993Y0006812D01*
X0139030Y0006897D01*
X0139070Y0006981D01*
X0139114Y0007062D01*
X0139161Y0007142D01*
X0139211Y0007220D01*
X0139265Y0007295D01*
X0139322Y0007368D01*
X0139382Y0007438D01*
X0139445Y0007506D01*
X0139511Y0007571D01*
X0139579Y0007633D01*
X0139650Y0007693D01*
X0139724Y0007749D01*
X0139800Y0007802D01*
X0139878Y0007851D01*
X0139958Y0007898D01*
X0140040Y0007940D01*
X0140124Y0007980D01*
X0140209Y0008015D01*
X0140296Y0008047D01*
X0140384Y0008076D01*
X0140473Y0008100D01*
X0140563Y0008121D01*
X0140654Y0008137D01*
X0140746Y0008150D01*
X0140838Y0008159D01*
X0140931Y0008164D01*
X0141023Y0008165D01*
X0141116Y0008162D01*
X0141208Y0008155D01*
X0141300Y0008144D01*
X0141391Y0008129D01*
X0141482Y0008111D01*
X0141572Y0008088D01*
X0141660Y0008062D01*
X0141748Y0008032D01*
X0141834Y0007998D01*
X0141918Y0007961D01*
X0142001Y0007919D01*
X0142082Y0007875D01*
X0142162Y0007827D01*
X0142239Y0007776D01*
X0142313Y0007721D01*
X0142386Y0007663D01*
X0142456Y0007603D01*
X0142523Y0007539D01*
X0142587Y0007473D01*
X0142649Y0007403D01*
X0142707Y0007332D01*
X0142762Y0007258D01*
X0142814Y0007181D01*
X0142863Y0007102D01*
X0142909Y0007022D01*
X0142951Y0006939D01*
X0142989Y0006855D01*
X0143024Y0006769D01*
X0143055Y0006682D01*
X0143082Y0006594D01*
X0143105Y0006504D01*
X0143125Y0006414D01*
X0143141Y0006323D01*
X0143153Y0006231D01*
X0143161Y0006139D01*
X0143165Y0006046D01*
X0143165Y0005954D01*
X0143161Y0005861D01*
X0143153Y0005769D01*
X0143141Y0005677D01*
X0143125Y0005586D01*
X0143105Y0005496D01*
X0143082Y0005406D01*
X0143055Y0005318D01*
X0143024Y0005231D01*
X0142989Y0005145D01*
X0142951Y0005061D01*
X0142909Y0004978D01*
X0142863Y0004898D01*
X0142814Y0004819D01*
X0142762Y0004742D01*
X0142707Y0004668D01*
X0142649Y0004597D01*
X0142587Y0004527D01*
X0142523Y0004461D01*
X0142456Y0004397D01*
X0142386Y0004337D01*
X0142313Y0004279D01*
X0142239Y0004224D01*
X0142162Y0004173D01*
X0142083Y0004125D01*
X0142001Y0004081D01*
X0141918Y0004039D01*
X0141834Y0004002D01*
X0141748Y0003968D01*
X0141660Y0003938D01*
X0141572Y0003912D01*
X0141482Y0003889D01*
X0141391Y0003871D01*
X0141300Y0003856D01*
X0141208Y0003845D01*
X0141116Y0003838D01*
X0141023Y0003835D01*
X0140931Y0003836D01*
X0140838Y0003841D01*
X0140746Y0003850D01*
X0140654Y0003863D01*
X0140563Y0003879D01*
X0140473Y0003900D01*
X0140384Y0003924D01*
X0140296Y0003953D01*
X0140209Y0003985D01*
X0140124Y0004020D01*
X0140040Y0004060D01*
X0139958Y0004102D01*
X0139878Y0004149D01*
X0139800Y0004198D01*
X0139724Y0004251D01*
X0139650Y0004307D01*
X0139579Y0004367D01*
X0139511Y0004429D01*
X0139445Y0004494D01*
X0139382Y0004562D01*
X0139322Y0004632D01*
X0139265Y0004705D01*
X0139211Y0004780D01*
X0139161Y0004858D01*
X0139114Y0004938D01*
X0139070Y0005019D01*
X0139030Y0005103D01*
X0138993Y0005188D01*
X0138960Y0005274D01*
X0138931Y0005362D01*
X0138906Y0005451D01*
X0138884Y0005541D01*
X0138867Y0005632D01*
X0138853Y0005723D01*
X0138843Y0005815D01*
X0138837Y0005907D01*
X0138835Y0006000D01*
X0148835Y0006000D02*
X0148837Y0006093D01*
X0148843Y0006185D01*
X0148853Y0006277D01*
X0148867Y0006368D01*
X0148884Y0006459D01*
X0148906Y0006549D01*
X0148931Y0006638D01*
X0148960Y0006726D01*
X0148993Y0006812D01*
X0149030Y0006897D01*
X0149070Y0006981D01*
X0149114Y0007062D01*
X0149161Y0007142D01*
X0149211Y0007220D01*
X0149265Y0007295D01*
X0149322Y0007368D01*
X0149382Y0007438D01*
X0149445Y0007506D01*
X0149511Y0007571D01*
X0149579Y0007633D01*
X0149650Y0007693D01*
X0149724Y0007749D01*
X0149800Y0007802D01*
X0149878Y0007851D01*
X0149958Y0007898D01*
X0150040Y0007940D01*
X0150124Y0007980D01*
X0150209Y0008015D01*
X0150296Y0008047D01*
X0150384Y0008076D01*
X0150473Y0008100D01*
X0150563Y0008121D01*
X0150654Y0008137D01*
X0150746Y0008150D01*
X0150838Y0008159D01*
X0150931Y0008164D01*
X0151023Y0008165D01*
X0151116Y0008162D01*
X0151208Y0008155D01*
X0151300Y0008144D01*
X0151391Y0008129D01*
X0151482Y0008111D01*
X0151572Y0008088D01*
X0151660Y0008062D01*
X0151748Y0008032D01*
X0151834Y0007998D01*
X0151918Y0007961D01*
X0152001Y0007919D01*
X0152082Y0007875D01*
X0152162Y0007827D01*
X0152239Y0007776D01*
X0152313Y0007721D01*
X0152386Y0007663D01*
X0152456Y0007603D01*
X0152523Y0007539D01*
X0152587Y0007473D01*
X0152649Y0007403D01*
X0152707Y0007332D01*
X0152762Y0007258D01*
X0152814Y0007181D01*
X0152863Y0007102D01*
X0152909Y0007022D01*
X0152951Y0006939D01*
X0152989Y0006855D01*
X0153024Y0006769D01*
X0153055Y0006682D01*
X0153082Y0006594D01*
X0153105Y0006504D01*
X0153125Y0006414D01*
X0153141Y0006323D01*
X0153153Y0006231D01*
X0153161Y0006139D01*
X0153165Y0006046D01*
X0153165Y0005954D01*
X0153161Y0005861D01*
X0153153Y0005769D01*
X0153141Y0005677D01*
X0153125Y0005586D01*
X0153105Y0005496D01*
X0153082Y0005406D01*
X0153055Y0005318D01*
X0153024Y0005231D01*
X0152989Y0005145D01*
X0152951Y0005061D01*
X0152909Y0004978D01*
X0152863Y0004898D01*
X0152814Y0004819D01*
X0152762Y0004742D01*
X0152707Y0004668D01*
X0152649Y0004597D01*
X0152587Y0004527D01*
X0152523Y0004461D01*
X0152456Y0004397D01*
X0152386Y0004337D01*
X0152313Y0004279D01*
X0152239Y0004224D01*
X0152162Y0004173D01*
X0152083Y0004125D01*
X0152001Y0004081D01*
X0151918Y0004039D01*
X0151834Y0004002D01*
X0151748Y0003968D01*
X0151660Y0003938D01*
X0151572Y0003912D01*
X0151482Y0003889D01*
X0151391Y0003871D01*
X0151300Y0003856D01*
X0151208Y0003845D01*
X0151116Y0003838D01*
X0151023Y0003835D01*
X0150931Y0003836D01*
X0150838Y0003841D01*
X0150746Y0003850D01*
X0150654Y0003863D01*
X0150563Y0003879D01*
X0150473Y0003900D01*
X0150384Y0003924D01*
X0150296Y0003953D01*
X0150209Y0003985D01*
X0150124Y0004020D01*
X0150040Y0004060D01*
X0149958Y0004102D01*
X0149878Y0004149D01*
X0149800Y0004198D01*
X0149724Y0004251D01*
X0149650Y0004307D01*
X0149579Y0004367D01*
X0149511Y0004429D01*
X0149445Y0004494D01*
X0149382Y0004562D01*
X0149322Y0004632D01*
X0149265Y0004705D01*
X0149211Y0004780D01*
X0149161Y0004858D01*
X0149114Y0004938D01*
X0149070Y0005019D01*
X0149030Y0005103D01*
X0148993Y0005188D01*
X0148960Y0005274D01*
X0148931Y0005362D01*
X0148906Y0005451D01*
X0148884Y0005541D01*
X0148867Y0005632D01*
X0148853Y0005723D01*
X0148843Y0005815D01*
X0148837Y0005907D01*
X0148835Y0006000D01*
X0367142Y0020685D02*
X0367144Y0020878D01*
X0367151Y0021071D01*
X0367163Y0021264D01*
X0367180Y0021457D01*
X0367201Y0021649D01*
X0367227Y0021840D01*
X0367258Y0022031D01*
X0367293Y0022221D01*
X0367333Y0022410D01*
X0367378Y0022598D01*
X0367427Y0022785D01*
X0367481Y0022971D01*
X0367539Y0023155D01*
X0367602Y0023338D01*
X0367670Y0023519D01*
X0367741Y0023698D01*
X0367818Y0023876D01*
X0367898Y0024052D01*
X0367983Y0024225D01*
X0368072Y0024397D01*
X0368165Y0024566D01*
X0368262Y0024733D01*
X0368364Y0024898D01*
X0368469Y0025060D01*
X0368578Y0025219D01*
X0368692Y0025376D01*
X0368809Y0025529D01*
X0368929Y0025680D01*
X0369054Y0025828D01*
X0369182Y0025973D01*
X0369313Y0026114D01*
X0369448Y0026253D01*
X0369587Y0026388D01*
X0369728Y0026519D01*
X0369873Y0026647D01*
X0370021Y0026772D01*
X0370172Y0026892D01*
X0370325Y0027009D01*
X0370482Y0027123D01*
X0370641Y0027232D01*
X0370803Y0027337D01*
X0370968Y0027439D01*
X0371135Y0027536D01*
X0371304Y0027629D01*
X0371476Y0027718D01*
X0371649Y0027803D01*
X0371825Y0027883D01*
X0372003Y0027960D01*
X0372182Y0028031D01*
X0372363Y0028099D01*
X0372546Y0028162D01*
X0372730Y0028220D01*
X0372916Y0028274D01*
X0373103Y0028323D01*
X0373291Y0028368D01*
X0373480Y0028408D01*
X0373670Y0028443D01*
X0373861Y0028474D01*
X0374052Y0028500D01*
X0374244Y0028521D01*
X0374437Y0028538D01*
X0374630Y0028550D01*
X0374823Y0028557D01*
X0375016Y0028559D01*
X0375209Y0028557D01*
X0375402Y0028550D01*
X0375595Y0028538D01*
X0375788Y0028521D01*
X0375980Y0028500D01*
X0376171Y0028474D01*
X0376362Y0028443D01*
X0376552Y0028408D01*
X0376741Y0028368D01*
X0376929Y0028323D01*
X0377116Y0028274D01*
X0377302Y0028220D01*
X0377486Y0028162D01*
X0377669Y0028099D01*
X0377850Y0028031D01*
X0378029Y0027960D01*
X0378207Y0027883D01*
X0378383Y0027803D01*
X0378556Y0027718D01*
X0378728Y0027629D01*
X0378897Y0027536D01*
X0379064Y0027439D01*
X0379229Y0027337D01*
X0379391Y0027232D01*
X0379550Y0027123D01*
X0379707Y0027009D01*
X0379860Y0026892D01*
X0380011Y0026772D01*
X0380159Y0026647D01*
X0380304Y0026519D01*
X0380445Y0026388D01*
X0380584Y0026253D01*
X0380719Y0026114D01*
X0380850Y0025973D01*
X0380978Y0025828D01*
X0381103Y0025680D01*
X0381223Y0025529D01*
X0381340Y0025376D01*
X0381454Y0025219D01*
X0381563Y0025060D01*
X0381668Y0024898D01*
X0381770Y0024733D01*
X0381867Y0024566D01*
X0381960Y0024397D01*
X0382049Y0024225D01*
X0382134Y0024052D01*
X0382214Y0023876D01*
X0382291Y0023698D01*
X0382362Y0023519D01*
X0382430Y0023338D01*
X0382493Y0023155D01*
X0382551Y0022971D01*
X0382605Y0022785D01*
X0382654Y0022598D01*
X0382699Y0022410D01*
X0382739Y0022221D01*
X0382774Y0022031D01*
X0382805Y0021840D01*
X0382831Y0021649D01*
X0382852Y0021457D01*
X0382869Y0021264D01*
X0382881Y0021071D01*
X0382888Y0020878D01*
X0382890Y0020685D01*
X0382888Y0020492D01*
X0382881Y0020299D01*
X0382869Y0020106D01*
X0382852Y0019913D01*
X0382831Y0019721D01*
X0382805Y0019530D01*
X0382774Y0019339D01*
X0382739Y0019149D01*
X0382699Y0018960D01*
X0382654Y0018772D01*
X0382605Y0018585D01*
X0382551Y0018399D01*
X0382493Y0018215D01*
X0382430Y0018032D01*
X0382362Y0017851D01*
X0382291Y0017672D01*
X0382214Y0017494D01*
X0382134Y0017318D01*
X0382049Y0017145D01*
X0381960Y0016973D01*
X0381867Y0016804D01*
X0381770Y0016637D01*
X0381668Y0016472D01*
X0381563Y0016310D01*
X0381454Y0016151D01*
X0381340Y0015994D01*
X0381223Y0015841D01*
X0381103Y0015690D01*
X0380978Y0015542D01*
X0380850Y0015397D01*
X0380719Y0015256D01*
X0380584Y0015117D01*
X0380445Y0014982D01*
X0380304Y0014851D01*
X0380159Y0014723D01*
X0380011Y0014598D01*
X0379860Y0014478D01*
X0379707Y0014361D01*
X0379550Y0014247D01*
X0379391Y0014138D01*
X0379229Y0014033D01*
X0379064Y0013931D01*
X0378897Y0013834D01*
X0378728Y0013741D01*
X0378556Y0013652D01*
X0378383Y0013567D01*
X0378207Y0013487D01*
X0378029Y0013410D01*
X0377850Y0013339D01*
X0377669Y0013271D01*
X0377486Y0013208D01*
X0377302Y0013150D01*
X0377116Y0013096D01*
X0376929Y0013047D01*
X0376741Y0013002D01*
X0376552Y0012962D01*
X0376362Y0012927D01*
X0376171Y0012896D01*
X0375980Y0012870D01*
X0375788Y0012849D01*
X0375595Y0012832D01*
X0375402Y0012820D01*
X0375209Y0012813D01*
X0375016Y0012811D01*
X0374823Y0012813D01*
X0374630Y0012820D01*
X0374437Y0012832D01*
X0374244Y0012849D01*
X0374052Y0012870D01*
X0373861Y0012896D01*
X0373670Y0012927D01*
X0373480Y0012962D01*
X0373291Y0013002D01*
X0373103Y0013047D01*
X0372916Y0013096D01*
X0372730Y0013150D01*
X0372546Y0013208D01*
X0372363Y0013271D01*
X0372182Y0013339D01*
X0372003Y0013410D01*
X0371825Y0013487D01*
X0371649Y0013567D01*
X0371476Y0013652D01*
X0371304Y0013741D01*
X0371135Y0013834D01*
X0370968Y0013931D01*
X0370803Y0014033D01*
X0370641Y0014138D01*
X0370482Y0014247D01*
X0370325Y0014361D01*
X0370172Y0014478D01*
X0370021Y0014598D01*
X0369873Y0014723D01*
X0369728Y0014851D01*
X0369587Y0014982D01*
X0369448Y0015117D01*
X0369313Y0015256D01*
X0369182Y0015397D01*
X0369054Y0015542D01*
X0368929Y0015690D01*
X0368809Y0015841D01*
X0368692Y0015994D01*
X0368578Y0016151D01*
X0368469Y0016310D01*
X0368364Y0016472D01*
X0368262Y0016637D01*
X0368165Y0016804D01*
X0368072Y0016973D01*
X0367983Y0017145D01*
X0367898Y0017318D01*
X0367818Y0017494D01*
X0367741Y0017672D01*
X0367670Y0017851D01*
X0367602Y0018032D01*
X0367539Y0018215D01*
X0367481Y0018399D01*
X0367427Y0018585D01*
X0367378Y0018772D01*
X0367333Y0018960D01*
X0367293Y0019149D01*
X0367258Y0019339D01*
X0367227Y0019530D01*
X0367201Y0019721D01*
X0367180Y0019913D01*
X0367163Y0020106D01*
X0367151Y0020299D01*
X0367144Y0020492D01*
X0367142Y0020685D01*
X0134858Y0217535D02*
X0134860Y0217728D01*
X0134867Y0217921D01*
X0134879Y0218114D01*
X0134896Y0218307D01*
X0134917Y0218499D01*
X0134943Y0218690D01*
X0134974Y0218881D01*
X0135009Y0219071D01*
X0135049Y0219260D01*
X0135094Y0219448D01*
X0135143Y0219635D01*
X0135197Y0219821D01*
X0135255Y0220005D01*
X0135318Y0220188D01*
X0135386Y0220369D01*
X0135457Y0220548D01*
X0135534Y0220726D01*
X0135614Y0220902D01*
X0135699Y0221075D01*
X0135788Y0221247D01*
X0135881Y0221416D01*
X0135978Y0221583D01*
X0136080Y0221748D01*
X0136185Y0221910D01*
X0136294Y0222069D01*
X0136408Y0222226D01*
X0136525Y0222379D01*
X0136645Y0222530D01*
X0136770Y0222678D01*
X0136898Y0222823D01*
X0137029Y0222964D01*
X0137164Y0223103D01*
X0137303Y0223238D01*
X0137444Y0223369D01*
X0137589Y0223497D01*
X0137737Y0223622D01*
X0137888Y0223742D01*
X0138041Y0223859D01*
X0138198Y0223973D01*
X0138357Y0224082D01*
X0138519Y0224187D01*
X0138684Y0224289D01*
X0138851Y0224386D01*
X0139020Y0224479D01*
X0139192Y0224568D01*
X0139365Y0224653D01*
X0139541Y0224733D01*
X0139719Y0224810D01*
X0139898Y0224881D01*
X0140079Y0224949D01*
X0140262Y0225012D01*
X0140446Y0225070D01*
X0140632Y0225124D01*
X0140819Y0225173D01*
X0141007Y0225218D01*
X0141196Y0225258D01*
X0141386Y0225293D01*
X0141577Y0225324D01*
X0141768Y0225350D01*
X0141960Y0225371D01*
X0142153Y0225388D01*
X0142346Y0225400D01*
X0142539Y0225407D01*
X0142732Y0225409D01*
X0142925Y0225407D01*
X0143118Y0225400D01*
X0143311Y0225388D01*
X0143504Y0225371D01*
X0143696Y0225350D01*
X0143887Y0225324D01*
X0144078Y0225293D01*
X0144268Y0225258D01*
X0144457Y0225218D01*
X0144645Y0225173D01*
X0144832Y0225124D01*
X0145018Y0225070D01*
X0145202Y0225012D01*
X0145385Y0224949D01*
X0145566Y0224881D01*
X0145745Y0224810D01*
X0145923Y0224733D01*
X0146099Y0224653D01*
X0146272Y0224568D01*
X0146444Y0224479D01*
X0146613Y0224386D01*
X0146780Y0224289D01*
X0146945Y0224187D01*
X0147107Y0224082D01*
X0147266Y0223973D01*
X0147423Y0223859D01*
X0147576Y0223742D01*
X0147727Y0223622D01*
X0147875Y0223497D01*
X0148020Y0223369D01*
X0148161Y0223238D01*
X0148300Y0223103D01*
X0148435Y0222964D01*
X0148566Y0222823D01*
X0148694Y0222678D01*
X0148819Y0222530D01*
X0148939Y0222379D01*
X0149056Y0222226D01*
X0149170Y0222069D01*
X0149279Y0221910D01*
X0149384Y0221748D01*
X0149486Y0221583D01*
X0149583Y0221416D01*
X0149676Y0221247D01*
X0149765Y0221075D01*
X0149850Y0220902D01*
X0149930Y0220726D01*
X0150007Y0220548D01*
X0150078Y0220369D01*
X0150146Y0220188D01*
X0150209Y0220005D01*
X0150267Y0219821D01*
X0150321Y0219635D01*
X0150370Y0219448D01*
X0150415Y0219260D01*
X0150455Y0219071D01*
X0150490Y0218881D01*
X0150521Y0218690D01*
X0150547Y0218499D01*
X0150568Y0218307D01*
X0150585Y0218114D01*
X0150597Y0217921D01*
X0150604Y0217728D01*
X0150606Y0217535D01*
X0150604Y0217342D01*
X0150597Y0217149D01*
X0150585Y0216956D01*
X0150568Y0216763D01*
X0150547Y0216571D01*
X0150521Y0216380D01*
X0150490Y0216189D01*
X0150455Y0215999D01*
X0150415Y0215810D01*
X0150370Y0215622D01*
X0150321Y0215435D01*
X0150267Y0215249D01*
X0150209Y0215065D01*
X0150146Y0214882D01*
X0150078Y0214701D01*
X0150007Y0214522D01*
X0149930Y0214344D01*
X0149850Y0214168D01*
X0149765Y0213995D01*
X0149676Y0213823D01*
X0149583Y0213654D01*
X0149486Y0213487D01*
X0149384Y0213322D01*
X0149279Y0213160D01*
X0149170Y0213001D01*
X0149056Y0212844D01*
X0148939Y0212691D01*
X0148819Y0212540D01*
X0148694Y0212392D01*
X0148566Y0212247D01*
X0148435Y0212106D01*
X0148300Y0211967D01*
X0148161Y0211832D01*
X0148020Y0211701D01*
X0147875Y0211573D01*
X0147727Y0211448D01*
X0147576Y0211328D01*
X0147423Y0211211D01*
X0147266Y0211097D01*
X0147107Y0210988D01*
X0146945Y0210883D01*
X0146780Y0210781D01*
X0146613Y0210684D01*
X0146444Y0210591D01*
X0146272Y0210502D01*
X0146099Y0210417D01*
X0145923Y0210337D01*
X0145745Y0210260D01*
X0145566Y0210189D01*
X0145385Y0210121D01*
X0145202Y0210058D01*
X0145018Y0210000D01*
X0144832Y0209946D01*
X0144645Y0209897D01*
X0144457Y0209852D01*
X0144268Y0209812D01*
X0144078Y0209777D01*
X0143887Y0209746D01*
X0143696Y0209720D01*
X0143504Y0209699D01*
X0143311Y0209682D01*
X0143118Y0209670D01*
X0142925Y0209663D01*
X0142732Y0209661D01*
X0142539Y0209663D01*
X0142346Y0209670D01*
X0142153Y0209682D01*
X0141960Y0209699D01*
X0141768Y0209720D01*
X0141577Y0209746D01*
X0141386Y0209777D01*
X0141196Y0209812D01*
X0141007Y0209852D01*
X0140819Y0209897D01*
X0140632Y0209946D01*
X0140446Y0210000D01*
X0140262Y0210058D01*
X0140079Y0210121D01*
X0139898Y0210189D01*
X0139719Y0210260D01*
X0139541Y0210337D01*
X0139365Y0210417D01*
X0139192Y0210502D01*
X0139020Y0210591D01*
X0138851Y0210684D01*
X0138684Y0210781D01*
X0138519Y0210883D01*
X0138357Y0210988D01*
X0138198Y0211097D01*
X0138041Y0211211D01*
X0137888Y0211328D01*
X0137737Y0211448D01*
X0137589Y0211573D01*
X0137444Y0211701D01*
X0137303Y0211832D01*
X0137164Y0211967D01*
X0137029Y0212106D01*
X0136898Y0212247D01*
X0136770Y0212392D01*
X0136645Y0212540D01*
X0136525Y0212691D01*
X0136408Y0212844D01*
X0136294Y0213001D01*
X0136185Y0213160D01*
X0136080Y0213322D01*
X0135978Y0213487D01*
X0135881Y0213654D01*
X0135788Y0213823D01*
X0135699Y0213995D01*
X0135614Y0214168D01*
X0135534Y0214344D01*
X0135457Y0214522D01*
X0135386Y0214701D01*
X0135318Y0214882D01*
X0135255Y0215065D01*
X0135197Y0215249D01*
X0135143Y0215435D01*
X0135094Y0215622D01*
X0135049Y0215810D01*
X0135009Y0215999D01*
X0134974Y0216189D01*
X0134943Y0216380D01*
X0134917Y0216571D01*
X0134896Y0216763D01*
X0134879Y0216956D01*
X0134867Y0217149D01*
X0134860Y0217342D01*
X0134858Y0217535D01*
X0012811Y0296276D02*
X0012813Y0296469D01*
X0012820Y0296662D01*
X0012832Y0296855D01*
X0012849Y0297048D01*
X0012870Y0297240D01*
X0012896Y0297431D01*
X0012927Y0297622D01*
X0012962Y0297812D01*
X0013002Y0298001D01*
X0013047Y0298189D01*
X0013096Y0298376D01*
X0013150Y0298562D01*
X0013208Y0298746D01*
X0013271Y0298929D01*
X0013339Y0299110D01*
X0013410Y0299289D01*
X0013487Y0299467D01*
X0013567Y0299643D01*
X0013652Y0299816D01*
X0013741Y0299988D01*
X0013834Y0300157D01*
X0013931Y0300324D01*
X0014033Y0300489D01*
X0014138Y0300651D01*
X0014247Y0300810D01*
X0014361Y0300967D01*
X0014478Y0301120D01*
X0014598Y0301271D01*
X0014723Y0301419D01*
X0014851Y0301564D01*
X0014982Y0301705D01*
X0015117Y0301844D01*
X0015256Y0301979D01*
X0015397Y0302110D01*
X0015542Y0302238D01*
X0015690Y0302363D01*
X0015841Y0302483D01*
X0015994Y0302600D01*
X0016151Y0302714D01*
X0016310Y0302823D01*
X0016472Y0302928D01*
X0016637Y0303030D01*
X0016804Y0303127D01*
X0016973Y0303220D01*
X0017145Y0303309D01*
X0017318Y0303394D01*
X0017494Y0303474D01*
X0017672Y0303551D01*
X0017851Y0303622D01*
X0018032Y0303690D01*
X0018215Y0303753D01*
X0018399Y0303811D01*
X0018585Y0303865D01*
X0018772Y0303914D01*
X0018960Y0303959D01*
X0019149Y0303999D01*
X0019339Y0304034D01*
X0019530Y0304065D01*
X0019721Y0304091D01*
X0019913Y0304112D01*
X0020106Y0304129D01*
X0020299Y0304141D01*
X0020492Y0304148D01*
X0020685Y0304150D01*
X0020878Y0304148D01*
X0021071Y0304141D01*
X0021264Y0304129D01*
X0021457Y0304112D01*
X0021649Y0304091D01*
X0021840Y0304065D01*
X0022031Y0304034D01*
X0022221Y0303999D01*
X0022410Y0303959D01*
X0022598Y0303914D01*
X0022785Y0303865D01*
X0022971Y0303811D01*
X0023155Y0303753D01*
X0023338Y0303690D01*
X0023519Y0303622D01*
X0023698Y0303551D01*
X0023876Y0303474D01*
X0024052Y0303394D01*
X0024225Y0303309D01*
X0024397Y0303220D01*
X0024566Y0303127D01*
X0024733Y0303030D01*
X0024898Y0302928D01*
X0025060Y0302823D01*
X0025219Y0302714D01*
X0025376Y0302600D01*
X0025529Y0302483D01*
X0025680Y0302363D01*
X0025828Y0302238D01*
X0025973Y0302110D01*
X0026114Y0301979D01*
X0026253Y0301844D01*
X0026388Y0301705D01*
X0026519Y0301564D01*
X0026647Y0301419D01*
X0026772Y0301271D01*
X0026892Y0301120D01*
X0027009Y0300967D01*
X0027123Y0300810D01*
X0027232Y0300651D01*
X0027337Y0300489D01*
X0027439Y0300324D01*
X0027536Y0300157D01*
X0027629Y0299988D01*
X0027718Y0299816D01*
X0027803Y0299643D01*
X0027883Y0299467D01*
X0027960Y0299289D01*
X0028031Y0299110D01*
X0028099Y0298929D01*
X0028162Y0298746D01*
X0028220Y0298562D01*
X0028274Y0298376D01*
X0028323Y0298189D01*
X0028368Y0298001D01*
X0028408Y0297812D01*
X0028443Y0297622D01*
X0028474Y0297431D01*
X0028500Y0297240D01*
X0028521Y0297048D01*
X0028538Y0296855D01*
X0028550Y0296662D01*
X0028557Y0296469D01*
X0028559Y0296276D01*
X0028557Y0296083D01*
X0028550Y0295890D01*
X0028538Y0295697D01*
X0028521Y0295504D01*
X0028500Y0295312D01*
X0028474Y0295121D01*
X0028443Y0294930D01*
X0028408Y0294740D01*
X0028368Y0294551D01*
X0028323Y0294363D01*
X0028274Y0294176D01*
X0028220Y0293990D01*
X0028162Y0293806D01*
X0028099Y0293623D01*
X0028031Y0293442D01*
X0027960Y0293263D01*
X0027883Y0293085D01*
X0027803Y0292909D01*
X0027718Y0292736D01*
X0027629Y0292564D01*
X0027536Y0292395D01*
X0027439Y0292228D01*
X0027337Y0292063D01*
X0027232Y0291901D01*
X0027123Y0291742D01*
X0027009Y0291585D01*
X0026892Y0291432D01*
X0026772Y0291281D01*
X0026647Y0291133D01*
X0026519Y0290988D01*
X0026388Y0290847D01*
X0026253Y0290708D01*
X0026114Y0290573D01*
X0025973Y0290442D01*
X0025828Y0290314D01*
X0025680Y0290189D01*
X0025529Y0290069D01*
X0025376Y0289952D01*
X0025219Y0289838D01*
X0025060Y0289729D01*
X0024898Y0289624D01*
X0024733Y0289522D01*
X0024566Y0289425D01*
X0024397Y0289332D01*
X0024225Y0289243D01*
X0024052Y0289158D01*
X0023876Y0289078D01*
X0023698Y0289001D01*
X0023519Y0288930D01*
X0023338Y0288862D01*
X0023155Y0288799D01*
X0022971Y0288741D01*
X0022785Y0288687D01*
X0022598Y0288638D01*
X0022410Y0288593D01*
X0022221Y0288553D01*
X0022031Y0288518D01*
X0021840Y0288487D01*
X0021649Y0288461D01*
X0021457Y0288440D01*
X0021264Y0288423D01*
X0021071Y0288411D01*
X0020878Y0288404D01*
X0020685Y0288402D01*
X0020492Y0288404D01*
X0020299Y0288411D01*
X0020106Y0288423D01*
X0019913Y0288440D01*
X0019721Y0288461D01*
X0019530Y0288487D01*
X0019339Y0288518D01*
X0019149Y0288553D01*
X0018960Y0288593D01*
X0018772Y0288638D01*
X0018585Y0288687D01*
X0018399Y0288741D01*
X0018215Y0288799D01*
X0018032Y0288862D01*
X0017851Y0288930D01*
X0017672Y0289001D01*
X0017494Y0289078D01*
X0017318Y0289158D01*
X0017145Y0289243D01*
X0016973Y0289332D01*
X0016804Y0289425D01*
X0016637Y0289522D01*
X0016472Y0289624D01*
X0016310Y0289729D01*
X0016151Y0289838D01*
X0015994Y0289952D01*
X0015841Y0290069D01*
X0015690Y0290189D01*
X0015542Y0290314D01*
X0015397Y0290442D01*
X0015256Y0290573D01*
X0015117Y0290708D01*
X0014982Y0290847D01*
X0014851Y0290988D01*
X0014723Y0291133D01*
X0014598Y0291281D01*
X0014478Y0291432D01*
X0014361Y0291585D01*
X0014247Y0291742D01*
X0014138Y0291901D01*
X0014033Y0292063D01*
X0013931Y0292228D01*
X0013834Y0292395D01*
X0013741Y0292564D01*
X0013652Y0292736D01*
X0013567Y0292909D01*
X0013487Y0293085D01*
X0013410Y0293263D01*
X0013339Y0293442D01*
X0013271Y0293623D01*
X0013208Y0293806D01*
X0013150Y0293990D01*
X0013096Y0294176D01*
X0013047Y0294363D01*
X0013002Y0294551D01*
X0012962Y0294740D01*
X0012927Y0294930D01*
X0012896Y0295121D01*
X0012870Y0295312D01*
X0012849Y0295504D01*
X0012832Y0295697D01*
X0012820Y0295890D01*
X0012813Y0296083D01*
X0012811Y0296276D01*
D11*
X0038500Y0301000D02*
X0038500Y0286000D01*
X0041000Y0283500D01*
X0046000Y0283500D01*
X0048500Y0286000D01*
X0048500Y0301000D01*
X0046000Y0303500D01*
X0041000Y0303500D01*
X0038500Y0301000D01*
X0048500Y0301000D02*
X0051000Y0303500D01*
X0056000Y0303500D01*
X0058500Y0301000D01*
X0058500Y0286000D01*
X0056000Y0283500D01*
X0051000Y0283500D01*
X0048500Y0286000D01*
X0058500Y0286000D02*
X0061000Y0283500D01*
X0066000Y0283500D01*
X0068500Y0286000D01*
X0068500Y0301000D01*
X0066000Y0303500D01*
X0061000Y0303500D01*
X0058500Y0301000D01*
X0068500Y0301000D02*
X0071000Y0303500D01*
X0076000Y0303500D01*
X0078500Y0301000D01*
X0078500Y0286000D01*
X0076000Y0283500D01*
X0071000Y0283500D01*
X0068500Y0286000D01*
X0080300Y0221000D02*
X0080300Y0191000D01*
X0081100Y0191000D01*
X0088400Y0182400D02*
X0088400Y0178000D01*
X0065449Y0198520D02*
X0065449Y0213480D01*
X0080300Y0221000D02*
X0081100Y0221000D01*
X0120900Y0221000D02*
X0121700Y0221000D01*
X0121700Y0207200D01*
X0121700Y0204800D01*
X0121700Y0191000D01*
X0120900Y0191000D01*
X0121700Y0204800D02*
X0121631Y0204802D01*
X0121563Y0204808D01*
X0121495Y0204818D01*
X0121428Y0204831D01*
X0121362Y0204849D01*
X0121297Y0204870D01*
X0121233Y0204895D01*
X0121171Y0204923D01*
X0121110Y0204955D01*
X0121051Y0204990D01*
X0120995Y0205029D01*
X0120940Y0205071D01*
X0120889Y0205116D01*
X0120839Y0205164D01*
X0120793Y0205214D01*
X0120750Y0205267D01*
X0120709Y0205323D01*
X0120672Y0205380D01*
X0120639Y0205440D01*
X0120608Y0205502D01*
X0120582Y0205565D01*
X0120559Y0205629D01*
X0120539Y0205695D01*
X0120524Y0205762D01*
X0120512Y0205829D01*
X0120504Y0205897D01*
X0120500Y0205966D01*
X0120500Y0206034D01*
X0120504Y0206103D01*
X0120512Y0206171D01*
X0120524Y0206238D01*
X0120539Y0206305D01*
X0120559Y0206371D01*
X0120582Y0206435D01*
X0120608Y0206498D01*
X0120639Y0206560D01*
X0120672Y0206620D01*
X0120709Y0206677D01*
X0120750Y0206733D01*
X0120793Y0206786D01*
X0120839Y0206836D01*
X0120889Y0206884D01*
X0120940Y0206929D01*
X0120995Y0206971D01*
X0121051Y0207010D01*
X0121110Y0207045D01*
X0121171Y0207077D01*
X0121233Y0207105D01*
X0121297Y0207130D01*
X0121362Y0207151D01*
X0121428Y0207169D01*
X0121495Y0207182D01*
X0121563Y0207192D01*
X0121631Y0207198D01*
X0121700Y0207200D01*
X0026551Y0213480D02*
X0026551Y0198520D01*
X0026000Y0128500D02*
X0031000Y0128500D01*
X0033500Y0126000D01*
X0033500Y0111000D01*
X0036000Y0108500D01*
X0041000Y0108500D01*
X0043500Y0111000D01*
X0046000Y0108500D01*
X0051000Y0108500D01*
X0053500Y0111000D01*
X0053500Y0126000D01*
X0051000Y0128500D01*
X0046000Y0128500D01*
X0043500Y0126000D01*
X0043500Y0111000D01*
X0033500Y0111000D02*
X0031000Y0108500D01*
X0026000Y0108500D01*
X0023500Y0111000D01*
X0023500Y0126000D01*
X0026000Y0128500D01*
X0023500Y0126000D02*
X0021000Y0128500D01*
X0016000Y0128500D01*
X0013500Y0126000D01*
X0013500Y0111000D01*
X0016000Y0108500D01*
X0021000Y0108500D01*
X0023500Y0111000D01*
X0033500Y0126000D02*
X0036000Y0128500D01*
X0041000Y0128500D01*
X0043500Y0126000D01*
X0077000Y0050500D02*
X0100000Y0050500D01*
X0100170Y0050498D01*
X0100341Y0050492D01*
X0100511Y0050481D01*
X0100681Y0050467D01*
X0100850Y0050448D01*
X0101019Y0050425D01*
X0101188Y0050399D01*
X0101355Y0050368D01*
X0101522Y0050333D01*
X0101688Y0050293D01*
X0101853Y0050250D01*
X0102017Y0050203D01*
X0102179Y0050152D01*
X0102341Y0050097D01*
X0102501Y0050038D01*
X0102659Y0049975D01*
X0102816Y0049909D01*
X0102971Y0049838D01*
X0103125Y0049764D01*
X0103276Y0049686D01*
X0103426Y0049604D01*
X0103574Y0049519D01*
X0103719Y0049430D01*
X0103862Y0049338D01*
X0104003Y0049242D01*
X0104142Y0049143D01*
X0104278Y0049040D01*
X0104412Y0048935D01*
X0104543Y0048826D01*
X0104671Y0048713D01*
X0104797Y0048598D01*
X0104920Y0048480D01*
X0105039Y0048359D01*
X0105156Y0048234D01*
X0105270Y0048107D01*
X0105381Y0047978D01*
X0105488Y0047845D01*
X0105592Y0047710D01*
X0105693Y0047573D01*
X0105791Y0047433D01*
X0105885Y0047291D01*
X0105975Y0047147D01*
X0106062Y0047000D01*
X0106146Y0046851D01*
X0106225Y0046701D01*
X0106301Y0046548D01*
X0106374Y0046394D01*
X0106442Y0046238D01*
X0106507Y0046080D01*
X0106568Y0045921D01*
X0106625Y0045760D01*
X0106678Y0045598D01*
X0106727Y0045435D01*
X0106772Y0045271D01*
X0106813Y0045105D01*
X0106851Y0044939D01*
X0106884Y0044771D01*
X0106912Y0044603D01*
X0106937Y0044435D01*
X0106958Y0044266D01*
X0106975Y0044096D01*
X0106987Y0043926D01*
X0106995Y0043756D01*
X0106999Y0043585D01*
X0106999Y0043415D01*
X0106995Y0043244D01*
X0106987Y0043074D01*
X0106975Y0042904D01*
X0106958Y0042734D01*
X0106937Y0042565D01*
X0106912Y0042397D01*
X0106884Y0042229D01*
X0106851Y0042061D01*
X0106813Y0041895D01*
X0106772Y0041729D01*
X0106727Y0041565D01*
X0106678Y0041402D01*
X0106625Y0041240D01*
X0106568Y0041079D01*
X0106507Y0040920D01*
X0106442Y0040762D01*
X0106374Y0040606D01*
X0106301Y0040452D01*
X0106225Y0040299D01*
X0106146Y0040149D01*
X0106062Y0040000D01*
X0105975Y0039853D01*
X0105885Y0039709D01*
X0105791Y0039567D01*
X0105693Y0039427D01*
X0105592Y0039290D01*
X0105488Y0039155D01*
X0105381Y0039022D01*
X0105270Y0038893D01*
X0105156Y0038766D01*
X0105039Y0038641D01*
X0104920Y0038520D01*
X0104797Y0038402D01*
X0104671Y0038287D01*
X0104543Y0038174D01*
X0104412Y0038065D01*
X0104278Y0037960D01*
X0104142Y0037857D01*
X0104003Y0037758D01*
X0103862Y0037662D01*
X0103719Y0037570D01*
X0103574Y0037481D01*
X0103426Y0037396D01*
X0103276Y0037314D01*
X0103125Y0037236D01*
X0102971Y0037162D01*
X0102816Y0037091D01*
X0102659Y0037025D01*
X0102501Y0036962D01*
X0102341Y0036903D01*
X0102179Y0036848D01*
X0102017Y0036797D01*
X0101853Y0036750D01*
X0101688Y0036707D01*
X0101522Y0036667D01*
X0101355Y0036632D01*
X0101188Y0036601D01*
X0101019Y0036575D01*
X0100850Y0036552D01*
X0100681Y0036533D01*
X0100511Y0036519D01*
X0100341Y0036508D01*
X0100170Y0036502D01*
X0100000Y0036500D01*
X0077000Y0036500D01*
X0076830Y0036502D01*
X0076659Y0036508D01*
X0076489Y0036519D01*
X0076319Y0036533D01*
X0076150Y0036552D01*
X0075981Y0036575D01*
X0075812Y0036601D01*
X0075645Y0036632D01*
X0075478Y0036667D01*
X0075312Y0036707D01*
X0075147Y0036750D01*
X0074983Y0036797D01*
X0074821Y0036848D01*
X0074659Y0036903D01*
X0074499Y0036962D01*
X0074341Y0037025D01*
X0074184Y0037091D01*
X0074029Y0037162D01*
X0073875Y0037236D01*
X0073724Y0037314D01*
X0073574Y0037396D01*
X0073426Y0037481D01*
X0073281Y0037570D01*
X0073138Y0037662D01*
X0072997Y0037758D01*
X0072858Y0037857D01*
X0072722Y0037960D01*
X0072588Y0038065D01*
X0072457Y0038174D01*
X0072329Y0038287D01*
X0072203Y0038402D01*
X0072080Y0038520D01*
X0071961Y0038641D01*
X0071844Y0038766D01*
X0071730Y0038893D01*
X0071619Y0039022D01*
X0071512Y0039155D01*
X0071408Y0039290D01*
X0071307Y0039427D01*
X0071209Y0039567D01*
X0071115Y0039709D01*
X0071025Y0039853D01*
X0070938Y0040000D01*
X0070854Y0040149D01*
X0070775Y0040299D01*
X0070699Y0040452D01*
X0070626Y0040606D01*
X0070558Y0040762D01*
X0070493Y0040920D01*
X0070432Y0041079D01*
X0070375Y0041240D01*
X0070322Y0041402D01*
X0070273Y0041565D01*
X0070228Y0041729D01*
X0070187Y0041895D01*
X0070149Y0042061D01*
X0070116Y0042229D01*
X0070088Y0042397D01*
X0070063Y0042565D01*
X0070042Y0042734D01*
X0070025Y0042904D01*
X0070013Y0043074D01*
X0070005Y0043244D01*
X0070001Y0043415D01*
X0070001Y0043585D01*
X0070005Y0043756D01*
X0070013Y0043926D01*
X0070025Y0044096D01*
X0070042Y0044266D01*
X0070063Y0044435D01*
X0070088Y0044603D01*
X0070116Y0044771D01*
X0070149Y0044939D01*
X0070187Y0045105D01*
X0070228Y0045271D01*
X0070273Y0045435D01*
X0070322Y0045598D01*
X0070375Y0045760D01*
X0070432Y0045921D01*
X0070493Y0046080D01*
X0070558Y0046238D01*
X0070626Y0046394D01*
X0070699Y0046548D01*
X0070775Y0046701D01*
X0070854Y0046851D01*
X0070938Y0047000D01*
X0071025Y0047147D01*
X0071115Y0047291D01*
X0071209Y0047433D01*
X0071307Y0047573D01*
X0071408Y0047710D01*
X0071512Y0047845D01*
X0071619Y0047978D01*
X0071730Y0048107D01*
X0071844Y0048234D01*
X0071961Y0048359D01*
X0072080Y0048480D01*
X0072203Y0048598D01*
X0072329Y0048713D01*
X0072457Y0048826D01*
X0072588Y0048935D01*
X0072722Y0049040D01*
X0072858Y0049143D01*
X0072997Y0049242D01*
X0073138Y0049338D01*
X0073281Y0049430D01*
X0073426Y0049519D01*
X0073574Y0049604D01*
X0073724Y0049686D01*
X0073875Y0049764D01*
X0074029Y0049838D01*
X0074184Y0049909D01*
X0074341Y0049975D01*
X0074499Y0050038D01*
X0074659Y0050097D01*
X0074821Y0050152D01*
X0074983Y0050203D01*
X0075147Y0050250D01*
X0075312Y0050293D01*
X0075478Y0050333D01*
X0075645Y0050368D01*
X0075812Y0050399D01*
X0075981Y0050425D01*
X0076150Y0050448D01*
X0076319Y0050467D01*
X0076489Y0050481D01*
X0076659Y0050492D01*
X0076830Y0050498D01*
X0077000Y0050500D01*
X0083500Y0043500D02*
X0086000Y0043500D01*
X0086000Y0040000D01*
X0087500Y0040000D02*
X0087500Y0047000D01*
X0089500Y0047000D01*
X0089500Y0040000D01*
X0087500Y0040000D01*
X0091000Y0040000D02*
X0091000Y0043500D01*
X0093500Y0043500D01*
X0091000Y0043500D02*
X0091000Y0047000D01*
X0086000Y0047000D02*
X0086000Y0043500D01*
X0234500Y0113000D02*
X0234500Y0124000D01*
X0234502Y0124060D01*
X0234507Y0124121D01*
X0234516Y0124180D01*
X0234529Y0124239D01*
X0234545Y0124298D01*
X0234565Y0124355D01*
X0234588Y0124410D01*
X0234615Y0124465D01*
X0234644Y0124517D01*
X0234677Y0124568D01*
X0234713Y0124617D01*
X0234751Y0124663D01*
X0234793Y0124707D01*
X0234837Y0124749D01*
X0234883Y0124787D01*
X0234932Y0124823D01*
X0234983Y0124856D01*
X0235035Y0124885D01*
X0235090Y0124912D01*
X0235145Y0124935D01*
X0235202Y0124955D01*
X0235261Y0124971D01*
X0235320Y0124984D01*
X0235379Y0124993D01*
X0235440Y0124998D01*
X0235500Y0125000D01*
X0241500Y0125000D01*
X0241560Y0124998D01*
X0241621Y0124993D01*
X0241680Y0124984D01*
X0241739Y0124971D01*
X0241798Y0124955D01*
X0241855Y0124935D01*
X0241910Y0124912D01*
X0241965Y0124885D01*
X0242017Y0124856D01*
X0242068Y0124823D01*
X0242117Y0124787D01*
X0242163Y0124749D01*
X0242207Y0124707D01*
X0242249Y0124663D01*
X0242287Y0124617D01*
X0242323Y0124568D01*
X0242356Y0124517D01*
X0242385Y0124465D01*
X0242412Y0124410D01*
X0242435Y0124355D01*
X0242455Y0124298D01*
X0242471Y0124239D01*
X0242484Y0124180D01*
X0242493Y0124121D01*
X0242498Y0124060D01*
X0242500Y0124000D01*
X0242500Y0113000D01*
X0242498Y0112940D01*
X0242493Y0112879D01*
X0242484Y0112820D01*
X0242471Y0112761D01*
X0242455Y0112702D01*
X0242435Y0112645D01*
X0242412Y0112590D01*
X0242385Y0112535D01*
X0242356Y0112483D01*
X0242323Y0112432D01*
X0242287Y0112383D01*
X0242249Y0112337D01*
X0242207Y0112293D01*
X0242163Y0112251D01*
X0242117Y0112213D01*
X0242068Y0112177D01*
X0242017Y0112144D01*
X0241965Y0112115D01*
X0241910Y0112088D01*
X0241855Y0112065D01*
X0241798Y0112045D01*
X0241739Y0112029D01*
X0241680Y0112016D01*
X0241621Y0112007D01*
X0241560Y0112002D01*
X0241500Y0112000D01*
X0235500Y0112000D01*
X0235440Y0112002D01*
X0235379Y0112007D01*
X0235320Y0112016D01*
X0235261Y0112029D01*
X0235202Y0112045D01*
X0235145Y0112065D01*
X0235090Y0112088D01*
X0235035Y0112115D01*
X0234983Y0112144D01*
X0234932Y0112177D01*
X0234883Y0112213D01*
X0234837Y0112251D01*
X0234793Y0112293D01*
X0234751Y0112337D01*
X0234713Y0112383D01*
X0234677Y0112432D01*
X0234644Y0112483D01*
X0234615Y0112535D01*
X0234588Y0112590D01*
X0234565Y0112645D01*
X0234545Y0112702D01*
X0234529Y0112761D01*
X0234516Y0112820D01*
X0234507Y0112879D01*
X0234502Y0112940D01*
X0234500Y0113000D01*
X0235500Y0129500D02*
X0241500Y0129500D01*
X0241560Y0129502D01*
X0241621Y0129507D01*
X0241680Y0129516D01*
X0241739Y0129529D01*
X0241798Y0129545D01*
X0241855Y0129565D01*
X0241910Y0129588D01*
X0241965Y0129615D01*
X0242017Y0129644D01*
X0242068Y0129677D01*
X0242117Y0129713D01*
X0242163Y0129751D01*
X0242207Y0129793D01*
X0242249Y0129837D01*
X0242287Y0129883D01*
X0242323Y0129932D01*
X0242356Y0129983D01*
X0242385Y0130035D01*
X0242412Y0130090D01*
X0242435Y0130145D01*
X0242455Y0130202D01*
X0242471Y0130261D01*
X0242484Y0130320D01*
X0242493Y0130379D01*
X0242498Y0130440D01*
X0242500Y0130500D01*
X0242500Y0141500D01*
X0242498Y0141560D01*
X0242493Y0141621D01*
X0242484Y0141680D01*
X0242471Y0141739D01*
X0242455Y0141798D01*
X0242435Y0141855D01*
X0242412Y0141910D01*
X0242385Y0141965D01*
X0242356Y0142017D01*
X0242323Y0142068D01*
X0242287Y0142117D01*
X0242249Y0142163D01*
X0242207Y0142207D01*
X0242163Y0142249D01*
X0242117Y0142287D01*
X0242068Y0142323D01*
X0242017Y0142356D01*
X0241965Y0142385D01*
X0241910Y0142412D01*
X0241855Y0142435D01*
X0241798Y0142455D01*
X0241739Y0142471D01*
X0241680Y0142484D01*
X0241621Y0142493D01*
X0241560Y0142498D01*
X0241500Y0142500D01*
X0235500Y0142500D01*
X0235440Y0142498D01*
X0235379Y0142493D01*
X0235320Y0142484D01*
X0235261Y0142471D01*
X0235202Y0142455D01*
X0235145Y0142435D01*
X0235090Y0142412D01*
X0235035Y0142385D01*
X0234983Y0142356D01*
X0234932Y0142323D01*
X0234883Y0142287D01*
X0234837Y0142249D01*
X0234793Y0142207D01*
X0234751Y0142163D01*
X0234713Y0142117D01*
X0234677Y0142068D01*
X0234644Y0142017D01*
X0234615Y0141965D01*
X0234588Y0141910D01*
X0234565Y0141855D01*
X0234545Y0141798D01*
X0234529Y0141739D01*
X0234516Y0141680D01*
X0234507Y0141621D01*
X0234502Y0141560D01*
X0234500Y0141500D01*
X0234500Y0130500D01*
X0234502Y0130440D01*
X0234507Y0130379D01*
X0234516Y0130320D01*
X0234529Y0130261D01*
X0234545Y0130202D01*
X0234565Y0130145D01*
X0234588Y0130090D01*
X0234615Y0130035D01*
X0234644Y0129983D01*
X0234677Y0129932D01*
X0234713Y0129883D01*
X0234751Y0129837D01*
X0234793Y0129793D01*
X0234837Y0129751D01*
X0234883Y0129713D01*
X0234932Y0129677D01*
X0234983Y0129644D01*
X0235035Y0129615D01*
X0235090Y0129588D01*
X0235145Y0129565D01*
X0235202Y0129545D01*
X0235261Y0129529D01*
X0235320Y0129516D01*
X0235379Y0129507D01*
X0235440Y0129502D01*
X0235500Y0129500D01*
X0275300Y0137000D02*
X0275300Y0115000D01*
X0277200Y0115000D01*
X0292400Y0107100D02*
X0292400Y0103100D01*
X0297500Y0083000D02*
X0274500Y0083000D01*
X0283500Y0079500D02*
X0283500Y0076000D01*
X0281000Y0076000D01*
X0283500Y0076000D02*
X0283500Y0072500D01*
X0285000Y0072500D02*
X0285000Y0079500D01*
X0287000Y0079500D01*
X0287000Y0072500D01*
X0285000Y0072500D01*
X0288500Y0072500D02*
X0288500Y0076000D01*
X0291000Y0076000D01*
X0288500Y0076000D02*
X0288500Y0079500D01*
X0297500Y0083000D02*
X0297670Y0082998D01*
X0297841Y0082992D01*
X0298011Y0082981D01*
X0298181Y0082967D01*
X0298350Y0082948D01*
X0298519Y0082925D01*
X0298688Y0082899D01*
X0298855Y0082868D01*
X0299022Y0082833D01*
X0299188Y0082793D01*
X0299353Y0082750D01*
X0299517Y0082703D01*
X0299679Y0082652D01*
X0299841Y0082597D01*
X0300001Y0082538D01*
X0300159Y0082475D01*
X0300316Y0082409D01*
X0300471Y0082338D01*
X0300625Y0082264D01*
X0300776Y0082186D01*
X0300926Y0082104D01*
X0301074Y0082019D01*
X0301219Y0081930D01*
X0301362Y0081838D01*
X0301503Y0081742D01*
X0301642Y0081643D01*
X0301778Y0081540D01*
X0301912Y0081435D01*
X0302043Y0081326D01*
X0302171Y0081213D01*
X0302297Y0081098D01*
X0302420Y0080980D01*
X0302539Y0080859D01*
X0302656Y0080734D01*
X0302770Y0080607D01*
X0302881Y0080478D01*
X0302988Y0080345D01*
X0303092Y0080210D01*
X0303193Y0080073D01*
X0303291Y0079933D01*
X0303385Y0079791D01*
X0303475Y0079647D01*
X0303562Y0079500D01*
X0303646Y0079351D01*
X0303725Y0079201D01*
X0303801Y0079048D01*
X0303874Y0078894D01*
X0303942Y0078738D01*
X0304007Y0078580D01*
X0304068Y0078421D01*
X0304125Y0078260D01*
X0304178Y0078098D01*
X0304227Y0077935D01*
X0304272Y0077771D01*
X0304313Y0077605D01*
X0304351Y0077439D01*
X0304384Y0077271D01*
X0304412Y0077103D01*
X0304437Y0076935D01*
X0304458Y0076766D01*
X0304475Y0076596D01*
X0304487Y0076426D01*
X0304495Y0076256D01*
X0304499Y0076085D01*
X0304499Y0075915D01*
X0304495Y0075744D01*
X0304487Y0075574D01*
X0304475Y0075404D01*
X0304458Y0075234D01*
X0304437Y0075065D01*
X0304412Y0074897D01*
X0304384Y0074729D01*
X0304351Y0074561D01*
X0304313Y0074395D01*
X0304272Y0074229D01*
X0304227Y0074065D01*
X0304178Y0073902D01*
X0304125Y0073740D01*
X0304068Y0073579D01*
X0304007Y0073420D01*
X0303942Y0073262D01*
X0303874Y0073106D01*
X0303801Y0072952D01*
X0303725Y0072799D01*
X0303646Y0072649D01*
X0303562Y0072500D01*
X0303475Y0072353D01*
X0303385Y0072209D01*
X0303291Y0072067D01*
X0303193Y0071927D01*
X0303092Y0071790D01*
X0302988Y0071655D01*
X0302881Y0071522D01*
X0302770Y0071393D01*
X0302656Y0071266D01*
X0302539Y0071141D01*
X0302420Y0071020D01*
X0302297Y0070902D01*
X0302171Y0070787D01*
X0302043Y0070674D01*
X0301912Y0070565D01*
X0301778Y0070460D01*
X0301642Y0070357D01*
X0301503Y0070258D01*
X0301362Y0070162D01*
X0301219Y0070070D01*
X0301074Y0069981D01*
X0300926Y0069896D01*
X0300776Y0069814D01*
X0300625Y0069736D01*
X0300471Y0069662D01*
X0300316Y0069591D01*
X0300159Y0069525D01*
X0300001Y0069462D01*
X0299841Y0069403D01*
X0299679Y0069348D01*
X0299517Y0069297D01*
X0299353Y0069250D01*
X0299188Y0069207D01*
X0299022Y0069167D01*
X0298855Y0069132D01*
X0298688Y0069101D01*
X0298519Y0069075D01*
X0298350Y0069052D01*
X0298181Y0069033D01*
X0298011Y0069019D01*
X0297841Y0069008D01*
X0297670Y0069002D01*
X0297500Y0069000D01*
X0274500Y0069000D01*
X0274330Y0069002D01*
X0274159Y0069008D01*
X0273989Y0069019D01*
X0273819Y0069033D01*
X0273650Y0069052D01*
X0273481Y0069075D01*
X0273312Y0069101D01*
X0273145Y0069132D01*
X0272978Y0069167D01*
X0272812Y0069207D01*
X0272647Y0069250D01*
X0272483Y0069297D01*
X0272321Y0069348D01*
X0272159Y0069403D01*
X0271999Y0069462D01*
X0271841Y0069525D01*
X0271684Y0069591D01*
X0271529Y0069662D01*
X0271375Y0069736D01*
X0271224Y0069814D01*
X0271074Y0069896D01*
X0270926Y0069981D01*
X0270781Y0070070D01*
X0270638Y0070162D01*
X0270497Y0070258D01*
X0270358Y0070357D01*
X0270222Y0070460D01*
X0270088Y0070565D01*
X0269957Y0070674D01*
X0269829Y0070787D01*
X0269703Y0070902D01*
X0269580Y0071020D01*
X0269461Y0071141D01*
X0269344Y0071266D01*
X0269230Y0071393D01*
X0269119Y0071522D01*
X0269012Y0071655D01*
X0268908Y0071790D01*
X0268807Y0071927D01*
X0268709Y0072067D01*
X0268615Y0072209D01*
X0268525Y0072353D01*
X0268438Y0072500D01*
X0268354Y0072649D01*
X0268275Y0072799D01*
X0268199Y0072952D01*
X0268126Y0073106D01*
X0268058Y0073262D01*
X0267993Y0073420D01*
X0267932Y0073579D01*
X0267875Y0073740D01*
X0267822Y0073902D01*
X0267773Y0074065D01*
X0267728Y0074229D01*
X0267687Y0074395D01*
X0267649Y0074561D01*
X0267616Y0074729D01*
X0267588Y0074897D01*
X0267563Y0075065D01*
X0267542Y0075234D01*
X0267525Y0075404D01*
X0267513Y0075574D01*
X0267505Y0075744D01*
X0267501Y0075915D01*
X0267501Y0076085D01*
X0267505Y0076256D01*
X0267513Y0076426D01*
X0267525Y0076596D01*
X0267542Y0076766D01*
X0267563Y0076935D01*
X0267588Y0077103D01*
X0267616Y0077271D01*
X0267649Y0077439D01*
X0267687Y0077605D01*
X0267728Y0077771D01*
X0267773Y0077935D01*
X0267822Y0078098D01*
X0267875Y0078260D01*
X0267932Y0078421D01*
X0267993Y0078580D01*
X0268058Y0078738D01*
X0268126Y0078894D01*
X0268199Y0079048D01*
X0268275Y0079201D01*
X0268354Y0079351D01*
X0268438Y0079500D01*
X0268525Y0079647D01*
X0268615Y0079791D01*
X0268709Y0079933D01*
X0268807Y0080073D01*
X0268908Y0080210D01*
X0269012Y0080345D01*
X0269119Y0080478D01*
X0269230Y0080607D01*
X0269344Y0080734D01*
X0269461Y0080859D01*
X0269580Y0080980D01*
X0269703Y0081098D01*
X0269829Y0081213D01*
X0269957Y0081326D01*
X0270088Y0081435D01*
X0270222Y0081540D01*
X0270358Y0081643D01*
X0270497Y0081742D01*
X0270638Y0081838D01*
X0270781Y0081930D01*
X0270926Y0082019D01*
X0271074Y0082104D01*
X0271224Y0082186D01*
X0271375Y0082264D01*
X0271529Y0082338D01*
X0271684Y0082409D01*
X0271841Y0082475D01*
X0271999Y0082538D01*
X0272159Y0082597D01*
X0272321Y0082652D01*
X0272483Y0082703D01*
X0272647Y0082750D01*
X0272812Y0082793D01*
X0272978Y0082833D01*
X0273145Y0082868D01*
X0273312Y0082899D01*
X0273481Y0082925D01*
X0273650Y0082948D01*
X0273819Y0082967D01*
X0273989Y0082981D01*
X0274159Y0082992D01*
X0274330Y0082998D01*
X0274500Y0083000D01*
X0314800Y0115000D02*
X0316700Y0115000D01*
X0316700Y0124800D01*
X0316700Y0127200D01*
X0316700Y0137000D01*
X0314800Y0137000D01*
X0316700Y0127200D02*
X0316631Y0127198D01*
X0316563Y0127192D01*
X0316495Y0127182D01*
X0316428Y0127169D01*
X0316362Y0127151D01*
X0316297Y0127130D01*
X0316233Y0127105D01*
X0316171Y0127077D01*
X0316110Y0127045D01*
X0316051Y0127010D01*
X0315995Y0126971D01*
X0315940Y0126929D01*
X0315889Y0126884D01*
X0315839Y0126836D01*
X0315793Y0126786D01*
X0315750Y0126733D01*
X0315709Y0126677D01*
X0315672Y0126620D01*
X0315639Y0126560D01*
X0315608Y0126498D01*
X0315582Y0126435D01*
X0315559Y0126371D01*
X0315539Y0126305D01*
X0315524Y0126238D01*
X0315512Y0126171D01*
X0315504Y0126103D01*
X0315500Y0126034D01*
X0315500Y0125966D01*
X0315504Y0125897D01*
X0315512Y0125829D01*
X0315524Y0125762D01*
X0315539Y0125695D01*
X0315559Y0125629D01*
X0315582Y0125565D01*
X0315608Y0125502D01*
X0315639Y0125440D01*
X0315672Y0125380D01*
X0315709Y0125323D01*
X0315750Y0125267D01*
X0315793Y0125214D01*
X0315839Y0125164D01*
X0315889Y0125116D01*
X0315940Y0125071D01*
X0315995Y0125029D01*
X0316051Y0124990D01*
X0316110Y0124955D01*
X0316171Y0124923D01*
X0316233Y0124895D01*
X0316297Y0124870D01*
X0316362Y0124849D01*
X0316428Y0124831D01*
X0316495Y0124818D01*
X0316563Y0124808D01*
X0316631Y0124802D01*
X0316700Y0124800D01*
X0289700Y0144800D02*
X0289700Y0148800D01*
X0277200Y0137000D02*
X0275300Y0137000D01*
X0362500Y0083100D02*
X0362500Y0078900D01*
X0367200Y0077600D02*
X0369800Y0077600D01*
X0374500Y0078900D02*
X0374500Y0079800D01*
X0374500Y0082200D01*
X0374500Y0083100D01*
X0374500Y0082200D02*
X0374431Y0082198D01*
X0374363Y0082192D01*
X0374295Y0082182D01*
X0374228Y0082169D01*
X0374162Y0082151D01*
X0374097Y0082130D01*
X0374033Y0082105D01*
X0373971Y0082077D01*
X0373910Y0082045D01*
X0373851Y0082010D01*
X0373795Y0081971D01*
X0373740Y0081929D01*
X0373689Y0081884D01*
X0373639Y0081836D01*
X0373593Y0081786D01*
X0373550Y0081733D01*
X0373509Y0081677D01*
X0373472Y0081620D01*
X0373439Y0081560D01*
X0373408Y0081498D01*
X0373382Y0081435D01*
X0373359Y0081371D01*
X0373339Y0081305D01*
X0373324Y0081238D01*
X0373312Y0081171D01*
X0373304Y0081103D01*
X0373300Y0081034D01*
X0373300Y0080966D01*
X0373304Y0080897D01*
X0373312Y0080829D01*
X0373324Y0080762D01*
X0373339Y0080695D01*
X0373359Y0080629D01*
X0373382Y0080565D01*
X0373408Y0080502D01*
X0373439Y0080440D01*
X0373472Y0080380D01*
X0373509Y0080323D01*
X0373550Y0080267D01*
X0373593Y0080214D01*
X0373639Y0080164D01*
X0373689Y0080116D01*
X0373740Y0080071D01*
X0373795Y0080029D01*
X0373851Y0079990D01*
X0373910Y0079955D01*
X0373971Y0079923D01*
X0374033Y0079895D01*
X0374097Y0079870D01*
X0374162Y0079849D01*
X0374228Y0079831D01*
X0374295Y0079818D01*
X0374363Y0079808D01*
X0374431Y0079802D01*
X0374500Y0079800D01*
X0360853Y0027705D02*
X0357651Y0027705D01*
X0357651Y0021300D01*
X0360853Y0021300D01*
X0361921Y0022368D01*
X0361921Y0023435D01*
X0360853Y0024503D01*
X0357651Y0024503D01*
X0355476Y0026638D02*
X0354408Y0027705D01*
X0352273Y0027705D01*
X0351205Y0026638D01*
X0351205Y0022368D01*
X0352273Y0021300D01*
X0354408Y0021300D01*
X0355476Y0022368D01*
X0349030Y0024503D02*
X0349030Y0026638D01*
X0347962Y0027705D01*
X0344760Y0027705D01*
X0344760Y0021300D01*
X0344760Y0023435D02*
X0347962Y0023435D01*
X0349030Y0024503D01*
X0360853Y0024503D02*
X0361921Y0025570D01*
X0361921Y0026638D01*
X0360853Y0027705D01*
X0336152Y0025570D02*
X0334017Y0025570D01*
X0335085Y0026638D02*
X0335085Y0022368D01*
X0336152Y0021300D01*
X0331842Y0021300D02*
X0331842Y0024503D01*
X0330774Y0025570D01*
X0327572Y0025570D01*
X0327572Y0021300D01*
X0325397Y0023435D02*
X0321126Y0023435D01*
X0321126Y0022368D02*
X0321126Y0024503D01*
X0322194Y0025570D01*
X0324329Y0025570D01*
X0325397Y0024503D01*
X0325397Y0023435D01*
X0324329Y0021300D02*
X0322194Y0021300D01*
X0321126Y0022368D01*
X0318951Y0021300D02*
X0318951Y0024503D01*
X0317883Y0025570D01*
X0316816Y0024503D01*
X0316816Y0021300D01*
X0314681Y0021300D02*
X0314681Y0025570D01*
X0315748Y0025570D01*
X0316816Y0024503D01*
X0312506Y0024503D02*
X0312506Y0023435D01*
X0308235Y0023435D01*
X0308235Y0022368D02*
X0308235Y0024503D01*
X0309303Y0025570D01*
X0311438Y0025570D01*
X0312506Y0024503D01*
X0311438Y0021300D02*
X0309303Y0021300D01*
X0308235Y0022368D01*
X0306067Y0025570D02*
X0304999Y0025570D01*
X0302864Y0023435D01*
X0302864Y0021300D02*
X0302864Y0025570D01*
X0300689Y0025570D02*
X0300689Y0021300D01*
X0297486Y0021300D01*
X0296418Y0022368D01*
X0296418Y0025570D01*
X0294243Y0025570D02*
X0291041Y0025570D01*
X0289973Y0024503D01*
X0291041Y0023435D01*
X0293176Y0023435D01*
X0294243Y0022368D01*
X0293176Y0021300D01*
X0289973Y0021300D01*
X0287798Y0021300D02*
X0287798Y0024503D01*
X0286730Y0025570D01*
X0284595Y0025570D01*
X0284595Y0023435D02*
X0287798Y0023435D01*
X0287798Y0021300D02*
X0284595Y0021300D01*
X0283527Y0022368D01*
X0284595Y0023435D01*
X0281352Y0023435D02*
X0277082Y0023435D01*
X0277082Y0022368D02*
X0277082Y0024503D01*
X0278150Y0025570D01*
X0280285Y0025570D01*
X0281352Y0024503D01*
X0281352Y0023435D01*
X0280285Y0021300D02*
X0278150Y0021300D01*
X0277082Y0022368D01*
X0274907Y0021300D02*
X0274907Y0027705D01*
X0272772Y0025570D01*
X0270636Y0027705D01*
X0270636Y0021300D01*
X0262016Y0023435D02*
X0262016Y0027705D01*
X0262016Y0023435D02*
X0259881Y0021300D01*
X0257745Y0023435D01*
X0257745Y0027705D01*
X0255570Y0026638D02*
X0255570Y0024503D01*
X0254503Y0023435D01*
X0251300Y0023435D01*
X0251300Y0021300D02*
X0251300Y0027705D01*
X0254503Y0027705D01*
X0255570Y0026638D01*
X0369100Y0150100D02*
X0372900Y0150100D01*
X0372900Y0161900D02*
X0372200Y0161900D01*
X0369800Y0161900D01*
X0369100Y0161900D01*
X0369800Y0161900D02*
X0369802Y0161831D01*
X0369808Y0161763D01*
X0369818Y0161695D01*
X0369831Y0161628D01*
X0369849Y0161562D01*
X0369870Y0161497D01*
X0369895Y0161433D01*
X0369923Y0161371D01*
X0369955Y0161310D01*
X0369990Y0161251D01*
X0370029Y0161195D01*
X0370071Y0161140D01*
X0370116Y0161089D01*
X0370164Y0161039D01*
X0370214Y0160993D01*
X0370267Y0160950D01*
X0370323Y0160909D01*
X0370380Y0160872D01*
X0370440Y0160839D01*
X0370502Y0160808D01*
X0370565Y0160782D01*
X0370629Y0160759D01*
X0370695Y0160739D01*
X0370762Y0160724D01*
X0370829Y0160712D01*
X0370897Y0160704D01*
X0370966Y0160700D01*
X0371034Y0160700D01*
X0371103Y0160704D01*
X0371171Y0160712D01*
X0371238Y0160724D01*
X0371305Y0160739D01*
X0371371Y0160759D01*
X0371435Y0160782D01*
X0371498Y0160808D01*
X0371560Y0160839D01*
X0371620Y0160872D01*
X0371677Y0160909D01*
X0371733Y0160950D01*
X0371786Y0160993D01*
X0371836Y0161039D01*
X0371884Y0161089D01*
X0371929Y0161140D01*
X0371971Y0161195D01*
X0372010Y0161251D01*
X0372045Y0161310D01*
X0372077Y0161371D01*
X0372105Y0161433D01*
X0372130Y0161497D01*
X0372151Y0161562D01*
X0372169Y0161628D01*
X0372182Y0161695D01*
X0372192Y0161763D01*
X0372198Y0161831D01*
X0372200Y0161900D01*
X0376374Y0226500D02*
X0358874Y0226500D01*
X0358874Y0231000D01*
X0376374Y0231000D01*
X0376374Y0227500D01*
X0377874Y0227500D01*
X0377874Y0233000D01*
X0378874Y0233000D02*
X0378874Y0226500D01*
X0376374Y0226500D01*
X0376374Y0227500D01*
X0377874Y0249000D02*
X0377874Y0254500D01*
X0376374Y0254500D01*
X0376374Y0251000D01*
X0358874Y0251000D01*
X0358874Y0255500D01*
X0376374Y0255500D01*
X0378874Y0255500D01*
X0378874Y0249000D01*
X0376374Y0254500D02*
X0376374Y0255500D01*
X0348374Y0241000D02*
X0322374Y0241000D01*
X0311874Y0251000D02*
X0311874Y0255500D01*
X0294374Y0255500D01*
X0291874Y0255500D01*
X0291874Y0249000D01*
X0292874Y0249000D02*
X0292874Y0254500D01*
X0294374Y0254500D01*
X0294374Y0251000D01*
X0311874Y0251000D01*
X0294374Y0254500D02*
X0294374Y0255500D01*
X0292874Y0233000D02*
X0292874Y0227500D01*
X0294374Y0227500D01*
X0294374Y0231000D01*
X0311874Y0231000D01*
X0311874Y0226500D01*
X0294374Y0226500D01*
X0291874Y0226500D01*
X0291874Y0233000D01*
X0294374Y0227500D02*
X0294374Y0226500D01*
D12*
X0285631Y0223304D02*
X0285631Y0218700D01*
X0287165Y0218700D02*
X0284096Y0218700D01*
X0282561Y0218700D02*
X0281027Y0220235D01*
X0281794Y0220235D02*
X0279492Y0220235D01*
X0279492Y0218700D02*
X0279492Y0223304D01*
X0281794Y0223304D01*
X0282561Y0222537D01*
X0282561Y0221002D01*
X0281794Y0220235D01*
X0284096Y0221769D02*
X0285631Y0223304D01*
X0285655Y0215804D02*
X0287190Y0215804D01*
X0287957Y0215037D01*
X0284888Y0211967D01*
X0285655Y0211200D01*
X0287190Y0211200D01*
X0287957Y0211967D01*
X0287957Y0215037D01*
X0289492Y0215037D02*
X0289492Y0211967D01*
X0292561Y0215037D01*
X0292561Y0211967D01*
X0291794Y0211200D01*
X0290259Y0211200D01*
X0289492Y0211967D01*
X0289492Y0215037D02*
X0290259Y0215804D01*
X0291794Y0215804D01*
X0292561Y0215037D01*
X0294096Y0215804D02*
X0294096Y0213502D01*
X0295631Y0214269D01*
X0296398Y0214269D01*
X0297165Y0213502D01*
X0297165Y0211967D01*
X0296398Y0211200D01*
X0294863Y0211200D01*
X0294096Y0211967D01*
X0294050Y0207029D02*
X0290981Y0207029D01*
X0294050Y0207029D02*
X0294050Y0204727D01*
X0293283Y0203960D01*
X0290981Y0203960D01*
X0294050Y0202425D02*
X0294050Y0199356D01*
X0294050Y0200891D02*
X0289446Y0200891D01*
X0290981Y0199356D01*
X0293283Y0197821D02*
X0294050Y0197821D01*
X0294050Y0197054D01*
X0293283Y0197054D01*
X0293283Y0197821D01*
X0293283Y0195519D02*
X0290213Y0195519D01*
X0293283Y0192450D01*
X0294050Y0193217D01*
X0294050Y0194752D01*
X0293283Y0195519D01*
X0293283Y0192450D02*
X0290213Y0192450D01*
X0289446Y0193217D01*
X0289446Y0194752D01*
X0290213Y0195519D01*
X0291748Y0190581D02*
X0293283Y0190581D01*
X0294050Y0189814D01*
X0294050Y0187512D01*
X0295585Y0187512D02*
X0290981Y0187512D01*
X0290981Y0189814D01*
X0291748Y0190581D01*
X0296696Y0189356D02*
X0298998Y0187054D01*
X0298998Y0190123D01*
X0301300Y0189356D02*
X0296696Y0189356D01*
X0297463Y0192450D02*
X0296696Y0193217D01*
X0296696Y0194752D01*
X0297463Y0195519D01*
X0297463Y0197054D02*
X0296696Y0197821D01*
X0296696Y0199356D01*
X0297463Y0200123D01*
X0298231Y0200123D01*
X0298998Y0199356D01*
X0299765Y0200123D01*
X0300533Y0200123D01*
X0301300Y0199356D01*
X0301300Y0197821D01*
X0300533Y0197054D01*
X0300533Y0195519D02*
X0301300Y0194752D01*
X0301300Y0193217D01*
X0300533Y0192450D01*
X0297463Y0192450D01*
X0298998Y0198589D02*
X0298998Y0199356D01*
X0307450Y0204002D02*
X0310519Y0204002D01*
X0312054Y0202467D02*
X0312054Y0201700D01*
X0312054Y0202467D02*
X0315123Y0205537D01*
X0315123Y0206304D01*
X0312054Y0206304D01*
X0309752Y0206304D02*
X0307450Y0204002D01*
X0309752Y0201700D02*
X0309752Y0206304D01*
X0316658Y0204769D02*
X0316658Y0202467D01*
X0317425Y0201700D01*
X0319727Y0201700D01*
X0319727Y0204769D01*
X0322231Y0194529D02*
X0325300Y0194529D01*
X0325300Y0192227D01*
X0324533Y0191460D01*
X0322231Y0191460D01*
X0325300Y0189925D02*
X0325300Y0186856D01*
X0325300Y0188391D02*
X0320696Y0188391D01*
X0322231Y0186856D01*
X0324533Y0185321D02*
X0325300Y0185321D01*
X0325300Y0184554D01*
X0324533Y0184554D01*
X0324533Y0185321D01*
X0324533Y0183019D02*
X0321463Y0183019D01*
X0324533Y0179950D01*
X0325300Y0180717D01*
X0325300Y0182252D01*
X0324533Y0183019D01*
X0324533Y0179950D02*
X0321463Y0179950D01*
X0320696Y0180717D01*
X0320696Y0182252D01*
X0321463Y0183019D01*
X0334492Y0191217D02*
X0335259Y0190450D01*
X0336794Y0190450D01*
X0337561Y0191217D01*
X0339096Y0190450D02*
X0342165Y0190450D01*
X0340631Y0190450D02*
X0340631Y0195054D01*
X0339096Y0193519D01*
X0337561Y0194287D02*
X0336794Y0195054D01*
X0335259Y0195054D01*
X0334492Y0194287D01*
X0334492Y0191217D01*
X0346696Y0184294D02*
X0346696Y0182759D01*
X0347463Y0181992D01*
X0350533Y0181992D01*
X0347463Y0185061D01*
X0350533Y0185061D01*
X0351300Y0184294D01*
X0351300Y0182759D01*
X0350533Y0181992D01*
X0351300Y0180457D02*
X0351300Y0177388D01*
X0351300Y0178923D02*
X0346696Y0178923D01*
X0348231Y0177388D01*
X0346696Y0184294D02*
X0347463Y0185061D01*
X0348231Y0186596D02*
X0350533Y0186596D01*
X0351300Y0187363D01*
X0351300Y0189665D01*
X0348231Y0189665D01*
X0362388Y0185537D02*
X0362388Y0182467D01*
X0363156Y0181700D01*
X0364690Y0181700D01*
X0365457Y0182467D01*
X0366992Y0181700D02*
X0370061Y0181700D01*
X0368527Y0181700D02*
X0368527Y0186304D01*
X0366992Y0184769D01*
X0365457Y0185537D02*
X0364690Y0186304D01*
X0363156Y0186304D01*
X0362388Y0185537D01*
X0371596Y0184002D02*
X0371596Y0182467D01*
X0372363Y0181700D01*
X0373898Y0181700D01*
X0374665Y0182467D01*
X0374665Y0183235D01*
X0373898Y0184002D01*
X0371596Y0184002D01*
X0373131Y0185537D01*
X0374665Y0186304D01*
X0374641Y0171304D02*
X0374641Y0166700D01*
X0376175Y0166700D02*
X0373106Y0166700D01*
X0371571Y0166700D02*
X0370804Y0166700D01*
X0370804Y0167467D01*
X0371571Y0167467D01*
X0371571Y0166700D01*
X0369269Y0167467D02*
X0368502Y0166700D01*
X0366967Y0166700D01*
X0366200Y0167467D01*
X0369269Y0170537D01*
X0369269Y0167467D01*
X0366200Y0167467D02*
X0366200Y0170537D01*
X0366967Y0171304D01*
X0368502Y0171304D01*
X0369269Y0170537D01*
X0373106Y0169769D02*
X0374641Y0171304D01*
X0377710Y0169769D02*
X0377710Y0167467D01*
X0378477Y0166700D01*
X0380779Y0166700D01*
X0380779Y0169769D01*
X0375915Y0147554D02*
X0372846Y0147554D01*
X0369777Y0147554D02*
X0369777Y0142950D01*
X0371311Y0142950D02*
X0368242Y0142950D01*
X0366707Y0143717D02*
X0365940Y0142950D01*
X0364406Y0142950D01*
X0363638Y0143717D01*
X0363638Y0146787D01*
X0364406Y0147554D01*
X0365940Y0147554D01*
X0366707Y0146787D01*
X0368242Y0146019D02*
X0369777Y0147554D01*
X0372846Y0143717D02*
X0372846Y0142950D01*
X0372846Y0143717D02*
X0375915Y0146787D01*
X0375915Y0147554D01*
X0371027Y0132804D02*
X0371027Y0128200D01*
X0372561Y0128200D02*
X0369492Y0128200D01*
X0367957Y0128200D02*
X0367190Y0128200D01*
X0367190Y0128967D01*
X0367957Y0128967D01*
X0367957Y0128200D01*
X0365656Y0128967D02*
X0364888Y0128200D01*
X0363354Y0128200D01*
X0362586Y0128967D01*
X0365656Y0132037D01*
X0365656Y0128967D01*
X0365656Y0132037D02*
X0364888Y0132804D01*
X0363354Y0132804D01*
X0362586Y0132037D01*
X0362586Y0128967D01*
X0369492Y0131269D02*
X0371027Y0132804D01*
X0374096Y0131269D02*
X0374096Y0128967D01*
X0374863Y0128200D01*
X0377165Y0128200D01*
X0377165Y0131269D01*
X0378675Y0116304D02*
X0380210Y0116304D01*
X0380977Y0115537D01*
X0380977Y0114769D01*
X0380210Y0114002D01*
X0378675Y0114002D01*
X0377908Y0114769D01*
X0377908Y0115537D01*
X0378675Y0116304D01*
X0378675Y0114002D02*
X0377908Y0113235D01*
X0377908Y0112467D01*
X0378675Y0111700D01*
X0380210Y0111700D01*
X0380977Y0112467D01*
X0380977Y0113235D01*
X0380210Y0114002D01*
X0376373Y0114769D02*
X0376373Y0115537D01*
X0375606Y0116304D01*
X0374071Y0116304D01*
X0373304Y0115537D01*
X0371769Y0115537D02*
X0371002Y0116304D01*
X0369467Y0116304D01*
X0368700Y0115537D01*
X0368700Y0112467D01*
X0369467Y0111700D01*
X0371002Y0111700D01*
X0371769Y0112467D01*
X0373304Y0111700D02*
X0376373Y0114769D01*
X0376373Y0111700D02*
X0373304Y0111700D01*
X0372165Y0098769D02*
X0372165Y0095700D01*
X0369863Y0095700D01*
X0369096Y0096467D01*
X0369096Y0098769D01*
X0367561Y0095700D02*
X0364492Y0095700D01*
X0366027Y0095700D02*
X0366027Y0100304D01*
X0364492Y0098769D01*
X0357800Y0099269D02*
X0357800Y0096200D01*
X0357800Y0097735D02*
X0353196Y0097735D01*
X0354731Y0096200D01*
X0353963Y0100804D02*
X0353196Y0101571D01*
X0353196Y0103106D01*
X0353963Y0103873D01*
X0357033Y0100804D01*
X0357800Y0101571D01*
X0357800Y0103106D01*
X0357033Y0103873D01*
X0353963Y0103873D01*
X0354731Y0105408D02*
X0354731Y0107710D01*
X0355498Y0108477D01*
X0357800Y0108477D01*
X0357800Y0105408D02*
X0354731Y0105408D01*
X0353963Y0100804D02*
X0357033Y0100804D01*
X0343800Y0100804D02*
X0340731Y0103873D01*
X0339963Y0103873D01*
X0339196Y0103106D01*
X0339196Y0101571D01*
X0339963Y0100804D01*
X0339963Y0099269D02*
X0339196Y0098502D01*
X0339196Y0096967D01*
X0339963Y0096200D01*
X0343033Y0096200D01*
X0343800Y0096967D01*
X0343800Y0098502D01*
X0343033Y0099269D01*
X0343800Y0100804D02*
X0343800Y0103873D01*
X0343033Y0105408D02*
X0343800Y0106175D01*
X0343800Y0107710D01*
X0343033Y0108477D01*
X0339963Y0108477D01*
X0339196Y0107710D01*
X0339196Y0106175D01*
X0339963Y0105408D01*
X0340731Y0105408D01*
X0341498Y0106175D01*
X0341498Y0108477D01*
X0348156Y0072554D02*
X0347388Y0071787D01*
X0347388Y0068717D01*
X0348156Y0067950D01*
X0349690Y0067950D01*
X0350457Y0068717D01*
X0351992Y0068717D02*
X0352759Y0067950D01*
X0354294Y0067950D01*
X0355061Y0068717D01*
X0355061Y0069485D01*
X0354294Y0070252D01*
X0353527Y0070252D01*
X0354294Y0070252D02*
X0355061Y0071019D01*
X0355061Y0071787D01*
X0354294Y0072554D01*
X0352759Y0072554D01*
X0351992Y0071787D01*
X0350457Y0071787D02*
X0349690Y0072554D01*
X0348156Y0072554D01*
X0356596Y0071787D02*
X0356596Y0068717D01*
X0359665Y0071787D01*
X0359665Y0068717D01*
X0358898Y0067950D01*
X0357363Y0067950D01*
X0356596Y0068717D01*
X0356596Y0071787D02*
X0357363Y0072554D01*
X0358898Y0072554D01*
X0359665Y0071787D01*
X0360259Y0057804D02*
X0359492Y0057037D01*
X0360259Y0057804D02*
X0361794Y0057804D01*
X0362561Y0057037D01*
X0362561Y0056269D01*
X0359492Y0053200D01*
X0362561Y0053200D01*
X0364096Y0053967D02*
X0364863Y0053200D01*
X0367165Y0053200D01*
X0367165Y0056269D01*
X0364096Y0056269D02*
X0364096Y0053967D01*
X0357957Y0053967D02*
X0357957Y0053200D01*
X0357190Y0053200D01*
X0357190Y0053967D01*
X0357957Y0053967D01*
X0355656Y0053200D02*
X0352586Y0053200D01*
X0355656Y0056269D01*
X0355656Y0057037D01*
X0354888Y0057804D01*
X0353354Y0057804D01*
X0352586Y0057037D01*
X0339863Y0018304D02*
X0338328Y0017537D01*
X0336794Y0016002D01*
X0339095Y0016002D01*
X0339863Y0015235D01*
X0339863Y0014467D01*
X0339095Y0013700D01*
X0337561Y0013700D01*
X0336794Y0014467D01*
X0336794Y0016002D01*
X0335259Y0013700D02*
X0332190Y0013700D01*
X0333724Y0013700D02*
X0333724Y0018304D01*
X0332190Y0016769D01*
X0330655Y0017537D02*
X0327586Y0014467D01*
X0328353Y0013700D01*
X0329888Y0013700D01*
X0330655Y0014467D01*
X0330655Y0017537D01*
X0329888Y0018304D01*
X0328353Y0018304D01*
X0327586Y0017537D01*
X0327586Y0014467D01*
X0326051Y0013700D02*
X0322982Y0013700D01*
X0326051Y0016769D01*
X0326051Y0017537D01*
X0325284Y0018304D01*
X0323749Y0018304D01*
X0322982Y0017537D01*
X0316843Y0016002D02*
X0316843Y0013700D01*
X0316843Y0016002D02*
X0316076Y0016769D01*
X0314541Y0016769D01*
X0313774Y0016002D01*
X0312239Y0016769D02*
X0309937Y0016769D01*
X0309170Y0016002D01*
X0309170Y0014467D01*
X0309937Y0013700D01*
X0312239Y0013700D01*
X0313774Y0013700D02*
X0313774Y0018304D01*
X0307635Y0016769D02*
X0306868Y0016769D01*
X0305333Y0015235D01*
X0305333Y0016769D02*
X0305333Y0013700D01*
X0303799Y0013700D02*
X0303799Y0016002D01*
X0303031Y0016769D01*
X0301497Y0016769D01*
X0301497Y0015235D02*
X0300729Y0014467D01*
X0301497Y0013700D01*
X0303799Y0013700D01*
X0303799Y0015235D02*
X0301497Y0015235D01*
X0299195Y0013700D02*
X0299195Y0018304D01*
X0297660Y0016769D01*
X0296126Y0018304D01*
X0296126Y0013700D01*
X0297660Y0011571D02*
X0297660Y0010804D01*
X0297660Y0009269D02*
X0297660Y0006200D01*
X0296893Y0006200D02*
X0298427Y0006200D01*
X0299962Y0006200D02*
X0302264Y0006200D01*
X0303031Y0006967D01*
X0302264Y0007735D01*
X0300729Y0007735D01*
X0299962Y0008502D01*
X0300729Y0009269D01*
X0303031Y0009269D01*
X0297660Y0009269D02*
X0296893Y0009269D01*
X0294591Y0010804D02*
X0294591Y0006200D01*
X0293824Y0006200D02*
X0295358Y0006200D01*
X0292289Y0006200D02*
X0292289Y0008502D01*
X0291522Y0009269D01*
X0289987Y0009269D01*
X0289987Y0007735D02*
X0292289Y0007735D01*
X0292289Y0006200D02*
X0289987Y0006200D01*
X0289220Y0006967D01*
X0289987Y0007735D01*
X0287685Y0008502D02*
X0287685Y0006200D01*
X0287685Y0008502D02*
X0286918Y0009269D01*
X0285383Y0009269D01*
X0284616Y0008502D01*
X0283081Y0009269D02*
X0280779Y0009269D01*
X0280012Y0008502D01*
X0280012Y0006967D01*
X0280779Y0006200D01*
X0283081Y0006200D01*
X0284616Y0006200D02*
X0284616Y0010804D01*
X0280779Y0014467D02*
X0280012Y0013700D01*
X0278477Y0013700D01*
X0277710Y0014467D01*
X0276175Y0014467D02*
X0276175Y0013700D01*
X0275408Y0013700D01*
X0275408Y0014467D01*
X0276175Y0014467D01*
X0273873Y0013700D02*
X0270804Y0013700D01*
X0273873Y0016769D01*
X0273873Y0017537D01*
X0273106Y0018304D01*
X0271571Y0018304D01*
X0270804Y0017537D01*
X0269269Y0016769D02*
X0267735Y0013700D01*
X0266200Y0016769D01*
X0266200Y0010804D02*
X0268502Y0010804D01*
X0269269Y0010037D01*
X0269269Y0008502D01*
X0268502Y0007735D01*
X0266200Y0007735D01*
X0266200Y0006200D02*
X0266200Y0010804D01*
X0271571Y0009269D02*
X0273106Y0009269D01*
X0273873Y0008502D01*
X0273873Y0006200D01*
X0271571Y0006200D01*
X0270804Y0006967D01*
X0271571Y0007735D01*
X0273873Y0007735D01*
X0275408Y0008502D02*
X0276175Y0009269D01*
X0278477Y0009269D01*
X0277710Y0007735D02*
X0276175Y0007735D01*
X0275408Y0008502D01*
X0275408Y0006200D02*
X0277710Y0006200D01*
X0278477Y0006967D01*
X0277710Y0007735D01*
X0280779Y0014467D02*
X0280779Y0015235D01*
X0280012Y0016002D01*
X0279244Y0016002D01*
X0280012Y0016002D02*
X0280779Y0016769D01*
X0280779Y0017537D01*
X0280012Y0018304D01*
X0278477Y0018304D01*
X0277710Y0017537D01*
X0286918Y0016002D02*
X0289987Y0016002D01*
X0293824Y0010804D02*
X0294591Y0010804D01*
X0309170Y0010037D02*
X0309170Y0009269D01*
X0309937Y0008502D01*
X0311472Y0008502D01*
X0312239Y0007735D01*
X0312239Y0006967D01*
X0311472Y0006200D01*
X0309937Y0006200D01*
X0309170Y0006967D01*
X0309170Y0010037D02*
X0309937Y0010804D01*
X0311472Y0010804D01*
X0312239Y0010037D01*
X0313774Y0009269D02*
X0314541Y0009269D01*
X0314541Y0006200D01*
X0313774Y0006200D02*
X0315309Y0006200D01*
X0316843Y0006967D02*
X0316843Y0008502D01*
X0317610Y0009269D01*
X0319912Y0009269D01*
X0319912Y0010804D02*
X0319912Y0006200D01*
X0317610Y0006200D01*
X0316843Y0006967D01*
X0314541Y0010804D02*
X0314541Y0011571D01*
X0321447Y0008502D02*
X0322214Y0009269D01*
X0323749Y0009269D01*
X0324516Y0008502D01*
X0324516Y0007735D01*
X0321447Y0007735D01*
X0321447Y0008502D02*
X0321447Y0006967D01*
X0322214Y0006200D01*
X0323749Y0006200D01*
X0326051Y0006200D02*
X0326051Y0009269D01*
X0326051Y0007735D02*
X0327586Y0009269D01*
X0328353Y0009269D01*
X0329888Y0009269D02*
X0330655Y0009269D01*
X0330655Y0006200D01*
X0329888Y0006200D02*
X0331422Y0006200D01*
X0332957Y0006967D02*
X0332957Y0008502D01*
X0333724Y0009269D01*
X0336026Y0009269D01*
X0337561Y0009269D02*
X0338328Y0009269D01*
X0338328Y0006200D01*
X0337561Y0006200D02*
X0339095Y0006200D01*
X0340630Y0006200D02*
X0342932Y0006200D01*
X0343699Y0006967D01*
X0342932Y0007735D01*
X0341397Y0007735D01*
X0340630Y0008502D01*
X0341397Y0009269D01*
X0343699Y0009269D01*
X0338328Y0010804D02*
X0338328Y0011571D01*
X0336026Y0010804D02*
X0336026Y0006200D01*
X0333724Y0006200D01*
X0332957Y0006967D01*
X0330655Y0010804D02*
X0330655Y0011571D01*
X0303477Y0034967D02*
X0302710Y0034200D01*
X0300408Y0034200D01*
X0300408Y0032665D02*
X0300408Y0037269D01*
X0302710Y0037269D01*
X0303477Y0036502D01*
X0303477Y0034967D01*
X0298873Y0034967D02*
X0298106Y0034200D01*
X0296571Y0034200D01*
X0295804Y0034967D01*
X0295804Y0035735D01*
X0296571Y0036502D01*
X0298106Y0036502D01*
X0298873Y0035735D01*
X0298873Y0034967D01*
X0298106Y0036502D02*
X0298873Y0037269D01*
X0298873Y0038037D01*
X0298106Y0038804D01*
X0296571Y0038804D01*
X0295804Y0038037D01*
X0295804Y0037269D01*
X0296571Y0036502D01*
X0294269Y0034200D02*
X0291200Y0034200D01*
X0292735Y0034200D02*
X0292735Y0038804D01*
X0291200Y0037269D01*
X0283477Y0036502D02*
X0283477Y0034967D01*
X0282710Y0034200D01*
X0280408Y0034200D01*
X0280408Y0032665D02*
X0280408Y0037269D01*
X0282710Y0037269D01*
X0283477Y0036502D01*
X0278873Y0037269D02*
X0278873Y0038037D01*
X0278106Y0038804D01*
X0276571Y0038804D01*
X0275804Y0038037D01*
X0275804Y0037269D01*
X0276571Y0036502D01*
X0278106Y0036502D01*
X0278873Y0035735D01*
X0278873Y0034967D01*
X0278106Y0034200D01*
X0276571Y0034200D01*
X0275804Y0034967D01*
X0275804Y0035735D01*
X0276571Y0036502D01*
X0278106Y0036502D02*
X0278873Y0037269D01*
X0274269Y0034200D02*
X0271200Y0034200D01*
X0272735Y0034200D02*
X0272735Y0038804D01*
X0271200Y0037269D01*
X0269533Y0044492D02*
X0266463Y0044492D01*
X0265696Y0045259D01*
X0265696Y0046794D01*
X0266463Y0047561D01*
X0266463Y0049096D02*
X0267231Y0049096D01*
X0267998Y0049863D01*
X0267998Y0052165D01*
X0266463Y0052165D02*
X0265696Y0051398D01*
X0265696Y0049863D01*
X0266463Y0049096D01*
X0266463Y0052165D02*
X0269533Y0052165D01*
X0270300Y0051398D01*
X0270300Y0049863D01*
X0269533Y0049096D01*
X0269533Y0047561D02*
X0270300Y0046794D01*
X0270300Y0045259D01*
X0269533Y0044492D01*
X0249529Y0057537D02*
X0249529Y0058304D01*
X0249529Y0057537D02*
X0247994Y0056002D01*
X0247994Y0053700D01*
X0247994Y0056002D02*
X0246460Y0057537D01*
X0246460Y0058304D01*
X0244925Y0057537D02*
X0244925Y0056002D01*
X0244158Y0055235D01*
X0241856Y0055235D01*
X0243390Y0055235D02*
X0244925Y0053700D01*
X0241856Y0053700D02*
X0241856Y0058304D01*
X0244158Y0058304D01*
X0244925Y0057537D01*
X0240321Y0058304D02*
X0237252Y0058304D01*
X0237252Y0053700D01*
X0240321Y0053700D01*
X0238787Y0056002D02*
X0237252Y0056002D01*
X0235717Y0058304D02*
X0232648Y0058304D01*
X0231113Y0058304D02*
X0228044Y0058304D01*
X0229579Y0058304D02*
X0229579Y0053700D01*
X0226509Y0053700D02*
X0226509Y0056769D01*
X0224975Y0058304D01*
X0223440Y0056769D01*
X0223440Y0053700D01*
X0221906Y0054467D02*
X0221138Y0053700D01*
X0218836Y0053700D01*
X0218836Y0058304D01*
X0221138Y0058304D01*
X0221906Y0057537D01*
X0221906Y0056769D01*
X0221138Y0056002D01*
X0218836Y0056002D01*
X0221138Y0056002D02*
X0221906Y0055235D01*
X0221906Y0054467D01*
X0223440Y0056002D02*
X0226509Y0056002D01*
X0231113Y0050804D02*
X0232648Y0050804D01*
X0233415Y0050037D01*
X0233415Y0049269D01*
X0232648Y0048502D01*
X0233415Y0047735D01*
X0233415Y0046967D01*
X0232648Y0046200D01*
X0231113Y0046200D01*
X0230346Y0046967D01*
X0231881Y0048502D02*
X0232648Y0048502D01*
X0234950Y0047735D02*
X0236485Y0046200D01*
X0238019Y0047735D01*
X0238019Y0050804D01*
X0234950Y0050804D02*
X0234950Y0047735D01*
X0231113Y0050804D02*
X0230346Y0050037D01*
X0234183Y0053700D02*
X0234183Y0058304D01*
X0222665Y0068967D02*
X0221898Y0068200D01*
X0220363Y0068200D01*
X0219596Y0068967D01*
X0222665Y0072037D01*
X0222665Y0068967D01*
X0219596Y0068967D02*
X0219596Y0072037D01*
X0220363Y0072804D01*
X0221898Y0072804D01*
X0222665Y0072037D01*
X0218061Y0072037D02*
X0218061Y0068967D01*
X0217294Y0068200D01*
X0215759Y0068200D01*
X0214992Y0068967D01*
X0218061Y0072037D01*
X0217294Y0072804D01*
X0215759Y0072804D01*
X0214992Y0072037D01*
X0214992Y0068967D01*
X0213457Y0068200D02*
X0210388Y0068200D01*
X0211923Y0068200D02*
X0211923Y0072804D01*
X0210388Y0071269D01*
X0212492Y0084200D02*
X0212492Y0088804D01*
X0214794Y0088804D01*
X0215561Y0088037D01*
X0215561Y0086502D01*
X0214794Y0085735D01*
X0212492Y0085735D01*
X0214027Y0085735D02*
X0215561Y0084200D01*
X0217096Y0084200D02*
X0217096Y0084967D01*
X0220165Y0088037D01*
X0220165Y0088804D01*
X0217096Y0088804D01*
X0239446Y0094009D02*
X0240213Y0093242D01*
X0243283Y0093242D01*
X0244050Y0094009D01*
X0244050Y0095544D01*
X0243283Y0096311D01*
X0243283Y0097846D02*
X0244050Y0098613D01*
X0244050Y0100148D01*
X0243283Y0100915D01*
X0242515Y0100915D01*
X0241748Y0100148D01*
X0241748Y0097846D01*
X0243283Y0097846D01*
X0241748Y0097846D02*
X0240213Y0099381D01*
X0239446Y0100915D01*
X0240213Y0096311D02*
X0239446Y0095544D01*
X0239446Y0094009D01*
X0243700Y0109200D02*
X0246769Y0109200D01*
X0245235Y0109200D02*
X0245235Y0113804D01*
X0243700Y0112269D01*
X0248304Y0113037D02*
X0248304Y0109967D01*
X0251373Y0113037D01*
X0251373Y0109967D01*
X0250606Y0109200D01*
X0249071Y0109200D01*
X0248304Y0109967D01*
X0248304Y0113037D02*
X0249071Y0113804D01*
X0250606Y0113804D01*
X0251373Y0113037D01*
X0252908Y0112269D02*
X0252908Y0109967D01*
X0253675Y0109200D01*
X0255977Y0109200D01*
X0255977Y0112269D01*
X0258700Y0113037D02*
X0258700Y0109967D01*
X0261769Y0113037D01*
X0261769Y0109967D01*
X0261002Y0109200D01*
X0259467Y0109200D01*
X0258700Y0109967D01*
X0258700Y0113037D02*
X0259467Y0113804D01*
X0261002Y0113804D01*
X0261769Y0113037D01*
X0263304Y0109967D02*
X0264071Y0109967D01*
X0264071Y0109200D01*
X0263304Y0109200D01*
X0263304Y0109967D01*
X0265606Y0109200D02*
X0268675Y0109200D01*
X0267141Y0109200D02*
X0267141Y0113804D01*
X0265606Y0112269D01*
X0270210Y0112269D02*
X0270210Y0109967D01*
X0270977Y0109200D01*
X0273279Y0109200D01*
X0273279Y0112269D01*
X0267713Y0100915D02*
X0270783Y0097846D01*
X0271550Y0097846D01*
X0270783Y0096311D02*
X0271550Y0095544D01*
X0271550Y0094009D01*
X0270783Y0093242D01*
X0267713Y0093242D01*
X0266946Y0094009D01*
X0266946Y0095544D01*
X0267713Y0096311D01*
X0266946Y0097846D02*
X0266946Y0100915D01*
X0267713Y0100915D01*
X0303963Y0052165D02*
X0304731Y0052165D01*
X0305498Y0051398D01*
X0305498Y0049863D01*
X0304731Y0049096D01*
X0303963Y0049096D01*
X0303196Y0049863D01*
X0303196Y0051398D01*
X0303963Y0052165D01*
X0305498Y0051398D02*
X0306265Y0052165D01*
X0307033Y0052165D01*
X0307800Y0051398D01*
X0307800Y0049863D01*
X0307033Y0049096D01*
X0306265Y0049096D01*
X0305498Y0049863D01*
X0303963Y0047561D02*
X0303196Y0046794D01*
X0303196Y0045259D01*
X0303963Y0044492D01*
X0307033Y0044492D01*
X0307800Y0045259D01*
X0307800Y0046794D01*
X0307033Y0047561D01*
X0184050Y0066242D02*
X0179446Y0066242D01*
X0179446Y0068544D01*
X0180213Y0069311D01*
X0181748Y0069311D01*
X0182515Y0068544D01*
X0182515Y0066242D01*
X0182515Y0067777D02*
X0184050Y0069311D01*
X0183283Y0070846D02*
X0181748Y0070846D01*
X0181748Y0073148D01*
X0182515Y0073915D01*
X0183283Y0073915D01*
X0184050Y0073148D01*
X0184050Y0071613D01*
X0183283Y0070846D01*
X0181748Y0070846D02*
X0180213Y0072381D01*
X0179446Y0073915D01*
X0180731Y0077888D02*
X0179196Y0079423D01*
X0183800Y0079423D01*
X0183800Y0080957D02*
X0183800Y0077888D01*
X0183033Y0082492D02*
X0179963Y0085561D01*
X0183033Y0085561D01*
X0183800Y0084794D01*
X0183800Y0083259D01*
X0183033Y0082492D01*
X0179963Y0082492D01*
X0179196Y0083259D01*
X0179196Y0084794D01*
X0179963Y0085561D01*
X0179963Y0087096D02*
X0179196Y0087863D01*
X0179196Y0089398D01*
X0179963Y0090165D01*
X0183033Y0087096D01*
X0183800Y0087863D01*
X0183800Y0089398D01*
X0183033Y0090165D01*
X0179963Y0090165D01*
X0179963Y0087096D02*
X0183033Y0087096D01*
X0167835Y0084096D02*
X0163231Y0084096D01*
X0163231Y0086398D01*
X0163998Y0087165D01*
X0165533Y0087165D01*
X0166300Y0086398D01*
X0166300Y0084096D01*
X0166300Y0082561D02*
X0166300Y0079492D01*
X0163231Y0082561D01*
X0162463Y0082561D01*
X0161696Y0081794D01*
X0161696Y0080259D01*
X0162463Y0079492D01*
X0162463Y0077957D02*
X0161696Y0077190D01*
X0161696Y0075656D01*
X0162463Y0074888D01*
X0162463Y0077957D02*
X0163231Y0077957D01*
X0166300Y0074888D01*
X0166300Y0077957D01*
X0150300Y0077190D02*
X0150300Y0075656D01*
X0149533Y0074888D01*
X0146463Y0074888D01*
X0145696Y0075656D01*
X0145696Y0077190D01*
X0146463Y0077957D01*
X0146463Y0079492D02*
X0145696Y0080259D01*
X0145696Y0081794D01*
X0146463Y0082561D01*
X0147231Y0082561D01*
X0147998Y0081794D01*
X0148765Y0082561D01*
X0149533Y0082561D01*
X0150300Y0081794D01*
X0150300Y0080259D01*
X0149533Y0079492D01*
X0149533Y0077957D02*
X0150300Y0077190D01*
X0147998Y0081027D02*
X0147998Y0081794D01*
X0147998Y0084096D02*
X0147998Y0087165D01*
X0150300Y0086398D02*
X0145696Y0086398D01*
X0147998Y0084096D01*
X0148997Y0102450D02*
X0145927Y0102450D01*
X0148997Y0105519D01*
X0148997Y0106287D01*
X0148229Y0107054D01*
X0146695Y0107054D01*
X0145927Y0106287D01*
X0144393Y0106287D02*
X0144393Y0105519D01*
X0143626Y0104752D01*
X0144393Y0103985D01*
X0144393Y0103217D01*
X0143626Y0102450D01*
X0142091Y0102450D01*
X0141324Y0103217D01*
X0139789Y0102450D02*
X0139789Y0105519D01*
X0138254Y0107054D01*
X0136720Y0105519D01*
X0136720Y0102450D01*
X0135185Y0103217D02*
X0135185Y0104752D01*
X0133650Y0104752D01*
X0132116Y0106287D02*
X0132116Y0103217D01*
X0132883Y0102450D01*
X0134418Y0102450D01*
X0135185Y0103217D01*
X0136720Y0104752D02*
X0139789Y0104752D01*
X0141324Y0106287D02*
X0142091Y0107054D01*
X0143626Y0107054D01*
X0144393Y0106287D01*
X0143626Y0104752D02*
X0142858Y0104752D01*
X0150531Y0103985D02*
X0151299Y0104752D01*
X0152833Y0104752D01*
X0153601Y0103985D01*
X0153601Y0103217D01*
X0152833Y0102450D01*
X0151299Y0102450D01*
X0150531Y0103217D01*
X0150531Y0103985D01*
X0151299Y0104752D02*
X0150531Y0105519D01*
X0150531Y0106287D01*
X0151299Y0107054D01*
X0152833Y0107054D01*
X0153601Y0106287D01*
X0153601Y0105519D01*
X0152833Y0104752D01*
X0135185Y0106287D02*
X0134418Y0107054D01*
X0132883Y0107054D01*
X0132116Y0106287D01*
X0130581Y0107054D02*
X0127512Y0107054D01*
X0127512Y0102450D01*
X0130581Y0102450D01*
X0129046Y0104752D02*
X0127512Y0104752D01*
X0125977Y0107054D02*
X0125977Y0102450D01*
X0122908Y0102450D02*
X0122908Y0107054D01*
X0124442Y0105519D01*
X0125977Y0107054D01*
X0121373Y0107054D02*
X0118304Y0107054D01*
X0119839Y0107054D02*
X0119839Y0102450D01*
X0116769Y0102450D02*
X0116769Y0105519D01*
X0115235Y0107054D01*
X0113700Y0105519D01*
X0113700Y0102450D01*
X0113700Y0104752D02*
X0116769Y0104752D01*
X0077381Y0091304D02*
X0077381Y0086700D01*
X0078915Y0086700D02*
X0075846Y0086700D01*
X0074311Y0086700D02*
X0071242Y0086700D01*
X0069707Y0086700D02*
X0068173Y0088235D01*
X0068940Y0088235D02*
X0066638Y0088235D01*
X0066638Y0086700D02*
X0066638Y0091304D01*
X0068940Y0091304D01*
X0069707Y0090537D01*
X0069707Y0089002D01*
X0068940Y0088235D01*
X0071242Y0089769D02*
X0072777Y0091304D01*
X0072777Y0086700D01*
X0075846Y0089769D02*
X0077381Y0091304D01*
X0070363Y0075304D02*
X0070363Y0070700D01*
X0070363Y0072235D02*
X0072665Y0073769D01*
X0070363Y0072235D02*
X0072665Y0070700D01*
X0068829Y0071467D02*
X0068829Y0074537D01*
X0065759Y0071467D01*
X0066527Y0070700D01*
X0068061Y0070700D01*
X0068829Y0071467D01*
X0065759Y0071467D02*
X0065759Y0074537D01*
X0066527Y0075304D01*
X0068061Y0075304D01*
X0068829Y0074537D01*
X0064225Y0070700D02*
X0061156Y0070700D01*
X0062690Y0070700D02*
X0062690Y0075304D01*
X0061156Y0073769D01*
X0038019Y0066287D02*
X0034950Y0063217D01*
X0036485Y0063217D02*
X0036485Y0066287D01*
X0034950Y0066287D02*
X0038019Y0063217D01*
X0038019Y0064752D02*
X0034950Y0064752D01*
X0032435Y0038804D02*
X0029366Y0038804D01*
X0030900Y0038804D02*
X0030900Y0034200D01*
X0027831Y0034200D02*
X0024762Y0034200D01*
X0024762Y0038804D01*
X0027831Y0038804D01*
X0026296Y0036502D02*
X0024762Y0036502D01*
X0023227Y0035735D02*
X0023227Y0034967D01*
X0022460Y0034200D01*
X0020925Y0034200D01*
X0020158Y0034967D01*
X0018623Y0034200D02*
X0015554Y0034200D01*
X0015554Y0038804D01*
X0018623Y0038804D01*
X0020158Y0038037D02*
X0020158Y0037269D01*
X0020925Y0036502D01*
X0022460Y0036502D01*
X0023227Y0035735D01*
X0023227Y0038037D02*
X0022460Y0038804D01*
X0020925Y0038804D01*
X0020158Y0038037D01*
X0017089Y0036502D02*
X0015554Y0036502D01*
X0014019Y0036502D02*
X0013252Y0035735D01*
X0010950Y0035735D01*
X0012485Y0035735D02*
X0014019Y0034200D01*
X0014019Y0036502D02*
X0014019Y0038037D01*
X0013252Y0038804D01*
X0010950Y0038804D01*
X0010950Y0034200D01*
X0069888Y0012037D02*
X0070656Y0012804D01*
X0072190Y0012804D01*
X0072957Y0012037D01*
X0072957Y0011269D01*
X0069888Y0008200D01*
X0072957Y0008200D01*
X0074492Y0008200D02*
X0077561Y0011269D01*
X0077561Y0012037D01*
X0076794Y0012804D01*
X0075259Y0012804D01*
X0074492Y0012037D01*
X0074492Y0008200D02*
X0077561Y0008200D01*
X0079096Y0008200D02*
X0081398Y0008200D01*
X0082165Y0008967D01*
X0082165Y0010502D01*
X0081398Y0011269D01*
X0079096Y0011269D01*
X0079096Y0006665D01*
X0075533Y0016200D02*
X0072463Y0016200D01*
X0071696Y0016967D01*
X0071696Y0018502D01*
X0072463Y0019269D01*
X0072463Y0020804D02*
X0071696Y0021571D01*
X0071696Y0023106D01*
X0072463Y0023873D01*
X0073231Y0023873D01*
X0073998Y0023106D01*
X0074765Y0023873D01*
X0075533Y0023873D01*
X0076300Y0023106D01*
X0076300Y0021571D01*
X0075533Y0020804D01*
X0075533Y0019269D02*
X0076300Y0018502D01*
X0076300Y0016967D01*
X0075533Y0016200D01*
X0073998Y0022339D02*
X0073998Y0023106D01*
X0072463Y0025408D02*
X0071696Y0026175D01*
X0071696Y0027710D01*
X0072463Y0028477D01*
X0073231Y0028477D01*
X0076300Y0025408D01*
X0076300Y0028477D01*
X0086696Y0027710D02*
X0087463Y0028477D01*
X0088231Y0028477D01*
X0088998Y0027710D01*
X0089765Y0028477D01*
X0090533Y0028477D01*
X0091300Y0027710D01*
X0091300Y0026175D01*
X0090533Y0025408D01*
X0090533Y0023873D02*
X0091300Y0023106D01*
X0091300Y0021571D01*
X0090533Y0020804D01*
X0090533Y0019269D02*
X0091300Y0018502D01*
X0091300Y0016967D01*
X0090533Y0016200D01*
X0087463Y0016200D01*
X0086696Y0016967D01*
X0086696Y0018502D01*
X0087463Y0019269D01*
X0087463Y0020804D02*
X0086696Y0021571D01*
X0086696Y0023106D01*
X0087463Y0023873D01*
X0088231Y0023873D01*
X0088998Y0023106D01*
X0089765Y0023873D01*
X0090533Y0023873D01*
X0088998Y0023106D02*
X0088998Y0022339D01*
X0087463Y0025408D02*
X0086696Y0026175D01*
X0086696Y0027710D01*
X0088998Y0027710D02*
X0088998Y0026942D01*
X0090656Y0012804D02*
X0089888Y0012037D01*
X0090656Y0012804D02*
X0092190Y0012804D01*
X0092957Y0012037D01*
X0092957Y0011269D01*
X0089888Y0008200D01*
X0092957Y0008200D01*
X0094492Y0008200D02*
X0097561Y0011269D01*
X0097561Y0012037D01*
X0096794Y0012804D01*
X0095259Y0012804D01*
X0094492Y0012037D01*
X0094492Y0008200D02*
X0097561Y0008200D01*
X0099096Y0008200D02*
X0101398Y0008200D01*
X0102165Y0008967D01*
X0102165Y0010502D01*
X0101398Y0011269D01*
X0099096Y0011269D01*
X0099096Y0006665D01*
X0106354Y0006752D02*
X0109423Y0006752D01*
X0110957Y0005217D02*
X0111725Y0005217D01*
X0111725Y0004450D01*
X0110957Y0004450D01*
X0110957Y0005217D01*
X0113259Y0005217D02*
X0113259Y0004450D01*
X0113259Y0005217D02*
X0116329Y0008287D01*
X0116329Y0009054D01*
X0113259Y0009054D01*
X0108656Y0009054D02*
X0108656Y0004450D01*
X0106354Y0006752D02*
X0108656Y0009054D01*
X0109765Y0014450D02*
X0109765Y0016752D01*
X0108998Y0017519D01*
X0107463Y0017519D01*
X0106696Y0016752D01*
X0106696Y0014450D01*
X0111300Y0014450D01*
X0109765Y0015985D02*
X0111300Y0017519D01*
X0111300Y0019054D02*
X0111300Y0022123D01*
X0111300Y0020589D02*
X0106696Y0020589D01*
X0108231Y0019054D01*
X0107463Y0023658D02*
X0106696Y0024425D01*
X0106696Y0025960D01*
X0107463Y0026727D01*
X0110533Y0023658D01*
X0111300Y0024425D01*
X0111300Y0025960D01*
X0110533Y0026727D01*
X0107463Y0026727D01*
X0107463Y0023658D02*
X0110533Y0023658D01*
X0122794Y0036387D02*
X0125864Y0036387D01*
X0127398Y0036387D02*
X0127398Y0040991D01*
X0124329Y0040991D02*
X0124329Y0036387D01*
X0127398Y0036387D02*
X0128933Y0037922D01*
X0130468Y0036387D01*
X0130468Y0040991D01*
X0132002Y0040991D02*
X0133537Y0040991D01*
X0132770Y0040991D02*
X0132770Y0036387D01*
X0133537Y0036387D02*
X0132002Y0036387D01*
X0135072Y0036387D02*
X0135072Y0040991D01*
X0137374Y0040991D01*
X0138141Y0040224D01*
X0138141Y0038689D01*
X0137374Y0037922D01*
X0135072Y0037922D01*
X0136606Y0037922D02*
X0138141Y0036387D01*
X0139676Y0036387D02*
X0139676Y0040991D01*
X0142745Y0040991D01*
X0144279Y0038689D02*
X0147349Y0038689D01*
X0148883Y0038689D02*
X0151185Y0038689D01*
X0151953Y0037922D01*
X0151953Y0037154D01*
X0151185Y0036387D01*
X0148883Y0036387D01*
X0148883Y0040991D01*
X0151185Y0040991D01*
X0151953Y0040224D01*
X0151953Y0039456D01*
X0151185Y0038689D01*
X0153487Y0037154D02*
X0153487Y0040991D01*
X0156557Y0040991D02*
X0156557Y0037154D01*
X0155789Y0036387D01*
X0154255Y0036387D01*
X0153487Y0037154D01*
X0158091Y0037154D02*
X0158859Y0036387D01*
X0160393Y0036387D01*
X0161161Y0037154D01*
X0161161Y0037922D01*
X0160393Y0038689D01*
X0158859Y0038689D01*
X0158091Y0039456D01*
X0158091Y0040224D01*
X0158859Y0040991D01*
X0160393Y0040991D01*
X0161161Y0040224D01*
X0161923Y0040700D02*
X0161923Y0045304D01*
X0160388Y0043769D01*
X0160388Y0040700D02*
X0163457Y0040700D01*
X0164992Y0041467D02*
X0165759Y0040700D01*
X0167294Y0040700D01*
X0168061Y0041467D01*
X0168061Y0044537D01*
X0164992Y0041467D01*
X0164992Y0044537D01*
X0165759Y0045304D01*
X0167294Y0045304D01*
X0168061Y0044537D01*
X0169596Y0044537D02*
X0170363Y0045304D01*
X0171898Y0045304D01*
X0172665Y0044537D01*
X0169596Y0041467D01*
X0170363Y0040700D01*
X0171898Y0040700D01*
X0172665Y0041467D01*
X0172665Y0044537D01*
X0169596Y0044537D02*
X0169596Y0041467D01*
X0169398Y0056700D02*
X0167863Y0056700D01*
X0167096Y0057467D01*
X0167096Y0058235D01*
X0167863Y0059002D01*
X0169398Y0059002D01*
X0170165Y0058235D01*
X0170165Y0057467D01*
X0169398Y0056700D01*
X0169398Y0059002D02*
X0170165Y0059769D01*
X0170165Y0060537D01*
X0169398Y0061304D01*
X0167863Y0061304D01*
X0167096Y0060537D01*
X0167096Y0059769D01*
X0167863Y0059002D01*
X0165561Y0059002D02*
X0165561Y0060537D01*
X0164794Y0061304D01*
X0162492Y0061304D01*
X0162492Y0056700D01*
X0162492Y0058235D02*
X0164794Y0058235D01*
X0165561Y0059002D01*
X0164027Y0058235D02*
X0165561Y0056700D01*
X0141210Y0038689D02*
X0139676Y0038689D01*
X0139676Y0036387D02*
X0142745Y0036387D01*
X0124329Y0040991D02*
X0122794Y0039456D01*
X0117863Y0009054D02*
X0117863Y0004450D01*
X0117863Y0005985D02*
X0120165Y0007519D01*
X0117863Y0005985D02*
X0120165Y0004450D01*
X0018019Y0101967D02*
X0014950Y0105037D01*
X0016485Y0105037D02*
X0016485Y0101967D01*
X0014950Y0101967D02*
X0018019Y0105037D01*
X0018019Y0103502D02*
X0014950Y0103502D01*
X0032998Y0138200D02*
X0032998Y0141269D01*
X0034533Y0142804D02*
X0034533Y0143571D01*
X0035300Y0143571D01*
X0035300Y0142804D01*
X0034533Y0142804D01*
X0034533Y0145106D02*
X0035300Y0145106D01*
X0034533Y0145106D02*
X0031463Y0148175D01*
X0030696Y0148175D01*
X0030696Y0145106D01*
X0030696Y0140502D02*
X0032998Y0138200D01*
X0035300Y0140502D02*
X0030696Y0140502D01*
X0020050Y0144450D02*
X0015446Y0144450D01*
X0015446Y0146752D01*
X0016213Y0147519D01*
X0017748Y0147519D01*
X0018515Y0146752D01*
X0018515Y0144450D01*
X0018515Y0145985D02*
X0020050Y0147519D01*
X0019283Y0149054D02*
X0020050Y0149821D01*
X0020050Y0151356D01*
X0019283Y0152123D01*
X0017748Y0152123D01*
X0016981Y0151356D01*
X0016981Y0150589D01*
X0017748Y0149054D01*
X0015446Y0149054D01*
X0015446Y0152123D01*
X0030696Y0149710D02*
X0035300Y0149710D01*
X0033765Y0149710D02*
X0032231Y0152012D01*
X0033765Y0149710D02*
X0035300Y0152012D01*
X0034765Y0155700D02*
X0034765Y0158002D01*
X0033998Y0158769D01*
X0032463Y0158769D01*
X0031696Y0158002D01*
X0031696Y0155700D01*
X0036300Y0155700D01*
X0034765Y0157235D02*
X0036300Y0158769D01*
X0033998Y0160304D02*
X0033998Y0163373D01*
X0031696Y0162606D02*
X0033998Y0160304D01*
X0036300Y0162606D02*
X0031696Y0162606D01*
X0031463Y0168700D02*
X0030696Y0169467D01*
X0030696Y0171002D01*
X0031463Y0171769D01*
X0034533Y0168700D01*
X0035300Y0169467D01*
X0035300Y0171002D01*
X0034533Y0171769D01*
X0031463Y0171769D01*
X0031463Y0168700D02*
X0034533Y0168700D01*
X0034533Y0173304D02*
X0034533Y0174071D01*
X0035300Y0174071D01*
X0035300Y0173304D01*
X0034533Y0173304D01*
X0035300Y0175606D02*
X0035300Y0178675D01*
X0035300Y0177141D02*
X0030696Y0177141D01*
X0032231Y0175606D01*
X0032231Y0180210D02*
X0034533Y0180210D01*
X0035300Y0180977D01*
X0035300Y0183279D01*
X0032231Y0183279D01*
X0024550Y0186869D02*
X0019946Y0186869D01*
X0021481Y0188403D01*
X0019946Y0189938D01*
X0024550Y0189938D01*
X0024550Y0191472D02*
X0021481Y0191472D01*
X0019946Y0193007D01*
X0021481Y0194542D01*
X0024550Y0194542D01*
X0024550Y0196076D02*
X0019946Y0199146D01*
X0021481Y0200680D02*
X0019946Y0202215D01*
X0024550Y0202215D01*
X0024550Y0200680D02*
X0024550Y0203750D01*
X0022248Y0205284D02*
X0022248Y0208354D01*
X0021481Y0209888D02*
X0020713Y0209888D01*
X0019946Y0210655D01*
X0019946Y0212190D01*
X0020713Y0212957D01*
X0021481Y0212957D01*
X0022248Y0212190D01*
X0022248Y0210655D01*
X0021481Y0209888D01*
X0022248Y0210655D02*
X0023015Y0209888D01*
X0023783Y0209888D01*
X0024550Y0210655D01*
X0024550Y0212190D01*
X0023783Y0212957D01*
X0023015Y0212957D01*
X0022248Y0212190D01*
X0022248Y0214492D02*
X0021481Y0216027D01*
X0021481Y0216794D01*
X0022248Y0217561D01*
X0023783Y0217561D01*
X0024550Y0216794D01*
X0024550Y0215259D01*
X0023783Y0214492D01*
X0022248Y0214492D02*
X0019946Y0214492D01*
X0019946Y0217561D01*
X0020713Y0219096D02*
X0019946Y0219863D01*
X0019946Y0221398D01*
X0020713Y0222165D01*
X0023783Y0219096D01*
X0024550Y0219863D01*
X0024550Y0221398D01*
X0023783Y0222165D01*
X0020713Y0222165D01*
X0020713Y0219096D02*
X0023783Y0219096D01*
X0019533Y0227388D02*
X0020300Y0228156D01*
X0020300Y0229690D01*
X0019533Y0230457D01*
X0020300Y0231992D02*
X0017231Y0235061D01*
X0016463Y0235061D01*
X0015696Y0234294D01*
X0015696Y0232759D01*
X0016463Y0231992D01*
X0016463Y0230457D02*
X0015696Y0229690D01*
X0015696Y0228156D01*
X0016463Y0227388D01*
X0019533Y0227388D01*
X0020300Y0231992D02*
X0020300Y0235061D01*
X0019533Y0236596D02*
X0020300Y0237363D01*
X0020300Y0238898D01*
X0019533Y0239665D01*
X0018765Y0239665D01*
X0017998Y0238898D01*
X0017998Y0236596D01*
X0019533Y0236596D01*
X0017998Y0236596D02*
X0016463Y0238131D01*
X0015696Y0239665D01*
X0015696Y0254992D02*
X0015696Y0257294D01*
X0016463Y0258061D01*
X0017998Y0258061D01*
X0018765Y0257294D01*
X0018765Y0254992D01*
X0018765Y0256527D02*
X0020300Y0258061D01*
X0020300Y0259596D02*
X0017231Y0262665D01*
X0016463Y0262665D01*
X0015696Y0261898D01*
X0015696Y0260363D01*
X0016463Y0259596D01*
X0020300Y0259596D02*
X0020300Y0262665D01*
X0017748Y0265104D02*
X0017748Y0268173D01*
X0019283Y0269707D02*
X0019283Y0270475D01*
X0020050Y0270475D01*
X0020050Y0269707D01*
X0019283Y0269707D01*
X0019283Y0272009D02*
X0020050Y0272009D01*
X0019283Y0272009D02*
X0016213Y0275079D01*
X0015446Y0275079D01*
X0015446Y0272009D01*
X0015446Y0267406D02*
X0017748Y0265104D01*
X0020050Y0267406D02*
X0015446Y0267406D01*
X0015446Y0276613D02*
X0020050Y0276613D01*
X0018515Y0276613D02*
X0020050Y0278915D01*
X0018515Y0276613D02*
X0016981Y0278915D01*
X0015696Y0254992D02*
X0020300Y0254992D01*
X0034481Y0240915D02*
X0037550Y0240915D01*
X0037550Y0238613D01*
X0036783Y0237846D01*
X0034481Y0237846D01*
X0037550Y0236311D02*
X0037550Y0233242D01*
X0037550Y0231707D02*
X0037550Y0230940D01*
X0036783Y0230940D01*
X0036783Y0231707D01*
X0037550Y0231707D01*
X0036783Y0229406D02*
X0033713Y0229406D01*
X0036783Y0226336D01*
X0037550Y0227104D01*
X0037550Y0228638D01*
X0036783Y0229406D01*
X0033713Y0229406D02*
X0032946Y0228638D01*
X0032946Y0227104D01*
X0033713Y0226336D01*
X0036783Y0226336D01*
X0034481Y0233242D02*
X0032946Y0234777D01*
X0037550Y0234777D01*
X0046946Y0254992D02*
X0046946Y0257294D01*
X0047713Y0258061D01*
X0049248Y0258061D01*
X0050015Y0257294D01*
X0050015Y0254992D01*
X0050015Y0256527D02*
X0051550Y0258061D01*
X0050783Y0259596D02*
X0051550Y0260363D01*
X0051550Y0261898D01*
X0050783Y0262665D01*
X0050015Y0262665D01*
X0049248Y0261898D01*
X0049248Y0261131D01*
X0049248Y0261898D02*
X0048481Y0262665D01*
X0047713Y0262665D01*
X0046946Y0261898D01*
X0046946Y0260363D01*
X0047713Y0259596D01*
X0046946Y0254992D02*
X0051550Y0254992D01*
X0048998Y0263854D02*
X0046696Y0266156D01*
X0051300Y0266156D01*
X0051300Y0268457D02*
X0051300Y0269225D01*
X0050533Y0269225D01*
X0050533Y0268457D01*
X0051300Y0268457D01*
X0051300Y0270759D02*
X0050533Y0270759D01*
X0047463Y0273829D01*
X0046696Y0273829D01*
X0046696Y0270759D01*
X0048998Y0266923D02*
X0048998Y0263854D01*
X0049765Y0275363D02*
X0048231Y0277665D01*
X0049765Y0275363D02*
X0051300Y0277665D01*
X0051300Y0275363D02*
X0046696Y0275363D01*
X0066138Y0263037D02*
X0066138Y0259967D01*
X0066906Y0259200D01*
X0068440Y0259200D01*
X0069207Y0259967D01*
X0070742Y0259200D02*
X0073811Y0262269D01*
X0073811Y0263037D01*
X0073044Y0263804D01*
X0071509Y0263804D01*
X0070742Y0263037D01*
X0069207Y0263037D02*
X0068440Y0263804D01*
X0066906Y0263804D01*
X0066138Y0263037D01*
X0070742Y0259200D02*
X0073811Y0259200D01*
X0075346Y0259967D02*
X0078415Y0263037D01*
X0078415Y0259967D01*
X0077648Y0259200D01*
X0076113Y0259200D01*
X0075346Y0259967D01*
X0075346Y0263037D01*
X0076113Y0263804D01*
X0077648Y0263804D01*
X0078415Y0263037D01*
X0087388Y0266950D02*
X0090457Y0266950D01*
X0088923Y0266950D02*
X0088923Y0271554D01*
X0087388Y0270019D01*
X0091992Y0270787D02*
X0091992Y0267717D01*
X0095061Y0270787D01*
X0095061Y0267717D01*
X0094294Y0266950D01*
X0092759Y0266950D01*
X0091992Y0267717D01*
X0091992Y0270787D02*
X0092759Y0271554D01*
X0094294Y0271554D01*
X0095061Y0270787D01*
X0096596Y0270019D02*
X0096596Y0267717D01*
X0097363Y0266950D01*
X0099665Y0266950D01*
X0099665Y0270019D01*
X0112388Y0270019D02*
X0113923Y0271554D01*
X0113923Y0266950D01*
X0115457Y0266950D02*
X0112388Y0266950D01*
X0116992Y0267717D02*
X0116992Y0270787D01*
X0117759Y0271554D01*
X0119294Y0271554D01*
X0120061Y0270787D01*
X0116992Y0267717D01*
X0117759Y0266950D01*
X0119294Y0266950D01*
X0120061Y0267717D01*
X0120061Y0270787D01*
X0121596Y0270019D02*
X0121596Y0267717D01*
X0122363Y0266950D01*
X0124665Y0266950D01*
X0124665Y0270019D01*
X0125656Y0263804D02*
X0124888Y0263037D01*
X0124888Y0259967D01*
X0125656Y0259200D01*
X0127190Y0259200D01*
X0127957Y0259967D01*
X0129492Y0259200D02*
X0132561Y0259200D01*
X0131027Y0259200D02*
X0131027Y0263804D01*
X0129492Y0262269D01*
X0127957Y0263037D02*
X0127190Y0263804D01*
X0125656Y0263804D01*
X0134096Y0263037D02*
X0134096Y0262269D01*
X0134863Y0261502D01*
X0136398Y0261502D01*
X0137165Y0260735D01*
X0137165Y0259967D01*
X0136398Y0259200D01*
X0134863Y0259200D01*
X0134096Y0259967D01*
X0134096Y0260735D01*
X0134863Y0261502D01*
X0136398Y0261502D02*
X0137165Y0262269D01*
X0137165Y0263037D01*
X0136398Y0263804D01*
X0134863Y0263804D01*
X0134096Y0263037D01*
X0143696Y0262759D02*
X0143696Y0264294D01*
X0144463Y0265061D01*
X0147533Y0261992D01*
X0148300Y0262759D01*
X0148300Y0264294D01*
X0147533Y0265061D01*
X0144463Y0265061D01*
X0144463Y0266596D02*
X0143696Y0267363D01*
X0143696Y0268898D01*
X0144463Y0269665D01*
X0147533Y0266596D01*
X0148300Y0267363D01*
X0148300Y0268898D01*
X0147533Y0269665D01*
X0144463Y0269665D01*
X0144463Y0266596D02*
X0147533Y0266596D01*
X0147533Y0261992D02*
X0144463Y0261992D01*
X0143696Y0262759D01*
X0143696Y0259690D02*
X0145998Y0257388D01*
X0145998Y0260457D01*
X0148300Y0259690D02*
X0143696Y0259690D01*
X0145231Y0255854D02*
X0148300Y0255854D01*
X0145998Y0255854D02*
X0145998Y0252784D01*
X0145231Y0252784D02*
X0143696Y0254319D01*
X0145231Y0255854D01*
X0145231Y0252784D02*
X0148300Y0252784D01*
X0148300Y0251250D02*
X0148300Y0248180D01*
X0145231Y0251250D01*
X0144463Y0251250D01*
X0143696Y0250482D01*
X0143696Y0248948D01*
X0144463Y0248180D01*
X0144463Y0246646D02*
X0145998Y0246646D01*
X0146765Y0245878D01*
X0146765Y0243576D01*
X0148300Y0243576D02*
X0143696Y0243576D01*
X0143696Y0245878D01*
X0144463Y0246646D01*
X0146765Y0245111D02*
X0148300Y0246646D01*
X0137165Y0246787D02*
X0137165Y0243717D01*
X0136398Y0242950D01*
X0134863Y0242950D01*
X0134096Y0243717D01*
X0132561Y0242950D02*
X0129492Y0242950D01*
X0131027Y0242950D02*
X0131027Y0247554D01*
X0129492Y0246019D01*
X0127957Y0246787D02*
X0127190Y0247554D01*
X0125656Y0247554D01*
X0124888Y0246787D01*
X0124888Y0243717D01*
X0125656Y0242950D01*
X0127190Y0242950D01*
X0127957Y0243717D01*
X0134096Y0246019D02*
X0134863Y0245252D01*
X0137165Y0245252D01*
X0137165Y0246787D02*
X0136398Y0247554D01*
X0134863Y0247554D01*
X0134096Y0246787D01*
X0134096Y0246019D01*
X0122165Y0238769D02*
X0122165Y0235700D01*
X0119863Y0235700D01*
X0119096Y0236467D01*
X0119096Y0238769D01*
X0117561Y0235700D02*
X0114492Y0235700D01*
X0112957Y0235700D02*
X0112190Y0235700D01*
X0112190Y0236467D01*
X0112957Y0236467D01*
X0112957Y0235700D01*
X0110656Y0236467D02*
X0110656Y0239537D01*
X0107586Y0236467D01*
X0108354Y0235700D01*
X0109888Y0235700D01*
X0110656Y0236467D01*
X0110656Y0239537D02*
X0109888Y0240304D01*
X0108354Y0240304D01*
X0107586Y0239537D01*
X0107586Y0236467D01*
X0114492Y0238769D02*
X0116027Y0240304D01*
X0116027Y0235700D01*
X0095915Y0235700D02*
X0095915Y0238769D01*
X0092846Y0238769D02*
X0092846Y0236467D01*
X0093613Y0235700D01*
X0095915Y0235700D01*
X0091311Y0235700D02*
X0088242Y0235700D01*
X0086707Y0235700D02*
X0085940Y0235700D01*
X0085940Y0236467D01*
X0086707Y0236467D01*
X0086707Y0235700D01*
X0084406Y0236467D02*
X0083638Y0235700D01*
X0082104Y0235700D01*
X0081336Y0236467D01*
X0084406Y0239537D01*
X0084406Y0236467D01*
X0084406Y0239537D02*
X0083638Y0240304D01*
X0082104Y0240304D01*
X0081336Y0239537D01*
X0081336Y0236467D01*
X0078415Y0242950D02*
X0075346Y0242950D01*
X0073811Y0242950D02*
X0070742Y0242950D01*
X0073811Y0246019D01*
X0073811Y0246787D01*
X0073044Y0247554D01*
X0071509Y0247554D01*
X0070742Y0246787D01*
X0069207Y0246787D02*
X0068440Y0247554D01*
X0066906Y0247554D01*
X0066138Y0246787D01*
X0066138Y0243717D01*
X0066906Y0242950D01*
X0068440Y0242950D01*
X0069207Y0243717D01*
X0075346Y0246019D02*
X0076881Y0247554D01*
X0076881Y0242950D01*
X0088242Y0238769D02*
X0089777Y0240304D01*
X0089777Y0235700D01*
X0132450Y0195787D02*
X0133217Y0196554D01*
X0134752Y0196554D01*
X0135519Y0195787D01*
X0137054Y0195787D02*
X0137821Y0196554D01*
X0139356Y0196554D01*
X0140123Y0195787D01*
X0140123Y0195019D01*
X0139356Y0194252D01*
X0140123Y0193485D01*
X0140123Y0192717D01*
X0139356Y0191950D01*
X0137821Y0191950D01*
X0137054Y0192717D01*
X0135519Y0192717D02*
X0134752Y0191950D01*
X0133217Y0191950D01*
X0132450Y0192717D01*
X0132450Y0195787D01*
X0138589Y0194252D02*
X0139356Y0194252D01*
X0141658Y0195019D02*
X0143192Y0196554D01*
X0143192Y0191950D01*
X0141658Y0191950D02*
X0144727Y0191950D01*
X0140606Y0181304D02*
X0139071Y0181304D01*
X0138304Y0180537D01*
X0136769Y0180537D02*
X0136002Y0181304D01*
X0134467Y0181304D01*
X0133700Y0180537D01*
X0136769Y0180537D02*
X0136769Y0179769D01*
X0133700Y0176700D01*
X0136769Y0176700D01*
X0138304Y0176700D02*
X0141373Y0179769D01*
X0141373Y0180537D01*
X0140606Y0181304D01*
X0142908Y0179769D02*
X0145210Y0179769D01*
X0145977Y0179002D01*
X0145977Y0177467D01*
X0145210Y0176700D01*
X0142908Y0176700D01*
X0142908Y0175165D02*
X0142908Y0179769D01*
X0141373Y0176700D02*
X0138304Y0176700D01*
X0140981Y0173460D02*
X0142515Y0171158D01*
X0144050Y0173460D01*
X0144050Y0171158D02*
X0139446Y0171158D01*
X0140213Y0169623D02*
X0143283Y0166554D01*
X0144050Y0167321D01*
X0144050Y0168856D01*
X0143283Y0169623D01*
X0140213Y0169623D01*
X0139446Y0168856D01*
X0139446Y0167321D01*
X0140213Y0166554D01*
X0143283Y0166554D01*
X0144050Y0165019D02*
X0144050Y0161950D01*
X0144050Y0163485D02*
X0139446Y0163485D01*
X0140981Y0161950D01*
X0141498Y0158373D02*
X0141498Y0156071D01*
X0140731Y0155304D01*
X0139963Y0155304D01*
X0139196Y0156071D01*
X0139196Y0157606D01*
X0139963Y0158373D01*
X0143033Y0158373D01*
X0143800Y0157606D01*
X0143800Y0156071D01*
X0143033Y0155304D01*
X0143800Y0153769D02*
X0142265Y0152235D01*
X0142265Y0153002D02*
X0142265Y0150700D01*
X0143800Y0150700D02*
X0139196Y0150700D01*
X0139196Y0153002D01*
X0139963Y0153769D01*
X0141498Y0153769D01*
X0142265Y0153002D01*
X0128800Y0152165D02*
X0128800Y0149863D01*
X0128033Y0149096D01*
X0125731Y0149096D01*
X0124963Y0147561D02*
X0128033Y0144492D01*
X0128800Y0145259D01*
X0128800Y0146794D01*
X0128033Y0147561D01*
X0124963Y0147561D01*
X0124196Y0146794D01*
X0124196Y0145259D01*
X0124963Y0144492D01*
X0128033Y0144492D01*
X0128800Y0142957D02*
X0128800Y0139888D01*
X0128800Y0141423D02*
X0124196Y0141423D01*
X0125731Y0139888D01*
X0117165Y0141217D02*
X0116398Y0140450D01*
X0114863Y0140450D01*
X0114096Y0141217D01*
X0112561Y0140450D02*
X0109492Y0140450D01*
X0112561Y0143519D01*
X0112561Y0144287D01*
X0111794Y0145054D01*
X0110259Y0145054D01*
X0109492Y0144287D01*
X0107957Y0144287D02*
X0107190Y0145054D01*
X0105656Y0145054D01*
X0104888Y0144287D01*
X0104888Y0141217D01*
X0105656Y0140450D01*
X0107190Y0140450D01*
X0107957Y0141217D01*
X0114096Y0144287D02*
X0114863Y0145054D01*
X0116398Y0145054D01*
X0117165Y0144287D01*
X0117165Y0143519D01*
X0116398Y0142752D01*
X0117165Y0141985D01*
X0117165Y0141217D01*
X0116398Y0142752D02*
X0115631Y0142752D01*
X0125731Y0152165D02*
X0128800Y0152165D01*
X0123279Y0156700D02*
X0123279Y0159769D01*
X0123279Y0156700D02*
X0120977Y0156700D01*
X0120210Y0157467D01*
X0120210Y0159769D01*
X0118675Y0156700D02*
X0115606Y0156700D01*
X0117141Y0156700D02*
X0117141Y0161304D01*
X0115606Y0159769D01*
X0114071Y0157467D02*
X0114071Y0156700D01*
X0113304Y0156700D01*
X0113304Y0157467D01*
X0114071Y0157467D01*
X0111769Y0157467D02*
X0111002Y0156700D01*
X0109467Y0156700D01*
X0108700Y0157467D01*
X0111769Y0160537D01*
X0111769Y0157467D01*
X0108700Y0157467D02*
X0108700Y0160537D01*
X0109467Y0161304D01*
X0111002Y0161304D01*
X0111769Y0160537D01*
X0111992Y0171700D02*
X0115061Y0174769D01*
X0115061Y0175537D01*
X0114294Y0176304D01*
X0112759Y0176304D01*
X0111992Y0175537D01*
X0110457Y0175537D02*
X0109690Y0176304D01*
X0108156Y0176304D01*
X0107388Y0175537D01*
X0107388Y0172467D01*
X0108156Y0171700D01*
X0109690Y0171700D01*
X0110457Y0172467D01*
X0111992Y0171700D02*
X0115061Y0171700D01*
X0116596Y0171700D02*
X0119665Y0174769D01*
X0119665Y0175537D01*
X0118898Y0176304D01*
X0117363Y0176304D01*
X0116596Y0175537D01*
X0116596Y0171700D02*
X0119665Y0171700D01*
X0092165Y0174002D02*
X0089096Y0174002D01*
X0091398Y0176304D01*
X0091398Y0171700D01*
X0087561Y0171700D02*
X0084492Y0171700D01*
X0087561Y0174769D01*
X0087561Y0175537D01*
X0086794Y0176304D01*
X0085259Y0176304D01*
X0084492Y0175537D01*
X0082957Y0175537D02*
X0082190Y0176304D01*
X0080656Y0176304D01*
X0079888Y0175537D01*
X0079888Y0172467D01*
X0080656Y0171700D01*
X0082190Y0171700D01*
X0082957Y0172467D01*
X0076300Y0173415D02*
X0076300Y0171113D01*
X0075533Y0170346D01*
X0073231Y0170346D01*
X0073231Y0173415D02*
X0076300Y0173415D01*
X0076300Y0168811D02*
X0076300Y0165742D01*
X0076300Y0164207D02*
X0076300Y0163440D01*
X0075533Y0163440D01*
X0075533Y0164207D01*
X0076300Y0164207D01*
X0075533Y0161906D02*
X0076300Y0161138D01*
X0076300Y0159604D01*
X0075533Y0158836D01*
X0072463Y0161906D01*
X0075533Y0161906D01*
X0072463Y0161906D02*
X0071696Y0161138D01*
X0071696Y0159604D01*
X0072463Y0158836D01*
X0075533Y0158836D01*
X0076300Y0154665D02*
X0073231Y0154665D01*
X0073231Y0151596D02*
X0075533Y0151596D01*
X0076300Y0152363D01*
X0076300Y0154665D01*
X0075533Y0150061D02*
X0072463Y0150061D01*
X0075533Y0146992D01*
X0076300Y0147759D01*
X0076300Y0149294D01*
X0075533Y0150061D01*
X0075533Y0146992D02*
X0072463Y0146992D01*
X0071696Y0147759D01*
X0071696Y0149294D01*
X0072463Y0150061D01*
X0076300Y0145457D02*
X0076300Y0142388D01*
X0076300Y0143923D02*
X0071696Y0143923D01*
X0073231Y0142388D01*
X0078638Y0141217D02*
X0078638Y0144287D01*
X0079406Y0145054D01*
X0080940Y0145054D01*
X0081707Y0144287D01*
X0083242Y0144287D02*
X0084009Y0145054D01*
X0085544Y0145054D01*
X0086311Y0144287D01*
X0086311Y0143519D01*
X0083242Y0140450D01*
X0086311Y0140450D01*
X0087846Y0141217D02*
X0088613Y0140450D01*
X0090148Y0140450D01*
X0090915Y0141217D01*
X0090915Y0142752D01*
X0090148Y0143519D01*
X0089381Y0143519D01*
X0087846Y0142752D01*
X0087846Y0145054D01*
X0090915Y0145054D01*
X0081707Y0141217D02*
X0080940Y0140450D01*
X0079406Y0140450D01*
X0078638Y0141217D01*
X0051550Y0153002D02*
X0046946Y0153002D01*
X0049248Y0150700D01*
X0049248Y0153769D01*
X0050783Y0155304D02*
X0050783Y0156071D01*
X0051550Y0156071D01*
X0051550Y0155304D01*
X0050783Y0155304D01*
X0050783Y0157606D02*
X0051550Y0157606D01*
X0050783Y0157606D02*
X0047713Y0160675D01*
X0046946Y0160675D01*
X0046946Y0157606D01*
X0046946Y0162210D02*
X0051550Y0162210D01*
X0050015Y0162210D02*
X0051550Y0164512D01*
X0050015Y0162210D02*
X0048481Y0164512D01*
X0071696Y0167277D02*
X0076300Y0167277D01*
X0073231Y0165742D02*
X0071696Y0167277D01*
X0024550Y0199146D02*
X0019946Y0196076D01*
X0022248Y0194542D02*
X0022248Y0191472D01*
X0016213Y0182227D02*
X0015446Y0182227D01*
X0015446Y0179158D01*
X0016213Y0177623D02*
X0015446Y0176856D01*
X0015446Y0175321D01*
X0016213Y0174554D01*
X0016213Y0173019D02*
X0015446Y0172252D01*
X0015446Y0170717D01*
X0016213Y0169950D01*
X0019283Y0169950D01*
X0020050Y0170717D01*
X0020050Y0172252D01*
X0019283Y0173019D01*
X0020050Y0174554D02*
X0016981Y0177623D01*
X0016213Y0177623D01*
X0019283Y0179158D02*
X0020050Y0179158D01*
X0019283Y0179158D02*
X0016213Y0182227D01*
X0020050Y0177623D02*
X0020050Y0174554D01*
X0022248Y0205284D02*
X0019946Y0207586D01*
X0024550Y0207586D01*
X0079950Y0298217D02*
X0083019Y0301287D01*
X0081485Y0301287D02*
X0081485Y0298217D01*
X0083019Y0298217D02*
X0079950Y0301287D01*
X0079950Y0299752D02*
X0083019Y0299752D01*
X0143696Y0296633D02*
X0148300Y0296633D01*
X0148300Y0293564D02*
X0143696Y0293564D01*
X0145231Y0295098D01*
X0143696Y0296633D01*
X0144463Y0292029D02*
X0143696Y0291262D01*
X0143696Y0289727D01*
X0144463Y0288960D01*
X0145231Y0288960D01*
X0145998Y0289727D01*
X0145998Y0292029D01*
X0147533Y0292029D02*
X0144463Y0292029D01*
X0147533Y0292029D02*
X0148300Y0291262D01*
X0148300Y0289727D01*
X0147533Y0288960D01*
X0145998Y0287425D02*
X0145998Y0284356D01*
X0143696Y0286658D01*
X0148300Y0286658D01*
X0148300Y0282821D02*
X0148300Y0282054D01*
X0147533Y0282054D01*
X0147533Y0282821D01*
X0148300Y0282821D01*
X0147533Y0280519D02*
X0145998Y0280519D01*
X0145231Y0279752D01*
X0145231Y0278985D01*
X0145998Y0277450D01*
X0143696Y0277450D01*
X0143696Y0280519D01*
X0147533Y0280519D02*
X0148300Y0279752D01*
X0148300Y0278217D01*
X0147533Y0277450D01*
X0183696Y0276200D02*
X0185998Y0276200D01*
X0185231Y0277735D01*
X0185231Y0278502D01*
X0185998Y0279269D01*
X0187533Y0279269D01*
X0188300Y0278502D01*
X0188300Y0276967D01*
X0187533Y0276200D01*
X0191196Y0276200D02*
X0191196Y0279269D01*
X0192731Y0278502D02*
X0193498Y0279269D01*
X0195033Y0279269D01*
X0195800Y0278502D01*
X0195800Y0276967D01*
X0195033Y0276200D01*
X0193498Y0276200D02*
X0192731Y0277735D01*
X0192731Y0278502D01*
X0193498Y0276200D02*
X0191196Y0276200D01*
X0187533Y0280804D02*
X0188300Y0281571D01*
X0188300Y0283106D01*
X0187533Y0283873D01*
X0186765Y0283873D01*
X0185998Y0283106D01*
X0185998Y0280804D01*
X0187533Y0280804D01*
X0185998Y0280804D02*
X0184463Y0282339D01*
X0183696Y0283873D01*
X0184463Y0285408D02*
X0183696Y0286175D01*
X0183696Y0287710D01*
X0184463Y0288477D01*
X0187533Y0285408D01*
X0188300Y0286175D01*
X0188300Y0287710D01*
X0187533Y0288477D01*
X0184463Y0288477D01*
X0183696Y0290012D02*
X0188300Y0290012D01*
X0186765Y0290012D02*
X0185231Y0292314D01*
X0186765Y0290012D02*
X0188300Y0292314D01*
X0191196Y0292314D02*
X0192731Y0293848D01*
X0191196Y0295383D01*
X0195800Y0295383D01*
X0195800Y0292314D02*
X0191196Y0292314D01*
X0191963Y0290779D02*
X0191196Y0290012D01*
X0191196Y0288477D01*
X0191963Y0287710D01*
X0192731Y0287710D01*
X0193498Y0288477D01*
X0193498Y0290779D01*
X0195033Y0290779D02*
X0191963Y0290779D01*
X0195033Y0290779D02*
X0195800Y0290012D01*
X0195800Y0288477D01*
X0195033Y0287710D01*
X0193498Y0286175D02*
X0193498Y0283106D01*
X0191196Y0285408D01*
X0195800Y0285408D01*
X0195800Y0281571D02*
X0195800Y0280804D01*
X0195033Y0280804D01*
X0195033Y0281571D01*
X0195800Y0281571D01*
X0187533Y0285408D02*
X0184463Y0285408D01*
X0183696Y0279269D02*
X0183696Y0276200D01*
X0184463Y0268415D02*
X0187533Y0265346D01*
X0188300Y0266113D01*
X0188300Y0267648D01*
X0187533Y0268415D01*
X0184463Y0268415D01*
X0183696Y0267648D01*
X0183696Y0266113D01*
X0184463Y0265346D01*
X0187533Y0265346D01*
X0185998Y0263811D02*
X0185998Y0260742D01*
X0183696Y0263044D01*
X0188300Y0263044D01*
X0188300Y0259207D02*
X0185231Y0259207D01*
X0183696Y0257673D01*
X0185231Y0256138D01*
X0188300Y0256138D01*
X0188300Y0254604D02*
X0188300Y0251534D01*
X0185231Y0254604D01*
X0184463Y0254604D01*
X0183696Y0253836D01*
X0183696Y0252302D01*
X0184463Y0251534D01*
X0184463Y0250000D02*
X0185998Y0250000D01*
X0186765Y0249232D01*
X0186765Y0246930D01*
X0186765Y0248465D02*
X0188300Y0250000D01*
X0188300Y0246930D02*
X0183696Y0246930D01*
X0183696Y0249232D01*
X0184463Y0250000D01*
X0185998Y0256138D02*
X0185998Y0259207D01*
X0192446Y0258440D02*
X0194748Y0256138D01*
X0194748Y0259207D01*
X0193213Y0260742D02*
X0192446Y0261509D01*
X0192446Y0263044D01*
X0193213Y0263811D01*
X0196283Y0260742D01*
X0197050Y0261509D01*
X0197050Y0263044D01*
X0196283Y0263811D01*
X0193213Y0263811D01*
X0193213Y0265346D02*
X0192446Y0266113D01*
X0192446Y0267648D01*
X0193213Y0268415D01*
X0196283Y0265346D01*
X0197050Y0266113D01*
X0197050Y0267648D01*
X0196283Y0268415D01*
X0193213Y0268415D01*
X0193213Y0265346D02*
X0196283Y0265346D01*
X0196283Y0260742D02*
X0193213Y0260742D01*
X0192446Y0258440D02*
X0197050Y0258440D01*
X0196283Y0254604D02*
X0197050Y0253836D01*
X0197050Y0251534D01*
X0192446Y0251534D01*
X0192446Y0253836D01*
X0193213Y0254604D01*
X0193981Y0254604D01*
X0194748Y0253836D01*
X0194748Y0251534D01*
X0193981Y0250000D02*
X0193213Y0250000D01*
X0192446Y0249232D01*
X0192446Y0247698D01*
X0193213Y0246930D01*
X0193213Y0245396D02*
X0194748Y0245396D01*
X0195515Y0244628D01*
X0195515Y0242326D01*
X0197050Y0242326D02*
X0192446Y0242326D01*
X0192446Y0244628D01*
X0193213Y0245396D01*
X0195515Y0243861D02*
X0197050Y0245396D01*
X0197050Y0246930D02*
X0193981Y0250000D01*
X0197050Y0250000D02*
X0197050Y0246930D01*
X0194748Y0253836D02*
X0195515Y0254604D01*
X0196283Y0254604D01*
X0201963Y0232227D02*
X0201196Y0231460D01*
X0201196Y0229158D01*
X0205800Y0229158D01*
X0205800Y0231460D01*
X0205033Y0232227D01*
X0204265Y0232227D01*
X0203498Y0231460D01*
X0203498Y0229158D01*
X0202731Y0227623D02*
X0203498Y0226856D01*
X0204265Y0227623D01*
X0205033Y0227623D01*
X0205800Y0226856D01*
X0205800Y0225321D01*
X0205033Y0224554D01*
X0205800Y0223019D02*
X0204265Y0221485D01*
X0204265Y0222252D02*
X0204265Y0219950D01*
X0205800Y0219950D02*
X0201196Y0219950D01*
X0201196Y0222252D01*
X0201963Y0223019D01*
X0203498Y0223019D01*
X0204265Y0222252D01*
X0201963Y0224554D02*
X0201196Y0225321D01*
X0201196Y0226856D01*
X0201963Y0227623D01*
X0202731Y0227623D01*
X0203498Y0226856D02*
X0203498Y0226089D01*
X0203498Y0231460D02*
X0202731Y0232227D01*
X0201963Y0232227D01*
X0222446Y0227054D02*
X0227050Y0227054D01*
X0225515Y0227054D02*
X0223981Y0229356D01*
X0225515Y0227054D02*
X0227050Y0229356D01*
X0227050Y0225519D02*
X0227050Y0222450D01*
X0227050Y0223985D02*
X0222446Y0223985D01*
X0223981Y0222450D01*
X0242388Y0211787D02*
X0242388Y0208717D01*
X0243156Y0207950D01*
X0244690Y0207950D01*
X0245457Y0208717D01*
X0246992Y0207950D02*
X0250061Y0207950D01*
X0248527Y0207950D02*
X0248527Y0212554D01*
X0246992Y0211019D01*
X0245457Y0211787D02*
X0244690Y0212554D01*
X0243156Y0212554D01*
X0242388Y0211787D01*
X0243354Y0205304D02*
X0244888Y0205304D01*
X0245656Y0204537D01*
X0242586Y0201467D01*
X0243354Y0200700D01*
X0244888Y0200700D01*
X0245656Y0201467D01*
X0245656Y0204537D01*
X0243354Y0205304D02*
X0242586Y0204537D01*
X0242586Y0201467D01*
X0247190Y0201467D02*
X0247957Y0201467D01*
X0247957Y0200700D01*
X0247190Y0200700D01*
X0247190Y0201467D01*
X0249492Y0200700D02*
X0252561Y0200700D01*
X0251027Y0200700D02*
X0251027Y0205304D01*
X0249492Y0203769D01*
X0254096Y0203769D02*
X0254096Y0201467D01*
X0254863Y0200700D01*
X0257165Y0200700D01*
X0257165Y0203769D01*
X0254665Y0207950D02*
X0251596Y0207950D01*
X0254665Y0211019D01*
X0254665Y0211787D01*
X0253898Y0212554D01*
X0252363Y0212554D01*
X0251596Y0211787D01*
X0235148Y0205054D02*
X0235148Y0200450D01*
X0235915Y0202752D02*
X0232846Y0202752D01*
X0235148Y0205054D01*
X0229777Y0205054D02*
X0229777Y0200450D01*
X0231311Y0200450D02*
X0228242Y0200450D01*
X0226707Y0201217D02*
X0225940Y0200450D01*
X0224406Y0200450D01*
X0223638Y0201217D01*
X0223638Y0204287D01*
X0224406Y0205054D01*
X0225940Y0205054D01*
X0226707Y0204287D01*
X0228242Y0203519D02*
X0229777Y0205054D01*
X0219665Y0196269D02*
X0219665Y0193200D01*
X0217363Y0193200D01*
X0216596Y0193967D01*
X0216596Y0196269D01*
X0215061Y0193200D02*
X0211992Y0193200D01*
X0210457Y0193200D02*
X0209690Y0193200D01*
X0209690Y0193967D01*
X0210457Y0193967D01*
X0210457Y0193200D01*
X0208156Y0193967D02*
X0207388Y0193200D01*
X0205854Y0193200D01*
X0205086Y0193967D01*
X0208156Y0197037D01*
X0208156Y0193967D01*
X0208156Y0197037D02*
X0207388Y0197804D01*
X0205854Y0197804D01*
X0205086Y0197037D01*
X0205086Y0193967D01*
X0204319Y0187804D02*
X0204319Y0183200D01*
X0202784Y0183200D02*
X0205854Y0183200D01*
X0207388Y0183967D02*
X0208155Y0183200D01*
X0209690Y0183200D01*
X0210457Y0183967D01*
X0210457Y0187037D01*
X0207388Y0183967D01*
X0207388Y0187037D01*
X0208155Y0187804D01*
X0209690Y0187804D01*
X0210457Y0187037D01*
X0211992Y0187037D02*
X0212759Y0187804D01*
X0214294Y0187804D01*
X0215061Y0187037D01*
X0211992Y0183967D01*
X0212759Y0183200D01*
X0214294Y0183200D01*
X0215061Y0183967D01*
X0215061Y0187037D01*
X0216596Y0186269D02*
X0218898Y0186269D01*
X0219665Y0185502D01*
X0219665Y0183967D01*
X0218898Y0183200D01*
X0216596Y0183200D01*
X0216596Y0181665D02*
X0216596Y0186269D01*
X0211992Y0187037D02*
X0211992Y0183967D01*
X0204319Y0187804D02*
X0202784Y0186269D01*
X0213527Y0193200D02*
X0213527Y0197804D01*
X0211992Y0196269D01*
X0223156Y0181304D02*
X0222388Y0180537D01*
X0222388Y0177467D01*
X0223156Y0176700D01*
X0224690Y0176700D01*
X0225457Y0177467D01*
X0226992Y0176700D02*
X0230061Y0176700D01*
X0228527Y0176700D02*
X0228527Y0181304D01*
X0226992Y0179769D01*
X0225457Y0180537D02*
X0224690Y0181304D01*
X0223156Y0181304D01*
X0231596Y0181304D02*
X0231596Y0179002D01*
X0233131Y0179769D01*
X0233898Y0179769D01*
X0234665Y0179002D01*
X0234665Y0177467D01*
X0233898Y0176700D01*
X0232363Y0176700D01*
X0231596Y0177467D01*
X0231596Y0181304D02*
X0234665Y0181304D01*
X0248638Y0180537D02*
X0248638Y0177467D01*
X0249406Y0176700D01*
X0250940Y0176700D01*
X0251707Y0177467D01*
X0253242Y0176700D02*
X0256311Y0176700D01*
X0254777Y0176700D02*
X0254777Y0181304D01*
X0253242Y0179769D01*
X0251707Y0180537D02*
X0250940Y0181304D01*
X0249406Y0181304D01*
X0248638Y0180537D01*
X0250235Y0173804D02*
X0248700Y0172269D01*
X0250235Y0173804D02*
X0250235Y0169200D01*
X0251769Y0169200D02*
X0248700Y0169200D01*
X0253304Y0169967D02*
X0256373Y0173037D01*
X0256373Y0169967D01*
X0255606Y0169200D01*
X0254071Y0169200D01*
X0253304Y0169967D01*
X0253304Y0173037D01*
X0254071Y0173804D01*
X0255606Y0173804D01*
X0256373Y0173037D01*
X0257908Y0173037D02*
X0257908Y0169967D01*
X0260977Y0173037D01*
X0260977Y0169967D01*
X0260210Y0169200D01*
X0258675Y0169200D01*
X0257908Y0169967D01*
X0257908Y0173037D02*
X0258675Y0173804D01*
X0260210Y0173804D01*
X0260977Y0173037D01*
X0262512Y0172269D02*
X0264814Y0172269D01*
X0265581Y0171502D01*
X0265581Y0169967D01*
X0264814Y0169200D01*
X0262512Y0169200D01*
X0262512Y0167665D02*
X0262512Y0172269D01*
X0260148Y0176700D02*
X0258613Y0176700D01*
X0257846Y0177467D01*
X0259381Y0179002D02*
X0260148Y0179002D01*
X0260915Y0178235D01*
X0260915Y0177467D01*
X0260148Y0176700D01*
X0260148Y0179002D02*
X0260915Y0179769D01*
X0260915Y0180537D01*
X0260148Y0181304D01*
X0258613Y0181304D01*
X0257846Y0180537D01*
X0272450Y0179537D02*
X0272450Y0176467D01*
X0273217Y0175700D01*
X0274752Y0175700D01*
X0275519Y0176467D01*
X0277054Y0175700D02*
X0280123Y0175700D01*
X0278589Y0175700D02*
X0278589Y0180304D01*
X0277054Y0178769D01*
X0275519Y0179537D02*
X0274752Y0180304D01*
X0273217Y0180304D01*
X0272450Y0179537D01*
X0281658Y0178769D02*
X0283192Y0180304D01*
X0283192Y0175700D01*
X0281658Y0175700D02*
X0284727Y0175700D01*
X0289446Y0175235D02*
X0290981Y0173700D01*
X0289446Y0175235D02*
X0294050Y0175235D01*
X0294050Y0176769D02*
X0294050Y0173700D01*
X0296696Y0173502D02*
X0296696Y0171967D01*
X0297463Y0171200D01*
X0300533Y0171200D01*
X0301300Y0171967D01*
X0301300Y0173502D01*
X0300533Y0174269D01*
X0300533Y0175804D02*
X0301300Y0176571D01*
X0301300Y0178106D01*
X0300533Y0178873D01*
X0298998Y0178873D01*
X0298231Y0178106D01*
X0298231Y0177339D01*
X0298998Y0175804D01*
X0296696Y0175804D01*
X0296696Y0178873D01*
X0294050Y0179071D02*
X0293283Y0178304D01*
X0290213Y0181373D01*
X0293283Y0181373D01*
X0294050Y0180606D01*
X0294050Y0179071D01*
X0293283Y0178304D02*
X0290213Y0178304D01*
X0289446Y0179071D01*
X0289446Y0180606D01*
X0290213Y0181373D01*
X0290213Y0182908D02*
X0289446Y0183675D01*
X0289446Y0185210D01*
X0290213Y0185977D01*
X0293283Y0182908D01*
X0294050Y0183675D01*
X0294050Y0185210D01*
X0293283Y0185977D01*
X0290213Y0185977D01*
X0290213Y0182908D02*
X0293283Y0182908D01*
X0296696Y0183217D02*
X0297463Y0182450D01*
X0300533Y0182450D01*
X0301300Y0183217D01*
X0301300Y0184752D01*
X0300533Y0185519D01*
X0297463Y0185519D02*
X0296696Y0184752D01*
X0296696Y0183217D01*
X0297463Y0174269D02*
X0296696Y0173502D01*
X0304950Y0168519D02*
X0306485Y0170054D01*
X0306485Y0165450D01*
X0308019Y0165450D02*
X0304950Y0165450D01*
X0309554Y0166217D02*
X0309554Y0169287D01*
X0310321Y0170054D01*
X0311856Y0170054D01*
X0312623Y0169287D01*
X0309554Y0166217D01*
X0310321Y0165450D01*
X0311856Y0165450D01*
X0312623Y0166217D01*
X0312623Y0169287D01*
X0314158Y0169287D02*
X0314925Y0170054D01*
X0316460Y0170054D01*
X0317227Y0169287D01*
X0314158Y0166217D01*
X0314925Y0165450D01*
X0316460Y0165450D01*
X0317227Y0166217D01*
X0317227Y0169287D01*
X0318762Y0168519D02*
X0321064Y0168519D01*
X0321831Y0167752D01*
X0321831Y0166217D01*
X0321064Y0165450D01*
X0318762Y0165450D01*
X0318762Y0163915D02*
X0318762Y0168519D01*
X0314158Y0169287D02*
X0314158Y0166217D01*
X0331200Y0161787D02*
X0331200Y0158717D01*
X0334269Y0161787D01*
X0334269Y0158717D01*
X0333502Y0157950D01*
X0331967Y0157950D01*
X0331200Y0158717D01*
X0331200Y0161787D02*
X0331967Y0162554D01*
X0333502Y0162554D01*
X0334269Y0161787D01*
X0334294Y0164200D02*
X0335061Y0164967D01*
X0334294Y0164200D02*
X0332759Y0164200D01*
X0331992Y0164967D01*
X0331992Y0168037D01*
X0332759Y0168804D01*
X0334294Y0168804D01*
X0335061Y0168037D01*
X0336596Y0168037D02*
X0337363Y0168804D01*
X0338898Y0168804D01*
X0339665Y0168037D01*
X0339665Y0167269D01*
X0336596Y0164200D01*
X0339665Y0164200D01*
X0339641Y0162554D02*
X0339641Y0157950D01*
X0341175Y0157950D02*
X0338106Y0157950D01*
X0336571Y0157950D02*
X0335804Y0157950D01*
X0335804Y0158717D01*
X0336571Y0158717D01*
X0336571Y0157950D01*
X0338106Y0161019D02*
X0339641Y0162554D01*
X0342710Y0161019D02*
X0342710Y0158717D01*
X0343477Y0157950D01*
X0345779Y0157950D01*
X0345779Y0161019D01*
X0285977Y0201467D02*
X0285210Y0200700D01*
X0283675Y0200700D01*
X0282908Y0201467D01*
X0285977Y0204537D01*
X0285977Y0201467D01*
X0282908Y0201467D02*
X0282908Y0204537D01*
X0283675Y0205304D01*
X0285210Y0205304D01*
X0285977Y0204537D01*
X0281373Y0200700D02*
X0278304Y0200700D01*
X0279839Y0200700D02*
X0279839Y0205304D01*
X0278304Y0203769D01*
X0276769Y0204537D02*
X0276002Y0205304D01*
X0274467Y0205304D01*
X0273700Y0204537D01*
X0273700Y0201467D01*
X0274467Y0200700D01*
X0276002Y0200700D01*
X0276769Y0201467D01*
X0278750Y0211200D02*
X0277982Y0211967D01*
X0281052Y0215037D01*
X0281052Y0211967D01*
X0280284Y0211200D01*
X0278750Y0211200D01*
X0277982Y0211967D02*
X0277982Y0215037D01*
X0278750Y0215804D01*
X0280284Y0215804D01*
X0281052Y0215037D01*
X0282586Y0211967D02*
X0283354Y0211967D01*
X0283354Y0211200D01*
X0282586Y0211200D01*
X0282586Y0211967D01*
X0284888Y0211967D02*
X0284888Y0215037D01*
X0285655Y0215804D01*
X0294096Y0215804D02*
X0297165Y0215804D01*
X0235800Y0245680D02*
X0231196Y0245680D01*
X0231196Y0247982D01*
X0231963Y0248750D01*
X0233498Y0248750D01*
X0234265Y0247982D01*
X0234265Y0245680D01*
X0234265Y0247215D02*
X0235800Y0248750D01*
X0235800Y0250284D02*
X0232731Y0253354D01*
X0231963Y0253354D01*
X0231196Y0252586D01*
X0231196Y0251052D01*
X0231963Y0250284D01*
X0235800Y0250284D02*
X0235800Y0253354D01*
X0235800Y0254888D02*
X0231196Y0254888D01*
X0231196Y0257190D01*
X0231963Y0257957D01*
X0232731Y0257957D01*
X0233498Y0257190D01*
X0233498Y0254888D01*
X0235800Y0254888D02*
X0235800Y0257190D01*
X0235033Y0257957D01*
X0234265Y0257957D01*
X0233498Y0257190D01*
X0233498Y0259492D02*
X0233498Y0262561D01*
X0231963Y0264096D02*
X0231196Y0264863D01*
X0231196Y0266398D01*
X0231963Y0267165D01*
X0235033Y0264096D01*
X0235800Y0264863D01*
X0235800Y0266398D01*
X0235033Y0267165D01*
X0231963Y0267165D01*
X0231963Y0264096D02*
X0235033Y0264096D01*
X0235800Y0261794D02*
X0231196Y0261794D01*
X0233498Y0259492D01*
X0233498Y0276200D02*
X0232731Y0277735D01*
X0232731Y0278502D01*
X0233498Y0279269D01*
X0235033Y0279269D01*
X0235800Y0278502D01*
X0235800Y0276967D01*
X0235033Y0276200D01*
X0233498Y0276200D02*
X0231196Y0276200D01*
X0231196Y0279269D01*
X0233498Y0280804D02*
X0231963Y0282339D01*
X0231196Y0283873D01*
X0231963Y0285408D02*
X0231196Y0286175D01*
X0231196Y0287710D01*
X0231963Y0288477D01*
X0235033Y0285408D01*
X0235800Y0286175D01*
X0235800Y0287710D01*
X0235033Y0288477D01*
X0231963Y0288477D01*
X0231196Y0290012D02*
X0235800Y0290012D01*
X0234265Y0290012D02*
X0232731Y0292314D01*
X0234265Y0290012D02*
X0235800Y0292314D01*
X0235033Y0285408D02*
X0231963Y0285408D01*
X0233498Y0283106D02*
X0233498Y0280804D01*
X0235033Y0280804D01*
X0235800Y0281571D01*
X0235800Y0283106D01*
X0235033Y0283873D01*
X0234265Y0283873D01*
X0233498Y0283106D01*
X0271141Y0308857D02*
X0271141Y0311926D01*
X0274210Y0311926D02*
X0274210Y0308857D01*
X0272676Y0307322D01*
X0271141Y0308857D01*
X0275745Y0308089D02*
X0276512Y0307322D01*
X0278047Y0307322D01*
X0278814Y0308089D01*
X0278814Y0311159D01*
X0278047Y0311926D01*
X0276512Y0311926D01*
X0275745Y0311159D01*
X0275745Y0308089D01*
X0280349Y0308089D02*
X0280349Y0311926D01*
X0283418Y0311926D02*
X0283418Y0308089D01*
X0282651Y0307322D01*
X0281116Y0307322D01*
X0280349Y0308089D01*
X0284953Y0311926D02*
X0288022Y0311926D01*
X0286487Y0311926D02*
X0286487Y0307322D01*
X0343635Y0309113D02*
X0345170Y0307578D01*
X0346705Y0309113D01*
X0346705Y0312182D01*
X0348239Y0312182D02*
X0348239Y0307578D01*
X0348239Y0309113D02*
X0350541Y0309113D01*
X0351309Y0309880D01*
X0351309Y0311415D01*
X0350541Y0312182D01*
X0348239Y0312182D01*
X0352843Y0310647D02*
X0352843Y0307578D01*
X0352843Y0309880D02*
X0355913Y0309880D01*
X0355913Y0310647D02*
X0355913Y0307578D01*
X0357447Y0307578D02*
X0357447Y0312182D01*
X0360516Y0307578D01*
X0360516Y0312182D01*
X0362051Y0312182D02*
X0362051Y0307578D01*
X0365120Y0307578D01*
X0366655Y0307578D02*
X0369724Y0307578D01*
X0366655Y0307578D02*
X0366655Y0312182D01*
X0365120Y0312182D02*
X0362051Y0312182D01*
X0362051Y0309880D02*
X0363586Y0309880D01*
X0355913Y0310647D02*
X0354378Y0312182D01*
X0352843Y0310647D01*
X0343635Y0309113D02*
X0343635Y0312182D01*
X0187772Y0202054D02*
X0187772Y0197450D01*
X0188539Y0199752D02*
X0185470Y0199752D01*
X0187772Y0202054D01*
X0183935Y0201287D02*
X0183935Y0200519D01*
X0183168Y0199752D01*
X0183935Y0198985D01*
X0183935Y0198217D01*
X0183168Y0197450D01*
X0181633Y0197450D01*
X0180866Y0198217D01*
X0179331Y0197450D02*
X0176262Y0197450D01*
X0179331Y0200519D01*
X0179331Y0201287D01*
X0178564Y0202054D01*
X0177029Y0202054D01*
X0176262Y0201287D01*
X0174727Y0201287D02*
X0174727Y0200519D01*
X0173960Y0199752D01*
X0174727Y0198985D01*
X0174727Y0198217D01*
X0173960Y0197450D01*
X0172425Y0197450D01*
X0171658Y0198217D01*
X0170123Y0198217D02*
X0169356Y0197450D01*
X0167821Y0197450D01*
X0167054Y0198217D01*
X0165519Y0198217D02*
X0165519Y0201287D01*
X0164752Y0202054D01*
X0162450Y0202054D01*
X0162450Y0197450D01*
X0164752Y0197450D01*
X0165519Y0198217D01*
X0167821Y0199752D02*
X0169356Y0199752D01*
X0170123Y0198985D01*
X0170123Y0198217D01*
X0167821Y0199752D02*
X0167054Y0200519D01*
X0167054Y0201287D01*
X0167821Y0202054D01*
X0169356Y0202054D01*
X0170123Y0201287D01*
X0171658Y0201287D02*
X0172425Y0202054D01*
X0173960Y0202054D01*
X0174727Y0201287D01*
X0173960Y0199752D02*
X0173192Y0199752D01*
X0180866Y0201287D02*
X0181633Y0202054D01*
X0183168Y0202054D01*
X0183935Y0201287D01*
X0183168Y0199752D02*
X0182400Y0199752D01*
X0178300Y0221200D02*
X0178300Y0224269D01*
X0178300Y0222735D02*
X0173696Y0222735D01*
X0175231Y0221200D01*
X0176765Y0225804D02*
X0175231Y0228106D01*
X0176765Y0225804D02*
X0178300Y0228106D01*
X0178300Y0225804D02*
X0173696Y0225804D01*
X0158300Y0225321D02*
X0157533Y0224554D01*
X0158300Y0225321D02*
X0158300Y0226856D01*
X0157533Y0227623D01*
X0156765Y0227623D01*
X0155998Y0226856D01*
X0155998Y0226089D01*
X0155998Y0226856D02*
X0155231Y0227623D01*
X0154463Y0227623D01*
X0153696Y0226856D01*
X0153696Y0225321D01*
X0154463Y0224554D01*
X0154463Y0223019D02*
X0155998Y0223019D01*
X0156765Y0222252D01*
X0156765Y0219950D01*
X0156765Y0221485D02*
X0158300Y0223019D01*
X0158300Y0219950D02*
X0153696Y0219950D01*
X0153696Y0222252D01*
X0154463Y0223019D01*
X0155231Y0229158D02*
X0153696Y0230692D01*
X0155231Y0232227D01*
X0158300Y0232227D01*
X0155998Y0232227D02*
X0155998Y0229158D01*
X0155231Y0229158D02*
X0158300Y0229158D01*
D13*
X0124170Y0227550D02*
X0121034Y0224414D01*
X0122602Y0224414D02*
X0122602Y0227550D01*
X0121034Y0227550D02*
X0124170Y0224414D01*
X0124170Y0225982D02*
X0121034Y0225982D01*
X0314734Y0143350D02*
X0317870Y0140214D01*
X0317870Y0141782D02*
X0314734Y0141782D01*
X0314734Y0140214D02*
X0317870Y0143350D01*
X0316302Y0143350D02*
X0316302Y0140214D01*
X0362750Y0162334D02*
X0365886Y0165470D01*
X0364318Y0165470D02*
X0364318Y0162334D01*
X0365886Y0162334D02*
X0362750Y0165470D01*
X0362750Y0163902D02*
X0365886Y0163902D01*
X0374834Y0089250D02*
X0377970Y0086114D01*
X0377970Y0087682D02*
X0374834Y0087682D01*
X0374834Y0086114D02*
X0377970Y0089250D01*
X0376402Y0089250D02*
X0376402Y0086114D01*
X0158978Y0032869D02*
X0158978Y0030934D01*
X0158494Y0030450D01*
X0157043Y0030450D01*
X0157043Y0033352D01*
X0158494Y0033352D01*
X0158978Y0032869D01*
X0156031Y0033352D02*
X0156031Y0030450D01*
X0154097Y0033352D01*
X0154097Y0030450D01*
X0153085Y0030934D02*
X0153085Y0031901D01*
X0152117Y0031901D01*
X0151150Y0030934D02*
X0151150Y0032869D01*
X0151634Y0033352D01*
X0152601Y0033352D01*
X0153085Y0032869D01*
X0153085Y0030934D02*
X0152601Y0030450D01*
X0151634Y0030450D01*
X0151150Y0030934D01*
X0143085Y0030450D02*
X0143085Y0033352D01*
X0141150Y0033352D02*
X0141150Y0030450D01*
X0142117Y0031417D01*
X0143085Y0030450D01*
X0140138Y0030450D02*
X0138203Y0030450D01*
X0139171Y0030450D02*
X0139171Y0033352D01*
X0138203Y0032385D01*
X0131388Y0031417D02*
X0131388Y0033352D01*
X0131388Y0031417D02*
X0130421Y0030450D01*
X0129453Y0031417D01*
X0129453Y0033352D01*
X0128442Y0033352D02*
X0126507Y0033352D01*
X0126507Y0031901D01*
X0127474Y0032385D01*
X0127958Y0032385D01*
X0128442Y0031901D01*
X0128442Y0030934D01*
X0127958Y0030450D01*
X0126991Y0030450D01*
X0126507Y0030934D01*
D14*
X0125094Y0028205D02*
X0125094Y0002063D01*
X0156906Y0002063D01*
X0156906Y0028205D01*
X0125094Y0028205D01*
X0098399Y0056500D02*
X0095396Y0056500D01*
X0098399Y0059503D01*
X0095396Y0059503D01*
X0093795Y0058752D02*
X0090792Y0058752D01*
X0090792Y0056500D02*
X0090792Y0061004D01*
X0089191Y0061004D02*
X0089191Y0056500D01*
X0086188Y0056500D02*
X0086188Y0061004D01*
X0087689Y0059503D01*
X0089191Y0061004D01*
X0093795Y0061004D02*
X0093795Y0056500D01*
X0084587Y0057251D02*
X0083836Y0056500D01*
X0082335Y0056500D01*
X0081584Y0057251D01*
X0081584Y0058752D01*
X0083836Y0058752D01*
X0084587Y0058001D01*
X0084587Y0057251D01*
X0083086Y0060253D02*
X0081584Y0058752D01*
X0083086Y0060253D02*
X0084587Y0061004D01*
X0078482Y0061004D02*
X0078482Y0056500D01*
X0079983Y0056500D02*
X0076980Y0056500D01*
X0076980Y0059503D02*
X0078482Y0061004D01*
X0063000Y0047606D02*
X0063000Y0044604D01*
X0059997Y0047606D01*
X0059247Y0047606D01*
X0058496Y0046856D01*
X0058496Y0045355D01*
X0059247Y0044604D01*
X0059247Y0043003D02*
X0062249Y0043003D01*
X0063000Y0042252D01*
X0063000Y0040751D01*
X0062249Y0040000D01*
X0059247Y0040000D01*
X0058496Y0040751D01*
X0058496Y0042252D01*
X0059247Y0043003D01*
X0061499Y0041501D02*
X0063000Y0043003D01*
X0010750Y0073750D02*
X0010750Y0075251D01*
X0010750Y0074501D02*
X0006246Y0074501D01*
X0006246Y0075251D02*
X0006246Y0073750D01*
X0006997Y0076819D02*
X0009999Y0076819D01*
X0010750Y0077570D01*
X0010750Y0079071D01*
X0009999Y0079822D01*
X0009999Y0081423D02*
X0010750Y0082174D01*
X0010750Y0083675D01*
X0009999Y0084426D01*
X0009249Y0084426D01*
X0008498Y0083675D01*
X0008498Y0082174D01*
X0007747Y0081423D01*
X0006997Y0081423D01*
X0006246Y0082174D01*
X0006246Y0083675D01*
X0006997Y0084426D01*
X0006246Y0086027D02*
X0006246Y0088279D01*
X0006997Y0089030D01*
X0008498Y0089030D01*
X0009249Y0088279D01*
X0009249Y0086027D01*
X0010750Y0086027D02*
X0006246Y0086027D01*
X0006997Y0079822D02*
X0006246Y0079071D01*
X0006246Y0077570D01*
X0006997Y0076819D01*
X0058712Y0129249D02*
X0061715Y0129249D01*
X0063316Y0130751D02*
X0064067Y0130000D01*
X0065568Y0130000D01*
X0066319Y0130751D01*
X0067920Y0130751D02*
X0067920Y0133753D01*
X0068671Y0134504D01*
X0070172Y0134504D01*
X0070923Y0133753D01*
X0070923Y0130751D01*
X0070172Y0130000D01*
X0068671Y0130000D01*
X0067920Y0130751D01*
X0066319Y0133753D02*
X0065568Y0134504D01*
X0064067Y0134504D01*
X0063316Y0133753D01*
X0063316Y0130751D01*
X0057111Y0130751D02*
X0057111Y0133753D01*
X0056360Y0134504D01*
X0054109Y0134504D01*
X0054109Y0130000D01*
X0056360Y0130000D01*
X0057111Y0130751D01*
X0052507Y0130000D02*
X0049505Y0130000D01*
X0049505Y0134504D01*
X0052507Y0134504D01*
X0051006Y0132252D02*
X0049505Y0132252D01*
X0047903Y0134504D02*
X0044901Y0134504D01*
X0046402Y0134504D02*
X0046402Y0130000D01*
X0043299Y0130000D02*
X0043299Y0133003D01*
X0041798Y0134504D01*
X0040297Y0133003D01*
X0040297Y0130000D01*
X0038695Y0130000D02*
X0035693Y0130000D01*
X0035693Y0134504D01*
X0034091Y0133753D02*
X0034091Y0130751D01*
X0033341Y0130000D01*
X0031840Y0130000D01*
X0031089Y0130751D01*
X0031089Y0133753D01*
X0031840Y0134504D01*
X0033341Y0134504D01*
X0034091Y0133753D01*
X0029488Y0133753D02*
X0028737Y0134504D01*
X0027236Y0134504D01*
X0026485Y0133753D01*
X0026485Y0133003D01*
X0027236Y0132252D01*
X0028737Y0132252D01*
X0029488Y0131501D01*
X0029488Y0130751D01*
X0028737Y0130000D01*
X0027236Y0130000D01*
X0026485Y0130751D01*
X0024917Y0130000D02*
X0023416Y0130000D01*
X0024166Y0130000D02*
X0024166Y0134504D01*
X0023416Y0134504D02*
X0024917Y0134504D01*
X0021814Y0132252D02*
X0018812Y0132252D01*
X0017210Y0130000D02*
X0017210Y0134504D01*
X0014208Y0134504D02*
X0014208Y0130000D01*
X0012606Y0130751D02*
X0012606Y0133753D01*
X0011856Y0134504D01*
X0010355Y0134504D01*
X0009604Y0133753D01*
X0009604Y0130751D01*
X0010355Y0130000D01*
X0011856Y0130000D01*
X0012606Y0130751D01*
X0014208Y0134504D02*
X0017210Y0130000D01*
X0008003Y0130000D02*
X0008003Y0134504D01*
X0005000Y0134504D02*
X0005000Y0130000D01*
X0008003Y0130000D02*
X0005000Y0134504D01*
X0040297Y0132252D02*
X0043299Y0132252D01*
X0072524Y0130000D02*
X0072524Y0134504D01*
X0075527Y0130000D01*
X0075527Y0134504D01*
X0124501Y0186620D02*
X0123750Y0187371D01*
X0123750Y0188872D01*
X0124501Y0189623D01*
X0127503Y0186620D01*
X0124501Y0186620D01*
X0127503Y0186620D02*
X0128254Y0187371D01*
X0128254Y0188872D01*
X0127503Y0189623D01*
X0124501Y0189623D01*
X0124501Y0191224D02*
X0123750Y0191975D01*
X0123750Y0193476D01*
X0124501Y0194226D01*
X0127503Y0191224D01*
X0124501Y0191224D01*
X0127503Y0191224D02*
X0128254Y0191975D01*
X0128254Y0193476D01*
X0127503Y0194226D01*
X0124501Y0194226D01*
X0124501Y0195828D02*
X0123750Y0196578D01*
X0123750Y0198080D01*
X0124501Y0198830D01*
X0127503Y0195828D01*
X0124501Y0195828D01*
X0127503Y0195828D02*
X0128254Y0196578D01*
X0128254Y0198080D01*
X0127503Y0198830D01*
X0124501Y0198830D01*
X0124501Y0200432D02*
X0123750Y0201182D01*
X0123750Y0202684D01*
X0124501Y0203434D01*
X0126002Y0203434D02*
X0126753Y0201933D01*
X0126753Y0201182D01*
X0126002Y0200432D01*
X0124501Y0200432D01*
X0126002Y0203434D02*
X0128254Y0203434D01*
X0128254Y0200432D01*
X0128254Y0205036D02*
X0123750Y0205036D01*
X0123750Y0208038D02*
X0128254Y0208038D01*
X0126753Y0206537D01*
X0128254Y0205036D01*
X0128254Y0209640D02*
X0124501Y0209640D01*
X0123750Y0210390D01*
X0123750Y0211892D01*
X0124501Y0212642D01*
X0128254Y0212642D01*
X0127503Y0214244D02*
X0128254Y0214994D01*
X0128254Y0217246D01*
X0123750Y0217246D01*
X0123750Y0214994D01*
X0124501Y0214244D01*
X0127503Y0214244D01*
X0126753Y0218847D02*
X0123750Y0218847D01*
X0126002Y0218847D02*
X0126002Y0221850D01*
X0126753Y0221850D02*
X0123750Y0221850D01*
X0126753Y0221850D02*
X0128254Y0220349D01*
X0126753Y0218847D01*
X0163134Y0239801D02*
X0163885Y0239050D01*
X0164636Y0239050D01*
X0165386Y0239801D01*
X0165386Y0243554D01*
X0164636Y0243554D02*
X0166137Y0243554D01*
X0167738Y0243554D02*
X0167738Y0239050D01*
X0167738Y0240551D02*
X0169990Y0240551D01*
X0170741Y0241302D01*
X0170741Y0242803D01*
X0169990Y0243554D01*
X0167738Y0243554D01*
X0172342Y0242803D02*
X0173093Y0243554D01*
X0174594Y0243554D01*
X0175345Y0242803D01*
X0175345Y0242053D01*
X0172342Y0239050D01*
X0175345Y0239050D01*
X0176946Y0239050D02*
X0176946Y0242053D01*
X0178447Y0243554D01*
X0179949Y0242053D01*
X0179949Y0239050D01*
X0179949Y0241302D02*
X0176946Y0241302D01*
X0210634Y0239801D02*
X0211385Y0239050D01*
X0212136Y0239050D01*
X0212886Y0239801D01*
X0212886Y0243554D01*
X0212136Y0243554D02*
X0213637Y0243554D01*
X0215238Y0243554D02*
X0215238Y0239050D01*
X0215238Y0240551D02*
X0217490Y0240551D01*
X0218241Y0241302D01*
X0218241Y0242803D01*
X0217490Y0243554D01*
X0215238Y0243554D01*
X0219842Y0242803D02*
X0220593Y0243554D01*
X0222094Y0243554D01*
X0222845Y0242803D01*
X0222845Y0242053D01*
X0219842Y0239050D01*
X0222845Y0239050D01*
X0224446Y0239050D02*
X0226698Y0239050D01*
X0227449Y0239801D01*
X0227449Y0240551D01*
X0226698Y0241302D01*
X0224446Y0241302D01*
X0224446Y0243554D02*
X0226698Y0243554D01*
X0227449Y0242803D01*
X0227449Y0242053D01*
X0226698Y0241302D01*
X0224446Y0239050D02*
X0224446Y0243554D01*
X0251472Y0266315D02*
X0251472Y0305685D01*
X0310528Y0305685D01*
X0310528Y0266315D01*
X0251472Y0266315D01*
X0215264Y0299201D02*
X0214514Y0298450D01*
X0212262Y0298450D01*
X0212262Y0302954D01*
X0214514Y0302954D01*
X0215264Y0302203D01*
X0215264Y0301453D01*
X0214514Y0300702D01*
X0212262Y0300702D01*
X0214514Y0300702D02*
X0215264Y0299951D01*
X0215264Y0299201D01*
X0210660Y0298450D02*
X0207658Y0298450D01*
X0209159Y0298450D02*
X0209159Y0302954D01*
X0207658Y0301453D01*
X0206056Y0302203D02*
X0206056Y0300702D01*
X0205306Y0299951D01*
X0203054Y0299951D01*
X0203054Y0298450D02*
X0203054Y0302954D01*
X0205306Y0302954D01*
X0206056Y0302203D01*
X0201453Y0302954D02*
X0199951Y0302954D01*
X0200702Y0302954D02*
X0200702Y0299201D01*
X0199951Y0298450D01*
X0199201Y0298450D01*
X0198450Y0299201D01*
X0167764Y0298450D02*
X0167764Y0301453D01*
X0166263Y0302954D01*
X0164762Y0301453D01*
X0164762Y0298450D01*
X0163160Y0298450D02*
X0160158Y0298450D01*
X0161659Y0298450D02*
X0161659Y0302954D01*
X0160158Y0301453D01*
X0158556Y0302203D02*
X0158556Y0300702D01*
X0157806Y0299951D01*
X0155554Y0299951D01*
X0155554Y0298450D02*
X0155554Y0302954D01*
X0157806Y0302954D01*
X0158556Y0302203D01*
X0164762Y0300702D02*
X0167764Y0300702D01*
X0153953Y0302954D02*
X0152451Y0302954D01*
X0153202Y0302954D02*
X0153202Y0299201D01*
X0152451Y0298450D01*
X0151701Y0298450D01*
X0150950Y0299201D01*
X0082149Y0306250D02*
X0082149Y0310754D01*
X0079146Y0310754D02*
X0082149Y0306250D01*
X0079146Y0306250D02*
X0079146Y0310754D01*
X0077545Y0310003D02*
X0076794Y0310754D01*
X0075293Y0310754D01*
X0074542Y0310003D01*
X0074542Y0307001D01*
X0075293Y0306250D01*
X0076794Y0306250D01*
X0077545Y0307001D01*
X0077545Y0310003D01*
X0072941Y0310003D02*
X0072190Y0310754D01*
X0070689Y0310754D01*
X0069938Y0310003D01*
X0069938Y0307001D01*
X0070689Y0306250D01*
X0072190Y0306250D01*
X0072941Y0307001D01*
X0068337Y0305499D02*
X0065334Y0305499D01*
X0063733Y0307001D02*
X0063733Y0310003D01*
X0062982Y0310754D01*
X0060730Y0310754D01*
X0060730Y0306250D01*
X0062982Y0306250D01*
X0063733Y0307001D01*
X0059129Y0306250D02*
X0056126Y0306250D01*
X0056126Y0310754D01*
X0059129Y0310754D01*
X0057628Y0308502D02*
X0056126Y0308502D01*
X0054525Y0310754D02*
X0051522Y0310754D01*
X0053024Y0310754D02*
X0053024Y0306250D01*
X0049921Y0306250D02*
X0049921Y0309253D01*
X0048420Y0310754D01*
X0046918Y0309253D01*
X0046918Y0306250D01*
X0045317Y0306250D02*
X0042315Y0306250D01*
X0042315Y0310754D01*
X0040713Y0310003D02*
X0039963Y0310754D01*
X0038461Y0310754D01*
X0037711Y0310003D01*
X0037711Y0307001D01*
X0038461Y0306250D01*
X0039963Y0306250D01*
X0040713Y0307001D01*
X0040713Y0310003D01*
X0036109Y0310003D02*
X0035359Y0310754D01*
X0033857Y0310754D01*
X0033107Y0310003D01*
X0033107Y0309253D01*
X0033857Y0308502D01*
X0035359Y0308502D01*
X0036109Y0307751D01*
X0036109Y0307001D01*
X0035359Y0306250D01*
X0033857Y0306250D01*
X0033107Y0307001D01*
X0031539Y0306250D02*
X0030037Y0306250D01*
X0030788Y0306250D02*
X0030788Y0310754D01*
X0030037Y0310754D02*
X0031539Y0310754D01*
X0046918Y0308502D02*
X0049921Y0308502D01*
X0066399Y0220284D02*
X0066401Y0220347D01*
X0066407Y0220409D01*
X0066417Y0220471D01*
X0066430Y0220533D01*
X0066448Y0220593D01*
X0066469Y0220652D01*
X0066494Y0220710D01*
X0066523Y0220766D01*
X0066555Y0220820D01*
X0066590Y0220872D01*
X0066628Y0220921D01*
X0066670Y0220969D01*
X0066714Y0221013D01*
X0066762Y0221055D01*
X0066811Y0221093D01*
X0066863Y0221128D01*
X0066917Y0221160D01*
X0066973Y0221189D01*
X0067031Y0221214D01*
X0067090Y0221235D01*
X0067150Y0221253D01*
X0067212Y0221266D01*
X0067274Y0221276D01*
X0067336Y0221282D01*
X0067399Y0221284D01*
X0067462Y0221282D01*
X0067524Y0221276D01*
X0067586Y0221266D01*
X0067648Y0221253D01*
X0067708Y0221235D01*
X0067767Y0221214D01*
X0067825Y0221189D01*
X0067881Y0221160D01*
X0067935Y0221128D01*
X0067987Y0221093D01*
X0068036Y0221055D01*
X0068084Y0221013D01*
X0068128Y0220969D01*
X0068170Y0220921D01*
X0068208Y0220872D01*
X0068243Y0220820D01*
X0068275Y0220766D01*
X0068304Y0220710D01*
X0068329Y0220652D01*
X0068350Y0220593D01*
X0068368Y0220533D01*
X0068381Y0220471D01*
X0068391Y0220409D01*
X0068397Y0220347D01*
X0068399Y0220284D01*
X0068397Y0220221D01*
X0068391Y0220159D01*
X0068381Y0220097D01*
X0068368Y0220035D01*
X0068350Y0219975D01*
X0068329Y0219916D01*
X0068304Y0219858D01*
X0068275Y0219802D01*
X0068243Y0219748D01*
X0068208Y0219696D01*
X0068170Y0219647D01*
X0068128Y0219599D01*
X0068084Y0219555D01*
X0068036Y0219513D01*
X0067987Y0219475D01*
X0067935Y0219440D01*
X0067881Y0219408D01*
X0067825Y0219379D01*
X0067767Y0219354D01*
X0067708Y0219333D01*
X0067648Y0219315D01*
X0067586Y0219302D01*
X0067524Y0219292D01*
X0067462Y0219286D01*
X0067399Y0219284D01*
X0067336Y0219286D01*
X0067274Y0219292D01*
X0067212Y0219302D01*
X0067150Y0219315D01*
X0067090Y0219333D01*
X0067031Y0219354D01*
X0066973Y0219379D01*
X0066917Y0219408D01*
X0066863Y0219440D01*
X0066811Y0219475D01*
X0066762Y0219513D01*
X0066714Y0219555D01*
X0066670Y0219599D01*
X0066628Y0219647D01*
X0066590Y0219696D01*
X0066555Y0219748D01*
X0066523Y0219802D01*
X0066494Y0219858D01*
X0066469Y0219916D01*
X0066448Y0219975D01*
X0066430Y0220035D01*
X0066417Y0220097D01*
X0066407Y0220159D01*
X0066401Y0220221D01*
X0066399Y0220284D01*
X0143135Y0125769D02*
X0145387Y0125769D01*
X0146138Y0125018D01*
X0146138Y0123517D01*
X0145387Y0122766D01*
X0143135Y0122766D01*
X0143135Y0121265D02*
X0143135Y0125769D01*
X0144636Y0122766D02*
X0146138Y0121265D01*
X0147739Y0121265D02*
X0150742Y0125769D01*
X0152343Y0123517D02*
X0155345Y0123517D01*
X0156947Y0125769D02*
X0159949Y0125769D01*
X0158448Y0125769D02*
X0158448Y0121265D01*
X0161551Y0121265D02*
X0164553Y0125769D01*
X0161551Y0125769D02*
X0164553Y0121265D01*
X0150742Y0121265D02*
X0147739Y0125769D01*
X0194669Y0133751D02*
X0195419Y0133000D01*
X0196920Y0133000D01*
X0197671Y0133751D01*
X0197671Y0134501D01*
X0196920Y0135252D01*
X0195419Y0135252D01*
X0194669Y0136003D01*
X0194669Y0136753D01*
X0195419Y0137504D01*
X0196920Y0137504D01*
X0197671Y0136753D01*
X0200774Y0137504D02*
X0202275Y0137504D01*
X0201524Y0137504D02*
X0201524Y0133751D01*
X0200774Y0133000D01*
X0200023Y0133000D01*
X0199272Y0133751D01*
X0203876Y0133000D02*
X0206879Y0136003D01*
X0206879Y0136753D01*
X0206128Y0137504D01*
X0204627Y0137504D01*
X0203876Y0136753D01*
X0208480Y0135252D02*
X0211483Y0135252D01*
X0213084Y0136003D02*
X0213835Y0135252D01*
X0215336Y0135252D01*
X0216087Y0134501D01*
X0216087Y0133751D01*
X0215336Y0133000D01*
X0213835Y0133000D01*
X0213084Y0133751D01*
X0213084Y0136003D02*
X0213084Y0136753D01*
X0213835Y0137504D01*
X0215336Y0137504D01*
X0216087Y0136753D01*
X0217688Y0136753D02*
X0219189Y0135252D01*
X0219189Y0133000D01*
X0219189Y0135252D02*
X0220691Y0136753D01*
X0220691Y0137504D01*
X0222292Y0137504D02*
X0225295Y0133000D01*
X0225295Y0137504D01*
X0226896Y0136753D02*
X0226896Y0133751D01*
X0227647Y0133000D01*
X0229148Y0133000D01*
X0229899Y0133751D01*
X0229899Y0136753D02*
X0229148Y0137504D01*
X0227647Y0137504D01*
X0226896Y0136753D01*
X0222292Y0137504D02*
X0222292Y0133000D01*
X0217688Y0136753D02*
X0217688Y0137504D01*
X0220547Y0145950D02*
X0219046Y0147451D01*
X0220547Y0148953D01*
X0223550Y0148953D01*
X0223550Y0150554D02*
X0223550Y0152055D01*
X0223550Y0151305D02*
X0219046Y0151305D01*
X0219046Y0152055D02*
X0219046Y0150554D01*
X0221298Y0148953D02*
X0221298Y0145950D01*
X0220547Y0145950D02*
X0223550Y0145950D01*
X0223550Y0153623D02*
X0219046Y0153623D01*
X0223550Y0156626D01*
X0219046Y0156626D01*
X0221298Y0158227D02*
X0221298Y0160479D01*
X0222049Y0161230D01*
X0222799Y0161230D01*
X0223550Y0160479D01*
X0223550Y0158978D01*
X0222799Y0158227D01*
X0221298Y0158227D01*
X0219797Y0159728D01*
X0219046Y0161230D01*
X0221298Y0162831D02*
X0221298Y0165834D01*
X0222799Y0167435D02*
X0219797Y0170438D01*
X0219046Y0170438D01*
X0219046Y0167435D01*
X0222799Y0167435D02*
X0223550Y0167435D01*
X0206879Y0133000D02*
X0203876Y0133000D01*
X0202274Y0121504D02*
X0200773Y0121504D01*
X0200022Y0120753D01*
X0200022Y0120003D01*
X0200773Y0119252D01*
X0202274Y0119252D01*
X0203025Y0118501D01*
X0203025Y0117751D01*
X0202274Y0117000D01*
X0200773Y0117000D01*
X0200022Y0117751D01*
X0203025Y0120753D02*
X0202274Y0121504D01*
X0206128Y0121504D02*
X0207629Y0121504D01*
X0206878Y0121504D02*
X0206878Y0117751D01*
X0206128Y0117000D01*
X0205377Y0117000D01*
X0204626Y0117751D01*
X0209230Y0117000D02*
X0212233Y0117000D01*
X0210732Y0117000D02*
X0210732Y0121504D01*
X0209230Y0120003D01*
X0213834Y0119252D02*
X0216837Y0119252D01*
X0218438Y0118501D02*
X0220690Y0118501D01*
X0221441Y0119252D01*
X0221441Y0120753D01*
X0220690Y0121504D01*
X0218438Y0121504D01*
X0218438Y0117000D01*
X0219939Y0118501D02*
X0221441Y0117000D01*
X0223042Y0117751D02*
X0223793Y0117000D01*
X0225294Y0117000D01*
X0226045Y0117751D01*
X0226045Y0118501D01*
X0225294Y0119252D01*
X0223793Y0119252D01*
X0223042Y0120003D01*
X0223042Y0120753D01*
X0223793Y0121504D01*
X0225294Y0121504D01*
X0226045Y0120753D01*
X0227646Y0121504D02*
X0230649Y0121504D01*
X0229147Y0121504D02*
X0229147Y0117000D01*
X0308750Y0086003D02*
X0308750Y0083001D01*
X0309501Y0082250D01*
X0311002Y0082250D01*
X0311753Y0083001D01*
X0311753Y0086003D01*
X0311002Y0086754D01*
X0309501Y0086754D01*
X0308750Y0086003D01*
X0310251Y0083751D02*
X0311753Y0082250D01*
X0313354Y0082250D02*
X0316356Y0082250D01*
X0314855Y0082250D02*
X0314855Y0086754D01*
X0313354Y0085253D01*
X0313003Y0079254D02*
X0310000Y0079254D01*
X0313003Y0079254D02*
X0313003Y0078503D01*
X0310000Y0075501D01*
X0310000Y0074750D01*
X0314604Y0074750D02*
X0315355Y0074750D01*
X0315355Y0075501D01*
X0314604Y0075501D01*
X0314604Y0074750D01*
X0316906Y0075501D02*
X0316906Y0077002D01*
X0319158Y0077002D01*
X0319908Y0076251D01*
X0319908Y0075501D01*
X0319158Y0074750D01*
X0317657Y0074750D01*
X0316906Y0075501D01*
X0316906Y0077002D02*
X0318407Y0078503D01*
X0319908Y0079254D01*
X0321510Y0078503D02*
X0321510Y0077753D01*
X0322260Y0077002D01*
X0323762Y0077002D01*
X0324512Y0076251D01*
X0324512Y0075501D01*
X0323762Y0074750D01*
X0322260Y0074750D01*
X0321510Y0075501D01*
X0321510Y0076251D01*
X0322260Y0077002D01*
X0323762Y0077002D02*
X0324512Y0077753D01*
X0324512Y0078503D01*
X0323762Y0079254D01*
X0322260Y0079254D01*
X0321510Y0078503D01*
X0326114Y0079254D02*
X0326114Y0074750D01*
X0329116Y0074750D02*
X0329116Y0079254D01*
X0327615Y0077753D01*
X0326114Y0079254D01*
X0330718Y0079254D02*
X0330718Y0074750D01*
X0330718Y0077002D02*
X0333720Y0077002D01*
X0335322Y0077753D02*
X0338324Y0077753D01*
X0335322Y0074750D01*
X0338324Y0074750D01*
X0333720Y0074750D02*
X0333720Y0079254D01*
X0323254Y0108724D02*
X0322503Y0110225D01*
X0321002Y0111726D01*
X0321002Y0109475D01*
X0320251Y0108724D01*
X0319501Y0108724D01*
X0318750Y0109475D01*
X0318750Y0110976D01*
X0319501Y0111726D01*
X0321002Y0111726D01*
X0321002Y0113328D02*
X0319501Y0113328D01*
X0318750Y0114078D01*
X0318750Y0115580D01*
X0319501Y0116330D01*
X0321002Y0116330D02*
X0321753Y0114829D01*
X0321753Y0114078D01*
X0321002Y0113328D01*
X0323254Y0113328D02*
X0323254Y0116330D01*
X0321002Y0116330D01*
X0321753Y0117932D02*
X0322503Y0117932D01*
X0323254Y0118682D01*
X0323254Y0120184D01*
X0322503Y0120934D01*
X0321753Y0117932D02*
X0318750Y0120934D01*
X0318750Y0117932D01*
X0318750Y0122536D02*
X0318750Y0125538D01*
X0318750Y0124037D02*
X0323254Y0124037D01*
X0321753Y0125538D01*
X0322503Y0127140D02*
X0323254Y0127890D01*
X0323254Y0129392D01*
X0322503Y0130142D01*
X0321753Y0130142D01*
X0321002Y0129392D01*
X0321002Y0127890D01*
X0320251Y0127140D01*
X0319501Y0127140D01*
X0318750Y0127890D01*
X0318750Y0129392D01*
X0319501Y0130142D01*
X0319501Y0131744D02*
X0322503Y0131744D01*
X0323254Y0132494D01*
X0323254Y0134746D01*
X0318750Y0134746D01*
X0318750Y0132494D01*
X0319501Y0131744D01*
X0318750Y0136347D02*
X0321753Y0136347D01*
X0323254Y0137849D01*
X0321753Y0139350D01*
X0318750Y0139350D01*
X0321002Y0139350D02*
X0321002Y0136347D01*
X0382496Y0144151D02*
X0383997Y0145653D01*
X0387000Y0145653D01*
X0387000Y0147254D02*
X0382496Y0147254D01*
X0382496Y0149506D01*
X0383247Y0150256D01*
X0386249Y0150256D01*
X0387000Y0149506D01*
X0387000Y0147254D01*
X0384748Y0145653D02*
X0384748Y0142650D01*
X0383997Y0142650D02*
X0382496Y0144151D01*
X0383997Y0142650D02*
X0387000Y0142650D01*
X0387000Y0151858D02*
X0382496Y0151858D01*
X0382496Y0154110D01*
X0383247Y0154860D01*
X0384748Y0154860D01*
X0385499Y0154110D01*
X0385499Y0151858D01*
X0385499Y0153359D02*
X0387000Y0154860D01*
X0386249Y0156462D02*
X0387000Y0157212D01*
X0387000Y0158714D01*
X0386249Y0159464D01*
X0385499Y0159464D01*
X0384748Y0158714D01*
X0384748Y0157963D01*
X0384748Y0158714D02*
X0383997Y0159464D01*
X0383247Y0159464D01*
X0382496Y0158714D01*
X0382496Y0157212D01*
X0383247Y0156462D01*
X0384748Y0161066D02*
X0384748Y0164068D01*
X0383247Y0165670D02*
X0382496Y0166420D01*
X0382496Y0167922D01*
X0383247Y0168672D01*
X0383997Y0168672D01*
X0387000Y0165670D01*
X0387000Y0168672D01*
X0386249Y0170274D02*
X0387000Y0171024D01*
X0387000Y0172525D01*
X0386249Y0173276D01*
X0384748Y0173276D01*
X0383997Y0172525D01*
X0383997Y0171775D01*
X0384748Y0170274D01*
X0382496Y0170274D01*
X0382496Y0173276D01*
X0382496Y0163318D02*
X0384748Y0161066D01*
X0387000Y0163318D02*
X0382496Y0163318D01*
X0382004Y0084350D02*
X0377500Y0084350D01*
X0377500Y0081347D01*
X0377500Y0079746D02*
X0382004Y0079746D01*
X0382004Y0077494D01*
X0381253Y0076744D01*
X0379752Y0076744D01*
X0379001Y0077494D01*
X0379001Y0079746D01*
X0377500Y0075142D02*
X0380503Y0072140D01*
X0381253Y0072140D01*
X0382004Y0072890D01*
X0382004Y0074392D01*
X0381253Y0075142D01*
X0377500Y0075142D02*
X0377500Y0072140D01*
X0378251Y0070538D02*
X0377500Y0069788D01*
X0377500Y0068286D01*
X0378251Y0067536D01*
X0381253Y0067536D01*
X0382004Y0068286D01*
X0382004Y0069788D01*
X0381253Y0070538D01*
X0380503Y0070538D01*
X0379752Y0069788D01*
X0379752Y0067536D01*
X0380503Y0065934D02*
X0379752Y0065184D01*
X0379752Y0063682D01*
X0379001Y0062932D01*
X0378251Y0062932D01*
X0377500Y0063682D01*
X0377500Y0065184D01*
X0378251Y0065934D01*
X0379001Y0065934D01*
X0379752Y0065184D01*
X0380503Y0065934D02*
X0381253Y0065934D01*
X0382004Y0065184D01*
X0382004Y0063682D01*
X0381253Y0062932D01*
X0380503Y0062932D01*
X0379752Y0063682D01*
X0379752Y0061330D02*
X0380503Y0059829D01*
X0380503Y0059078D01*
X0379752Y0058328D01*
X0378251Y0058328D01*
X0377500Y0059078D01*
X0377500Y0060580D01*
X0378251Y0061330D01*
X0379752Y0061330D02*
X0382004Y0061330D01*
X0382004Y0058328D01*
X0385528Y0266315D02*
X0326472Y0266315D01*
X0326472Y0305685D01*
X0385528Y0305685D01*
X0385528Y0266315D01*
D15*
X0274799Y0227181D02*
X0274799Y0224819D01*
X0272043Y0213402D02*
X0264957Y0213402D01*
X0262201Y0224819D02*
X0262201Y0227181D01*
X0264957Y0238598D02*
X0272043Y0238598D01*
X0228500Y0248500D02*
X0226000Y0246000D01*
X0221000Y0246000D01*
X0218500Y0248500D01*
X0216000Y0246000D01*
X0211000Y0246000D01*
X0208500Y0248500D01*
X0206000Y0246000D01*
X0201000Y0246000D01*
X0198500Y0248500D01*
X0198500Y0253500D01*
X0201000Y0256000D01*
X0206000Y0256000D01*
X0208500Y0253500D01*
X0211000Y0256000D01*
X0216000Y0256000D01*
X0218500Y0253500D01*
X0221000Y0256000D01*
X0226000Y0256000D01*
X0228500Y0253500D01*
X0228500Y0248500D01*
X0226000Y0286000D02*
X0221000Y0286000D01*
X0218500Y0288500D01*
X0216000Y0286000D01*
X0211000Y0286000D01*
X0208500Y0288500D01*
X0206000Y0286000D01*
X0201000Y0286000D01*
X0198500Y0288500D01*
X0198500Y0293500D01*
X0201000Y0296000D01*
X0206000Y0296000D01*
X0208500Y0293500D01*
X0211000Y0296000D01*
X0216000Y0296000D01*
X0218500Y0293500D01*
X0221000Y0296000D01*
X0226000Y0296000D01*
X0228500Y0293500D01*
X0228500Y0288500D01*
X0226000Y0286000D01*
X0181000Y0288500D02*
X0178500Y0286000D01*
X0173500Y0286000D01*
X0171000Y0288500D01*
X0168500Y0286000D01*
X0163500Y0286000D01*
X0161000Y0288500D01*
X0158500Y0286000D01*
X0153500Y0286000D01*
X0151000Y0288500D01*
X0151000Y0293500D01*
X0153500Y0296000D01*
X0158500Y0296000D01*
X0161000Y0293500D01*
X0163500Y0296000D01*
X0168500Y0296000D01*
X0171000Y0293500D01*
X0173500Y0296000D01*
X0178500Y0296000D01*
X0181000Y0293500D01*
X0181000Y0288500D01*
X0178500Y0256000D02*
X0173500Y0256000D01*
X0171000Y0253500D01*
X0168500Y0256000D01*
X0163500Y0256000D01*
X0161000Y0253500D01*
X0158500Y0256000D01*
X0153500Y0256000D01*
X0151000Y0253500D01*
X0151000Y0248500D01*
X0153500Y0246000D01*
X0158500Y0246000D01*
X0161000Y0248500D01*
X0163500Y0246000D01*
X0168500Y0246000D01*
X0171000Y0248500D01*
X0173500Y0246000D01*
X0178500Y0246000D01*
X0181000Y0248500D01*
X0181000Y0253500D01*
X0178500Y0256000D01*
X0228500Y0166000D02*
X0233500Y0166000D01*
X0236000Y0163500D01*
X0236000Y0158500D01*
X0233500Y0156000D01*
X0236000Y0153500D01*
X0236000Y0148500D01*
X0233500Y0146000D01*
X0228500Y0146000D01*
X0226000Y0148500D01*
X0226000Y0153500D01*
X0228500Y0156000D01*
X0226000Y0158500D01*
X0226000Y0163500D01*
X0228500Y0166000D01*
X0163185Y0116315D02*
X0163185Y0111315D01*
X0160685Y0108815D01*
X0155685Y0108815D01*
X0153185Y0111315D01*
X0150685Y0108815D01*
X0145685Y0108815D01*
X0143185Y0111315D01*
X0143185Y0116315D01*
X0145685Y0118815D01*
X0150685Y0118815D01*
X0153185Y0116315D01*
X0155685Y0118815D01*
X0160685Y0118815D01*
X0163185Y0116315D01*
X0137299Y0094799D02*
X0111098Y0094799D01*
X0109701Y0093402D01*
X0109701Y0067201D01*
X0137299Y0067201D01*
X0137299Y0094799D01*
X0108500Y0095500D02*
X0108502Y0095549D01*
X0108508Y0095597D01*
X0108518Y0095645D01*
X0108532Y0095692D01*
X0108549Y0095738D01*
X0108570Y0095782D01*
X0108595Y0095824D01*
X0108623Y0095864D01*
X0108655Y0095902D01*
X0108689Y0095937D01*
X0108726Y0095969D01*
X0108765Y0095998D01*
X0108807Y0096024D01*
X0108851Y0096046D01*
X0108896Y0096064D01*
X0108943Y0096079D01*
X0108990Y0096090D01*
X0109039Y0096097D01*
X0109088Y0096100D01*
X0109137Y0096099D01*
X0109185Y0096094D01*
X0109234Y0096085D01*
X0109281Y0096072D01*
X0109327Y0096055D01*
X0109371Y0096035D01*
X0109414Y0096011D01*
X0109455Y0095984D01*
X0109493Y0095953D01*
X0109529Y0095920D01*
X0109561Y0095884D01*
X0109591Y0095845D01*
X0109618Y0095804D01*
X0109641Y0095760D01*
X0109660Y0095715D01*
X0109676Y0095669D01*
X0109688Y0095622D01*
X0109696Y0095573D01*
X0109700Y0095524D01*
X0109700Y0095476D01*
X0109696Y0095427D01*
X0109688Y0095378D01*
X0109676Y0095331D01*
X0109660Y0095285D01*
X0109641Y0095240D01*
X0109618Y0095196D01*
X0109591Y0095155D01*
X0109561Y0095116D01*
X0109529Y0095080D01*
X0109493Y0095047D01*
X0109455Y0095016D01*
X0109414Y0094989D01*
X0109371Y0094965D01*
X0109327Y0094945D01*
X0109281Y0094928D01*
X0109234Y0094915D01*
X0109185Y0094906D01*
X0109137Y0094901D01*
X0109088Y0094900D01*
X0109039Y0094903D01*
X0108990Y0094910D01*
X0108943Y0094921D01*
X0108896Y0094936D01*
X0108851Y0094954D01*
X0108807Y0094976D01*
X0108765Y0095002D01*
X0108726Y0095031D01*
X0108689Y0095063D01*
X0108655Y0095098D01*
X0108623Y0095136D01*
X0108595Y0095176D01*
X0108570Y0095218D01*
X0108549Y0095262D01*
X0108532Y0095308D01*
X0108518Y0095355D01*
X0108508Y0095403D01*
X0108502Y0095451D01*
X0108500Y0095500D01*
X0033500Y0093500D02*
X0033500Y0088500D01*
X0031000Y0086000D01*
X0016000Y0086000D01*
X0013500Y0088500D01*
X0013500Y0093500D01*
X0016000Y0096000D01*
X0031000Y0096000D01*
X0033500Y0093500D01*
X0031000Y0086000D02*
X0033500Y0083500D01*
X0033500Y0078500D01*
X0031000Y0076000D01*
X0016000Y0076000D01*
X0013500Y0078500D01*
X0013500Y0083500D01*
X0016000Y0086000D01*
X0016000Y0076000D02*
X0013500Y0073500D01*
X0013500Y0068500D01*
X0016000Y0066000D01*
X0031000Y0066000D01*
X0033500Y0068500D01*
X0033500Y0073500D01*
X0031000Y0076000D01*
X0034819Y0073500D02*
X0034819Y0068500D01*
X0027063Y0061000D02*
X0014937Y0061000D01*
X0011000Y0055882D02*
X0011000Y0046118D01*
X0014937Y0041000D02*
X0027063Y0041000D01*
X0031000Y0046000D02*
X0031000Y0055882D01*
X0016000Y0051000D02*
X0016002Y0051141D01*
X0016008Y0051282D01*
X0016018Y0051422D01*
X0016032Y0051562D01*
X0016050Y0051702D01*
X0016071Y0051841D01*
X0016097Y0051980D01*
X0016126Y0052118D01*
X0016160Y0052254D01*
X0016197Y0052390D01*
X0016238Y0052525D01*
X0016283Y0052659D01*
X0016332Y0052791D01*
X0016384Y0052922D01*
X0016440Y0053051D01*
X0016500Y0053178D01*
X0016563Y0053304D01*
X0016629Y0053428D01*
X0016700Y0053551D01*
X0016773Y0053671D01*
X0016850Y0053789D01*
X0016930Y0053905D01*
X0017014Y0054018D01*
X0017100Y0054129D01*
X0017190Y0054238D01*
X0017283Y0054344D01*
X0017378Y0054447D01*
X0017477Y0054548D01*
X0017578Y0054646D01*
X0017682Y0054741D01*
X0017789Y0054833D01*
X0017898Y0054922D01*
X0018010Y0055007D01*
X0018124Y0055090D01*
X0018240Y0055170D01*
X0018359Y0055246D01*
X0018480Y0055318D01*
X0018602Y0055388D01*
X0018727Y0055453D01*
X0018853Y0055516D01*
X0018981Y0055574D01*
X0019111Y0055629D01*
X0019242Y0055681D01*
X0019375Y0055728D01*
X0019509Y0055772D01*
X0019644Y0055813D01*
X0019780Y0055849D01*
X0019917Y0055881D01*
X0020055Y0055910D01*
X0020193Y0055935D01*
X0020333Y0055955D01*
X0020473Y0055972D01*
X0020613Y0055985D01*
X0020754Y0055994D01*
X0020894Y0055999D01*
X0021035Y0056000D01*
X0021176Y0055997D01*
X0021317Y0055990D01*
X0021457Y0055979D01*
X0021597Y0055964D01*
X0021737Y0055945D01*
X0021876Y0055923D01*
X0022014Y0055896D01*
X0022152Y0055866D01*
X0022288Y0055831D01*
X0022424Y0055793D01*
X0022558Y0055751D01*
X0022692Y0055705D01*
X0022824Y0055656D01*
X0022954Y0055602D01*
X0023083Y0055545D01*
X0023210Y0055485D01*
X0023336Y0055421D01*
X0023459Y0055353D01*
X0023581Y0055282D01*
X0023701Y0055208D01*
X0023818Y0055130D01*
X0023933Y0055049D01*
X0024046Y0054965D01*
X0024157Y0054878D01*
X0024265Y0054787D01*
X0024370Y0054694D01*
X0024473Y0054597D01*
X0024573Y0054498D01*
X0024670Y0054396D01*
X0024764Y0054291D01*
X0024855Y0054184D01*
X0024943Y0054074D01*
X0025028Y0053962D01*
X0025110Y0053847D01*
X0025189Y0053730D01*
X0025264Y0053611D01*
X0025336Y0053490D01*
X0025404Y0053367D01*
X0025469Y0053242D01*
X0025531Y0053115D01*
X0025588Y0052986D01*
X0025643Y0052856D01*
X0025693Y0052725D01*
X0025740Y0052592D01*
X0025783Y0052458D01*
X0025822Y0052322D01*
X0025857Y0052186D01*
X0025889Y0052049D01*
X0025916Y0051911D01*
X0025940Y0051772D01*
X0025960Y0051632D01*
X0025976Y0051492D01*
X0025988Y0051352D01*
X0025996Y0051211D01*
X0026000Y0051070D01*
X0026000Y0050930D01*
X0025996Y0050789D01*
X0025988Y0050648D01*
X0025976Y0050508D01*
X0025960Y0050368D01*
X0025940Y0050228D01*
X0025916Y0050089D01*
X0025889Y0049951D01*
X0025857Y0049814D01*
X0025822Y0049678D01*
X0025783Y0049542D01*
X0025740Y0049408D01*
X0025693Y0049275D01*
X0025643Y0049144D01*
X0025588Y0049014D01*
X0025531Y0048885D01*
X0025469Y0048758D01*
X0025404Y0048633D01*
X0025336Y0048510D01*
X0025264Y0048389D01*
X0025189Y0048270D01*
X0025110Y0048153D01*
X0025028Y0048038D01*
X0024943Y0047926D01*
X0024855Y0047816D01*
X0024764Y0047709D01*
X0024670Y0047604D01*
X0024573Y0047502D01*
X0024473Y0047403D01*
X0024370Y0047306D01*
X0024265Y0047213D01*
X0024157Y0047122D01*
X0024046Y0047035D01*
X0023933Y0046951D01*
X0023818Y0046870D01*
X0023701Y0046792D01*
X0023581Y0046718D01*
X0023459Y0046647D01*
X0023336Y0046579D01*
X0023210Y0046515D01*
X0023083Y0046455D01*
X0022954Y0046398D01*
X0022824Y0046344D01*
X0022692Y0046295D01*
X0022558Y0046249D01*
X0022424Y0046207D01*
X0022288Y0046169D01*
X0022152Y0046134D01*
X0022014Y0046104D01*
X0021876Y0046077D01*
X0021737Y0046055D01*
X0021597Y0046036D01*
X0021457Y0046021D01*
X0021317Y0046010D01*
X0021176Y0046003D01*
X0021035Y0046000D01*
X0020894Y0046001D01*
X0020754Y0046006D01*
X0020613Y0046015D01*
X0020473Y0046028D01*
X0020333Y0046045D01*
X0020193Y0046065D01*
X0020055Y0046090D01*
X0019917Y0046119D01*
X0019780Y0046151D01*
X0019644Y0046187D01*
X0019509Y0046228D01*
X0019375Y0046272D01*
X0019242Y0046319D01*
X0019111Y0046371D01*
X0018981Y0046426D01*
X0018853Y0046484D01*
X0018727Y0046547D01*
X0018602Y0046612D01*
X0018480Y0046682D01*
X0018359Y0046754D01*
X0018240Y0046830D01*
X0018124Y0046910D01*
X0018010Y0046993D01*
X0017898Y0047078D01*
X0017789Y0047167D01*
X0017682Y0047259D01*
X0017578Y0047354D01*
X0017477Y0047452D01*
X0017378Y0047553D01*
X0017283Y0047656D01*
X0017190Y0047762D01*
X0017100Y0047871D01*
X0017014Y0047982D01*
X0016930Y0048095D01*
X0016850Y0048211D01*
X0016773Y0048329D01*
X0016700Y0048449D01*
X0016629Y0048572D01*
X0016563Y0048696D01*
X0016500Y0048822D01*
X0016440Y0048949D01*
X0016384Y0049078D01*
X0016332Y0049209D01*
X0016283Y0049341D01*
X0016238Y0049475D01*
X0016197Y0049610D01*
X0016160Y0049746D01*
X0016126Y0049882D01*
X0016097Y0050020D01*
X0016071Y0050159D01*
X0016050Y0050298D01*
X0016032Y0050438D01*
X0016018Y0050578D01*
X0016008Y0050718D01*
X0016002Y0050859D01*
X0016000Y0051000D01*
X0187000Y0039000D02*
X0187000Y0009000D01*
X0187062Y0008844D01*
X0187129Y0008689D01*
X0187198Y0008536D01*
X0187272Y0008384D01*
X0187349Y0008235D01*
X0187430Y0008087D01*
X0187514Y0007941D01*
X0187602Y0007798D01*
X0187693Y0007656D01*
X0187787Y0007517D01*
X0187885Y0007380D01*
X0187986Y0007246D01*
X0188091Y0007114D01*
X0188198Y0006984D01*
X0188309Y0006858D01*
X0188423Y0006734D01*
X0188539Y0006612D01*
X0188659Y0006494D01*
X0188781Y0006378D01*
X0188906Y0006266D01*
X0189034Y0006156D01*
X0189165Y0006050D01*
X0189298Y0005947D01*
X0189433Y0005847D01*
X0189571Y0005750D01*
X0189711Y0005657D01*
X0189853Y0005567D01*
X0189998Y0005481D01*
X0190144Y0005398D01*
X0190293Y0005319D01*
X0190443Y0005243D01*
X0190595Y0005171D01*
X0190749Y0005103D01*
X0190904Y0005038D01*
X0191061Y0004977D01*
X0191219Y0004920D01*
X0191379Y0004867D01*
X0191540Y0004818D01*
X0191702Y0004772D01*
X0191865Y0004731D01*
X0192029Y0004693D01*
X0192194Y0004660D01*
X0192360Y0004630D01*
X0192526Y0004604D01*
X0192693Y0004583D01*
X0192860Y0004565D01*
X0193028Y0004552D01*
X0193196Y0004543D01*
X0193364Y0004537D01*
X0193533Y0004536D01*
X0193701Y0004539D01*
X0193869Y0004546D01*
X0194037Y0004557D01*
X0194205Y0004572D01*
X0194372Y0004591D01*
X0194538Y0004614D01*
X0194705Y0004641D01*
X0194870Y0004672D01*
X0195035Y0004707D01*
X0195198Y0004746D01*
X0195361Y0004789D01*
X0195523Y0004836D01*
X0195683Y0004887D01*
X0195842Y0004942D01*
X0196000Y0005000D01*
X0196367Y0005358D01*
X0196742Y0005707D01*
X0197126Y0006047D01*
X0197518Y0006378D01*
X0197918Y0006699D01*
X0198325Y0007010D01*
X0198740Y0007311D01*
X0199161Y0007602D01*
X0199590Y0007883D01*
X0200026Y0008154D01*
X0200468Y0008414D01*
X0200916Y0008663D01*
X0201369Y0008901D01*
X0201829Y0009128D01*
X0202294Y0009344D01*
X0202764Y0009549D01*
X0203239Y0009742D01*
X0203718Y0009924D01*
X0204202Y0010094D01*
X0204689Y0010252D01*
X0205180Y0010399D01*
X0205675Y0010534D01*
X0206173Y0010656D01*
X0206673Y0010767D01*
X0207176Y0010866D01*
X0207682Y0010952D01*
X0208189Y0011026D01*
X0208698Y0011088D01*
X0209208Y0011137D01*
X0209719Y0011174D01*
X0210231Y0011199D01*
X0210744Y0011211D01*
X0211256Y0011211D01*
X0211769Y0011199D01*
X0212281Y0011174D01*
X0212792Y0011137D01*
X0213302Y0011088D01*
X0213811Y0011026D01*
X0214318Y0010952D01*
X0214824Y0010866D01*
X0215327Y0010767D01*
X0215827Y0010656D01*
X0216325Y0010534D01*
X0216820Y0010399D01*
X0217311Y0010252D01*
X0217798Y0010094D01*
X0218282Y0009924D01*
X0218761Y0009742D01*
X0219236Y0009549D01*
X0219706Y0009344D01*
X0220171Y0009128D01*
X0220631Y0008901D01*
X0221084Y0008663D01*
X0221532Y0008414D01*
X0221974Y0008154D01*
X0222410Y0007883D01*
X0222839Y0007602D01*
X0223260Y0007311D01*
X0223675Y0007010D01*
X0224082Y0006699D01*
X0224482Y0006378D01*
X0224874Y0006047D01*
X0225258Y0005707D01*
X0225633Y0005358D01*
X0226000Y0005000D01*
X0226158Y0004942D01*
X0226317Y0004887D01*
X0226477Y0004836D01*
X0226639Y0004789D01*
X0226802Y0004746D01*
X0226965Y0004707D01*
X0227130Y0004672D01*
X0227295Y0004641D01*
X0227462Y0004614D01*
X0227628Y0004591D01*
X0227795Y0004572D01*
X0227963Y0004557D01*
X0228131Y0004546D01*
X0228299Y0004539D01*
X0228467Y0004536D01*
X0228636Y0004537D01*
X0228804Y0004543D01*
X0228972Y0004552D01*
X0229140Y0004565D01*
X0229307Y0004583D01*
X0229474Y0004604D01*
X0229640Y0004630D01*
X0229806Y0004660D01*
X0229971Y0004693D01*
X0230135Y0004731D01*
X0230298Y0004772D01*
X0230460Y0004818D01*
X0230621Y0004867D01*
X0230781Y0004920D01*
X0230939Y0004977D01*
X0231096Y0005038D01*
X0231251Y0005103D01*
X0231405Y0005171D01*
X0231557Y0005243D01*
X0231707Y0005319D01*
X0231856Y0005398D01*
X0232002Y0005481D01*
X0232147Y0005567D01*
X0232289Y0005657D01*
X0232429Y0005750D01*
X0232567Y0005847D01*
X0232702Y0005947D01*
X0232835Y0006050D01*
X0232966Y0006156D01*
X0233094Y0006266D01*
X0233219Y0006378D01*
X0233341Y0006494D01*
X0233461Y0006612D01*
X0233577Y0006734D01*
X0233691Y0006858D01*
X0233802Y0006984D01*
X0233909Y0007114D01*
X0234014Y0007246D01*
X0234115Y0007380D01*
X0234213Y0007517D01*
X0234307Y0007656D01*
X0234398Y0007798D01*
X0234486Y0007941D01*
X0234570Y0008087D01*
X0234651Y0008235D01*
X0234728Y0008384D01*
X0234802Y0008536D01*
X0234871Y0008689D01*
X0234938Y0008844D01*
X0235000Y0009000D01*
X0235000Y0039000D01*
X0223000Y0051000D01*
X0199000Y0051000D01*
X0187000Y0039000D01*
D16*
X0314374Y0229500D02*
X0356374Y0229500D01*
X0356374Y0252500D02*
X0314374Y0252500D01*
D17*
X0331388Y0254350D02*
X0335591Y0254350D01*
X0333489Y0254350D02*
X0333489Y0260655D01*
X0331388Y0258554D01*
X0337833Y0257503D02*
X0339935Y0258554D01*
X0340986Y0258554D01*
X0342037Y0257503D01*
X0342037Y0255401D01*
X0340986Y0254350D01*
X0338884Y0254350D01*
X0337833Y0255401D01*
X0337833Y0257503D02*
X0337833Y0260655D01*
X0342037Y0260655D01*
X0344278Y0258554D02*
X0346380Y0260655D01*
X0348482Y0258554D01*
X0348482Y0254350D01*
X0348482Y0257503D02*
X0344278Y0257503D01*
X0344278Y0258554D02*
X0344278Y0254350D01*
X0346380Y0228155D02*
X0346380Y0221850D01*
X0344279Y0221850D02*
X0348482Y0221850D01*
X0344279Y0226054D02*
X0346380Y0228155D01*
X0342037Y0228155D02*
X0337833Y0228155D01*
X0337833Y0221850D01*
X0337833Y0225003D02*
X0339935Y0225003D01*
D18*
X0357624Y0230750D03*
X0357624Y0251250D03*
X0313124Y0251250D03*
X0313124Y0230750D03*
D19*
X0367624Y0250000D03*
D20*
X0335374Y0248500D03*
X0335374Y0233500D03*
D21*
X0304624Y0233250D03*
X0304624Y0248750D03*
X0366124Y0248750D03*
X0366124Y0233250D03*
D22*
X0366874Y0232000D03*
X0303874Y0232000D03*
X0303874Y0250000D03*
D23*
X0297500Y0085000D02*
X0274500Y0085000D01*
X0274281Y0084997D01*
X0274062Y0084989D01*
X0273843Y0084976D01*
X0273625Y0084957D01*
X0273407Y0084933D01*
X0273190Y0084904D01*
X0272973Y0084870D01*
X0272758Y0084830D01*
X0272543Y0084785D01*
X0272330Y0084734D01*
X0272118Y0084679D01*
X0271907Y0084618D01*
X0271698Y0084553D01*
X0271491Y0084482D01*
X0271285Y0084406D01*
X0271081Y0084325D01*
X0270879Y0084240D01*
X0270680Y0084149D01*
X0270483Y0084054D01*
X0270288Y0083953D01*
X0270095Y0083848D01*
X0269905Y0083739D01*
X0269718Y0083625D01*
X0269534Y0083506D01*
X0269353Y0083383D01*
X0269175Y0083255D01*
X0268999Y0083123D01*
X0268828Y0082987D01*
X0268659Y0082847D01*
X0268494Y0082703D01*
X0268333Y0082555D01*
X0268175Y0082403D01*
X0268021Y0082247D01*
X0267871Y0082087D01*
X0267724Y0081924D01*
X0267582Y0081757D01*
X0267444Y0081587D01*
X0267310Y0081413D01*
X0267180Y0081237D01*
X0267055Y0081057D01*
X0266934Y0080874D01*
X0266818Y0080688D01*
X0266706Y0080500D01*
X0266599Y0080309D01*
X0266496Y0080115D01*
X0266398Y0079919D01*
X0266305Y0079721D01*
X0266217Y0079520D01*
X0266134Y0079317D01*
X0266055Y0079112D01*
X0265982Y0078906D01*
X0265914Y0078698D01*
X0265851Y0078488D01*
X0265793Y0078276D01*
X0265740Y0078064D01*
X0265692Y0077850D01*
X0265650Y0077635D01*
X0265613Y0077419D01*
X0265581Y0077202D01*
X0265554Y0076984D01*
X0265533Y0076766D01*
X0265517Y0076548D01*
X0265506Y0076329D01*
X0265501Y0076110D01*
X0265501Y0075890D01*
X0265506Y0075671D01*
X0265517Y0075452D01*
X0265533Y0075234D01*
X0265554Y0075016D01*
X0265581Y0074798D01*
X0265613Y0074581D01*
X0265650Y0074365D01*
X0265692Y0074150D01*
X0265740Y0073936D01*
X0265793Y0073724D01*
X0265851Y0073512D01*
X0265914Y0073302D01*
X0265982Y0073094D01*
X0266055Y0072888D01*
X0266134Y0072683D01*
X0266217Y0072480D01*
X0266305Y0072279D01*
X0266398Y0072081D01*
X0266496Y0071885D01*
X0266599Y0071691D01*
X0266706Y0071500D01*
X0266818Y0071312D01*
X0266934Y0071126D01*
X0267055Y0070943D01*
X0267180Y0070763D01*
X0267310Y0070587D01*
X0267444Y0070413D01*
X0267582Y0070243D01*
X0267724Y0070076D01*
X0267871Y0069913D01*
X0268021Y0069753D01*
X0268175Y0069597D01*
X0268333Y0069445D01*
X0268494Y0069297D01*
X0268659Y0069153D01*
X0268828Y0069013D01*
X0268999Y0068877D01*
X0269175Y0068745D01*
X0269353Y0068617D01*
X0269534Y0068494D01*
X0269718Y0068375D01*
X0269905Y0068261D01*
X0270095Y0068152D01*
X0270288Y0068047D01*
X0270483Y0067946D01*
X0270680Y0067851D01*
X0270879Y0067760D01*
X0271081Y0067675D01*
X0271285Y0067594D01*
X0271491Y0067518D01*
X0271698Y0067447D01*
X0271907Y0067382D01*
X0272118Y0067321D01*
X0272330Y0067266D01*
X0272543Y0067215D01*
X0272758Y0067170D01*
X0272973Y0067130D01*
X0273190Y0067096D01*
X0273407Y0067067D01*
X0273625Y0067043D01*
X0273843Y0067024D01*
X0274062Y0067011D01*
X0274281Y0067003D01*
X0274500Y0067000D01*
X0297500Y0067000D01*
X0297719Y0067003D01*
X0297938Y0067011D01*
X0298157Y0067024D01*
X0298375Y0067043D01*
X0298593Y0067067D01*
X0298810Y0067096D01*
X0299027Y0067130D01*
X0299242Y0067170D01*
X0299457Y0067215D01*
X0299670Y0067266D01*
X0299882Y0067321D01*
X0300093Y0067382D01*
X0300302Y0067447D01*
X0300509Y0067518D01*
X0300715Y0067594D01*
X0300919Y0067675D01*
X0301121Y0067760D01*
X0301320Y0067851D01*
X0301517Y0067946D01*
X0301712Y0068047D01*
X0301905Y0068152D01*
X0302095Y0068261D01*
X0302282Y0068375D01*
X0302466Y0068494D01*
X0302647Y0068617D01*
X0302825Y0068745D01*
X0303001Y0068877D01*
X0303172Y0069013D01*
X0303341Y0069153D01*
X0303506Y0069297D01*
X0303667Y0069445D01*
X0303825Y0069597D01*
X0303979Y0069753D01*
X0304129Y0069913D01*
X0304276Y0070076D01*
X0304418Y0070243D01*
X0304556Y0070413D01*
X0304690Y0070587D01*
X0304820Y0070763D01*
X0304945Y0070943D01*
X0305066Y0071126D01*
X0305182Y0071312D01*
X0305294Y0071500D01*
X0305401Y0071691D01*
X0305504Y0071885D01*
X0305602Y0072081D01*
X0305695Y0072279D01*
X0305783Y0072480D01*
X0305866Y0072683D01*
X0305945Y0072888D01*
X0306018Y0073094D01*
X0306086Y0073302D01*
X0306149Y0073512D01*
X0306207Y0073724D01*
X0306260Y0073936D01*
X0306308Y0074150D01*
X0306350Y0074365D01*
X0306387Y0074581D01*
X0306419Y0074798D01*
X0306446Y0075016D01*
X0306467Y0075234D01*
X0306483Y0075452D01*
X0306494Y0075671D01*
X0306499Y0075890D01*
X0306499Y0076110D01*
X0306494Y0076329D01*
X0306483Y0076548D01*
X0306467Y0076766D01*
X0306446Y0076984D01*
X0306419Y0077202D01*
X0306387Y0077419D01*
X0306350Y0077635D01*
X0306308Y0077850D01*
X0306260Y0078064D01*
X0306207Y0078276D01*
X0306149Y0078488D01*
X0306086Y0078698D01*
X0306018Y0078906D01*
X0305945Y0079112D01*
X0305866Y0079317D01*
X0305783Y0079520D01*
X0305695Y0079721D01*
X0305602Y0079919D01*
X0305504Y0080115D01*
X0305401Y0080309D01*
X0305294Y0080500D01*
X0305182Y0080688D01*
X0305066Y0080874D01*
X0304945Y0081057D01*
X0304820Y0081237D01*
X0304690Y0081413D01*
X0304556Y0081587D01*
X0304418Y0081757D01*
X0304276Y0081924D01*
X0304129Y0082087D01*
X0303979Y0082247D01*
X0303825Y0082403D01*
X0303667Y0082555D01*
X0303506Y0082703D01*
X0303341Y0082847D01*
X0303172Y0082987D01*
X0303001Y0083123D01*
X0302825Y0083255D01*
X0302647Y0083383D01*
X0302466Y0083506D01*
X0302282Y0083625D01*
X0302095Y0083739D01*
X0301905Y0083848D01*
X0301712Y0083953D01*
X0301517Y0084054D01*
X0301320Y0084149D01*
X0301121Y0084240D01*
X0300919Y0084325D01*
X0300715Y0084406D01*
X0300509Y0084482D01*
X0300302Y0084553D01*
X0300093Y0084618D01*
X0299882Y0084679D01*
X0299670Y0084734D01*
X0299457Y0084785D01*
X0299242Y0084830D01*
X0299027Y0084870D01*
X0298810Y0084904D01*
X0298593Y0084933D01*
X0298375Y0084957D01*
X0298157Y0084976D01*
X0297938Y0084989D01*
X0297719Y0084997D01*
X0297500Y0085000D01*
X0100000Y0052500D02*
X0077000Y0052500D01*
X0076781Y0052497D01*
X0076562Y0052489D01*
X0076343Y0052476D01*
X0076125Y0052457D01*
X0075907Y0052433D01*
X0075690Y0052404D01*
X0075473Y0052370D01*
X0075258Y0052330D01*
X0075043Y0052285D01*
X0074830Y0052234D01*
X0074618Y0052179D01*
X0074407Y0052118D01*
X0074198Y0052053D01*
X0073991Y0051982D01*
X0073785Y0051906D01*
X0073581Y0051825D01*
X0073379Y0051740D01*
X0073180Y0051649D01*
X0072983Y0051554D01*
X0072788Y0051453D01*
X0072595Y0051348D01*
X0072405Y0051239D01*
X0072218Y0051125D01*
X0072034Y0051006D01*
X0071853Y0050883D01*
X0071675Y0050755D01*
X0071499Y0050623D01*
X0071328Y0050487D01*
X0071159Y0050347D01*
X0070994Y0050203D01*
X0070833Y0050055D01*
X0070675Y0049903D01*
X0070521Y0049747D01*
X0070371Y0049587D01*
X0070224Y0049424D01*
X0070082Y0049257D01*
X0069944Y0049087D01*
X0069810Y0048913D01*
X0069680Y0048737D01*
X0069555Y0048557D01*
X0069434Y0048374D01*
X0069318Y0048188D01*
X0069206Y0048000D01*
X0069099Y0047809D01*
X0068996Y0047615D01*
X0068898Y0047419D01*
X0068805Y0047221D01*
X0068717Y0047020D01*
X0068634Y0046817D01*
X0068555Y0046612D01*
X0068482Y0046406D01*
X0068414Y0046198D01*
X0068351Y0045988D01*
X0068293Y0045776D01*
X0068240Y0045564D01*
X0068192Y0045350D01*
X0068150Y0045135D01*
X0068113Y0044919D01*
X0068081Y0044702D01*
X0068054Y0044484D01*
X0068033Y0044266D01*
X0068017Y0044048D01*
X0068006Y0043829D01*
X0068001Y0043610D01*
X0068001Y0043390D01*
X0068006Y0043171D01*
X0068017Y0042952D01*
X0068033Y0042734D01*
X0068054Y0042516D01*
X0068081Y0042298D01*
X0068113Y0042081D01*
X0068150Y0041865D01*
X0068192Y0041650D01*
X0068240Y0041436D01*
X0068293Y0041224D01*
X0068351Y0041012D01*
X0068414Y0040802D01*
X0068482Y0040594D01*
X0068555Y0040388D01*
X0068634Y0040183D01*
X0068717Y0039980D01*
X0068805Y0039779D01*
X0068898Y0039581D01*
X0068996Y0039385D01*
X0069099Y0039191D01*
X0069206Y0039000D01*
X0069318Y0038812D01*
X0069434Y0038626D01*
X0069555Y0038443D01*
X0069680Y0038263D01*
X0069810Y0038087D01*
X0069944Y0037913D01*
X0070082Y0037743D01*
X0070224Y0037576D01*
X0070371Y0037413D01*
X0070521Y0037253D01*
X0070675Y0037097D01*
X0070833Y0036945D01*
X0070994Y0036797D01*
X0071159Y0036653D01*
X0071328Y0036513D01*
X0071499Y0036377D01*
X0071675Y0036245D01*
X0071853Y0036117D01*
X0072034Y0035994D01*
X0072218Y0035875D01*
X0072405Y0035761D01*
X0072595Y0035652D01*
X0072788Y0035547D01*
X0072983Y0035446D01*
X0073180Y0035351D01*
X0073379Y0035260D01*
X0073581Y0035175D01*
X0073785Y0035094D01*
X0073991Y0035018D01*
X0074198Y0034947D01*
X0074407Y0034882D01*
X0074618Y0034821D01*
X0074830Y0034766D01*
X0075043Y0034715D01*
X0075258Y0034670D01*
X0075473Y0034630D01*
X0075690Y0034596D01*
X0075907Y0034567D01*
X0076125Y0034543D01*
X0076343Y0034524D01*
X0076562Y0034511D01*
X0076781Y0034503D01*
X0077000Y0034500D01*
X0100000Y0034500D01*
X0100219Y0034503D01*
X0100438Y0034511D01*
X0100657Y0034524D01*
X0100875Y0034543D01*
X0101093Y0034567D01*
X0101310Y0034596D01*
X0101527Y0034630D01*
X0101742Y0034670D01*
X0101957Y0034715D01*
X0102170Y0034766D01*
X0102382Y0034821D01*
X0102593Y0034882D01*
X0102802Y0034947D01*
X0103009Y0035018D01*
X0103215Y0035094D01*
X0103419Y0035175D01*
X0103621Y0035260D01*
X0103820Y0035351D01*
X0104017Y0035446D01*
X0104212Y0035547D01*
X0104405Y0035652D01*
X0104595Y0035761D01*
X0104782Y0035875D01*
X0104966Y0035994D01*
X0105147Y0036117D01*
X0105325Y0036245D01*
X0105501Y0036377D01*
X0105672Y0036513D01*
X0105841Y0036653D01*
X0106006Y0036797D01*
X0106167Y0036945D01*
X0106325Y0037097D01*
X0106479Y0037253D01*
X0106629Y0037413D01*
X0106776Y0037576D01*
X0106918Y0037743D01*
X0107056Y0037913D01*
X0107190Y0038087D01*
X0107320Y0038263D01*
X0107445Y0038443D01*
X0107566Y0038626D01*
X0107682Y0038812D01*
X0107794Y0039000D01*
X0107901Y0039191D01*
X0108004Y0039385D01*
X0108102Y0039581D01*
X0108195Y0039779D01*
X0108283Y0039980D01*
X0108366Y0040183D01*
X0108445Y0040388D01*
X0108518Y0040594D01*
X0108586Y0040802D01*
X0108649Y0041012D01*
X0108707Y0041224D01*
X0108760Y0041436D01*
X0108808Y0041650D01*
X0108850Y0041865D01*
X0108887Y0042081D01*
X0108919Y0042298D01*
X0108946Y0042516D01*
X0108967Y0042734D01*
X0108983Y0042952D01*
X0108994Y0043171D01*
X0108999Y0043390D01*
X0108999Y0043610D01*
X0108994Y0043829D01*
X0108983Y0044048D01*
X0108967Y0044266D01*
X0108946Y0044484D01*
X0108919Y0044702D01*
X0108887Y0044919D01*
X0108850Y0045135D01*
X0108808Y0045350D01*
X0108760Y0045564D01*
X0108707Y0045776D01*
X0108649Y0045988D01*
X0108586Y0046198D01*
X0108518Y0046406D01*
X0108445Y0046612D01*
X0108366Y0046817D01*
X0108283Y0047020D01*
X0108195Y0047221D01*
X0108102Y0047419D01*
X0108004Y0047615D01*
X0107901Y0047809D01*
X0107794Y0048000D01*
X0107682Y0048188D01*
X0107566Y0048374D01*
X0107445Y0048557D01*
X0107320Y0048737D01*
X0107190Y0048913D01*
X0107056Y0049087D01*
X0106918Y0049257D01*
X0106776Y0049424D01*
X0106629Y0049587D01*
X0106479Y0049747D01*
X0106325Y0049903D01*
X0106167Y0050055D01*
X0106006Y0050203D01*
X0105841Y0050347D01*
X0105672Y0050487D01*
X0105501Y0050623D01*
X0105325Y0050755D01*
X0105147Y0050883D01*
X0104966Y0051006D01*
X0104782Y0051125D01*
X0104595Y0051239D01*
X0104405Y0051348D01*
X0104212Y0051453D01*
X0104017Y0051554D01*
X0103820Y0051649D01*
X0103621Y0051740D01*
X0103419Y0051825D01*
X0103215Y0051906D01*
X0103009Y0051982D01*
X0102802Y0052053D01*
X0102593Y0052118D01*
X0102382Y0052179D01*
X0102170Y0052234D01*
X0101957Y0052285D01*
X0101742Y0052330D01*
X0101527Y0052370D01*
X0101310Y0052404D01*
X0101093Y0052433D01*
X0100875Y0052457D01*
X0100657Y0052476D01*
X0100438Y0052489D01*
X0100219Y0052497D01*
X0100000Y0052500D01*
D24*
X0158736Y0142909D02*
X0188264Y0142909D01*
X0163776Y0190941D02*
X0163778Y0190997D01*
X0163784Y0191052D01*
X0163794Y0191106D01*
X0163807Y0191160D01*
X0163825Y0191213D01*
X0163846Y0191264D01*
X0163870Y0191314D01*
X0163898Y0191362D01*
X0163930Y0191408D01*
X0163964Y0191452D01*
X0164002Y0191493D01*
X0164042Y0191531D01*
X0164085Y0191566D01*
X0164130Y0191598D01*
X0164178Y0191627D01*
X0164227Y0191653D01*
X0164278Y0191675D01*
X0164330Y0191693D01*
X0164384Y0191707D01*
X0164439Y0191718D01*
X0164494Y0191725D01*
X0164549Y0191728D01*
X0164605Y0191727D01*
X0164660Y0191722D01*
X0164715Y0191713D01*
X0164769Y0191701D01*
X0164822Y0191684D01*
X0164874Y0191664D01*
X0164924Y0191640D01*
X0164972Y0191613D01*
X0165019Y0191583D01*
X0165063Y0191549D01*
X0165105Y0191512D01*
X0165143Y0191472D01*
X0165180Y0191430D01*
X0165213Y0191385D01*
X0165242Y0191339D01*
X0165269Y0191290D01*
X0165291Y0191239D01*
X0165311Y0191187D01*
X0165326Y0191133D01*
X0165338Y0191079D01*
X0165346Y0191024D01*
X0165350Y0190969D01*
X0165350Y0190913D01*
X0165346Y0190858D01*
X0165338Y0190803D01*
X0165326Y0190749D01*
X0165311Y0190695D01*
X0165291Y0190643D01*
X0165269Y0190592D01*
X0165242Y0190543D01*
X0165213Y0190497D01*
X0165180Y0190452D01*
X0165143Y0190410D01*
X0165105Y0190370D01*
X0165063Y0190333D01*
X0165019Y0190299D01*
X0164972Y0190269D01*
X0164924Y0190242D01*
X0164874Y0190218D01*
X0164822Y0190198D01*
X0164769Y0190181D01*
X0164715Y0190169D01*
X0164660Y0190160D01*
X0164605Y0190155D01*
X0164549Y0190154D01*
X0164494Y0190157D01*
X0164439Y0190164D01*
X0164384Y0190175D01*
X0164330Y0190189D01*
X0164278Y0190207D01*
X0164227Y0190229D01*
X0164178Y0190255D01*
X0164130Y0190284D01*
X0164085Y0190316D01*
X0164042Y0190351D01*
X0164002Y0190389D01*
X0163964Y0190430D01*
X0163930Y0190474D01*
X0163898Y0190520D01*
X0163870Y0190568D01*
X0163846Y0190618D01*
X0163825Y0190669D01*
X0163807Y0190722D01*
X0163794Y0190776D01*
X0163784Y0190830D01*
X0163778Y0190885D01*
X0163776Y0190941D01*
X0158736Y0194091D02*
X0188264Y0194091D01*
M02*
