G75*
%MOIN*%
%OFA0B0*%
%FSLAX25Y25*%
%IPPOS*%
%LPD*%
%AMOC8*
5,1,8,0,0,1.08239X$1,22.5*
%
%ADD10C,0.00500*%
%ADD11C,0.00400*%
%ADD12C,0.07400*%
%ADD13C,0.10000*%
%ADD14OC8,0.07400*%
%ADD15C,0.05200*%
%ADD16OC8,0.06600*%
%ADD17C,0.10000*%
%ADD18C,0.07600*%
%ADD19C,0.02400*%
%ADD20C,0.03962*%
%ADD21C,0.01600*%
D10*
X0268892Y0033750D02*
X0269909Y0034768D01*
X0269909Y0038838D01*
X0268892Y0037820D02*
X0270927Y0037820D01*
X0272934Y0037820D02*
X0272934Y0033750D01*
X0275986Y0033750D01*
X0277004Y0034768D01*
X0277004Y0037820D01*
X0279011Y0036803D02*
X0279011Y0034768D01*
X0280028Y0033750D01*
X0283081Y0033750D01*
X0285088Y0033750D02*
X0285088Y0036803D01*
X0286106Y0037820D01*
X0289158Y0037820D01*
X0289158Y0033750D01*
X0291175Y0033750D02*
X0293210Y0033750D01*
X0292192Y0033750D02*
X0292192Y0039855D01*
X0291175Y0039855D02*
X0293210Y0039855D01*
X0301294Y0033750D02*
X0305364Y0033750D01*
X0305364Y0039855D01*
X0307371Y0039855D02*
X0311441Y0039855D01*
X0311441Y0033750D01*
X0307371Y0033750D01*
X0309406Y0036803D02*
X0311441Y0036803D01*
X0313448Y0039855D02*
X0313448Y0033750D01*
X0317518Y0039855D01*
X0317518Y0033750D01*
X0319525Y0033750D02*
X0319525Y0037820D01*
X0321561Y0039855D01*
X0323596Y0037820D01*
X0323596Y0033750D01*
X0323596Y0036803D02*
X0319525Y0036803D01*
X0325603Y0036803D02*
X0326620Y0035785D01*
X0329673Y0035785D01*
X0331680Y0035785D02*
X0331680Y0039855D01*
X0329673Y0039855D02*
X0326620Y0039855D01*
X0325603Y0038838D01*
X0325603Y0036803D01*
X0329673Y0033750D02*
X0329673Y0039855D01*
X0331680Y0035785D02*
X0333715Y0033750D01*
X0335750Y0035785D01*
X0335750Y0039855D01*
X0283081Y0037820D02*
X0283081Y0031715D01*
X0283081Y0037820D02*
X0280028Y0037820D01*
X0279011Y0036803D01*
D11*
X0279018Y0030804D02*
X0278251Y0030037D01*
X0278251Y0029269D01*
X0279018Y0028502D01*
X0280553Y0028502D01*
X0281320Y0029269D01*
X0281320Y0030037D01*
X0280553Y0030804D01*
X0279018Y0030804D01*
X0279018Y0028502D02*
X0278251Y0027735D01*
X0278251Y0026967D01*
X0279018Y0026200D01*
X0280553Y0026200D01*
X0281320Y0026967D01*
X0281320Y0027735D01*
X0280553Y0028502D01*
X0282855Y0028502D02*
X0282855Y0030037D01*
X0283622Y0030804D01*
X0285157Y0030804D01*
X0285924Y0030037D01*
X0285924Y0026967D01*
X0285157Y0026200D01*
X0283622Y0026200D01*
X0282855Y0026967D01*
X0283622Y0027735D02*
X0283622Y0029269D01*
X0285157Y0029269D01*
X0285157Y0027735D01*
X0283622Y0027735D01*
X0282855Y0028502D01*
X0287459Y0027735D02*
X0287459Y0030804D01*
X0290528Y0030804D02*
X0290528Y0027735D01*
X0288993Y0026200D01*
X0287459Y0027735D01*
X0292063Y0026967D02*
X0292063Y0030037D01*
X0295132Y0026967D01*
X0294365Y0026200D01*
X0292830Y0026200D01*
X0292063Y0026967D01*
X0295132Y0026967D02*
X0295132Y0030037D01*
X0294365Y0030804D01*
X0292830Y0030804D01*
X0292063Y0030037D01*
X0296667Y0028502D02*
X0299736Y0028502D01*
X0297434Y0030804D01*
X0297434Y0026200D01*
X0298969Y0023304D02*
X0298201Y0022537D01*
X0298201Y0021002D01*
X0298969Y0020235D01*
X0298969Y0021769D01*
X0300503Y0021769D01*
X0300503Y0020235D01*
X0298969Y0020235D01*
X0298201Y0019467D02*
X0298969Y0018700D01*
X0300503Y0018700D01*
X0301271Y0019467D01*
X0301271Y0022537D01*
X0300503Y0023304D01*
X0298969Y0023304D01*
X0296667Y0021769D02*
X0295132Y0023304D01*
X0295132Y0018700D01*
X0296667Y0018700D02*
X0293597Y0018700D01*
X0292063Y0019467D02*
X0291295Y0018700D01*
X0289761Y0018700D01*
X0288993Y0019467D01*
X0288993Y0021002D01*
X0289761Y0021769D01*
X0290528Y0021769D01*
X0292063Y0021002D01*
X0292063Y0023304D01*
X0288993Y0023304D01*
X0287459Y0021769D02*
X0285924Y0023304D01*
X0284390Y0021769D01*
X0284390Y0018700D01*
X0284390Y0021002D02*
X0287459Y0021002D01*
X0287459Y0021769D02*
X0287459Y0018700D01*
X0276716Y0026200D02*
X0276716Y0029269D01*
X0275182Y0030804D01*
X0273647Y0029269D01*
X0273647Y0026200D01*
X0273647Y0028502D02*
X0276716Y0028502D01*
X0302805Y0023304D02*
X0302805Y0020235D01*
X0304340Y0018700D01*
X0305874Y0020235D01*
X0305874Y0023304D01*
X0308176Y0023304D02*
X0310478Y0021002D01*
X0307409Y0021002D01*
X0308176Y0018700D02*
X0308176Y0023304D01*
X0308176Y0026200D02*
X0309711Y0026200D01*
X0308944Y0026200D02*
X0308944Y0030804D01*
X0309711Y0030804D01*
X0312013Y0029269D02*
X0311246Y0028502D01*
X0311246Y0026200D01*
X0313548Y0026200D01*
X0314315Y0026967D01*
X0313548Y0027735D01*
X0311246Y0027735D01*
X0312013Y0029269D02*
X0313548Y0029269D01*
X0315850Y0028502D02*
X0315850Y0026200D01*
X0315850Y0028502D02*
X0316617Y0029269D01*
X0318919Y0029269D01*
X0318919Y0026200D01*
X0320454Y0026200D02*
X0321988Y0026200D01*
X0321221Y0026200D02*
X0321221Y0029269D01*
X0321988Y0029269D01*
X0323523Y0028502D02*
X0324290Y0029269D01*
X0325058Y0028502D01*
X0325058Y0026200D01*
X0326592Y0026200D02*
X0326592Y0029269D01*
X0325825Y0029269D01*
X0325058Y0028502D01*
X0323523Y0028502D02*
X0323523Y0026200D01*
X0328127Y0026967D02*
X0328127Y0028502D01*
X0328894Y0029269D01*
X0330429Y0029269D01*
X0331196Y0028502D01*
X0331196Y0026967D01*
X0330429Y0026200D01*
X0328894Y0026200D01*
X0328127Y0026967D01*
X0321221Y0030804D02*
X0321221Y0031571D01*
X0312780Y0023304D02*
X0315082Y0021002D01*
X0312013Y0021002D01*
X0312780Y0018700D02*
X0312780Y0023304D01*
X0306642Y0026200D02*
X0306642Y0026967D01*
X0305875Y0026967D01*
X0305875Y0026200D01*
X0306642Y0026200D01*
X0306642Y0028502D02*
X0306642Y0029269D01*
X0305875Y0029269D01*
X0305875Y0028502D01*
X0306642Y0028502D01*
X0321221Y0021769D02*
X0321221Y0021002D01*
X0321988Y0021002D01*
X0321988Y0021769D01*
X0321221Y0021769D01*
X0321221Y0019467D02*
X0321221Y0018700D01*
X0321988Y0018700D01*
X0321988Y0019467D01*
X0321221Y0019467D01*
X0323523Y0018700D02*
X0326592Y0021769D01*
X0328127Y0021002D02*
X0328127Y0018700D01*
X0330429Y0018700D01*
X0331196Y0019467D01*
X0330429Y0020235D01*
X0328127Y0020235D01*
X0328127Y0021002D02*
X0328894Y0021769D01*
X0330429Y0021769D01*
X0332731Y0023304D02*
X0332731Y0018700D01*
X0335800Y0018700D02*
X0335800Y0023304D01*
X0334265Y0021769D01*
X0332731Y0023304D01*
X0332731Y0026200D02*
X0332731Y0030804D01*
X0335800Y0030804D02*
X0332731Y0026200D01*
X0335800Y0026200D02*
X0335800Y0030804D01*
X0326592Y0018700D02*
X0323523Y0021769D01*
D12*
X0231000Y0151000D03*
X0231000Y0161000D03*
X0223500Y0251000D03*
X0213500Y0251000D03*
X0203500Y0251000D03*
X0176000Y0251000D03*
X0166000Y0251000D03*
X0156000Y0251000D03*
X0156000Y0291000D03*
X0166000Y0291000D03*
X0176000Y0291000D03*
X0203500Y0291000D03*
X0213500Y0291000D03*
X0223500Y0291000D03*
D13*
X0289748Y0246000D02*
X0289748Y0236000D01*
X0316362Y0236000D02*
X0316362Y0246000D01*
X0354386Y0246000D02*
X0354386Y0236000D01*
X0381000Y0236000D02*
X0381000Y0246000D01*
D14*
X0028500Y0091000D03*
X0028500Y0081000D03*
X0028500Y0071000D03*
X0018500Y0071000D03*
X0018500Y0081000D03*
X0018500Y0091000D03*
D15*
X0079000Y0043500D03*
X0098000Y0043500D03*
X0276500Y0076000D03*
X0295500Y0076000D03*
D16*
X0048500Y0113500D03*
X0048500Y0123500D03*
X0038500Y0123500D03*
X0028500Y0123500D03*
X0028500Y0113500D03*
X0038500Y0113500D03*
X0018500Y0113500D03*
X0018500Y0123500D03*
X0043500Y0288500D03*
X0043500Y0298500D03*
X0053500Y0298500D03*
X0053500Y0288500D03*
X0063500Y0288500D03*
X0073500Y0288500D03*
X0073500Y0298500D03*
X0063500Y0298500D03*
D17*
X0261315Y0286000D03*
X0300685Y0286000D03*
X0336315Y0286000D03*
X0375685Y0286000D03*
D18*
X0151000Y0016000D03*
X0141000Y0016000D03*
X0131000Y0016000D03*
D19*
X0006200Y0006200D02*
X0006200Y0058209D01*
X0006461Y0057948D01*
X0031461Y0032948D01*
X0032784Y0032400D01*
X0034216Y0032400D01*
X0165284Y0032400D01*
X0166716Y0032400D01*
X0166762Y0032419D01*
X0164343Y0030000D01*
X0135204Y0030000D01*
X0133734Y0029391D01*
X0132609Y0028266D01*
X0127609Y0023266D01*
X0127000Y0021796D01*
X0127000Y0021334D01*
X0125405Y0019739D01*
X0124400Y0017313D01*
X0124400Y0014687D01*
X0125405Y0012261D01*
X0126125Y0011541D01*
X0124756Y0010172D01*
X0123635Y0007465D01*
X0123635Y0006200D01*
X0006200Y0006200D01*
X0006200Y0008196D02*
X0016782Y0008196D01*
X0015639Y0008502D02*
X0018964Y0007611D01*
X0022406Y0007611D01*
X0025731Y0008502D01*
X0028713Y0010223D01*
X0031147Y0012657D01*
X0032868Y0015639D01*
X0033759Y0018964D01*
X0033759Y0022406D01*
X0032868Y0025731D01*
X0031147Y0028713D01*
X0028713Y0031147D01*
X0025731Y0032868D01*
X0022406Y0033759D01*
X0018964Y0033759D01*
X0015639Y0032868D01*
X0012657Y0031147D01*
X0010223Y0028713D01*
X0008502Y0025731D01*
X0007611Y0022406D01*
X0007611Y0018964D01*
X0008502Y0015639D01*
X0010223Y0012657D01*
X0012657Y0010223D01*
X0015639Y0008502D01*
X0012287Y0010594D02*
X0006200Y0010594D01*
X0006200Y0012993D02*
X0010030Y0012993D01*
X0008645Y0015391D02*
X0006200Y0015391D01*
X0006200Y0017790D02*
X0007926Y0017790D01*
X0007611Y0020188D02*
X0006200Y0020188D01*
X0006200Y0022587D02*
X0007659Y0022587D01*
X0008302Y0024985D02*
X0006200Y0024985D01*
X0006200Y0027384D02*
X0009456Y0027384D01*
X0011293Y0029782D02*
X0006200Y0029782D01*
X0006200Y0032181D02*
X0014448Y0032181D01*
X0006200Y0034579D02*
X0029830Y0034579D01*
X0027431Y0036978D02*
X0006200Y0036978D01*
X0006200Y0039376D02*
X0025033Y0039376D01*
X0022634Y0041775D02*
X0006200Y0041775D01*
X0006200Y0044173D02*
X0020236Y0044173D01*
X0017837Y0046572D02*
X0006200Y0046572D01*
X0006200Y0048970D02*
X0015439Y0048970D01*
X0013040Y0051369D02*
X0006200Y0051369D01*
X0006200Y0053767D02*
X0010642Y0053767D01*
X0008243Y0056166D02*
X0006200Y0056166D01*
X0012100Y0062491D02*
X0012100Y0068208D01*
X0015808Y0064500D01*
X0021192Y0064500D01*
X0023500Y0066808D01*
X0025808Y0064500D01*
X0031192Y0064500D01*
X0035000Y0068308D01*
X0035000Y0073692D01*
X0032692Y0076000D01*
X0035000Y0078308D01*
X0035000Y0083692D01*
X0032692Y0086000D01*
X0035000Y0088308D01*
X0035000Y0093692D01*
X0031192Y0097500D01*
X0025808Y0097500D01*
X0023500Y0095192D01*
X0021192Y0097500D01*
X0015808Y0097500D01*
X0012000Y0093692D01*
X0012000Y0088308D01*
X0014308Y0086000D01*
X0012908Y0084600D01*
X0012784Y0084600D01*
X0011461Y0084052D01*
X0010448Y0083039D01*
X0006200Y0078791D01*
X0006200Y0201000D01*
X0389501Y0201000D01*
X0389501Y0006200D01*
X0158365Y0006200D01*
X0158365Y0007465D01*
X0157244Y0010172D01*
X0155172Y0012244D01*
X0152465Y0013365D01*
X0149535Y0013365D01*
X0146828Y0012244D01*
X0146000Y0011416D01*
X0145875Y0011541D01*
X0146595Y0012261D01*
X0147600Y0014687D01*
X0147600Y0017313D01*
X0146595Y0019739D01*
X0144739Y0021595D01*
X0143761Y0022000D01*
X0166796Y0022000D01*
X0168266Y0022609D01*
X0200766Y0055109D01*
X0201891Y0056234D01*
X0202500Y0057704D01*
X0202500Y0066796D01*
X0201891Y0068266D01*
X0192500Y0077657D01*
X0192500Y0078739D01*
X0192549Y0078719D01*
X0193190Y0078719D01*
X0211219Y0060690D01*
X0211219Y0060049D01*
X0211947Y0058292D01*
X0213292Y0056947D01*
X0215049Y0056219D01*
X0216951Y0056219D01*
X0218708Y0056947D01*
X0220053Y0058292D01*
X0220781Y0060049D01*
X0220781Y0061951D01*
X0220053Y0063708D01*
X0218708Y0065053D01*
X0216951Y0065781D01*
X0216310Y0065781D01*
X0198281Y0083810D01*
X0198281Y0084451D01*
X0197553Y0086208D01*
X0196208Y0087553D01*
X0194451Y0088281D01*
X0193938Y0088281D01*
X0194391Y0088734D01*
X0195000Y0090204D01*
X0195000Y0108238D01*
X0195053Y0108292D01*
X0195781Y0110049D01*
X0195781Y0111951D01*
X0195053Y0113708D01*
X0193708Y0115053D01*
X0191951Y0115781D01*
X0190049Y0115781D01*
X0188292Y0115053D01*
X0186947Y0113708D01*
X0186219Y0111951D01*
X0186219Y0110049D01*
X0186947Y0108292D01*
X0187000Y0108238D01*
X0187000Y0106761D01*
X0186208Y0107553D01*
X0184451Y0108281D01*
X0182549Y0108281D01*
X0180792Y0107553D01*
X0180338Y0107100D01*
X0116361Y0107100D01*
X0117553Y0108292D01*
X0118281Y0110049D01*
X0118281Y0110690D01*
X0124991Y0117400D01*
X0252838Y0117400D01*
X0253292Y0116947D01*
X0255049Y0116219D01*
X0256951Y0116219D01*
X0258708Y0116947D01*
X0260053Y0118292D01*
X0260781Y0120049D01*
X0260781Y0121951D01*
X0260053Y0123708D01*
X0258708Y0125053D01*
X0256951Y0125781D01*
X0255781Y0125781D01*
X0255781Y0126951D01*
X0255777Y0126962D01*
X0255792Y0126947D01*
X0257549Y0126219D01*
X0259451Y0126219D01*
X0261208Y0126947D01*
X0262553Y0128292D01*
X0263281Y0130049D01*
X0263281Y0131951D01*
X0262553Y0133708D01*
X0261761Y0134500D01*
X0326843Y0134500D01*
X0338719Y0122624D01*
X0338719Y0122549D01*
X0339447Y0120792D01*
X0340792Y0119447D01*
X0342549Y0118719D01*
X0344451Y0118719D01*
X0346208Y0119447D01*
X0346261Y0119500D01*
X0375738Y0119500D01*
X0375792Y0119447D01*
X0377549Y0118719D01*
X0379451Y0118719D01*
X0381208Y0119447D01*
X0382553Y0120792D01*
X0383281Y0122549D01*
X0383281Y0124451D01*
X0382553Y0126208D01*
X0381208Y0127553D01*
X0379451Y0128281D01*
X0377549Y0128281D01*
X0375792Y0127553D01*
X0375738Y0127500D01*
X0346261Y0127500D01*
X0346208Y0127553D01*
X0344451Y0128281D01*
X0344376Y0128281D01*
X0331891Y0140766D01*
X0330766Y0141891D01*
X0329296Y0142500D01*
X0193761Y0142500D01*
X0193708Y0142553D01*
X0191951Y0143281D01*
X0190049Y0143281D01*
X0188292Y0142553D01*
X0188238Y0142500D01*
X0166261Y0142500D01*
X0166208Y0142553D01*
X0164451Y0143281D01*
X0162549Y0143281D01*
X0160792Y0142553D01*
X0160738Y0142500D01*
X0121261Y0142500D01*
X0121208Y0142553D01*
X0119451Y0143281D01*
X0117549Y0143281D01*
X0115792Y0142553D01*
X0115738Y0142500D01*
X0098761Y0142500D01*
X0098708Y0142553D01*
X0096951Y0143281D01*
X0095049Y0143281D01*
X0093292Y0142553D01*
X0093238Y0142500D01*
X0082657Y0142500D01*
X0080000Y0145157D01*
X0080000Y0191796D01*
X0079391Y0193266D01*
X0075781Y0196876D01*
X0075781Y0196951D01*
X0075053Y0198708D01*
X0073708Y0200053D01*
X0071951Y0200781D01*
X0070049Y0200781D01*
X0068292Y0200053D01*
X0066947Y0198708D01*
X0066219Y0196951D01*
X0066219Y0195049D01*
X0066947Y0193292D01*
X0068292Y0191947D01*
X0070049Y0191219D01*
X0070124Y0191219D01*
X0072000Y0189343D01*
X0072000Y0187500D01*
X0040204Y0187500D01*
X0038734Y0186891D01*
X0037609Y0185766D01*
X0031234Y0179391D01*
X0030109Y0178266D01*
X0022609Y0170766D01*
X0022000Y0169296D01*
X0022000Y0163761D01*
X0021947Y0163708D01*
X0021219Y0161951D01*
X0021219Y0160049D01*
X0021947Y0158292D01*
X0023292Y0156947D01*
X0025049Y0156219D01*
X0026951Y0156219D01*
X0028708Y0156947D01*
X0030053Y0158292D01*
X0030781Y0160049D01*
X0030781Y0161951D01*
X0030053Y0163708D01*
X0030000Y0163761D01*
X0030000Y0166843D01*
X0033500Y0170343D01*
X0034969Y0168874D01*
X0034969Y0168799D01*
X0035697Y0167042D01*
X0037042Y0165697D01*
X0038799Y0164969D01*
X0040701Y0164969D01*
X0042458Y0165697D01*
X0043803Y0167042D01*
X0044531Y0168799D01*
X0044531Y0170701D01*
X0043803Y0172458D01*
X0042458Y0173803D01*
X0040701Y0174531D01*
X0040626Y0174531D01*
X0039157Y0176000D01*
X0042657Y0179500D01*
X0072000Y0179500D01*
X0072000Y0142704D01*
X0072609Y0141234D01*
X0077609Y0136234D01*
X0078062Y0135781D01*
X0077549Y0135781D01*
X0075792Y0135053D01*
X0074447Y0133708D01*
X0073719Y0131951D01*
X0073719Y0130049D01*
X0074447Y0128292D01*
X0075792Y0126947D01*
X0077549Y0126219D01*
X0078190Y0126219D01*
X0092400Y0112009D01*
X0092400Y0111661D01*
X0091947Y0111208D01*
X0091219Y0109451D01*
X0091219Y0107549D01*
X0091405Y0107100D01*
X0081661Y0107100D01*
X0081208Y0107553D01*
X0079451Y0108281D01*
X0077549Y0108281D01*
X0075792Y0107553D01*
X0074447Y0106208D01*
X0073719Y0104451D01*
X0073719Y0102549D01*
X0074447Y0100792D01*
X0075489Y0099750D01*
X0074447Y0098708D01*
X0073719Y0096951D01*
X0073719Y0095049D01*
X0074447Y0093292D01*
X0075792Y0091947D01*
X0077549Y0091219D01*
X0079451Y0091219D01*
X0081208Y0091947D01*
X0081661Y0092400D01*
X0129509Y0092400D01*
X0144900Y0077009D01*
X0144900Y0066661D01*
X0144447Y0066208D01*
X0143719Y0064451D01*
X0143719Y0062549D01*
X0144447Y0060792D01*
X0145792Y0059447D01*
X0147549Y0058719D01*
X0149451Y0058719D01*
X0151208Y0059447D01*
X0152553Y0060792D01*
X0153281Y0062549D01*
X0153281Y0064451D01*
X0152553Y0066208D01*
X0152100Y0066661D01*
X0152100Y0079216D01*
X0151552Y0080539D01*
X0150539Y0081552D01*
X0133039Y0099052D01*
X0131716Y0099600D01*
X0081661Y0099600D01*
X0081511Y0099750D01*
X0081661Y0099900D01*
X0173905Y0099900D01*
X0173719Y0099451D01*
X0173719Y0097549D01*
X0174447Y0095792D01*
X0174900Y0095338D01*
X0174900Y0057491D01*
X0174509Y0057100D01*
X0151661Y0057100D01*
X0151208Y0057553D01*
X0149451Y0058281D01*
X0147549Y0058281D01*
X0145792Y0057553D01*
X0144447Y0056208D01*
X0143719Y0054451D01*
X0143719Y0052549D01*
X0144447Y0050792D01*
X0145792Y0049447D01*
X0147549Y0048719D01*
X0149451Y0048719D01*
X0151208Y0049447D01*
X0151661Y0049900D01*
X0174809Y0049900D01*
X0164509Y0039600D01*
X0101737Y0039600D01*
X0102578Y0040441D01*
X0103400Y0042426D01*
X0103400Y0044574D01*
X0102578Y0046559D01*
X0101737Y0047400D01*
X0136716Y0047400D01*
X0138039Y0047948D01*
X0138810Y0048719D01*
X0139451Y0048719D01*
X0141208Y0049447D01*
X0142553Y0050792D01*
X0143281Y0052549D01*
X0143281Y0054451D01*
X0142553Y0056208D01*
X0141208Y0057553D01*
X0139451Y0058281D01*
X0137549Y0058281D01*
X0135792Y0057553D01*
X0134447Y0056208D01*
X0133781Y0054600D01*
X0118095Y0054600D01*
X0118281Y0055049D01*
X0118281Y0056951D01*
X0117553Y0058708D01*
X0116208Y0060053D01*
X0114451Y0060781D01*
X0112549Y0060781D01*
X0110792Y0060053D01*
X0110338Y0059600D01*
X0106361Y0059600D01*
X0107553Y0060792D01*
X0108281Y0062549D01*
X0108281Y0064451D01*
X0107553Y0066208D01*
X0106208Y0067553D01*
X0104451Y0068281D01*
X0102549Y0068281D01*
X0100792Y0067553D01*
X0100338Y0067100D01*
X0081361Y0067100D01*
X0082553Y0068292D01*
X0083281Y0070049D01*
X0083281Y0070690D01*
X0093810Y0081219D01*
X0094451Y0081219D01*
X0096208Y0081947D01*
X0097553Y0083292D01*
X0098281Y0085049D01*
X0098281Y0086951D01*
X0097553Y0088708D01*
X0096208Y0090053D01*
X0094451Y0090781D01*
X0092549Y0090781D01*
X0090792Y0090053D01*
X0089447Y0088708D01*
X0088719Y0086951D01*
X0088719Y0086310D01*
X0078190Y0075781D01*
X0077549Y0075781D01*
X0075792Y0075053D01*
X0074447Y0073708D01*
X0073719Y0071951D01*
X0073719Y0070872D01*
X0069600Y0074991D01*
X0069600Y0115338D01*
X0070053Y0115792D01*
X0070781Y0117549D01*
X0070781Y0119451D01*
X0070053Y0121208D01*
X0069600Y0121661D01*
X0069600Y0160338D01*
X0070053Y0160792D01*
X0070781Y0162549D01*
X0070781Y0164451D01*
X0070053Y0166208D01*
X0068708Y0167553D01*
X0066951Y0168281D01*
X0065049Y0168281D01*
X0065038Y0168277D01*
X0065053Y0168292D01*
X0065781Y0170049D01*
X0065781Y0171951D01*
X0065053Y0173708D01*
X0063708Y0175053D01*
X0061951Y0175781D01*
X0060049Y0175781D01*
X0058292Y0175053D01*
X0056947Y0173708D01*
X0056219Y0171951D01*
X0056219Y0170781D01*
X0055049Y0170781D01*
X0053292Y0170053D01*
X0051947Y0168708D01*
X0051219Y0166951D01*
X0051219Y0165049D01*
X0051947Y0163292D01*
X0052400Y0162838D01*
X0052400Y0134600D01*
X0040284Y0134600D01*
X0038961Y0134052D01*
X0037948Y0133039D01*
X0035448Y0130539D01*
X0034900Y0129216D01*
X0034900Y0128527D01*
X0033500Y0127127D01*
X0031027Y0129600D01*
X0025973Y0129600D01*
X0022400Y0126027D01*
X0022400Y0120973D01*
X0024873Y0118500D01*
X0023500Y0117127D01*
X0021027Y0119600D01*
X0015973Y0119600D01*
X0012400Y0116027D01*
X0012400Y0110973D01*
X0015973Y0107400D01*
X0021027Y0107400D01*
X0023500Y0109873D01*
X0025973Y0107400D01*
X0031027Y0107400D01*
X0033500Y0109873D01*
X0035973Y0107400D01*
X0041027Y0107400D01*
X0043500Y0109873D01*
X0045973Y0107400D01*
X0051027Y0107400D01*
X0052400Y0108773D01*
X0052400Y0095595D01*
X0051951Y0095781D01*
X0050049Y0095781D01*
X0048292Y0095053D01*
X0046947Y0093708D01*
X0046219Y0091951D01*
X0046219Y0090049D01*
X0046947Y0088292D01*
X0047400Y0087838D01*
X0047400Y0065284D01*
X0047948Y0063961D01*
X0051219Y0060690D01*
X0051219Y0060049D01*
X0051947Y0058292D01*
X0053292Y0056947D01*
X0055049Y0056219D01*
X0056951Y0056219D01*
X0058708Y0056947D01*
X0060053Y0058292D01*
X0060365Y0059044D01*
X0070448Y0048961D01*
X0071461Y0047948D01*
X0072784Y0047400D01*
X0075263Y0047400D01*
X0074422Y0046559D01*
X0073600Y0044574D01*
X0073600Y0042426D01*
X0074422Y0040441D01*
X0075263Y0039600D01*
X0034991Y0039600D01*
X0012100Y0062491D01*
X0012100Y0063361D02*
X0048548Y0063361D01*
X0047400Y0065760D02*
X0032452Y0065760D01*
X0034851Y0068158D02*
X0047400Y0068158D01*
X0047400Y0070557D02*
X0035000Y0070557D01*
X0035000Y0072955D02*
X0047400Y0072955D01*
X0047400Y0075354D02*
X0033339Y0075354D01*
X0034445Y0077752D02*
X0047400Y0077752D01*
X0047400Y0080151D02*
X0035000Y0080151D01*
X0035000Y0082549D02*
X0047400Y0082549D01*
X0047400Y0084948D02*
X0033744Y0084948D01*
X0034039Y0087346D02*
X0047400Y0087346D01*
X0046345Y0089745D02*
X0035000Y0089745D01*
X0035000Y0092143D02*
X0046299Y0092143D01*
X0047780Y0094542D02*
X0034150Y0094542D01*
X0031752Y0096940D02*
X0052400Y0096940D01*
X0052400Y0099339D02*
X0006200Y0099339D01*
X0006200Y0101737D02*
X0052400Y0101737D01*
X0052400Y0104136D02*
X0006200Y0104136D01*
X0006200Y0106534D02*
X0052400Y0106534D01*
X0044440Y0108933D02*
X0042560Y0108933D01*
X0034440Y0108933D02*
X0032560Y0108933D01*
X0024440Y0108933D02*
X0022560Y0108933D01*
X0014440Y0108933D02*
X0006200Y0108933D01*
X0006200Y0111332D02*
X0012400Y0111332D01*
X0012400Y0113730D02*
X0006200Y0113730D01*
X0006200Y0116129D02*
X0012502Y0116129D01*
X0014900Y0118527D02*
X0006200Y0118527D01*
X0006200Y0120926D02*
X0022448Y0120926D01*
X0022400Y0123324D02*
X0006200Y0123324D01*
X0006200Y0125723D02*
X0022400Y0125723D01*
X0024494Y0128121D02*
X0006200Y0128121D01*
X0006200Y0130520D02*
X0035440Y0130520D01*
X0034494Y0128121D02*
X0032506Y0128121D01*
X0037827Y0132918D02*
X0006200Y0132918D01*
X0006200Y0135317D02*
X0052400Y0135317D01*
X0052400Y0137715D02*
X0006200Y0137715D01*
X0006200Y0140114D02*
X0052400Y0140114D01*
X0052400Y0142512D02*
X0006200Y0142512D01*
X0006200Y0144911D02*
X0052400Y0144911D01*
X0052400Y0147309D02*
X0006200Y0147309D01*
X0006200Y0149708D02*
X0052400Y0149708D01*
X0052400Y0152106D02*
X0006200Y0152106D01*
X0006200Y0154505D02*
X0052400Y0154505D01*
X0052400Y0156903D02*
X0028603Y0156903D01*
X0030472Y0159302D02*
X0052400Y0159302D01*
X0052400Y0161700D02*
X0030781Y0161700D01*
X0030000Y0164099D02*
X0051612Y0164099D01*
X0051219Y0166497D02*
X0043259Y0166497D01*
X0044531Y0168896D02*
X0052134Y0168896D01*
X0056219Y0171294D02*
X0044285Y0171294D01*
X0042569Y0173693D02*
X0056940Y0173693D01*
X0065060Y0173693D02*
X0072000Y0173693D01*
X0072000Y0176091D02*
X0039248Y0176091D01*
X0041647Y0178490D02*
X0072000Y0178490D01*
X0076000Y0183500D02*
X0041000Y0183500D01*
X0033500Y0176000D01*
X0039750Y0169750D01*
X0036241Y0166497D02*
X0030000Y0166497D01*
X0032053Y0168896D02*
X0034947Y0168896D01*
X0033500Y0176000D02*
X0026000Y0168500D01*
X0026000Y0161000D01*
X0021528Y0159302D02*
X0006200Y0159302D01*
X0006200Y0161700D02*
X0021219Y0161700D01*
X0022000Y0164099D02*
X0006200Y0164099D01*
X0006200Y0166497D02*
X0022000Y0166497D01*
X0022000Y0168896D02*
X0006200Y0168896D01*
X0006200Y0171294D02*
X0023137Y0171294D01*
X0025536Y0173693D02*
X0006200Y0173693D01*
X0006200Y0176091D02*
X0027934Y0176091D01*
X0030333Y0178490D02*
X0006200Y0178490D01*
X0006200Y0180888D02*
X0032731Y0180888D01*
X0035130Y0183287D02*
X0006200Y0183287D01*
X0006200Y0185685D02*
X0037529Y0185685D01*
X0066219Y0195279D02*
X0006200Y0195279D01*
X0006200Y0192881D02*
X0067358Y0192881D01*
X0070861Y0190482D02*
X0006200Y0190482D01*
X0006200Y0188084D02*
X0072000Y0188084D01*
X0076000Y0191000D02*
X0071000Y0196000D01*
X0066520Y0197678D02*
X0006200Y0197678D01*
X0006200Y0200076D02*
X0068348Y0200076D01*
X0073652Y0200076D02*
X0389501Y0200076D01*
X0389501Y0197678D02*
X0075480Y0197678D01*
X0077377Y0195279D02*
X0389501Y0195279D01*
X0389501Y0192881D02*
X0079550Y0192881D01*
X0080000Y0190482D02*
X0389501Y0190482D01*
X0389501Y0188084D02*
X0080000Y0188084D01*
X0080000Y0185685D02*
X0389501Y0185685D01*
X0389501Y0183287D02*
X0080000Y0183287D01*
X0080000Y0180888D02*
X0389501Y0180888D01*
X0389501Y0178490D02*
X0080000Y0178490D01*
X0080000Y0176091D02*
X0389501Y0176091D01*
X0389501Y0173693D02*
X0080000Y0173693D01*
X0080000Y0171294D02*
X0389501Y0171294D01*
X0389501Y0168896D02*
X0080000Y0168896D01*
X0080000Y0166497D02*
X0227305Y0166497D01*
X0227318Y0166510D02*
X0225490Y0164682D01*
X0224500Y0162293D01*
X0224500Y0159707D01*
X0225490Y0157318D01*
X0226808Y0156000D01*
X0225490Y0154682D01*
X0224500Y0152293D01*
X0224500Y0149707D01*
X0225490Y0147318D01*
X0227318Y0145490D01*
X0229707Y0144500D01*
X0232293Y0144500D01*
X0234682Y0145490D01*
X0236510Y0147318D01*
X0237500Y0149707D01*
X0237500Y0152293D01*
X0236510Y0154682D01*
X0235192Y0156000D01*
X0236510Y0157318D01*
X0237500Y0159707D01*
X0237500Y0162293D01*
X0236510Y0164682D01*
X0234682Y0166510D01*
X0232293Y0167500D01*
X0229707Y0167500D01*
X0227318Y0166510D01*
X0225248Y0164099D02*
X0080000Y0164099D01*
X0080000Y0161700D02*
X0224500Y0161700D01*
X0224668Y0159302D02*
X0080000Y0159302D01*
X0080000Y0156903D02*
X0225904Y0156903D01*
X0225416Y0154505D02*
X0080000Y0154505D01*
X0080000Y0152106D02*
X0224500Y0152106D01*
X0224500Y0149708D02*
X0080000Y0149708D01*
X0080000Y0147309D02*
X0225498Y0147309D01*
X0228716Y0144911D02*
X0080246Y0144911D01*
X0082645Y0142512D02*
X0093251Y0142512D01*
X0096000Y0138500D02*
X0081000Y0138500D01*
X0076000Y0143500D01*
X0076000Y0183500D01*
X0076000Y0191000D01*
X0072000Y0171294D02*
X0065781Y0171294D01*
X0065303Y0168896D02*
X0072000Y0168896D01*
X0072000Y0166497D02*
X0069764Y0166497D01*
X0070781Y0164099D02*
X0072000Y0164099D01*
X0072000Y0161700D02*
X0070430Y0161700D01*
X0069600Y0159302D02*
X0072000Y0159302D01*
X0072000Y0156903D02*
X0069600Y0156903D01*
X0069600Y0154505D02*
X0072000Y0154505D01*
X0072000Y0152106D02*
X0069600Y0152106D01*
X0069600Y0149708D02*
X0072000Y0149708D01*
X0072000Y0147309D02*
X0069600Y0147309D01*
X0069600Y0144911D02*
X0072000Y0144911D01*
X0072080Y0142512D02*
X0069600Y0142512D01*
X0069600Y0140114D02*
X0073729Y0140114D01*
X0076128Y0137715D02*
X0069600Y0137715D01*
X0069600Y0135317D02*
X0076428Y0135317D01*
X0074119Y0132918D02*
X0069600Y0132918D01*
X0069600Y0130520D02*
X0073719Y0130520D01*
X0074617Y0128121D02*
X0069600Y0128121D01*
X0069600Y0125723D02*
X0078686Y0125723D01*
X0081085Y0123324D02*
X0069600Y0123324D01*
X0070170Y0120926D02*
X0083483Y0120926D01*
X0085882Y0118527D02*
X0070781Y0118527D01*
X0070193Y0116129D02*
X0088280Y0116129D01*
X0090679Y0113730D02*
X0069600Y0113730D01*
X0069600Y0111332D02*
X0092070Y0111332D01*
X0091219Y0108933D02*
X0069600Y0108933D01*
X0069600Y0106534D02*
X0074773Y0106534D01*
X0073719Y0104136D02*
X0069600Y0104136D01*
X0069600Y0101737D02*
X0074055Y0101737D01*
X0075077Y0099339D02*
X0069600Y0099339D01*
X0069600Y0096940D02*
X0073719Y0096940D01*
X0073929Y0094542D02*
X0069600Y0094542D01*
X0069600Y0092143D02*
X0075595Y0092143D01*
X0081405Y0092143D02*
X0129765Y0092143D01*
X0132164Y0089745D02*
X0096517Y0089745D01*
X0098117Y0087346D02*
X0134562Y0087346D01*
X0136961Y0084948D02*
X0098239Y0084948D01*
X0096811Y0082549D02*
X0139359Y0082549D01*
X0141758Y0080151D02*
X0092742Y0080151D01*
X0090344Y0077752D02*
X0144156Y0077752D01*
X0144900Y0075354D02*
X0087945Y0075354D01*
X0085547Y0072955D02*
X0144900Y0072955D01*
X0144900Y0070557D02*
X0083281Y0070557D01*
X0082420Y0068158D02*
X0102253Y0068158D01*
X0104747Y0068158D02*
X0144900Y0068158D01*
X0144261Y0065760D02*
X0107739Y0065760D01*
X0108281Y0063361D02*
X0143719Y0063361D01*
X0144376Y0060963D02*
X0107624Y0060963D01*
X0117613Y0058564D02*
X0174900Y0058564D01*
X0174900Y0060963D02*
X0152624Y0060963D01*
X0153281Y0063361D02*
X0174900Y0063361D01*
X0174900Y0065760D02*
X0152739Y0065760D01*
X0152100Y0068158D02*
X0174900Y0068158D01*
X0174900Y0070557D02*
X0152100Y0070557D01*
X0152100Y0072955D02*
X0174900Y0072955D01*
X0174900Y0075354D02*
X0152100Y0075354D01*
X0152100Y0077752D02*
X0174900Y0077752D01*
X0174900Y0080151D02*
X0151713Y0080151D01*
X0149542Y0082549D02*
X0174900Y0082549D01*
X0174900Y0084948D02*
X0147143Y0084948D01*
X0144745Y0087346D02*
X0174900Y0087346D01*
X0174900Y0089745D02*
X0142346Y0089745D01*
X0139948Y0092143D02*
X0174900Y0092143D01*
X0174900Y0094542D02*
X0137549Y0094542D01*
X0135151Y0096940D02*
X0173971Y0096940D01*
X0173719Y0099339D02*
X0132346Y0099339D01*
X0117819Y0108933D02*
X0186681Y0108933D01*
X0186219Y0111332D02*
X0118923Y0111332D01*
X0121321Y0113730D02*
X0186969Y0113730D01*
X0191000Y0111000D02*
X0191000Y0091000D01*
X0188500Y0088500D01*
X0188500Y0076000D01*
X0198500Y0066000D01*
X0198500Y0058500D01*
X0166000Y0026000D01*
X0136000Y0026000D01*
X0131000Y0021000D01*
X0131000Y0016000D01*
X0125102Y0012993D02*
X0031340Y0012993D01*
X0032725Y0015391D02*
X0124400Y0015391D01*
X0124597Y0017790D02*
X0033444Y0017790D01*
X0033759Y0020188D02*
X0125854Y0020188D01*
X0127328Y0022587D02*
X0033711Y0022587D01*
X0033068Y0024985D02*
X0129328Y0024985D01*
X0131727Y0027384D02*
X0031914Y0027384D01*
X0030077Y0029782D02*
X0134678Y0029782D01*
X0146146Y0020188D02*
X0262400Y0020188D01*
X0262400Y0017790D02*
X0147403Y0017790D01*
X0147600Y0015391D02*
X0262400Y0015391D01*
X0262400Y0012993D02*
X0153365Y0012993D01*
X0156822Y0010594D02*
X0263815Y0010594D01*
X0263961Y0010448D02*
X0265284Y0009900D01*
X0339216Y0009900D01*
X0340539Y0010448D01*
X0341552Y0011461D01*
X0342100Y0012784D01*
X0342100Y0014216D01*
X0342100Y0041716D01*
X0341552Y0043039D01*
X0340539Y0044052D01*
X0339216Y0044600D01*
X0265284Y0044600D01*
X0263961Y0044052D01*
X0262948Y0043039D01*
X0262400Y0041716D01*
X0262400Y0012784D01*
X0262948Y0011461D01*
X0263961Y0010448D01*
X0262400Y0022587D02*
X0168212Y0022587D01*
X0170642Y0024985D02*
X0262400Y0024985D01*
X0262400Y0027384D02*
X0173040Y0027384D01*
X0175439Y0029782D02*
X0262400Y0029782D01*
X0262400Y0032181D02*
X0177837Y0032181D01*
X0180236Y0034579D02*
X0262400Y0034579D01*
X0262400Y0036978D02*
X0182635Y0036978D01*
X0185033Y0039376D02*
X0262400Y0039376D01*
X0262424Y0041775D02*
X0187432Y0041775D01*
X0189830Y0044173D02*
X0264254Y0044173D01*
X0275426Y0070600D02*
X0277574Y0070600D01*
X0279559Y0071422D01*
X0281078Y0072941D01*
X0281900Y0074926D01*
X0281900Y0077074D01*
X0281078Y0079059D01*
X0279559Y0080578D01*
X0277574Y0081400D01*
X0275426Y0081400D01*
X0273441Y0080578D01*
X0271922Y0079059D01*
X0271100Y0077074D01*
X0271100Y0074926D01*
X0271922Y0072941D01*
X0273441Y0071422D01*
X0275426Y0070600D01*
X0271916Y0072955D02*
X0209136Y0072955D01*
X0211534Y0070557D02*
X0323286Y0070557D01*
X0320888Y0072955D02*
X0300084Y0072955D01*
X0300078Y0072941D02*
X0300900Y0074926D01*
X0300900Y0077074D01*
X0300078Y0079059D01*
X0298559Y0080578D01*
X0296574Y0081400D01*
X0294426Y0081400D01*
X0292441Y0080578D01*
X0290922Y0079059D01*
X0290100Y0077074D01*
X0290100Y0074926D01*
X0290922Y0072941D01*
X0292441Y0071422D01*
X0294426Y0070600D01*
X0296574Y0070600D01*
X0298559Y0071422D01*
X0300078Y0072941D01*
X0300900Y0075354D02*
X0318489Y0075354D01*
X0316091Y0077752D02*
X0300619Y0077752D01*
X0298986Y0080151D02*
X0313692Y0080151D01*
X0311294Y0082549D02*
X0199542Y0082549D01*
X0198075Y0084948D02*
X0308895Y0084948D01*
X0306497Y0087346D02*
X0301608Y0087346D01*
X0301208Y0086947D02*
X0302553Y0088292D01*
X0303281Y0090049D01*
X0303281Y0090562D01*
X0348734Y0045109D01*
X0350204Y0044500D01*
X0370738Y0044500D01*
X0370792Y0044447D01*
X0372549Y0043719D01*
X0374451Y0043719D01*
X0376208Y0044447D01*
X0377553Y0045792D01*
X0378281Y0047549D01*
X0378281Y0049451D01*
X0377553Y0051208D01*
X0376208Y0052553D01*
X0374451Y0053281D01*
X0372549Y0053281D01*
X0370792Y0052553D01*
X0370738Y0052500D01*
X0352657Y0052500D01*
X0299391Y0105766D01*
X0298266Y0106891D01*
X0296796Y0107500D01*
X0238761Y0107500D01*
X0238708Y0107553D01*
X0236951Y0108281D01*
X0235049Y0108281D01*
X0233292Y0107553D01*
X0231947Y0106208D01*
X0231219Y0104451D01*
X0231219Y0102549D01*
X0231947Y0100792D01*
X0233292Y0099447D01*
X0235049Y0098719D01*
X0236951Y0098719D01*
X0238708Y0099447D01*
X0238761Y0099500D01*
X0294343Y0099500D01*
X0298062Y0095781D01*
X0297549Y0095781D01*
X0295792Y0095053D01*
X0295338Y0094600D01*
X0284161Y0094600D01*
X0283708Y0095053D01*
X0281951Y0095781D01*
X0280049Y0095781D01*
X0278292Y0095053D01*
X0276947Y0093708D01*
X0276219Y0091951D01*
X0276219Y0090049D01*
X0276947Y0088292D01*
X0278292Y0086947D01*
X0280049Y0086219D01*
X0281951Y0086219D01*
X0283708Y0086947D01*
X0284161Y0087400D01*
X0295338Y0087400D01*
X0295792Y0086947D01*
X0297549Y0086219D01*
X0299451Y0086219D01*
X0301208Y0086947D01*
X0303155Y0089745D02*
X0304098Y0089745D01*
X0310615Y0094542D02*
X0356257Y0094542D01*
X0356219Y0094451D02*
X0356219Y0092549D01*
X0356947Y0090792D01*
X0358292Y0089447D01*
X0360049Y0088719D01*
X0361951Y0088719D01*
X0363708Y0089447D01*
X0364161Y0089900D01*
X0372838Y0089900D01*
X0373292Y0089447D01*
X0375049Y0088719D01*
X0376951Y0088719D01*
X0378708Y0089447D01*
X0380053Y0090792D01*
X0380781Y0092549D01*
X0380781Y0094451D01*
X0380053Y0096208D01*
X0378708Y0097553D01*
X0376951Y0098281D01*
X0375049Y0098281D01*
X0373292Y0097553D01*
X0372838Y0097100D01*
X0364161Y0097100D01*
X0363708Y0097553D01*
X0361951Y0098281D01*
X0360049Y0098281D01*
X0358292Y0097553D01*
X0356947Y0096208D01*
X0356219Y0094451D01*
X0356387Y0092143D02*
X0313013Y0092143D01*
X0315412Y0089745D02*
X0357994Y0089745D01*
X0364006Y0089745D02*
X0372994Y0089745D01*
X0379006Y0089745D02*
X0389501Y0089745D01*
X0389501Y0092143D02*
X0380613Y0092143D01*
X0380743Y0094542D02*
X0389501Y0094542D01*
X0389501Y0096940D02*
X0379321Y0096940D01*
X0389501Y0099339D02*
X0305818Y0099339D01*
X0308216Y0096940D02*
X0357679Y0096940D01*
X0332202Y0072955D02*
X0389501Y0072955D01*
X0389501Y0070557D02*
X0334600Y0070557D01*
X0336999Y0068158D02*
X0389501Y0068158D01*
X0389501Y0065760D02*
X0339397Y0065760D01*
X0341796Y0063361D02*
X0389501Y0063361D01*
X0389501Y0060963D02*
X0344194Y0060963D01*
X0346593Y0058564D02*
X0389501Y0058564D01*
X0389501Y0056166D02*
X0348991Y0056166D01*
X0351390Y0053767D02*
X0389501Y0053767D01*
X0389501Y0051369D02*
X0377393Y0051369D01*
X0378281Y0048970D02*
X0389501Y0048970D01*
X0389501Y0046572D02*
X0377876Y0046572D01*
X0375548Y0044173D02*
X0389501Y0044173D01*
X0389501Y0041775D02*
X0342076Y0041775D01*
X0342100Y0039376D02*
X0389501Y0039376D01*
X0389501Y0036978D02*
X0342100Y0036978D01*
X0342100Y0034579D02*
X0389501Y0034579D01*
X0389501Y0032181D02*
X0381253Y0032181D01*
X0380062Y0032868D02*
X0376737Y0033759D01*
X0373295Y0033759D01*
X0369969Y0032868D01*
X0366988Y0031147D01*
X0364554Y0028713D01*
X0362833Y0025731D01*
X0361942Y0022406D01*
X0361942Y0018964D01*
X0362833Y0015639D01*
X0364554Y0012657D01*
X0366988Y0010223D01*
X0369969Y0008502D01*
X0373295Y0007611D01*
X0376737Y0007611D01*
X0380062Y0008502D01*
X0383043Y0010223D01*
X0385478Y0012657D01*
X0387199Y0015639D01*
X0388090Y0018964D01*
X0388090Y0022406D01*
X0387199Y0025731D01*
X0385478Y0028713D01*
X0383043Y0031147D01*
X0380062Y0032868D01*
X0384408Y0029782D02*
X0389501Y0029782D01*
X0389501Y0027384D02*
X0386245Y0027384D01*
X0387399Y0024985D02*
X0389501Y0024985D01*
X0389501Y0022587D02*
X0388041Y0022587D01*
X0388090Y0020188D02*
X0389501Y0020188D01*
X0389501Y0017790D02*
X0387775Y0017790D01*
X0387056Y0015391D02*
X0389501Y0015391D01*
X0389501Y0012993D02*
X0385671Y0012993D01*
X0383414Y0010594D02*
X0389501Y0010594D01*
X0389501Y0008196D02*
X0378918Y0008196D01*
X0371113Y0008196D02*
X0158063Y0008196D01*
X0148635Y0012993D02*
X0146898Y0012993D01*
X0125178Y0010594D02*
X0029083Y0010594D01*
X0024588Y0008196D02*
X0123937Y0008196D01*
X0103130Y0041775D02*
X0166684Y0041775D01*
X0169082Y0044173D02*
X0103400Y0044173D01*
X0102565Y0046572D02*
X0171481Y0046572D01*
X0173879Y0048970D02*
X0150058Y0048970D01*
X0146942Y0048970D02*
X0140058Y0048970D01*
X0142792Y0051369D02*
X0144208Y0051369D01*
X0143719Y0053767D02*
X0143281Y0053767D01*
X0142571Y0056166D02*
X0144429Y0056166D01*
X0134429Y0056166D02*
X0118281Y0056166D01*
X0087357Y0084948D02*
X0069600Y0084948D01*
X0069600Y0087346D02*
X0088883Y0087346D01*
X0090483Y0089745D02*
X0069600Y0089745D01*
X0069600Y0082549D02*
X0084958Y0082549D01*
X0082560Y0080151D02*
X0069600Y0080151D01*
X0069600Y0077752D02*
X0080161Y0077752D01*
X0076518Y0075354D02*
X0069600Y0075354D01*
X0071636Y0072955D02*
X0074135Y0072955D01*
X0060845Y0058564D02*
X0060166Y0058564D01*
X0063243Y0056166D02*
X0018425Y0056166D01*
X0016027Y0058564D02*
X0051834Y0058564D01*
X0050946Y0060963D02*
X0013628Y0060963D01*
X0014548Y0065760D02*
X0012100Y0065760D01*
X0012100Y0068158D02*
X0012149Y0068158D01*
X0022452Y0065760D02*
X0024548Y0065760D01*
X0020824Y0053767D02*
X0065642Y0053767D01*
X0068040Y0051369D02*
X0023222Y0051369D01*
X0025621Y0048970D02*
X0070439Y0048970D01*
X0074435Y0046572D02*
X0028019Y0046572D01*
X0030418Y0044173D02*
X0073600Y0044173D01*
X0073870Y0041775D02*
X0032816Y0041775D01*
X0026922Y0032181D02*
X0166524Y0032181D01*
X0192229Y0046572D02*
X0347271Y0046572D01*
X0344873Y0048970D02*
X0194627Y0048970D01*
X0197026Y0051369D02*
X0342474Y0051369D01*
X0340076Y0053767D02*
X0199424Y0053767D01*
X0201823Y0056166D02*
X0337677Y0056166D01*
X0335279Y0058564D02*
X0220166Y0058564D01*
X0220781Y0060963D02*
X0332880Y0060963D01*
X0330482Y0063361D02*
X0220197Y0063361D01*
X0217002Y0065760D02*
X0328083Y0065760D01*
X0325685Y0068158D02*
X0213933Y0068158D01*
X0208548Y0063361D02*
X0202500Y0063361D01*
X0202500Y0060963D02*
X0210946Y0060963D01*
X0211834Y0058564D02*
X0202500Y0058564D01*
X0202500Y0065760D02*
X0206149Y0065760D01*
X0203751Y0068158D02*
X0201936Y0068158D01*
X0201352Y0070557D02*
X0199600Y0070557D01*
X0198953Y0072955D02*
X0197202Y0072955D01*
X0196555Y0075354D02*
X0194803Y0075354D01*
X0194156Y0077752D02*
X0192500Y0077752D01*
X0201940Y0080151D02*
X0273014Y0080151D01*
X0271381Y0077752D02*
X0204339Y0077752D01*
X0206737Y0075354D02*
X0271100Y0075354D01*
X0279986Y0080151D02*
X0292014Y0080151D01*
X0290381Y0077752D02*
X0281619Y0077752D01*
X0281900Y0075354D02*
X0290100Y0075354D01*
X0290916Y0072955D02*
X0281084Y0072955D01*
X0284108Y0087346D02*
X0295392Y0087346D01*
X0296903Y0096940D02*
X0195000Y0096940D01*
X0195000Y0094542D02*
X0277780Y0094542D01*
X0276299Y0092143D02*
X0195000Y0092143D01*
X0194810Y0089745D02*
X0276345Y0089745D01*
X0277892Y0087346D02*
X0196415Y0087346D01*
X0195000Y0099339D02*
X0203552Y0099339D01*
X0203292Y0099447D02*
X0205049Y0098719D01*
X0206951Y0098719D01*
X0208708Y0099447D01*
X0209161Y0099900D01*
X0217838Y0099900D01*
X0218292Y0099447D01*
X0220049Y0098719D01*
X0221951Y0098719D01*
X0223708Y0099447D01*
X0225053Y0100792D01*
X0225781Y0102549D01*
X0225781Y0104451D01*
X0225053Y0106208D01*
X0223708Y0107553D01*
X0221951Y0108281D01*
X0220049Y0108281D01*
X0218292Y0107553D01*
X0217838Y0107100D01*
X0209161Y0107100D01*
X0208708Y0107553D01*
X0206951Y0108281D01*
X0205049Y0108281D01*
X0203292Y0107553D01*
X0201947Y0106208D01*
X0201219Y0104451D01*
X0201219Y0102549D01*
X0201947Y0100792D01*
X0203292Y0099447D01*
X0201555Y0101737D02*
X0195000Y0101737D01*
X0195000Y0104136D02*
X0201219Y0104136D01*
X0202273Y0106534D02*
X0195000Y0106534D01*
X0195319Y0108933D02*
X0389501Y0108933D01*
X0389501Y0106534D02*
X0298622Y0106534D01*
X0301021Y0104136D02*
X0389501Y0104136D01*
X0389501Y0101737D02*
X0303419Y0101737D01*
X0296000Y0103500D02*
X0236000Y0103500D01*
X0231555Y0101737D02*
X0225445Y0101737D01*
X0225781Y0104136D02*
X0231219Y0104136D01*
X0232273Y0106534D02*
X0224727Y0106534D01*
X0223448Y0099339D02*
X0233552Y0099339D01*
X0238448Y0099339D02*
X0294504Y0099339D01*
X0296000Y0103500D02*
X0351000Y0048500D01*
X0373500Y0048500D01*
X0371452Y0044173D02*
X0340246Y0044173D01*
X0342100Y0032181D02*
X0368779Y0032181D01*
X0365623Y0029782D02*
X0342100Y0029782D01*
X0342100Y0027384D02*
X0363787Y0027384D01*
X0362633Y0024985D02*
X0342100Y0024985D01*
X0342100Y0022587D02*
X0361990Y0022587D01*
X0361942Y0020188D02*
X0342100Y0020188D01*
X0342100Y0017790D02*
X0362256Y0017790D01*
X0362976Y0015391D02*
X0342100Y0015391D01*
X0342100Y0012993D02*
X0364360Y0012993D01*
X0366617Y0010594D02*
X0340685Y0010594D01*
X0329803Y0075354D02*
X0389501Y0075354D01*
X0389501Y0077752D02*
X0327404Y0077752D01*
X0325006Y0080151D02*
X0389501Y0080151D01*
X0389501Y0082549D02*
X0322607Y0082549D01*
X0320209Y0084948D02*
X0389501Y0084948D01*
X0389501Y0087346D02*
X0317810Y0087346D01*
X0339391Y0120926D02*
X0260781Y0120926D01*
X0260212Y0123324D02*
X0338019Y0123324D01*
X0335621Y0125723D02*
X0257092Y0125723D01*
X0262383Y0128121D02*
X0333222Y0128121D01*
X0330824Y0130520D02*
X0263281Y0130520D01*
X0262881Y0132918D02*
X0328425Y0132918D01*
X0328500Y0138500D02*
X0191000Y0138500D01*
X0163500Y0138500D01*
X0118500Y0138500D01*
X0096000Y0138500D01*
X0098749Y0142512D02*
X0115751Y0142512D01*
X0121249Y0142512D02*
X0160751Y0142512D01*
X0166249Y0142512D02*
X0188251Y0142512D01*
X0193749Y0142512D02*
X0389501Y0142512D01*
X0389501Y0140114D02*
X0332543Y0140114D01*
X0334942Y0137715D02*
X0389501Y0137715D01*
X0389501Y0135317D02*
X0337340Y0135317D01*
X0339739Y0132918D02*
X0389501Y0132918D01*
X0389501Y0130520D02*
X0342137Y0130520D01*
X0344837Y0128121D02*
X0377163Y0128121D01*
X0379837Y0128121D02*
X0389501Y0128121D01*
X0389501Y0125723D02*
X0382754Y0125723D01*
X0383281Y0123324D02*
X0389501Y0123324D01*
X0389501Y0120926D02*
X0382609Y0120926D01*
X0378500Y0123500D02*
X0343500Y0123500D01*
X0328500Y0138500D01*
X0322784Y0147400D02*
X0352838Y0147400D01*
X0353292Y0146947D01*
X0355049Y0146219D01*
X0356951Y0146219D01*
X0358708Y0146947D01*
X0360053Y0148292D01*
X0360781Y0150049D01*
X0360781Y0151951D01*
X0360053Y0153708D01*
X0358708Y0155053D01*
X0356951Y0155781D01*
X0355049Y0155781D01*
X0353292Y0155053D01*
X0352838Y0154600D01*
X0324991Y0154600D01*
X0318281Y0161310D01*
X0318281Y0161951D01*
X0317553Y0163708D01*
X0316208Y0165053D01*
X0314451Y0165781D01*
X0312549Y0165781D01*
X0310792Y0165053D01*
X0309447Y0163708D01*
X0308719Y0161951D01*
X0308719Y0160049D01*
X0309447Y0158292D01*
X0310792Y0156947D01*
X0312549Y0156219D01*
X0313190Y0156219D01*
X0321461Y0147948D01*
X0322784Y0147400D01*
X0319701Y0149708D02*
X0237500Y0149708D01*
X0237500Y0152106D02*
X0317303Y0152106D01*
X0314904Y0154505D02*
X0236584Y0154505D01*
X0236096Y0156903D02*
X0310897Y0156903D01*
X0309028Y0159302D02*
X0237332Y0159302D01*
X0237500Y0161700D02*
X0308719Y0161700D01*
X0309837Y0164099D02*
X0236752Y0164099D01*
X0234695Y0166497D02*
X0389501Y0166497D01*
X0389501Y0164099D02*
X0317163Y0164099D01*
X0318281Y0161700D02*
X0389501Y0161700D01*
X0389501Y0159302D02*
X0320289Y0159302D01*
X0322688Y0156903D02*
X0389501Y0156903D01*
X0389501Y0154505D02*
X0359257Y0154505D01*
X0360717Y0152106D02*
X0389501Y0152106D01*
X0389501Y0149708D02*
X0360640Y0149708D01*
X0359071Y0147309D02*
X0389501Y0147309D01*
X0389501Y0144911D02*
X0233284Y0144911D01*
X0236502Y0147309D02*
X0352929Y0147309D01*
X0389501Y0118527D02*
X0260151Y0118527D01*
X0218552Y0099339D02*
X0208448Y0099339D01*
X0195781Y0111332D02*
X0389501Y0111332D01*
X0389501Y0113730D02*
X0195031Y0113730D01*
X0208905Y0124600D02*
X0122784Y0124600D01*
X0121461Y0124052D01*
X0120448Y0123039D01*
X0113190Y0115781D01*
X0112549Y0115781D01*
X0110792Y0115053D01*
X0109600Y0113861D01*
X0109600Y0124509D01*
X0111310Y0126219D01*
X0111951Y0126219D01*
X0113708Y0126947D01*
X0115053Y0128292D01*
X0115781Y0130049D01*
X0115781Y0131951D01*
X0115053Y0133708D01*
X0114261Y0134500D01*
X0115738Y0134500D01*
X0115792Y0134447D01*
X0117549Y0133719D01*
X0119451Y0133719D01*
X0121208Y0134447D01*
X0121261Y0134500D01*
X0160738Y0134500D01*
X0160792Y0134447D01*
X0162549Y0133719D01*
X0164451Y0133719D01*
X0166208Y0134447D01*
X0166261Y0134500D01*
X0170239Y0134500D01*
X0169447Y0133708D01*
X0168719Y0131951D01*
X0168719Y0130049D01*
X0169447Y0128292D01*
X0170792Y0126947D01*
X0172549Y0126219D01*
X0174451Y0126219D01*
X0176208Y0126947D01*
X0176661Y0127400D01*
X0208905Y0127400D01*
X0208719Y0126951D01*
X0208719Y0125049D01*
X0208905Y0124600D01*
X0208719Y0125723D02*
X0110814Y0125723D01*
X0109600Y0123324D02*
X0120733Y0123324D01*
X0118334Y0120926D02*
X0109600Y0120926D01*
X0109600Y0118527D02*
X0115936Y0118527D01*
X0113537Y0116129D02*
X0109600Y0116129D01*
X0114883Y0128121D02*
X0169617Y0128121D01*
X0168719Y0130520D02*
X0115781Y0130520D01*
X0115381Y0132918D02*
X0169119Y0132918D01*
X0123720Y0116129D02*
X0389501Y0116129D01*
X0282250Y0231000D02*
X0262250Y0211000D01*
X0196000Y0211000D01*
X0231000Y0218500D02*
X0231000Y0232250D01*
X0246000Y0247250D01*
X0241000Y0248047D02*
X0261000Y0248047D01*
X0261000Y0250445D02*
X0241000Y0250445D01*
X0241000Y0252844D02*
X0261000Y0252844D01*
X0261000Y0255242D02*
X0241000Y0255242D01*
X0241000Y0257641D02*
X0261000Y0257641D01*
X0261000Y0258500D02*
X0261000Y0231000D01*
X0246000Y0231000D01*
X0241000Y0236000D01*
X0241000Y0288500D01*
X0248500Y0296000D01*
X0266000Y0296000D01*
X0271000Y0291000D01*
X0271000Y0268500D01*
X0261000Y0258500D01*
X0262539Y0260039D02*
X0241000Y0260039D01*
X0241000Y0262438D02*
X0264938Y0262438D01*
X0267336Y0264836D02*
X0241000Y0264836D01*
X0241000Y0267235D02*
X0269735Y0267235D01*
X0271000Y0269633D02*
X0241000Y0269633D01*
X0241000Y0272032D02*
X0271000Y0272032D01*
X0271000Y0274430D02*
X0241000Y0274430D01*
X0241000Y0276829D02*
X0271000Y0276829D01*
X0271000Y0279227D02*
X0241000Y0279227D01*
X0241000Y0281626D02*
X0271000Y0281626D01*
X0271000Y0284024D02*
X0241000Y0284024D01*
X0241000Y0286423D02*
X0271000Y0286423D01*
X0271000Y0288821D02*
X0241321Y0288821D01*
X0243720Y0291220D02*
X0270780Y0291220D01*
X0268382Y0293618D02*
X0246118Y0293618D01*
X0291000Y0293618D02*
X0346000Y0293618D01*
X0346000Y0296000D02*
X0346000Y0278500D01*
X0341000Y0273500D01*
X0296000Y0273500D01*
X0291000Y0278500D01*
X0291000Y0296000D01*
X0296000Y0301000D01*
X0341000Y0301000D01*
X0346000Y0296000D01*
X0345983Y0296017D02*
X0291017Y0296017D01*
X0293415Y0298415D02*
X0343585Y0298415D01*
X0341186Y0300814D02*
X0295814Y0300814D01*
X0291000Y0291220D02*
X0346000Y0291220D01*
X0346000Y0288821D02*
X0291000Y0288821D01*
X0291000Y0286423D02*
X0346000Y0286423D01*
X0346000Y0284024D02*
X0291000Y0284024D01*
X0291000Y0281626D02*
X0346000Y0281626D01*
X0346000Y0279227D02*
X0291000Y0279227D01*
X0292671Y0276829D02*
X0344329Y0276829D01*
X0341930Y0274430D02*
X0295070Y0274430D01*
X0281000Y0256000D02*
X0276000Y0251000D01*
X0276000Y0228500D01*
X0323500Y0228500D01*
X0326000Y0231000D01*
X0326000Y0253500D01*
X0323500Y0256000D01*
X0281000Y0256000D01*
X0280242Y0255242D02*
X0324258Y0255242D01*
X0326000Y0252844D02*
X0277844Y0252844D01*
X0276000Y0250445D02*
X0326000Y0250445D01*
X0326000Y0248047D02*
X0276000Y0248047D01*
X0276000Y0245648D02*
X0326000Y0245648D01*
X0326000Y0243250D02*
X0276000Y0243250D01*
X0276000Y0240851D02*
X0326000Y0240851D01*
X0326000Y0238453D02*
X0276000Y0238453D01*
X0276000Y0236054D02*
X0326000Y0236054D01*
X0326000Y0233656D02*
X0276000Y0233656D01*
X0276000Y0231257D02*
X0326000Y0231257D01*
X0323859Y0228859D02*
X0276000Y0228859D01*
X0261000Y0231257D02*
X0245743Y0231257D01*
X0243344Y0233656D02*
X0261000Y0233656D01*
X0261000Y0236054D02*
X0241000Y0236054D01*
X0241000Y0238453D02*
X0261000Y0238453D01*
X0261000Y0240851D02*
X0241000Y0240851D01*
X0241000Y0243250D02*
X0261000Y0243250D01*
X0261000Y0245648D02*
X0241000Y0245648D01*
X0346000Y0245648D02*
X0389501Y0245648D01*
X0389501Y0243250D02*
X0346000Y0243250D01*
X0346000Y0240851D02*
X0389501Y0240851D01*
X0389501Y0238453D02*
X0346000Y0238453D01*
X0346000Y0236054D02*
X0389501Y0236054D01*
X0389501Y0233656D02*
X0346000Y0233656D01*
X0346000Y0231257D02*
X0389501Y0231257D01*
X0389501Y0229501D02*
X0381000Y0221000D01*
X0351000Y0221000D01*
X0346000Y0226000D01*
X0346000Y0256000D01*
X0361000Y0271000D01*
X0361000Y0301000D01*
X0366000Y0306000D01*
X0383500Y0306000D01*
X0389501Y0299999D01*
X0389501Y0229501D01*
X0388859Y0228859D02*
X0346000Y0228859D01*
X0346000Y0226460D02*
X0386460Y0226460D01*
X0384062Y0224062D02*
X0347938Y0224062D01*
X0350337Y0221663D02*
X0381663Y0221663D01*
X0389501Y0248047D02*
X0346000Y0248047D01*
X0346000Y0250445D02*
X0389501Y0250445D01*
X0389501Y0252844D02*
X0346000Y0252844D01*
X0346000Y0255242D02*
X0389501Y0255242D01*
X0389501Y0257641D02*
X0347641Y0257641D01*
X0350039Y0260039D02*
X0389501Y0260039D01*
X0389501Y0262438D02*
X0352438Y0262438D01*
X0354836Y0264836D02*
X0389501Y0264836D01*
X0389501Y0267235D02*
X0357235Y0267235D01*
X0359633Y0269633D02*
X0389501Y0269633D01*
X0389501Y0272032D02*
X0361000Y0272032D01*
X0361000Y0274430D02*
X0389501Y0274430D01*
X0389501Y0276829D02*
X0361000Y0276829D01*
X0361000Y0279227D02*
X0389501Y0279227D01*
X0389501Y0281626D02*
X0361000Y0281626D01*
X0361000Y0284024D02*
X0389501Y0284024D01*
X0389501Y0286423D02*
X0361000Y0286423D01*
X0361000Y0288821D02*
X0389501Y0288821D01*
X0389501Y0291220D02*
X0361000Y0291220D01*
X0361000Y0293618D02*
X0389501Y0293618D01*
X0389501Y0296017D02*
X0361000Y0296017D01*
X0361000Y0298415D02*
X0389501Y0298415D01*
X0388686Y0300814D02*
X0361000Y0300814D01*
X0363212Y0303212D02*
X0386288Y0303212D01*
X0383889Y0305611D02*
X0365611Y0305611D01*
X0096000Y0281000D02*
X0081000Y0281000D01*
X0071000Y0271000D01*
X0071000Y0251000D01*
X0071000Y0216000D01*
X0071000Y0251000D02*
X0041000Y0251000D01*
X0026000Y0251000D01*
X0023397Y0156903D02*
X0006200Y0156903D01*
X0022100Y0118527D02*
X0024846Y0118527D01*
X0025248Y0096940D02*
X0021752Y0096940D01*
X0015248Y0096940D02*
X0006200Y0096940D01*
X0006200Y0094542D02*
X0012850Y0094542D01*
X0012000Y0092143D02*
X0006200Y0092143D01*
X0006200Y0089745D02*
X0012000Y0089745D01*
X0012961Y0087346D02*
X0006200Y0087346D01*
X0006200Y0084948D02*
X0013256Y0084948D01*
X0009958Y0082549D02*
X0006200Y0082549D01*
X0006200Y0080151D02*
X0007560Y0080151D01*
D20*
X0051000Y0091000D03*
X0061000Y0108500D03*
X0066000Y0118500D03*
X0078500Y0131000D03*
X0096000Y0138500D03*
X0101000Y0126000D03*
X0099750Y0117250D03*
X0096000Y0108500D03*
X0106000Y0108500D03*
X0113500Y0111000D03*
X0111000Y0131000D03*
X0118500Y0138500D03*
X0138500Y0131000D03*
X0146000Y0131000D03*
X0138500Y0146000D03*
X0163500Y0138500D03*
X0173500Y0131000D03*
X0191000Y0138500D03*
X0201000Y0126000D03*
X0213500Y0126000D03*
X0191000Y0111000D03*
X0183500Y0103500D03*
X0178500Y0098500D03*
X0193500Y0083500D03*
X0206000Y0103500D03*
X0221000Y0103500D03*
X0236000Y0103500D03*
X0248500Y0083500D03*
X0216000Y0061000D03*
X0211000Y0056000D03*
X0188500Y0058500D03*
X0148500Y0053500D03*
X0138500Y0053500D03*
X0148500Y0063500D03*
X0113500Y0056000D03*
X0103500Y0063500D03*
X0093500Y0086000D03*
X0078500Y0096000D03*
X0078500Y0103500D03*
X0078500Y0071000D03*
X0056000Y0061000D03*
X0041000Y0043500D03*
X0041000Y0026000D03*
X0066000Y0026000D03*
X0146000Y0096000D03*
X0156000Y0098500D03*
X0101000Y0158500D03*
X0066000Y0163500D03*
X0061000Y0171000D03*
X0056000Y0166000D03*
X0039750Y0169750D03*
X0026000Y0161000D03*
X0071000Y0196000D03*
X0071000Y0216000D03*
X0041000Y0251000D03*
X0026000Y0251000D03*
X0013500Y0229750D03*
X0016000Y0198500D03*
X0086000Y0271000D03*
X0096000Y0281000D03*
X0111000Y0271000D03*
X0196000Y0211000D03*
X0231000Y0218500D03*
X0247250Y0234750D03*
X0246000Y0247250D03*
X0257250Y0247250D03*
X0258500Y0262250D03*
X0258500Y0272250D03*
X0268500Y0276000D03*
X0246000Y0276000D03*
X0246000Y0288500D03*
X0246000Y0262250D03*
X0281000Y0251000D03*
X0302250Y0247250D03*
X0302250Y0234750D03*
X0282250Y0231000D03*
X0323500Y0233500D03*
X0323500Y0251000D03*
X0331000Y0277250D03*
X0318500Y0278500D03*
X0318500Y0286000D03*
X0318500Y0293500D03*
X0332250Y0297250D03*
X0306000Y0276000D03*
X0301000Y0297250D03*
X0353500Y0257250D03*
X0366000Y0252250D03*
X0367250Y0264750D03*
X0366000Y0277250D03*
X0381000Y0271000D03*
X0381000Y0258500D03*
X0366000Y0234750D03*
X0351000Y0226000D03*
X0381000Y0226000D03*
X0333500Y0196000D03*
X0313500Y0161000D03*
X0356000Y0151000D03*
X0358500Y0131000D03*
X0343500Y0123500D03*
X0363500Y0116000D03*
X0378500Y0123500D03*
X0376000Y0093500D03*
X0361000Y0093500D03*
X0351000Y0063500D03*
X0373500Y0048500D03*
X0298500Y0091000D03*
X0281000Y0091000D03*
X0256000Y0121000D03*
X0251000Y0126000D03*
X0258500Y0131000D03*
X0286000Y0051000D03*
X0146000Y0196000D03*
X0366000Y0301000D03*
X0381000Y0301000D03*
D21*
X0313500Y0161000D02*
X0323500Y0151000D01*
X0356000Y0151000D01*
X0361000Y0093500D02*
X0376000Y0093500D01*
X0298500Y0091000D02*
X0281000Y0091000D01*
X0256000Y0121000D02*
X0123500Y0121000D01*
X0113500Y0111000D01*
X0106000Y0108500D02*
X0106000Y0126000D01*
X0111000Y0131000D01*
X0101000Y0126000D02*
X0101000Y0118500D01*
X0099750Y0117250D01*
X0096000Y0113500D02*
X0078500Y0131000D01*
X0066000Y0118500D02*
X0066000Y0073500D01*
X0076000Y0063500D01*
X0103500Y0063500D01*
X0113500Y0056000D02*
X0076000Y0056000D01*
X0061000Y0071000D01*
X0061000Y0108500D01*
X0061000Y0171000D01*
X0056000Y0166000D02*
X0056000Y0131000D01*
X0041000Y0131000D01*
X0038500Y0128500D01*
X0038500Y0123500D01*
X0056000Y0131000D02*
X0056000Y0068500D01*
X0073500Y0051000D01*
X0136000Y0051000D01*
X0138500Y0053500D01*
X0148500Y0053500D02*
X0176000Y0053500D01*
X0178500Y0056000D01*
X0178500Y0098500D01*
X0183500Y0103500D02*
X0078500Y0103500D01*
X0078500Y0096000D02*
X0131000Y0096000D01*
X0148500Y0078500D01*
X0148500Y0063500D01*
X0166000Y0036000D02*
X0188500Y0058500D01*
X0193500Y0083500D02*
X0216000Y0061000D01*
X0221000Y0103500D02*
X0206000Y0103500D01*
X0213500Y0126000D02*
X0251000Y0126000D01*
X0258500Y0131000D02*
X0173500Y0131000D01*
X0096000Y0113500D02*
X0096000Y0108500D01*
X0093500Y0086000D02*
X0078500Y0071000D01*
X0056000Y0061000D02*
X0051000Y0066000D01*
X0051000Y0091000D01*
X0018500Y0081000D02*
X0013500Y0081000D01*
X0008500Y0076000D01*
X0008500Y0061000D01*
X0033500Y0036000D01*
X0166000Y0036000D01*
X0066000Y0118500D02*
X0066000Y0163500D01*
X0070129Y0211619D02*
X0071871Y0211619D01*
X0073482Y0212286D01*
X0074714Y0213518D01*
X0075381Y0215129D01*
X0075381Y0216871D01*
X0074714Y0218482D01*
X0074600Y0218596D01*
X0074600Y0269509D01*
X0082491Y0277400D01*
X0093404Y0277400D01*
X0093518Y0277286D01*
X0095129Y0276619D01*
X0096871Y0276619D01*
X0098482Y0277286D01*
X0099714Y0278518D01*
X0100381Y0280129D01*
X0100381Y0281871D01*
X0099714Y0283482D01*
X0098482Y0284714D01*
X0096871Y0285381D01*
X0095129Y0285381D01*
X0093518Y0284714D01*
X0093404Y0284600D01*
X0080284Y0284600D01*
X0078961Y0284052D01*
X0077948Y0283039D01*
X0067948Y0273039D01*
X0067400Y0271716D01*
X0067400Y0254600D01*
X0043596Y0254600D01*
X0043482Y0254714D01*
X0041871Y0255381D01*
X0040129Y0255381D01*
X0038518Y0254714D01*
X0038404Y0254600D01*
X0028596Y0254600D01*
X0028482Y0254714D01*
X0026871Y0255381D01*
X0025129Y0255381D01*
X0023518Y0254714D01*
X0022286Y0253482D01*
X0021619Y0251871D01*
X0021619Y0250129D01*
X0022286Y0248518D01*
X0023518Y0247286D01*
X0025129Y0246619D01*
X0026871Y0246619D01*
X0028482Y0247286D01*
X0028596Y0247400D01*
X0038404Y0247400D01*
X0038518Y0247286D01*
X0040129Y0246619D01*
X0041871Y0246619D01*
X0043482Y0247286D01*
X0043596Y0247400D01*
X0067400Y0247400D01*
X0067400Y0218596D01*
X0067286Y0218482D01*
X0066619Y0216871D01*
X0066619Y0215129D01*
X0067286Y0213518D01*
X0068518Y0212286D01*
X0070129Y0211619D01*
X0069200Y0212003D02*
X0006000Y0212003D01*
X0006000Y0211000D02*
X0131871Y0211000D01*
X0130922Y0212643D01*
X0130058Y0215867D01*
X0130058Y0219204D01*
X0130922Y0222427D01*
X0132591Y0225317D01*
X0133500Y0226227D01*
X0133500Y0311161D01*
X0006000Y0311161D01*
X0006000Y0211000D01*
X0006000Y0213602D02*
X0067251Y0213602D01*
X0066619Y0215201D02*
X0006000Y0215201D01*
X0006000Y0216799D02*
X0066619Y0216799D01*
X0067251Y0218398D02*
X0006000Y0218398D01*
X0006000Y0219996D02*
X0067400Y0219996D01*
X0067400Y0221595D02*
X0006000Y0221595D01*
X0006000Y0223193D02*
X0067400Y0223193D01*
X0067400Y0224792D02*
X0006000Y0224792D01*
X0006000Y0226390D02*
X0067400Y0226390D01*
X0067400Y0227989D02*
X0006000Y0227989D01*
X0006000Y0229587D02*
X0067400Y0229587D01*
X0067400Y0231186D02*
X0006000Y0231186D01*
X0006000Y0232784D02*
X0067400Y0232784D01*
X0067400Y0234383D02*
X0006000Y0234383D01*
X0006000Y0235981D02*
X0067400Y0235981D01*
X0067400Y0237580D02*
X0006000Y0237580D01*
X0006000Y0239178D02*
X0067400Y0239178D01*
X0067400Y0240777D02*
X0006000Y0240777D01*
X0006000Y0242375D02*
X0067400Y0242375D01*
X0067400Y0243974D02*
X0006000Y0243974D01*
X0006000Y0245572D02*
X0067400Y0245572D01*
X0067400Y0247171D02*
X0043204Y0247171D01*
X0038796Y0247171D02*
X0028204Y0247171D01*
X0023796Y0247171D02*
X0006000Y0247171D01*
X0006000Y0248769D02*
X0022182Y0248769D01*
X0021619Y0250368D02*
X0006000Y0250368D01*
X0006000Y0251966D02*
X0021658Y0251966D01*
X0022369Y0253565D02*
X0006000Y0253565D01*
X0006000Y0255163D02*
X0024603Y0255163D01*
X0027397Y0255163D02*
X0039603Y0255163D01*
X0042397Y0255163D02*
X0067400Y0255163D01*
X0067400Y0256762D02*
X0006000Y0256762D01*
X0006000Y0258360D02*
X0067400Y0258360D01*
X0067400Y0259959D02*
X0006000Y0259959D01*
X0006000Y0261557D02*
X0067400Y0261557D01*
X0067400Y0263156D02*
X0006000Y0263156D01*
X0006000Y0264754D02*
X0067400Y0264754D01*
X0067400Y0266353D02*
X0006000Y0266353D01*
X0006000Y0267951D02*
X0067400Y0267951D01*
X0067400Y0269550D02*
X0006000Y0269550D01*
X0006000Y0271148D02*
X0067400Y0271148D01*
X0067827Y0272747D02*
X0006000Y0272747D01*
X0006000Y0274345D02*
X0069254Y0274345D01*
X0070853Y0275944D02*
X0006000Y0275944D01*
X0006000Y0277542D02*
X0072451Y0277542D01*
X0074050Y0279141D02*
X0006000Y0279141D01*
X0006000Y0280739D02*
X0075648Y0280739D01*
X0077247Y0282338D02*
X0006000Y0282338D01*
X0006000Y0283937D02*
X0040002Y0283937D01*
X0041139Y0282800D02*
X0045861Y0282800D01*
X0048500Y0285439D01*
X0051139Y0282800D01*
X0055861Y0282800D01*
X0058500Y0285439D01*
X0061139Y0282800D01*
X0065861Y0282800D01*
X0069200Y0286139D01*
X0069200Y0290861D01*
X0066561Y0293500D01*
X0068500Y0295439D01*
X0071139Y0292800D01*
X0075861Y0292800D01*
X0079200Y0296139D01*
X0079200Y0300861D01*
X0075861Y0304200D01*
X0071139Y0304200D01*
X0068500Y0301561D01*
X0065861Y0304200D01*
X0061139Y0304200D01*
X0058500Y0301561D01*
X0055861Y0304200D01*
X0051139Y0304200D01*
X0048500Y0301561D01*
X0045861Y0304200D01*
X0041139Y0304200D01*
X0037800Y0300861D01*
X0037800Y0296139D01*
X0040439Y0293500D01*
X0037800Y0290861D01*
X0037800Y0286139D01*
X0041139Y0282800D01*
X0038404Y0285535D02*
X0006000Y0285535D01*
X0006000Y0287134D02*
X0037800Y0287134D01*
X0037800Y0288732D02*
X0006000Y0288732D01*
X0006000Y0290331D02*
X0037800Y0290331D01*
X0038868Y0291929D02*
X0006000Y0291929D01*
X0006000Y0293528D02*
X0040411Y0293528D01*
X0038813Y0295126D02*
X0006000Y0295126D01*
X0006000Y0296725D02*
X0037800Y0296725D01*
X0037800Y0298323D02*
X0006000Y0298323D01*
X0006000Y0299922D02*
X0037800Y0299922D01*
X0038459Y0301520D02*
X0006000Y0301520D01*
X0006000Y0303119D02*
X0040058Y0303119D01*
X0046942Y0303119D02*
X0050058Y0303119D01*
X0056942Y0303119D02*
X0060058Y0303119D01*
X0066942Y0303119D02*
X0070058Y0303119D01*
X0076942Y0303119D02*
X0133500Y0303119D01*
X0133500Y0304717D02*
X0006000Y0304717D01*
X0006000Y0306316D02*
X0133500Y0306316D01*
X0133500Y0307914D02*
X0006000Y0307914D01*
X0006000Y0309513D02*
X0133500Y0309513D01*
X0133500Y0311111D02*
X0006000Y0311111D01*
X0046998Y0283937D02*
X0050002Y0283937D01*
X0056998Y0283937D02*
X0060002Y0283937D01*
X0066998Y0283937D02*
X0078845Y0283937D01*
X0081035Y0275944D02*
X0133500Y0275944D01*
X0133500Y0277542D02*
X0098738Y0277542D01*
X0099972Y0279141D02*
X0133500Y0279141D01*
X0133500Y0280739D02*
X0100381Y0280739D01*
X0100188Y0282338D02*
X0133500Y0282338D01*
X0133500Y0283937D02*
X0099259Y0283937D01*
X0079437Y0274345D02*
X0133500Y0274345D01*
X0133500Y0272747D02*
X0077838Y0272747D01*
X0076240Y0271148D02*
X0133500Y0271148D01*
X0133500Y0269550D02*
X0074641Y0269550D01*
X0074600Y0267951D02*
X0133500Y0267951D01*
X0133500Y0266353D02*
X0074600Y0266353D01*
X0074600Y0264754D02*
X0133500Y0264754D01*
X0133500Y0263156D02*
X0074600Y0263156D01*
X0074600Y0261557D02*
X0133500Y0261557D01*
X0133500Y0259959D02*
X0074600Y0259959D01*
X0074600Y0258360D02*
X0133500Y0258360D01*
X0133500Y0256762D02*
X0074600Y0256762D01*
X0074600Y0255163D02*
X0133500Y0255163D01*
X0133500Y0253565D02*
X0074600Y0253565D01*
X0074600Y0251966D02*
X0133500Y0251966D01*
X0133500Y0250368D02*
X0074600Y0250368D01*
X0074600Y0248769D02*
X0133500Y0248769D01*
X0133500Y0247171D02*
X0074600Y0247171D01*
X0074600Y0245572D02*
X0133500Y0245572D01*
X0133500Y0243974D02*
X0074600Y0243974D01*
X0074600Y0242375D02*
X0133500Y0242375D01*
X0133500Y0240777D02*
X0074600Y0240777D01*
X0074600Y0239178D02*
X0133500Y0239178D01*
X0133500Y0237580D02*
X0074600Y0237580D01*
X0074600Y0235981D02*
X0133500Y0235981D01*
X0133500Y0234383D02*
X0074600Y0234383D01*
X0074600Y0232784D02*
X0133500Y0232784D01*
X0133500Y0231186D02*
X0074600Y0231186D01*
X0074600Y0229587D02*
X0133500Y0229587D01*
X0133500Y0227989D02*
X0074600Y0227989D01*
X0074600Y0226390D02*
X0133500Y0226390D01*
X0132287Y0224792D02*
X0074600Y0224792D01*
X0074600Y0223193D02*
X0131364Y0223193D01*
X0130699Y0221595D02*
X0074600Y0221595D01*
X0074600Y0219996D02*
X0130271Y0219996D01*
X0130058Y0218398D02*
X0074749Y0218398D01*
X0075381Y0216799D02*
X0130058Y0216799D01*
X0130237Y0215201D02*
X0075381Y0215201D01*
X0074749Y0213602D02*
X0130665Y0213602D01*
X0131291Y0212003D02*
X0072800Y0212003D01*
X0068596Y0285535D02*
X0133500Y0285535D01*
X0133500Y0287134D02*
X0069200Y0287134D01*
X0069200Y0288732D02*
X0133500Y0288732D01*
X0133500Y0290331D02*
X0069200Y0290331D01*
X0068132Y0291929D02*
X0133500Y0291929D01*
X0133500Y0293528D02*
X0076589Y0293528D01*
X0078187Y0295126D02*
X0133500Y0295126D01*
X0133500Y0296725D02*
X0079200Y0296725D01*
X0079200Y0298323D02*
X0133500Y0298323D01*
X0133500Y0299922D02*
X0079200Y0299922D01*
X0078541Y0301520D02*
X0133500Y0301520D01*
X0070411Y0293528D02*
X0066589Y0293528D01*
X0068187Y0295126D02*
X0068813Y0295126D01*
M02*
