G75*
%MOIN*%
%OFA0B0*%
%FSLAX25Y25*%
%IPPOS*%
%LPD*%
%AMOC8*
5,1,8,0,0,1.08239X$1,22.5*
%
%ADD10C,0.13398*%
%ADD11R,0.05800X0.03000*%
%ADD12R,0.03000X0.05800*%
%ADD13R,0.02500X0.07300*%
%ADD14C,0.08200*%
%ADD15R,0.07099X0.07887*%
%ADD16R,0.07887X0.07099*%
%ADD17R,0.02900X0.08600*%
%ADD18C,0.10800*%
%ADD19OC8,0.08200*%
%ADD20C,0.06000*%
%ADD21R,0.06312X0.13792*%
%ADD22R,0.08674X0.07099*%
%ADD23R,0.06800X0.03800*%
%ADD24R,0.08595X0.02887*%
%ADD25R,0.03162X0.09461*%
%ADD26R,0.07100X0.05400*%
%ADD27R,0.07200X0.00600*%
%ADD28OC8,0.07400*%
%ADD29C,0.10800*%
%ADD30C,0.32296*%
%ADD31R,0.13300X0.13300*%
%ADD32C,0.08400*%
%ADD33C,0.05131*%
%ADD34C,0.04762*%
D10*
X0020685Y0020685D03*
X0020685Y0296276D03*
X0375016Y0020685D03*
D11*
X0376100Y0164800D03*
X0376100Y0168500D03*
X0376100Y0172200D03*
X0365900Y0172200D03*
X0365900Y0168500D03*
X0365900Y0164800D03*
X0140400Y0092024D03*
X0140400Y0088874D03*
X0140400Y0085724D03*
X0140400Y0082575D03*
X0140400Y0079425D03*
X0140400Y0076276D03*
X0140400Y0073126D03*
X0140400Y0069976D03*
X0106600Y0069976D03*
X0106600Y0073126D03*
X0106600Y0076276D03*
X0106600Y0079425D03*
X0106600Y0082575D03*
X0106600Y0085724D03*
X0106600Y0088874D03*
X0106600Y0092024D03*
D12*
X0112476Y0097900D03*
X0115626Y0097900D03*
X0118776Y0097900D03*
X0121925Y0097900D03*
X0125075Y0097900D03*
X0128224Y0097900D03*
X0131374Y0097900D03*
X0134524Y0097900D03*
X0134524Y0064100D03*
X0131374Y0064100D03*
X0128224Y0064100D03*
X0125075Y0064100D03*
X0121925Y0064100D03*
X0118776Y0064100D03*
X0115626Y0064100D03*
X0112476Y0064100D03*
X0364800Y0075900D03*
X0372200Y0075900D03*
X0372200Y0086100D03*
X0368500Y0086100D03*
X0364800Y0086100D03*
D13*
X0312600Y0111700D03*
X0310100Y0111700D03*
X0307500Y0111700D03*
X0305000Y0111700D03*
X0302400Y0111700D03*
X0299800Y0111700D03*
X0297300Y0111700D03*
X0294700Y0111700D03*
X0292200Y0111700D03*
X0289600Y0111700D03*
X0287000Y0111700D03*
X0284500Y0111700D03*
X0281900Y0111700D03*
X0279400Y0111700D03*
X0279400Y0140300D03*
X0281900Y0140300D03*
X0284500Y0140300D03*
X0287000Y0140300D03*
X0289600Y0140300D03*
X0292200Y0140300D03*
X0294700Y0140300D03*
X0297300Y0140300D03*
X0299800Y0140300D03*
X0302400Y0140300D03*
X0305000Y0140300D03*
X0307500Y0140300D03*
X0310100Y0140300D03*
X0312600Y0140300D03*
D14*
X0331000Y0118500D03*
X0331000Y0108500D03*
X0331000Y0098500D03*
X0331000Y0088500D03*
X0238500Y0151000D03*
X0238500Y0161000D03*
X0158185Y0113815D03*
X0148185Y0113815D03*
X0156000Y0251000D03*
X0166000Y0251000D03*
X0176000Y0251000D03*
X0203500Y0251000D03*
X0213500Y0251000D03*
X0223500Y0251000D03*
X0223500Y0291000D03*
X0213500Y0291000D03*
X0203500Y0291000D03*
X0176000Y0291000D03*
X0166000Y0291000D03*
X0156000Y0291000D03*
D15*
X0121512Y0261000D03*
X0110488Y0261000D03*
X0096512Y0261000D03*
X0085488Y0261000D03*
X0085488Y0246000D03*
X0096512Y0246000D03*
X0110488Y0246000D03*
X0121512Y0246000D03*
X0132988Y0186000D03*
X0144012Y0186000D03*
X0119012Y0166000D03*
X0107988Y0166000D03*
X0094012Y0166000D03*
X0082988Y0166000D03*
X0082988Y0151000D03*
X0094012Y0151000D03*
X0107988Y0151000D03*
X0119012Y0151000D03*
X0079012Y0081000D03*
X0067988Y0081000D03*
X0162988Y0051000D03*
X0174012Y0051000D03*
X0212988Y0078500D03*
X0224012Y0078500D03*
X0330488Y0173500D03*
X0341512Y0173500D03*
X0341512Y0186000D03*
X0330488Y0186000D03*
X0316512Y0186000D03*
X0305488Y0186000D03*
X0305488Y0176000D03*
X0316512Y0176000D03*
X0316512Y0196000D03*
X0305488Y0196000D03*
X0284012Y0196000D03*
X0284012Y0186000D03*
X0272988Y0186000D03*
X0261512Y0186000D03*
X0261512Y0196000D03*
X0272988Y0196000D03*
X0250488Y0196000D03*
X0250488Y0186000D03*
X0236512Y0186000D03*
X0236512Y0196000D03*
X0225488Y0196000D03*
X0225488Y0186000D03*
X0362988Y0106000D03*
X0374012Y0106000D03*
X0376512Y0138500D03*
X0376512Y0148500D03*
X0365488Y0148500D03*
X0365488Y0138500D03*
X0365488Y0186000D03*
X0376512Y0186000D03*
X0371512Y0063500D03*
X0360488Y0063500D03*
D16*
X0348500Y0095488D03*
X0348500Y0106512D03*
X0296000Y0056512D03*
X0296000Y0045488D03*
X0276000Y0045488D03*
X0276000Y0056512D03*
X0261000Y0092988D03*
X0261000Y0104012D03*
X0248500Y0104012D03*
X0248500Y0092988D03*
X0173500Y0084012D03*
X0173500Y0072988D03*
X0156000Y0077988D03*
X0156000Y0089012D03*
X0096000Y0029012D03*
X0096000Y0017988D03*
X0081000Y0017988D03*
X0081000Y0029012D03*
X0116000Y0026512D03*
X0116000Y0015488D03*
X0026000Y0142988D03*
X0026000Y0154012D03*
X0041000Y0150488D03*
X0041000Y0161512D03*
X0026000Y0170488D03*
X0026000Y0181512D03*
X0026000Y0230488D03*
X0026000Y0241512D03*
X0041000Y0255488D03*
X0041000Y0266512D03*
X0026000Y0271512D03*
X0026000Y0260488D03*
X0133500Y0169012D03*
X0133500Y0157988D03*
D17*
X0118500Y0187500D03*
X0113500Y0187500D03*
X0108500Y0187500D03*
X0103500Y0187500D03*
X0098500Y0187500D03*
X0093500Y0187500D03*
X0088500Y0187500D03*
X0083500Y0187500D03*
X0083500Y0224500D03*
X0088500Y0224500D03*
X0093500Y0224500D03*
X0098500Y0224500D03*
X0103500Y0224500D03*
X0108500Y0224500D03*
X0113500Y0224500D03*
X0118500Y0224500D03*
D18*
X0289748Y0236000D02*
X0289748Y0246000D01*
X0316362Y0246000D02*
X0316362Y0236000D01*
X0354386Y0236000D02*
X0354386Y0246000D01*
X0381000Y0246000D02*
X0381000Y0236000D01*
D19*
X0028500Y0091000D03*
X0028500Y0081000D03*
X0028500Y0071000D03*
X0018500Y0071000D03*
X0018500Y0081000D03*
X0018500Y0091000D03*
D20*
X0079000Y0043500D03*
X0098000Y0043500D03*
X0276500Y0076000D03*
X0295500Y0076000D03*
D21*
X0275587Y0217535D03*
X0261413Y0217535D03*
X0261413Y0234465D03*
X0275587Y0234465D03*
D22*
X0223500Y0265488D03*
X0223500Y0276512D03*
X0203500Y0276512D03*
X0203500Y0265488D03*
X0176000Y0265488D03*
X0176000Y0276512D03*
X0156000Y0276512D03*
X0156000Y0265488D03*
X0166000Y0231512D03*
X0166000Y0220488D03*
X0213500Y0220488D03*
X0213500Y0231512D03*
D23*
X0034500Y0058500D03*
X0034500Y0043500D03*
X0012500Y0043500D03*
X0012500Y0058500D03*
D24*
X0155055Y0146000D03*
X0155055Y0151000D03*
X0155055Y0156000D03*
X0155055Y0161000D03*
X0155055Y0166000D03*
X0155055Y0171000D03*
X0155055Y0176000D03*
X0155055Y0181000D03*
X0155055Y0186000D03*
X0155055Y0191000D03*
X0191945Y0191000D03*
X0191945Y0186000D03*
X0191945Y0181000D03*
X0191945Y0176000D03*
X0191945Y0171000D03*
X0191945Y0166000D03*
X0191945Y0161000D03*
X0191945Y0156000D03*
X0191945Y0151000D03*
X0191945Y0146000D03*
D25*
X0063500Y0195764D03*
X0058500Y0195764D03*
X0053500Y0195764D03*
X0048500Y0195764D03*
X0043500Y0195764D03*
X0038500Y0195764D03*
X0033500Y0195764D03*
X0028500Y0195764D03*
X0028500Y0216236D03*
X0033500Y0216236D03*
X0038500Y0216236D03*
X0043500Y0216236D03*
X0048500Y0216236D03*
X0053500Y0216236D03*
X0058500Y0216236D03*
X0063500Y0216236D03*
D26*
X0238500Y0139000D03*
X0238500Y0133000D03*
X0238500Y0121500D03*
X0238500Y0115500D03*
D27*
X0238500Y0118500D03*
X0238500Y0136000D03*
D28*
X0048500Y0123500D03*
X0048500Y0113500D03*
X0038500Y0113500D03*
X0028500Y0113500D03*
X0028500Y0123500D03*
X0038500Y0123500D03*
X0018500Y0123500D03*
X0018500Y0113500D03*
X0053500Y0288500D03*
X0053500Y0298500D03*
X0063500Y0298500D03*
X0073500Y0298500D03*
X0073500Y0288500D03*
X0063500Y0288500D03*
X0083500Y0288500D03*
X0083500Y0298500D03*
D29*
X0261315Y0284750D03*
X0300685Y0284750D03*
X0336315Y0284750D03*
X0375685Y0284750D03*
D30*
X0211000Y0026000D03*
D31*
X0180000Y0026000D03*
X0242000Y0026000D03*
D32*
X0151000Y0016000D03*
X0141000Y0016000D03*
X0131000Y0016000D03*
D33*
X0131000Y0006000D03*
X0141000Y0006000D03*
X0151000Y0006000D03*
D34*
X0148500Y0053500D03*
X0138500Y0053500D03*
X0148500Y0063500D03*
X0181000Y0058500D03*
X0203500Y0061000D03*
X0211000Y0056000D03*
X0193500Y0083500D03*
X0178500Y0098500D03*
X0183500Y0103500D03*
X0191000Y0111000D03*
X0198500Y0113500D03*
X0206000Y0103500D03*
X0221000Y0103500D03*
X0236000Y0103500D03*
X0248500Y0083500D03*
X0281000Y0091000D03*
X0298500Y0091000D03*
X0256000Y0121000D03*
X0251000Y0126000D03*
X0258500Y0131000D03*
X0213500Y0126000D03*
X0191000Y0138500D03*
X0173500Y0131000D03*
X0167250Y0138500D03*
X0138500Y0132250D03*
X0138500Y0146000D03*
X0118500Y0138500D03*
X0111000Y0131000D03*
X0101000Y0126000D03*
X0099750Y0117250D03*
X0096000Y0108500D03*
X0106000Y0108500D03*
X0111000Y0113500D03*
X0116000Y0111000D03*
X0121000Y0113500D03*
X0146000Y0096000D03*
X0156000Y0098500D03*
X0103500Y0063500D03*
X0113500Y0056000D03*
X0078500Y0071000D03*
X0093500Y0086000D03*
X0078500Y0096000D03*
X0078500Y0103500D03*
X0061000Y0108500D03*
X0066000Y0118500D03*
X0078500Y0131000D03*
X0088500Y0141000D03*
X0094750Y0133500D03*
X0101000Y0141000D03*
X0066000Y0163500D03*
X0061000Y0171000D03*
X0056000Y0166000D03*
X0039750Y0169750D03*
X0026000Y0162250D03*
X0013500Y0191000D03*
X0011000Y0227250D03*
X0026000Y0251000D03*
X0041000Y0246000D03*
X0071000Y0216000D03*
X0071000Y0196000D03*
X0146000Y0196000D03*
X0196000Y0211000D03*
X0231000Y0218500D03*
X0247250Y0234750D03*
X0246000Y0247250D03*
X0257250Y0247250D03*
X0258500Y0262250D03*
X0258500Y0272250D03*
X0268500Y0276000D03*
X0246000Y0276000D03*
X0246000Y0288500D03*
X0246000Y0262250D03*
X0281000Y0251000D03*
X0302250Y0247250D03*
X0302250Y0234750D03*
X0282250Y0231000D03*
X0323500Y0233500D03*
X0323500Y0251000D03*
X0331000Y0277250D03*
X0318500Y0278500D03*
X0318500Y0286000D03*
X0318500Y0293500D03*
X0332250Y0297250D03*
X0306000Y0276000D03*
X0301000Y0297250D03*
X0353500Y0257250D03*
X0366000Y0252250D03*
X0367250Y0264750D03*
X0366000Y0277250D03*
X0381000Y0271000D03*
X0381000Y0258500D03*
X0366000Y0234750D03*
X0351000Y0226000D03*
X0381000Y0226000D03*
X0333500Y0196000D03*
X0313500Y0161000D03*
X0351000Y0133500D03*
X0343500Y0123500D03*
X0363500Y0116000D03*
X0376000Y0123500D03*
X0378500Y0093500D03*
X0361000Y0093500D03*
X0351000Y0063500D03*
X0372250Y0048500D03*
X0286000Y0051000D03*
X0358500Y0161000D03*
X0366000Y0301000D03*
X0381000Y0301000D03*
X0111000Y0271000D03*
X0096000Y0281000D03*
X0086000Y0271000D03*
X0051000Y0091000D03*
X0056000Y0061000D03*
X0046000Y0043500D03*
X0046000Y0026000D03*
X0066000Y0026000D03*
M02*
