G75*
%MOIN*%
%OFA0B0*%
%FSLAX25Y25*%
%IPPOS*%
%LPD*%
%AMOC8*
5,1,8,0,0,1.08239X$1,22.5*
%
%ADD10C,0.16548*%
%ADD11C,0.08200*%
%ADD12C,0.10800*%
%ADD13OC8,0.08200*%
%ADD14C,0.06000*%
%ADD15OC8,0.07400*%
%ADD16C,0.10800*%
%ADD17C,0.08400*%
%ADD18C,0.05131*%
%ADD19C,0.04762*%
D10*
X0020685Y0020685D03*
X0142732Y0217535D03*
X0375016Y0020685D03*
D11*
X0231000Y0151000D03*
X0231000Y0161000D03*
X0223500Y0251000D03*
X0213500Y0251000D03*
X0203500Y0251000D03*
X0176000Y0251000D03*
X0166000Y0251000D03*
X0156000Y0251000D03*
X0156000Y0291000D03*
X0166000Y0291000D03*
X0176000Y0291000D03*
X0203500Y0291000D03*
X0213500Y0291000D03*
X0223500Y0291000D03*
D12*
X0289748Y0246000D02*
X0289748Y0236000D01*
X0316362Y0236000D02*
X0316362Y0246000D01*
X0354386Y0246000D02*
X0354386Y0236000D01*
X0381000Y0236000D02*
X0381000Y0246000D01*
D13*
X0028500Y0091000D03*
X0028500Y0081000D03*
X0028500Y0071000D03*
X0018500Y0071000D03*
X0018500Y0081000D03*
X0018500Y0091000D03*
D14*
X0079000Y0043500D03*
X0098000Y0043500D03*
X0276500Y0076000D03*
X0295500Y0076000D03*
D15*
X0048500Y0113500D03*
X0048500Y0123500D03*
X0038500Y0123500D03*
X0028500Y0123500D03*
X0028500Y0113500D03*
X0038500Y0113500D03*
X0018500Y0113500D03*
X0018500Y0123500D03*
X0043500Y0288500D03*
X0043500Y0298500D03*
X0053500Y0298500D03*
X0053500Y0288500D03*
X0063500Y0288500D03*
X0073500Y0288500D03*
X0073500Y0298500D03*
X0063500Y0298500D03*
D16*
X0261315Y0286000D03*
X0300685Y0286000D03*
X0336315Y0286000D03*
X0375685Y0286000D03*
D17*
X0151000Y0016000D03*
X0141000Y0016000D03*
X0131000Y0016000D03*
D18*
X0131000Y0006000D03*
X0141000Y0006000D03*
X0151000Y0006000D03*
D19*
X0148500Y0053500D03*
X0138500Y0053500D03*
X0148500Y0063500D03*
X0113500Y0056000D03*
X0103500Y0063500D03*
X0093500Y0086000D03*
X0078500Y0096000D03*
X0078500Y0103500D03*
X0061000Y0108500D03*
X0066000Y0118500D03*
X0078500Y0131000D03*
X0096000Y0138500D03*
X0101000Y0126000D03*
X0099750Y0117250D03*
X0096000Y0108500D03*
X0106000Y0108500D03*
X0113500Y0111000D03*
X0111000Y0131000D03*
X0118500Y0138500D03*
X0138500Y0131000D03*
X0146000Y0131000D03*
X0138500Y0146000D03*
X0163500Y0138500D03*
X0173500Y0131000D03*
X0191000Y0138500D03*
X0201000Y0126000D03*
X0213500Y0126000D03*
X0191000Y0111000D03*
X0183500Y0103500D03*
X0178500Y0098500D03*
X0193500Y0083500D03*
X0206000Y0103500D03*
X0221000Y0103500D03*
X0236000Y0103500D03*
X0248500Y0083500D03*
X0216000Y0061000D03*
X0211000Y0056000D03*
X0188500Y0058500D03*
X0146000Y0096000D03*
X0156000Y0098500D03*
X0101000Y0158500D03*
X0066000Y0163500D03*
X0061000Y0171000D03*
X0056000Y0166000D03*
X0039750Y0169750D03*
X0026000Y0161000D03*
X0071000Y0196000D03*
X0071000Y0216000D03*
X0041000Y0251000D03*
X0026000Y0251000D03*
X0013500Y0229750D03*
X0016000Y0198500D03*
X0086000Y0271000D03*
X0096000Y0281000D03*
X0111000Y0271000D03*
X0196000Y0211000D03*
X0231000Y0218500D03*
X0247250Y0234750D03*
X0246000Y0247250D03*
X0257250Y0247250D03*
X0258500Y0262250D03*
X0258500Y0272250D03*
X0268500Y0276000D03*
X0246000Y0276000D03*
X0246000Y0288500D03*
X0246000Y0262250D03*
X0281000Y0251000D03*
X0302250Y0247250D03*
X0302250Y0234750D03*
X0282250Y0231000D03*
X0323500Y0233500D03*
X0323500Y0251000D03*
X0331000Y0277250D03*
X0318500Y0278500D03*
X0318500Y0286000D03*
X0318500Y0293500D03*
X0332250Y0297250D03*
X0306000Y0276000D03*
X0301000Y0297250D03*
X0353500Y0257250D03*
X0366000Y0252250D03*
X0367250Y0264750D03*
X0366000Y0277250D03*
X0381000Y0271000D03*
X0381000Y0258500D03*
X0366000Y0234750D03*
X0351000Y0226000D03*
X0381000Y0226000D03*
X0333500Y0196000D03*
X0313500Y0161000D03*
X0356000Y0151000D03*
X0358500Y0131000D03*
X0343500Y0123500D03*
X0363500Y0116000D03*
X0378500Y0123500D03*
X0376000Y0093500D03*
X0361000Y0093500D03*
X0351000Y0063500D03*
X0373500Y0048500D03*
X0298500Y0091000D03*
X0281000Y0091000D03*
X0256000Y0121000D03*
X0251000Y0126000D03*
X0258500Y0131000D03*
X0286000Y0051000D03*
X0146000Y0196000D03*
X0051000Y0091000D03*
X0078500Y0071000D03*
X0056000Y0061000D03*
X0041000Y0043500D03*
X0041000Y0026000D03*
X0066000Y0026000D03*
X0366000Y0301000D03*
X0381000Y0301000D03*
M02*
