G75*
%MOIN*%
%OFA0B0*%
%FSLAX25Y25*%
%IPPOS*%
%LPD*%
%AMOC8*
5,1,8,0,0,1.08239X$1,22.5*
%
%ADD10C,0.00000*%
%ADD11C,0.00600*%
%ADD12C,0.00400*%
%ADD13C,0.00300*%
%ADD14C,0.00500*%
%ADD15C,0.00800*%
%ADD16C,0.00200*%
%ADD17R,0.02500X0.04500*%
%ADD18R,0.17500X0.02000*%
%ADD19R,0.32000X0.02000*%
%ADD20R,0.12500X0.00500*%
%ADD21R,0.16000X0.02000*%
%ADD22C,0.01600*%
%ADD23C,0.01000*%
D10*
X0001000Y0001000D02*
X0001000Y0315961D01*
X0394701Y0315961D01*
X0394701Y0001000D01*
X0001000Y0001000D01*
X0014386Y0020685D02*
X0014388Y0020843D01*
X0014394Y0021001D01*
X0014404Y0021159D01*
X0014418Y0021317D01*
X0014436Y0021474D01*
X0014457Y0021631D01*
X0014483Y0021787D01*
X0014513Y0021943D01*
X0014546Y0022098D01*
X0014584Y0022251D01*
X0014625Y0022404D01*
X0014670Y0022556D01*
X0014719Y0022707D01*
X0014772Y0022856D01*
X0014828Y0023004D01*
X0014888Y0023150D01*
X0014952Y0023295D01*
X0015020Y0023438D01*
X0015091Y0023580D01*
X0015165Y0023720D01*
X0015243Y0023857D01*
X0015325Y0023993D01*
X0015409Y0024127D01*
X0015498Y0024258D01*
X0015589Y0024387D01*
X0015684Y0024514D01*
X0015781Y0024639D01*
X0015882Y0024761D01*
X0015986Y0024880D01*
X0016093Y0024997D01*
X0016203Y0025111D01*
X0016316Y0025222D01*
X0016431Y0025331D01*
X0016549Y0025436D01*
X0016670Y0025538D01*
X0016793Y0025638D01*
X0016919Y0025734D01*
X0017047Y0025827D01*
X0017177Y0025917D01*
X0017310Y0026003D01*
X0017445Y0026087D01*
X0017581Y0026166D01*
X0017720Y0026243D01*
X0017861Y0026315D01*
X0018003Y0026385D01*
X0018147Y0026450D01*
X0018293Y0026512D01*
X0018440Y0026570D01*
X0018589Y0026625D01*
X0018739Y0026676D01*
X0018890Y0026723D01*
X0019042Y0026766D01*
X0019195Y0026805D01*
X0019350Y0026841D01*
X0019505Y0026872D01*
X0019661Y0026900D01*
X0019817Y0026924D01*
X0019974Y0026944D01*
X0020132Y0026960D01*
X0020289Y0026972D01*
X0020448Y0026980D01*
X0020606Y0026984D01*
X0020764Y0026984D01*
X0020922Y0026980D01*
X0021081Y0026972D01*
X0021238Y0026960D01*
X0021396Y0026944D01*
X0021553Y0026924D01*
X0021709Y0026900D01*
X0021865Y0026872D01*
X0022020Y0026841D01*
X0022175Y0026805D01*
X0022328Y0026766D01*
X0022480Y0026723D01*
X0022631Y0026676D01*
X0022781Y0026625D01*
X0022930Y0026570D01*
X0023077Y0026512D01*
X0023223Y0026450D01*
X0023367Y0026385D01*
X0023509Y0026315D01*
X0023650Y0026243D01*
X0023789Y0026166D01*
X0023925Y0026087D01*
X0024060Y0026003D01*
X0024193Y0025917D01*
X0024323Y0025827D01*
X0024451Y0025734D01*
X0024577Y0025638D01*
X0024700Y0025538D01*
X0024821Y0025436D01*
X0024939Y0025331D01*
X0025054Y0025222D01*
X0025167Y0025111D01*
X0025277Y0024997D01*
X0025384Y0024880D01*
X0025488Y0024761D01*
X0025589Y0024639D01*
X0025686Y0024514D01*
X0025781Y0024387D01*
X0025872Y0024258D01*
X0025961Y0024127D01*
X0026045Y0023993D01*
X0026127Y0023857D01*
X0026205Y0023720D01*
X0026279Y0023580D01*
X0026350Y0023438D01*
X0026418Y0023295D01*
X0026482Y0023150D01*
X0026542Y0023004D01*
X0026598Y0022856D01*
X0026651Y0022707D01*
X0026700Y0022556D01*
X0026745Y0022404D01*
X0026786Y0022251D01*
X0026824Y0022098D01*
X0026857Y0021943D01*
X0026887Y0021787D01*
X0026913Y0021631D01*
X0026934Y0021474D01*
X0026952Y0021317D01*
X0026966Y0021159D01*
X0026976Y0021001D01*
X0026982Y0020843D01*
X0026984Y0020685D01*
X0026982Y0020527D01*
X0026976Y0020369D01*
X0026966Y0020211D01*
X0026952Y0020053D01*
X0026934Y0019896D01*
X0026913Y0019739D01*
X0026887Y0019583D01*
X0026857Y0019427D01*
X0026824Y0019272D01*
X0026786Y0019119D01*
X0026745Y0018966D01*
X0026700Y0018814D01*
X0026651Y0018663D01*
X0026598Y0018514D01*
X0026542Y0018366D01*
X0026482Y0018220D01*
X0026418Y0018075D01*
X0026350Y0017932D01*
X0026279Y0017790D01*
X0026205Y0017650D01*
X0026127Y0017513D01*
X0026045Y0017377D01*
X0025961Y0017243D01*
X0025872Y0017112D01*
X0025781Y0016983D01*
X0025686Y0016856D01*
X0025589Y0016731D01*
X0025488Y0016609D01*
X0025384Y0016490D01*
X0025277Y0016373D01*
X0025167Y0016259D01*
X0025054Y0016148D01*
X0024939Y0016039D01*
X0024821Y0015934D01*
X0024700Y0015832D01*
X0024577Y0015732D01*
X0024451Y0015636D01*
X0024323Y0015543D01*
X0024193Y0015453D01*
X0024060Y0015367D01*
X0023925Y0015283D01*
X0023789Y0015204D01*
X0023650Y0015127D01*
X0023509Y0015055D01*
X0023367Y0014985D01*
X0023223Y0014920D01*
X0023077Y0014858D01*
X0022930Y0014800D01*
X0022781Y0014745D01*
X0022631Y0014694D01*
X0022480Y0014647D01*
X0022328Y0014604D01*
X0022175Y0014565D01*
X0022020Y0014529D01*
X0021865Y0014498D01*
X0021709Y0014470D01*
X0021553Y0014446D01*
X0021396Y0014426D01*
X0021238Y0014410D01*
X0021081Y0014398D01*
X0020922Y0014390D01*
X0020764Y0014386D01*
X0020606Y0014386D01*
X0020448Y0014390D01*
X0020289Y0014398D01*
X0020132Y0014410D01*
X0019974Y0014426D01*
X0019817Y0014446D01*
X0019661Y0014470D01*
X0019505Y0014498D01*
X0019350Y0014529D01*
X0019195Y0014565D01*
X0019042Y0014604D01*
X0018890Y0014647D01*
X0018739Y0014694D01*
X0018589Y0014745D01*
X0018440Y0014800D01*
X0018293Y0014858D01*
X0018147Y0014920D01*
X0018003Y0014985D01*
X0017861Y0015055D01*
X0017720Y0015127D01*
X0017581Y0015204D01*
X0017445Y0015283D01*
X0017310Y0015367D01*
X0017177Y0015453D01*
X0017047Y0015543D01*
X0016919Y0015636D01*
X0016793Y0015732D01*
X0016670Y0015832D01*
X0016549Y0015934D01*
X0016431Y0016039D01*
X0016316Y0016148D01*
X0016203Y0016259D01*
X0016093Y0016373D01*
X0015986Y0016490D01*
X0015882Y0016609D01*
X0015781Y0016731D01*
X0015684Y0016856D01*
X0015589Y0016983D01*
X0015498Y0017112D01*
X0015409Y0017243D01*
X0015325Y0017377D01*
X0015243Y0017513D01*
X0015165Y0017650D01*
X0015091Y0017790D01*
X0015020Y0017932D01*
X0014952Y0018075D01*
X0014888Y0018220D01*
X0014828Y0018366D01*
X0014772Y0018514D01*
X0014719Y0018663D01*
X0014670Y0018814D01*
X0014625Y0018966D01*
X0014584Y0019119D01*
X0014546Y0019272D01*
X0014513Y0019427D01*
X0014483Y0019583D01*
X0014457Y0019739D01*
X0014436Y0019896D01*
X0014418Y0020053D01*
X0014404Y0020211D01*
X0014394Y0020369D01*
X0014388Y0020527D01*
X0014386Y0020685D01*
X0128835Y0006000D02*
X0128837Y0006093D01*
X0128843Y0006185D01*
X0128853Y0006277D01*
X0128867Y0006368D01*
X0128884Y0006459D01*
X0128906Y0006549D01*
X0128931Y0006638D01*
X0128960Y0006726D01*
X0128993Y0006812D01*
X0129030Y0006897D01*
X0129070Y0006981D01*
X0129114Y0007062D01*
X0129161Y0007142D01*
X0129211Y0007220D01*
X0129265Y0007295D01*
X0129322Y0007368D01*
X0129382Y0007438D01*
X0129445Y0007506D01*
X0129511Y0007571D01*
X0129579Y0007633D01*
X0129650Y0007693D01*
X0129724Y0007749D01*
X0129800Y0007802D01*
X0129878Y0007851D01*
X0129958Y0007898D01*
X0130040Y0007940D01*
X0130124Y0007980D01*
X0130209Y0008015D01*
X0130296Y0008047D01*
X0130384Y0008076D01*
X0130473Y0008100D01*
X0130563Y0008121D01*
X0130654Y0008137D01*
X0130746Y0008150D01*
X0130838Y0008159D01*
X0130931Y0008164D01*
X0131023Y0008165D01*
X0131116Y0008162D01*
X0131208Y0008155D01*
X0131300Y0008144D01*
X0131391Y0008129D01*
X0131482Y0008111D01*
X0131572Y0008088D01*
X0131660Y0008062D01*
X0131748Y0008032D01*
X0131834Y0007998D01*
X0131918Y0007961D01*
X0132001Y0007919D01*
X0132082Y0007875D01*
X0132162Y0007827D01*
X0132239Y0007776D01*
X0132313Y0007721D01*
X0132386Y0007663D01*
X0132456Y0007603D01*
X0132523Y0007539D01*
X0132587Y0007473D01*
X0132649Y0007403D01*
X0132707Y0007332D01*
X0132762Y0007258D01*
X0132814Y0007181D01*
X0132863Y0007102D01*
X0132909Y0007022D01*
X0132951Y0006939D01*
X0132989Y0006855D01*
X0133024Y0006769D01*
X0133055Y0006682D01*
X0133082Y0006594D01*
X0133105Y0006504D01*
X0133125Y0006414D01*
X0133141Y0006323D01*
X0133153Y0006231D01*
X0133161Y0006139D01*
X0133165Y0006046D01*
X0133165Y0005954D01*
X0133161Y0005861D01*
X0133153Y0005769D01*
X0133141Y0005677D01*
X0133125Y0005586D01*
X0133105Y0005496D01*
X0133082Y0005406D01*
X0133055Y0005318D01*
X0133024Y0005231D01*
X0132989Y0005145D01*
X0132951Y0005061D01*
X0132909Y0004978D01*
X0132863Y0004898D01*
X0132814Y0004819D01*
X0132762Y0004742D01*
X0132707Y0004668D01*
X0132649Y0004597D01*
X0132587Y0004527D01*
X0132523Y0004461D01*
X0132456Y0004397D01*
X0132386Y0004337D01*
X0132313Y0004279D01*
X0132239Y0004224D01*
X0132162Y0004173D01*
X0132083Y0004125D01*
X0132001Y0004081D01*
X0131918Y0004039D01*
X0131834Y0004002D01*
X0131748Y0003968D01*
X0131660Y0003938D01*
X0131572Y0003912D01*
X0131482Y0003889D01*
X0131391Y0003871D01*
X0131300Y0003856D01*
X0131208Y0003845D01*
X0131116Y0003838D01*
X0131023Y0003835D01*
X0130931Y0003836D01*
X0130838Y0003841D01*
X0130746Y0003850D01*
X0130654Y0003863D01*
X0130563Y0003879D01*
X0130473Y0003900D01*
X0130384Y0003924D01*
X0130296Y0003953D01*
X0130209Y0003985D01*
X0130124Y0004020D01*
X0130040Y0004060D01*
X0129958Y0004102D01*
X0129878Y0004149D01*
X0129800Y0004198D01*
X0129724Y0004251D01*
X0129650Y0004307D01*
X0129579Y0004367D01*
X0129511Y0004429D01*
X0129445Y0004494D01*
X0129382Y0004562D01*
X0129322Y0004632D01*
X0129265Y0004705D01*
X0129211Y0004780D01*
X0129161Y0004858D01*
X0129114Y0004938D01*
X0129070Y0005019D01*
X0129030Y0005103D01*
X0128993Y0005188D01*
X0128960Y0005274D01*
X0128931Y0005362D01*
X0128906Y0005451D01*
X0128884Y0005541D01*
X0128867Y0005632D01*
X0128853Y0005723D01*
X0128843Y0005815D01*
X0128837Y0005907D01*
X0128835Y0006000D01*
X0138835Y0006000D02*
X0138837Y0006093D01*
X0138843Y0006185D01*
X0138853Y0006277D01*
X0138867Y0006368D01*
X0138884Y0006459D01*
X0138906Y0006549D01*
X0138931Y0006638D01*
X0138960Y0006726D01*
X0138993Y0006812D01*
X0139030Y0006897D01*
X0139070Y0006981D01*
X0139114Y0007062D01*
X0139161Y0007142D01*
X0139211Y0007220D01*
X0139265Y0007295D01*
X0139322Y0007368D01*
X0139382Y0007438D01*
X0139445Y0007506D01*
X0139511Y0007571D01*
X0139579Y0007633D01*
X0139650Y0007693D01*
X0139724Y0007749D01*
X0139800Y0007802D01*
X0139878Y0007851D01*
X0139958Y0007898D01*
X0140040Y0007940D01*
X0140124Y0007980D01*
X0140209Y0008015D01*
X0140296Y0008047D01*
X0140384Y0008076D01*
X0140473Y0008100D01*
X0140563Y0008121D01*
X0140654Y0008137D01*
X0140746Y0008150D01*
X0140838Y0008159D01*
X0140931Y0008164D01*
X0141023Y0008165D01*
X0141116Y0008162D01*
X0141208Y0008155D01*
X0141300Y0008144D01*
X0141391Y0008129D01*
X0141482Y0008111D01*
X0141572Y0008088D01*
X0141660Y0008062D01*
X0141748Y0008032D01*
X0141834Y0007998D01*
X0141918Y0007961D01*
X0142001Y0007919D01*
X0142082Y0007875D01*
X0142162Y0007827D01*
X0142239Y0007776D01*
X0142313Y0007721D01*
X0142386Y0007663D01*
X0142456Y0007603D01*
X0142523Y0007539D01*
X0142587Y0007473D01*
X0142649Y0007403D01*
X0142707Y0007332D01*
X0142762Y0007258D01*
X0142814Y0007181D01*
X0142863Y0007102D01*
X0142909Y0007022D01*
X0142951Y0006939D01*
X0142989Y0006855D01*
X0143024Y0006769D01*
X0143055Y0006682D01*
X0143082Y0006594D01*
X0143105Y0006504D01*
X0143125Y0006414D01*
X0143141Y0006323D01*
X0143153Y0006231D01*
X0143161Y0006139D01*
X0143165Y0006046D01*
X0143165Y0005954D01*
X0143161Y0005861D01*
X0143153Y0005769D01*
X0143141Y0005677D01*
X0143125Y0005586D01*
X0143105Y0005496D01*
X0143082Y0005406D01*
X0143055Y0005318D01*
X0143024Y0005231D01*
X0142989Y0005145D01*
X0142951Y0005061D01*
X0142909Y0004978D01*
X0142863Y0004898D01*
X0142814Y0004819D01*
X0142762Y0004742D01*
X0142707Y0004668D01*
X0142649Y0004597D01*
X0142587Y0004527D01*
X0142523Y0004461D01*
X0142456Y0004397D01*
X0142386Y0004337D01*
X0142313Y0004279D01*
X0142239Y0004224D01*
X0142162Y0004173D01*
X0142083Y0004125D01*
X0142001Y0004081D01*
X0141918Y0004039D01*
X0141834Y0004002D01*
X0141748Y0003968D01*
X0141660Y0003938D01*
X0141572Y0003912D01*
X0141482Y0003889D01*
X0141391Y0003871D01*
X0141300Y0003856D01*
X0141208Y0003845D01*
X0141116Y0003838D01*
X0141023Y0003835D01*
X0140931Y0003836D01*
X0140838Y0003841D01*
X0140746Y0003850D01*
X0140654Y0003863D01*
X0140563Y0003879D01*
X0140473Y0003900D01*
X0140384Y0003924D01*
X0140296Y0003953D01*
X0140209Y0003985D01*
X0140124Y0004020D01*
X0140040Y0004060D01*
X0139958Y0004102D01*
X0139878Y0004149D01*
X0139800Y0004198D01*
X0139724Y0004251D01*
X0139650Y0004307D01*
X0139579Y0004367D01*
X0139511Y0004429D01*
X0139445Y0004494D01*
X0139382Y0004562D01*
X0139322Y0004632D01*
X0139265Y0004705D01*
X0139211Y0004780D01*
X0139161Y0004858D01*
X0139114Y0004938D01*
X0139070Y0005019D01*
X0139030Y0005103D01*
X0138993Y0005188D01*
X0138960Y0005274D01*
X0138931Y0005362D01*
X0138906Y0005451D01*
X0138884Y0005541D01*
X0138867Y0005632D01*
X0138853Y0005723D01*
X0138843Y0005815D01*
X0138837Y0005907D01*
X0138835Y0006000D01*
X0148835Y0006000D02*
X0148837Y0006093D01*
X0148843Y0006185D01*
X0148853Y0006277D01*
X0148867Y0006368D01*
X0148884Y0006459D01*
X0148906Y0006549D01*
X0148931Y0006638D01*
X0148960Y0006726D01*
X0148993Y0006812D01*
X0149030Y0006897D01*
X0149070Y0006981D01*
X0149114Y0007062D01*
X0149161Y0007142D01*
X0149211Y0007220D01*
X0149265Y0007295D01*
X0149322Y0007368D01*
X0149382Y0007438D01*
X0149445Y0007506D01*
X0149511Y0007571D01*
X0149579Y0007633D01*
X0149650Y0007693D01*
X0149724Y0007749D01*
X0149800Y0007802D01*
X0149878Y0007851D01*
X0149958Y0007898D01*
X0150040Y0007940D01*
X0150124Y0007980D01*
X0150209Y0008015D01*
X0150296Y0008047D01*
X0150384Y0008076D01*
X0150473Y0008100D01*
X0150563Y0008121D01*
X0150654Y0008137D01*
X0150746Y0008150D01*
X0150838Y0008159D01*
X0150931Y0008164D01*
X0151023Y0008165D01*
X0151116Y0008162D01*
X0151208Y0008155D01*
X0151300Y0008144D01*
X0151391Y0008129D01*
X0151482Y0008111D01*
X0151572Y0008088D01*
X0151660Y0008062D01*
X0151748Y0008032D01*
X0151834Y0007998D01*
X0151918Y0007961D01*
X0152001Y0007919D01*
X0152082Y0007875D01*
X0152162Y0007827D01*
X0152239Y0007776D01*
X0152313Y0007721D01*
X0152386Y0007663D01*
X0152456Y0007603D01*
X0152523Y0007539D01*
X0152587Y0007473D01*
X0152649Y0007403D01*
X0152707Y0007332D01*
X0152762Y0007258D01*
X0152814Y0007181D01*
X0152863Y0007102D01*
X0152909Y0007022D01*
X0152951Y0006939D01*
X0152989Y0006855D01*
X0153024Y0006769D01*
X0153055Y0006682D01*
X0153082Y0006594D01*
X0153105Y0006504D01*
X0153125Y0006414D01*
X0153141Y0006323D01*
X0153153Y0006231D01*
X0153161Y0006139D01*
X0153165Y0006046D01*
X0153165Y0005954D01*
X0153161Y0005861D01*
X0153153Y0005769D01*
X0153141Y0005677D01*
X0153125Y0005586D01*
X0153105Y0005496D01*
X0153082Y0005406D01*
X0153055Y0005318D01*
X0153024Y0005231D01*
X0152989Y0005145D01*
X0152951Y0005061D01*
X0152909Y0004978D01*
X0152863Y0004898D01*
X0152814Y0004819D01*
X0152762Y0004742D01*
X0152707Y0004668D01*
X0152649Y0004597D01*
X0152587Y0004527D01*
X0152523Y0004461D01*
X0152456Y0004397D01*
X0152386Y0004337D01*
X0152313Y0004279D01*
X0152239Y0004224D01*
X0152162Y0004173D01*
X0152083Y0004125D01*
X0152001Y0004081D01*
X0151918Y0004039D01*
X0151834Y0004002D01*
X0151748Y0003968D01*
X0151660Y0003938D01*
X0151572Y0003912D01*
X0151482Y0003889D01*
X0151391Y0003871D01*
X0151300Y0003856D01*
X0151208Y0003845D01*
X0151116Y0003838D01*
X0151023Y0003835D01*
X0150931Y0003836D01*
X0150838Y0003841D01*
X0150746Y0003850D01*
X0150654Y0003863D01*
X0150563Y0003879D01*
X0150473Y0003900D01*
X0150384Y0003924D01*
X0150296Y0003953D01*
X0150209Y0003985D01*
X0150124Y0004020D01*
X0150040Y0004060D01*
X0149958Y0004102D01*
X0149878Y0004149D01*
X0149800Y0004198D01*
X0149724Y0004251D01*
X0149650Y0004307D01*
X0149579Y0004367D01*
X0149511Y0004429D01*
X0149445Y0004494D01*
X0149382Y0004562D01*
X0149322Y0004632D01*
X0149265Y0004705D01*
X0149211Y0004780D01*
X0149161Y0004858D01*
X0149114Y0004938D01*
X0149070Y0005019D01*
X0149030Y0005103D01*
X0148993Y0005188D01*
X0148960Y0005274D01*
X0148931Y0005362D01*
X0148906Y0005451D01*
X0148884Y0005541D01*
X0148867Y0005632D01*
X0148853Y0005723D01*
X0148843Y0005815D01*
X0148837Y0005907D01*
X0148835Y0006000D01*
X0368717Y0020685D02*
X0368719Y0020843D01*
X0368725Y0021001D01*
X0368735Y0021159D01*
X0368749Y0021317D01*
X0368767Y0021474D01*
X0368788Y0021631D01*
X0368814Y0021787D01*
X0368844Y0021943D01*
X0368877Y0022098D01*
X0368915Y0022251D01*
X0368956Y0022404D01*
X0369001Y0022556D01*
X0369050Y0022707D01*
X0369103Y0022856D01*
X0369159Y0023004D01*
X0369219Y0023150D01*
X0369283Y0023295D01*
X0369351Y0023438D01*
X0369422Y0023580D01*
X0369496Y0023720D01*
X0369574Y0023857D01*
X0369656Y0023993D01*
X0369740Y0024127D01*
X0369829Y0024258D01*
X0369920Y0024387D01*
X0370015Y0024514D01*
X0370112Y0024639D01*
X0370213Y0024761D01*
X0370317Y0024880D01*
X0370424Y0024997D01*
X0370534Y0025111D01*
X0370647Y0025222D01*
X0370762Y0025331D01*
X0370880Y0025436D01*
X0371001Y0025538D01*
X0371124Y0025638D01*
X0371250Y0025734D01*
X0371378Y0025827D01*
X0371508Y0025917D01*
X0371641Y0026003D01*
X0371776Y0026087D01*
X0371912Y0026166D01*
X0372051Y0026243D01*
X0372192Y0026315D01*
X0372334Y0026385D01*
X0372478Y0026450D01*
X0372624Y0026512D01*
X0372771Y0026570D01*
X0372920Y0026625D01*
X0373070Y0026676D01*
X0373221Y0026723D01*
X0373373Y0026766D01*
X0373526Y0026805D01*
X0373681Y0026841D01*
X0373836Y0026872D01*
X0373992Y0026900D01*
X0374148Y0026924D01*
X0374305Y0026944D01*
X0374463Y0026960D01*
X0374620Y0026972D01*
X0374779Y0026980D01*
X0374937Y0026984D01*
X0375095Y0026984D01*
X0375253Y0026980D01*
X0375412Y0026972D01*
X0375569Y0026960D01*
X0375727Y0026944D01*
X0375884Y0026924D01*
X0376040Y0026900D01*
X0376196Y0026872D01*
X0376351Y0026841D01*
X0376506Y0026805D01*
X0376659Y0026766D01*
X0376811Y0026723D01*
X0376962Y0026676D01*
X0377112Y0026625D01*
X0377261Y0026570D01*
X0377408Y0026512D01*
X0377554Y0026450D01*
X0377698Y0026385D01*
X0377840Y0026315D01*
X0377981Y0026243D01*
X0378120Y0026166D01*
X0378256Y0026087D01*
X0378391Y0026003D01*
X0378524Y0025917D01*
X0378654Y0025827D01*
X0378782Y0025734D01*
X0378908Y0025638D01*
X0379031Y0025538D01*
X0379152Y0025436D01*
X0379270Y0025331D01*
X0379385Y0025222D01*
X0379498Y0025111D01*
X0379608Y0024997D01*
X0379715Y0024880D01*
X0379819Y0024761D01*
X0379920Y0024639D01*
X0380017Y0024514D01*
X0380112Y0024387D01*
X0380203Y0024258D01*
X0380292Y0024127D01*
X0380376Y0023993D01*
X0380458Y0023857D01*
X0380536Y0023720D01*
X0380610Y0023580D01*
X0380681Y0023438D01*
X0380749Y0023295D01*
X0380813Y0023150D01*
X0380873Y0023004D01*
X0380929Y0022856D01*
X0380982Y0022707D01*
X0381031Y0022556D01*
X0381076Y0022404D01*
X0381117Y0022251D01*
X0381155Y0022098D01*
X0381188Y0021943D01*
X0381218Y0021787D01*
X0381244Y0021631D01*
X0381265Y0021474D01*
X0381283Y0021317D01*
X0381297Y0021159D01*
X0381307Y0021001D01*
X0381313Y0020843D01*
X0381315Y0020685D01*
X0381313Y0020527D01*
X0381307Y0020369D01*
X0381297Y0020211D01*
X0381283Y0020053D01*
X0381265Y0019896D01*
X0381244Y0019739D01*
X0381218Y0019583D01*
X0381188Y0019427D01*
X0381155Y0019272D01*
X0381117Y0019119D01*
X0381076Y0018966D01*
X0381031Y0018814D01*
X0380982Y0018663D01*
X0380929Y0018514D01*
X0380873Y0018366D01*
X0380813Y0018220D01*
X0380749Y0018075D01*
X0380681Y0017932D01*
X0380610Y0017790D01*
X0380536Y0017650D01*
X0380458Y0017513D01*
X0380376Y0017377D01*
X0380292Y0017243D01*
X0380203Y0017112D01*
X0380112Y0016983D01*
X0380017Y0016856D01*
X0379920Y0016731D01*
X0379819Y0016609D01*
X0379715Y0016490D01*
X0379608Y0016373D01*
X0379498Y0016259D01*
X0379385Y0016148D01*
X0379270Y0016039D01*
X0379152Y0015934D01*
X0379031Y0015832D01*
X0378908Y0015732D01*
X0378782Y0015636D01*
X0378654Y0015543D01*
X0378524Y0015453D01*
X0378391Y0015367D01*
X0378256Y0015283D01*
X0378120Y0015204D01*
X0377981Y0015127D01*
X0377840Y0015055D01*
X0377698Y0014985D01*
X0377554Y0014920D01*
X0377408Y0014858D01*
X0377261Y0014800D01*
X0377112Y0014745D01*
X0376962Y0014694D01*
X0376811Y0014647D01*
X0376659Y0014604D01*
X0376506Y0014565D01*
X0376351Y0014529D01*
X0376196Y0014498D01*
X0376040Y0014470D01*
X0375884Y0014446D01*
X0375727Y0014426D01*
X0375569Y0014410D01*
X0375412Y0014398D01*
X0375253Y0014390D01*
X0375095Y0014386D01*
X0374937Y0014386D01*
X0374779Y0014390D01*
X0374620Y0014398D01*
X0374463Y0014410D01*
X0374305Y0014426D01*
X0374148Y0014446D01*
X0373992Y0014470D01*
X0373836Y0014498D01*
X0373681Y0014529D01*
X0373526Y0014565D01*
X0373373Y0014604D01*
X0373221Y0014647D01*
X0373070Y0014694D01*
X0372920Y0014745D01*
X0372771Y0014800D01*
X0372624Y0014858D01*
X0372478Y0014920D01*
X0372334Y0014985D01*
X0372192Y0015055D01*
X0372051Y0015127D01*
X0371912Y0015204D01*
X0371776Y0015283D01*
X0371641Y0015367D01*
X0371508Y0015453D01*
X0371378Y0015543D01*
X0371250Y0015636D01*
X0371124Y0015732D01*
X0371001Y0015832D01*
X0370880Y0015934D01*
X0370762Y0016039D01*
X0370647Y0016148D01*
X0370534Y0016259D01*
X0370424Y0016373D01*
X0370317Y0016490D01*
X0370213Y0016609D01*
X0370112Y0016731D01*
X0370015Y0016856D01*
X0369920Y0016983D01*
X0369829Y0017112D01*
X0369740Y0017243D01*
X0369656Y0017377D01*
X0369574Y0017513D01*
X0369496Y0017650D01*
X0369422Y0017790D01*
X0369351Y0017932D01*
X0369283Y0018075D01*
X0369219Y0018220D01*
X0369159Y0018366D01*
X0369103Y0018514D01*
X0369050Y0018663D01*
X0369001Y0018814D01*
X0368956Y0018966D01*
X0368915Y0019119D01*
X0368877Y0019272D01*
X0368844Y0019427D01*
X0368814Y0019583D01*
X0368788Y0019739D01*
X0368767Y0019896D01*
X0368749Y0020053D01*
X0368735Y0020211D01*
X0368725Y0020369D01*
X0368719Y0020527D01*
X0368717Y0020685D01*
X0014386Y0296276D02*
X0014388Y0296434D01*
X0014394Y0296592D01*
X0014404Y0296750D01*
X0014418Y0296908D01*
X0014436Y0297065D01*
X0014457Y0297222D01*
X0014483Y0297378D01*
X0014513Y0297534D01*
X0014546Y0297689D01*
X0014584Y0297842D01*
X0014625Y0297995D01*
X0014670Y0298147D01*
X0014719Y0298298D01*
X0014772Y0298447D01*
X0014828Y0298595D01*
X0014888Y0298741D01*
X0014952Y0298886D01*
X0015020Y0299029D01*
X0015091Y0299171D01*
X0015165Y0299311D01*
X0015243Y0299448D01*
X0015325Y0299584D01*
X0015409Y0299718D01*
X0015498Y0299849D01*
X0015589Y0299978D01*
X0015684Y0300105D01*
X0015781Y0300230D01*
X0015882Y0300352D01*
X0015986Y0300471D01*
X0016093Y0300588D01*
X0016203Y0300702D01*
X0016316Y0300813D01*
X0016431Y0300922D01*
X0016549Y0301027D01*
X0016670Y0301129D01*
X0016793Y0301229D01*
X0016919Y0301325D01*
X0017047Y0301418D01*
X0017177Y0301508D01*
X0017310Y0301594D01*
X0017445Y0301678D01*
X0017581Y0301757D01*
X0017720Y0301834D01*
X0017861Y0301906D01*
X0018003Y0301976D01*
X0018147Y0302041D01*
X0018293Y0302103D01*
X0018440Y0302161D01*
X0018589Y0302216D01*
X0018739Y0302267D01*
X0018890Y0302314D01*
X0019042Y0302357D01*
X0019195Y0302396D01*
X0019350Y0302432D01*
X0019505Y0302463D01*
X0019661Y0302491D01*
X0019817Y0302515D01*
X0019974Y0302535D01*
X0020132Y0302551D01*
X0020289Y0302563D01*
X0020448Y0302571D01*
X0020606Y0302575D01*
X0020764Y0302575D01*
X0020922Y0302571D01*
X0021081Y0302563D01*
X0021238Y0302551D01*
X0021396Y0302535D01*
X0021553Y0302515D01*
X0021709Y0302491D01*
X0021865Y0302463D01*
X0022020Y0302432D01*
X0022175Y0302396D01*
X0022328Y0302357D01*
X0022480Y0302314D01*
X0022631Y0302267D01*
X0022781Y0302216D01*
X0022930Y0302161D01*
X0023077Y0302103D01*
X0023223Y0302041D01*
X0023367Y0301976D01*
X0023509Y0301906D01*
X0023650Y0301834D01*
X0023789Y0301757D01*
X0023925Y0301678D01*
X0024060Y0301594D01*
X0024193Y0301508D01*
X0024323Y0301418D01*
X0024451Y0301325D01*
X0024577Y0301229D01*
X0024700Y0301129D01*
X0024821Y0301027D01*
X0024939Y0300922D01*
X0025054Y0300813D01*
X0025167Y0300702D01*
X0025277Y0300588D01*
X0025384Y0300471D01*
X0025488Y0300352D01*
X0025589Y0300230D01*
X0025686Y0300105D01*
X0025781Y0299978D01*
X0025872Y0299849D01*
X0025961Y0299718D01*
X0026045Y0299584D01*
X0026127Y0299448D01*
X0026205Y0299311D01*
X0026279Y0299171D01*
X0026350Y0299029D01*
X0026418Y0298886D01*
X0026482Y0298741D01*
X0026542Y0298595D01*
X0026598Y0298447D01*
X0026651Y0298298D01*
X0026700Y0298147D01*
X0026745Y0297995D01*
X0026786Y0297842D01*
X0026824Y0297689D01*
X0026857Y0297534D01*
X0026887Y0297378D01*
X0026913Y0297222D01*
X0026934Y0297065D01*
X0026952Y0296908D01*
X0026966Y0296750D01*
X0026976Y0296592D01*
X0026982Y0296434D01*
X0026984Y0296276D01*
X0026982Y0296118D01*
X0026976Y0295960D01*
X0026966Y0295802D01*
X0026952Y0295644D01*
X0026934Y0295487D01*
X0026913Y0295330D01*
X0026887Y0295174D01*
X0026857Y0295018D01*
X0026824Y0294863D01*
X0026786Y0294710D01*
X0026745Y0294557D01*
X0026700Y0294405D01*
X0026651Y0294254D01*
X0026598Y0294105D01*
X0026542Y0293957D01*
X0026482Y0293811D01*
X0026418Y0293666D01*
X0026350Y0293523D01*
X0026279Y0293381D01*
X0026205Y0293241D01*
X0026127Y0293104D01*
X0026045Y0292968D01*
X0025961Y0292834D01*
X0025872Y0292703D01*
X0025781Y0292574D01*
X0025686Y0292447D01*
X0025589Y0292322D01*
X0025488Y0292200D01*
X0025384Y0292081D01*
X0025277Y0291964D01*
X0025167Y0291850D01*
X0025054Y0291739D01*
X0024939Y0291630D01*
X0024821Y0291525D01*
X0024700Y0291423D01*
X0024577Y0291323D01*
X0024451Y0291227D01*
X0024323Y0291134D01*
X0024193Y0291044D01*
X0024060Y0290958D01*
X0023925Y0290874D01*
X0023789Y0290795D01*
X0023650Y0290718D01*
X0023509Y0290646D01*
X0023367Y0290576D01*
X0023223Y0290511D01*
X0023077Y0290449D01*
X0022930Y0290391D01*
X0022781Y0290336D01*
X0022631Y0290285D01*
X0022480Y0290238D01*
X0022328Y0290195D01*
X0022175Y0290156D01*
X0022020Y0290120D01*
X0021865Y0290089D01*
X0021709Y0290061D01*
X0021553Y0290037D01*
X0021396Y0290017D01*
X0021238Y0290001D01*
X0021081Y0289989D01*
X0020922Y0289981D01*
X0020764Y0289977D01*
X0020606Y0289977D01*
X0020448Y0289981D01*
X0020289Y0289989D01*
X0020132Y0290001D01*
X0019974Y0290017D01*
X0019817Y0290037D01*
X0019661Y0290061D01*
X0019505Y0290089D01*
X0019350Y0290120D01*
X0019195Y0290156D01*
X0019042Y0290195D01*
X0018890Y0290238D01*
X0018739Y0290285D01*
X0018589Y0290336D01*
X0018440Y0290391D01*
X0018293Y0290449D01*
X0018147Y0290511D01*
X0018003Y0290576D01*
X0017861Y0290646D01*
X0017720Y0290718D01*
X0017581Y0290795D01*
X0017445Y0290874D01*
X0017310Y0290958D01*
X0017177Y0291044D01*
X0017047Y0291134D01*
X0016919Y0291227D01*
X0016793Y0291323D01*
X0016670Y0291423D01*
X0016549Y0291525D01*
X0016431Y0291630D01*
X0016316Y0291739D01*
X0016203Y0291850D01*
X0016093Y0291964D01*
X0015986Y0292081D01*
X0015882Y0292200D01*
X0015781Y0292322D01*
X0015684Y0292447D01*
X0015589Y0292574D01*
X0015498Y0292703D01*
X0015409Y0292834D01*
X0015325Y0292968D01*
X0015243Y0293104D01*
X0015165Y0293241D01*
X0015091Y0293381D01*
X0015020Y0293523D01*
X0014952Y0293666D01*
X0014888Y0293811D01*
X0014828Y0293957D01*
X0014772Y0294105D01*
X0014719Y0294254D01*
X0014670Y0294405D01*
X0014625Y0294557D01*
X0014584Y0294710D01*
X0014546Y0294863D01*
X0014513Y0295018D01*
X0014483Y0295174D01*
X0014457Y0295330D01*
X0014436Y0295487D01*
X0014418Y0295644D01*
X0014404Y0295802D01*
X0014394Y0295960D01*
X0014388Y0296118D01*
X0014386Y0296276D01*
D11*
X0048500Y0301000D02*
X0048500Y0286000D01*
X0051000Y0283500D01*
X0056000Y0283500D01*
X0058500Y0286000D01*
X0058500Y0301000D01*
X0056000Y0303500D01*
X0051000Y0303500D01*
X0048500Y0301000D01*
X0058500Y0301000D02*
X0061000Y0303500D01*
X0066000Y0303500D01*
X0068500Y0301000D01*
X0068500Y0286000D01*
X0066000Y0283500D01*
X0061000Y0283500D01*
X0058500Y0286000D01*
X0068500Y0286000D02*
X0071000Y0283500D01*
X0076000Y0283500D01*
X0078500Y0286000D01*
X0078500Y0301000D01*
X0076000Y0303500D01*
X0071000Y0303500D01*
X0068500Y0301000D01*
X0078500Y0301000D02*
X0081000Y0303500D01*
X0086000Y0303500D01*
X0088500Y0301000D01*
X0088500Y0286000D01*
X0086000Y0283500D01*
X0081000Y0283500D01*
X0078500Y0286000D01*
X0080300Y0221000D02*
X0080300Y0191000D01*
X0081100Y0191000D01*
X0088400Y0182400D02*
X0088400Y0178000D01*
X0065449Y0198520D02*
X0065449Y0213480D01*
X0080300Y0221000D02*
X0081100Y0221000D01*
X0120900Y0221000D02*
X0121700Y0221000D01*
X0121700Y0207200D01*
X0121700Y0204800D01*
X0121700Y0191000D01*
X0120900Y0191000D01*
X0121700Y0204800D02*
X0121631Y0204802D01*
X0121563Y0204808D01*
X0121495Y0204818D01*
X0121428Y0204831D01*
X0121362Y0204849D01*
X0121297Y0204870D01*
X0121233Y0204895D01*
X0121171Y0204923D01*
X0121110Y0204955D01*
X0121051Y0204990D01*
X0120995Y0205029D01*
X0120940Y0205071D01*
X0120889Y0205116D01*
X0120839Y0205164D01*
X0120793Y0205214D01*
X0120750Y0205267D01*
X0120709Y0205323D01*
X0120672Y0205380D01*
X0120639Y0205440D01*
X0120608Y0205502D01*
X0120582Y0205565D01*
X0120559Y0205629D01*
X0120539Y0205695D01*
X0120524Y0205762D01*
X0120512Y0205829D01*
X0120504Y0205897D01*
X0120500Y0205966D01*
X0120500Y0206034D01*
X0120504Y0206103D01*
X0120512Y0206171D01*
X0120524Y0206238D01*
X0120539Y0206305D01*
X0120559Y0206371D01*
X0120582Y0206435D01*
X0120608Y0206498D01*
X0120639Y0206560D01*
X0120672Y0206620D01*
X0120709Y0206677D01*
X0120750Y0206733D01*
X0120793Y0206786D01*
X0120839Y0206836D01*
X0120889Y0206884D01*
X0120940Y0206929D01*
X0120995Y0206971D01*
X0121051Y0207010D01*
X0121110Y0207045D01*
X0121171Y0207077D01*
X0121233Y0207105D01*
X0121297Y0207130D01*
X0121362Y0207151D01*
X0121428Y0207169D01*
X0121495Y0207182D01*
X0121563Y0207192D01*
X0121631Y0207198D01*
X0121700Y0207200D01*
X0026551Y0213480D02*
X0026551Y0198520D01*
X0026000Y0128500D02*
X0031000Y0128500D01*
X0033500Y0126000D01*
X0033500Y0111000D01*
X0036000Y0108500D01*
X0041000Y0108500D01*
X0043500Y0111000D01*
X0046000Y0108500D01*
X0051000Y0108500D01*
X0053500Y0111000D01*
X0053500Y0126000D01*
X0051000Y0128500D01*
X0046000Y0128500D01*
X0043500Y0126000D01*
X0043500Y0111000D01*
X0033500Y0111000D02*
X0031000Y0108500D01*
X0026000Y0108500D01*
X0023500Y0111000D01*
X0023500Y0126000D01*
X0026000Y0128500D01*
X0023500Y0126000D02*
X0021000Y0128500D01*
X0016000Y0128500D01*
X0013500Y0126000D01*
X0013500Y0111000D01*
X0016000Y0108500D01*
X0021000Y0108500D01*
X0023500Y0111000D01*
X0033500Y0126000D02*
X0036000Y0128500D01*
X0041000Y0128500D01*
X0043500Y0126000D01*
X0077000Y0050500D02*
X0100000Y0050500D01*
X0100170Y0050498D01*
X0100341Y0050492D01*
X0100511Y0050481D01*
X0100681Y0050467D01*
X0100850Y0050448D01*
X0101019Y0050425D01*
X0101188Y0050399D01*
X0101355Y0050368D01*
X0101522Y0050333D01*
X0101688Y0050293D01*
X0101853Y0050250D01*
X0102017Y0050203D01*
X0102179Y0050152D01*
X0102341Y0050097D01*
X0102501Y0050038D01*
X0102659Y0049975D01*
X0102816Y0049909D01*
X0102971Y0049838D01*
X0103125Y0049764D01*
X0103276Y0049686D01*
X0103426Y0049604D01*
X0103574Y0049519D01*
X0103719Y0049430D01*
X0103862Y0049338D01*
X0104003Y0049242D01*
X0104142Y0049143D01*
X0104278Y0049040D01*
X0104412Y0048935D01*
X0104543Y0048826D01*
X0104671Y0048713D01*
X0104797Y0048598D01*
X0104920Y0048480D01*
X0105039Y0048359D01*
X0105156Y0048234D01*
X0105270Y0048107D01*
X0105381Y0047978D01*
X0105488Y0047845D01*
X0105592Y0047710D01*
X0105693Y0047573D01*
X0105791Y0047433D01*
X0105885Y0047291D01*
X0105975Y0047147D01*
X0106062Y0047000D01*
X0106146Y0046851D01*
X0106225Y0046701D01*
X0106301Y0046548D01*
X0106374Y0046394D01*
X0106442Y0046238D01*
X0106507Y0046080D01*
X0106568Y0045921D01*
X0106625Y0045760D01*
X0106678Y0045598D01*
X0106727Y0045435D01*
X0106772Y0045271D01*
X0106813Y0045105D01*
X0106851Y0044939D01*
X0106884Y0044771D01*
X0106912Y0044603D01*
X0106937Y0044435D01*
X0106958Y0044266D01*
X0106975Y0044096D01*
X0106987Y0043926D01*
X0106995Y0043756D01*
X0106999Y0043585D01*
X0106999Y0043415D01*
X0106995Y0043244D01*
X0106987Y0043074D01*
X0106975Y0042904D01*
X0106958Y0042734D01*
X0106937Y0042565D01*
X0106912Y0042397D01*
X0106884Y0042229D01*
X0106851Y0042061D01*
X0106813Y0041895D01*
X0106772Y0041729D01*
X0106727Y0041565D01*
X0106678Y0041402D01*
X0106625Y0041240D01*
X0106568Y0041079D01*
X0106507Y0040920D01*
X0106442Y0040762D01*
X0106374Y0040606D01*
X0106301Y0040452D01*
X0106225Y0040299D01*
X0106146Y0040149D01*
X0106062Y0040000D01*
X0105975Y0039853D01*
X0105885Y0039709D01*
X0105791Y0039567D01*
X0105693Y0039427D01*
X0105592Y0039290D01*
X0105488Y0039155D01*
X0105381Y0039022D01*
X0105270Y0038893D01*
X0105156Y0038766D01*
X0105039Y0038641D01*
X0104920Y0038520D01*
X0104797Y0038402D01*
X0104671Y0038287D01*
X0104543Y0038174D01*
X0104412Y0038065D01*
X0104278Y0037960D01*
X0104142Y0037857D01*
X0104003Y0037758D01*
X0103862Y0037662D01*
X0103719Y0037570D01*
X0103574Y0037481D01*
X0103426Y0037396D01*
X0103276Y0037314D01*
X0103125Y0037236D01*
X0102971Y0037162D01*
X0102816Y0037091D01*
X0102659Y0037025D01*
X0102501Y0036962D01*
X0102341Y0036903D01*
X0102179Y0036848D01*
X0102017Y0036797D01*
X0101853Y0036750D01*
X0101688Y0036707D01*
X0101522Y0036667D01*
X0101355Y0036632D01*
X0101188Y0036601D01*
X0101019Y0036575D01*
X0100850Y0036552D01*
X0100681Y0036533D01*
X0100511Y0036519D01*
X0100341Y0036508D01*
X0100170Y0036502D01*
X0100000Y0036500D01*
X0077000Y0036500D01*
X0076830Y0036502D01*
X0076659Y0036508D01*
X0076489Y0036519D01*
X0076319Y0036533D01*
X0076150Y0036552D01*
X0075981Y0036575D01*
X0075812Y0036601D01*
X0075645Y0036632D01*
X0075478Y0036667D01*
X0075312Y0036707D01*
X0075147Y0036750D01*
X0074983Y0036797D01*
X0074821Y0036848D01*
X0074659Y0036903D01*
X0074499Y0036962D01*
X0074341Y0037025D01*
X0074184Y0037091D01*
X0074029Y0037162D01*
X0073875Y0037236D01*
X0073724Y0037314D01*
X0073574Y0037396D01*
X0073426Y0037481D01*
X0073281Y0037570D01*
X0073138Y0037662D01*
X0072997Y0037758D01*
X0072858Y0037857D01*
X0072722Y0037960D01*
X0072588Y0038065D01*
X0072457Y0038174D01*
X0072329Y0038287D01*
X0072203Y0038402D01*
X0072080Y0038520D01*
X0071961Y0038641D01*
X0071844Y0038766D01*
X0071730Y0038893D01*
X0071619Y0039022D01*
X0071512Y0039155D01*
X0071408Y0039290D01*
X0071307Y0039427D01*
X0071209Y0039567D01*
X0071115Y0039709D01*
X0071025Y0039853D01*
X0070938Y0040000D01*
X0070854Y0040149D01*
X0070775Y0040299D01*
X0070699Y0040452D01*
X0070626Y0040606D01*
X0070558Y0040762D01*
X0070493Y0040920D01*
X0070432Y0041079D01*
X0070375Y0041240D01*
X0070322Y0041402D01*
X0070273Y0041565D01*
X0070228Y0041729D01*
X0070187Y0041895D01*
X0070149Y0042061D01*
X0070116Y0042229D01*
X0070088Y0042397D01*
X0070063Y0042565D01*
X0070042Y0042734D01*
X0070025Y0042904D01*
X0070013Y0043074D01*
X0070005Y0043244D01*
X0070001Y0043415D01*
X0070001Y0043585D01*
X0070005Y0043756D01*
X0070013Y0043926D01*
X0070025Y0044096D01*
X0070042Y0044266D01*
X0070063Y0044435D01*
X0070088Y0044603D01*
X0070116Y0044771D01*
X0070149Y0044939D01*
X0070187Y0045105D01*
X0070228Y0045271D01*
X0070273Y0045435D01*
X0070322Y0045598D01*
X0070375Y0045760D01*
X0070432Y0045921D01*
X0070493Y0046080D01*
X0070558Y0046238D01*
X0070626Y0046394D01*
X0070699Y0046548D01*
X0070775Y0046701D01*
X0070854Y0046851D01*
X0070938Y0047000D01*
X0071025Y0047147D01*
X0071115Y0047291D01*
X0071209Y0047433D01*
X0071307Y0047573D01*
X0071408Y0047710D01*
X0071512Y0047845D01*
X0071619Y0047978D01*
X0071730Y0048107D01*
X0071844Y0048234D01*
X0071961Y0048359D01*
X0072080Y0048480D01*
X0072203Y0048598D01*
X0072329Y0048713D01*
X0072457Y0048826D01*
X0072588Y0048935D01*
X0072722Y0049040D01*
X0072858Y0049143D01*
X0072997Y0049242D01*
X0073138Y0049338D01*
X0073281Y0049430D01*
X0073426Y0049519D01*
X0073574Y0049604D01*
X0073724Y0049686D01*
X0073875Y0049764D01*
X0074029Y0049838D01*
X0074184Y0049909D01*
X0074341Y0049975D01*
X0074499Y0050038D01*
X0074659Y0050097D01*
X0074821Y0050152D01*
X0074983Y0050203D01*
X0075147Y0050250D01*
X0075312Y0050293D01*
X0075478Y0050333D01*
X0075645Y0050368D01*
X0075812Y0050399D01*
X0075981Y0050425D01*
X0076150Y0050448D01*
X0076319Y0050467D01*
X0076489Y0050481D01*
X0076659Y0050492D01*
X0076830Y0050498D01*
X0077000Y0050500D01*
X0083500Y0043500D02*
X0086000Y0043500D01*
X0086000Y0040000D01*
X0087500Y0040000D02*
X0087500Y0047000D01*
X0089500Y0047000D01*
X0089500Y0040000D01*
X0087500Y0040000D01*
X0091000Y0040000D02*
X0091000Y0043500D01*
X0093500Y0043500D01*
X0091000Y0043500D02*
X0091000Y0047000D01*
X0086000Y0047000D02*
X0086000Y0043500D01*
X0234500Y0113000D02*
X0234500Y0124000D01*
X0234502Y0124060D01*
X0234507Y0124121D01*
X0234516Y0124180D01*
X0234529Y0124239D01*
X0234545Y0124298D01*
X0234565Y0124355D01*
X0234588Y0124410D01*
X0234615Y0124465D01*
X0234644Y0124517D01*
X0234677Y0124568D01*
X0234713Y0124617D01*
X0234751Y0124663D01*
X0234793Y0124707D01*
X0234837Y0124749D01*
X0234883Y0124787D01*
X0234932Y0124823D01*
X0234983Y0124856D01*
X0235035Y0124885D01*
X0235090Y0124912D01*
X0235145Y0124935D01*
X0235202Y0124955D01*
X0235261Y0124971D01*
X0235320Y0124984D01*
X0235379Y0124993D01*
X0235440Y0124998D01*
X0235500Y0125000D01*
X0241500Y0125000D01*
X0241560Y0124998D01*
X0241621Y0124993D01*
X0241680Y0124984D01*
X0241739Y0124971D01*
X0241798Y0124955D01*
X0241855Y0124935D01*
X0241910Y0124912D01*
X0241965Y0124885D01*
X0242017Y0124856D01*
X0242068Y0124823D01*
X0242117Y0124787D01*
X0242163Y0124749D01*
X0242207Y0124707D01*
X0242249Y0124663D01*
X0242287Y0124617D01*
X0242323Y0124568D01*
X0242356Y0124517D01*
X0242385Y0124465D01*
X0242412Y0124410D01*
X0242435Y0124355D01*
X0242455Y0124298D01*
X0242471Y0124239D01*
X0242484Y0124180D01*
X0242493Y0124121D01*
X0242498Y0124060D01*
X0242500Y0124000D01*
X0242500Y0113000D01*
X0242498Y0112940D01*
X0242493Y0112879D01*
X0242484Y0112820D01*
X0242471Y0112761D01*
X0242455Y0112702D01*
X0242435Y0112645D01*
X0242412Y0112590D01*
X0242385Y0112535D01*
X0242356Y0112483D01*
X0242323Y0112432D01*
X0242287Y0112383D01*
X0242249Y0112337D01*
X0242207Y0112293D01*
X0242163Y0112251D01*
X0242117Y0112213D01*
X0242068Y0112177D01*
X0242017Y0112144D01*
X0241965Y0112115D01*
X0241910Y0112088D01*
X0241855Y0112065D01*
X0241798Y0112045D01*
X0241739Y0112029D01*
X0241680Y0112016D01*
X0241621Y0112007D01*
X0241560Y0112002D01*
X0241500Y0112000D01*
X0235500Y0112000D01*
X0235440Y0112002D01*
X0235379Y0112007D01*
X0235320Y0112016D01*
X0235261Y0112029D01*
X0235202Y0112045D01*
X0235145Y0112065D01*
X0235090Y0112088D01*
X0235035Y0112115D01*
X0234983Y0112144D01*
X0234932Y0112177D01*
X0234883Y0112213D01*
X0234837Y0112251D01*
X0234793Y0112293D01*
X0234751Y0112337D01*
X0234713Y0112383D01*
X0234677Y0112432D01*
X0234644Y0112483D01*
X0234615Y0112535D01*
X0234588Y0112590D01*
X0234565Y0112645D01*
X0234545Y0112702D01*
X0234529Y0112761D01*
X0234516Y0112820D01*
X0234507Y0112879D01*
X0234502Y0112940D01*
X0234500Y0113000D01*
X0235500Y0129500D02*
X0241500Y0129500D01*
X0241560Y0129502D01*
X0241621Y0129507D01*
X0241680Y0129516D01*
X0241739Y0129529D01*
X0241798Y0129545D01*
X0241855Y0129565D01*
X0241910Y0129588D01*
X0241965Y0129615D01*
X0242017Y0129644D01*
X0242068Y0129677D01*
X0242117Y0129713D01*
X0242163Y0129751D01*
X0242207Y0129793D01*
X0242249Y0129837D01*
X0242287Y0129883D01*
X0242323Y0129932D01*
X0242356Y0129983D01*
X0242385Y0130035D01*
X0242412Y0130090D01*
X0242435Y0130145D01*
X0242455Y0130202D01*
X0242471Y0130261D01*
X0242484Y0130320D01*
X0242493Y0130379D01*
X0242498Y0130440D01*
X0242500Y0130500D01*
X0242500Y0141500D01*
X0242498Y0141560D01*
X0242493Y0141621D01*
X0242484Y0141680D01*
X0242471Y0141739D01*
X0242455Y0141798D01*
X0242435Y0141855D01*
X0242412Y0141910D01*
X0242385Y0141965D01*
X0242356Y0142017D01*
X0242323Y0142068D01*
X0242287Y0142117D01*
X0242249Y0142163D01*
X0242207Y0142207D01*
X0242163Y0142249D01*
X0242117Y0142287D01*
X0242068Y0142323D01*
X0242017Y0142356D01*
X0241965Y0142385D01*
X0241910Y0142412D01*
X0241855Y0142435D01*
X0241798Y0142455D01*
X0241739Y0142471D01*
X0241680Y0142484D01*
X0241621Y0142493D01*
X0241560Y0142498D01*
X0241500Y0142500D01*
X0235500Y0142500D01*
X0235440Y0142498D01*
X0235379Y0142493D01*
X0235320Y0142484D01*
X0235261Y0142471D01*
X0235202Y0142455D01*
X0235145Y0142435D01*
X0235090Y0142412D01*
X0235035Y0142385D01*
X0234983Y0142356D01*
X0234932Y0142323D01*
X0234883Y0142287D01*
X0234837Y0142249D01*
X0234793Y0142207D01*
X0234751Y0142163D01*
X0234713Y0142117D01*
X0234677Y0142068D01*
X0234644Y0142017D01*
X0234615Y0141965D01*
X0234588Y0141910D01*
X0234565Y0141855D01*
X0234545Y0141798D01*
X0234529Y0141739D01*
X0234516Y0141680D01*
X0234507Y0141621D01*
X0234502Y0141560D01*
X0234500Y0141500D01*
X0234500Y0130500D01*
X0234502Y0130440D01*
X0234507Y0130379D01*
X0234516Y0130320D01*
X0234529Y0130261D01*
X0234545Y0130202D01*
X0234565Y0130145D01*
X0234588Y0130090D01*
X0234615Y0130035D01*
X0234644Y0129983D01*
X0234677Y0129932D01*
X0234713Y0129883D01*
X0234751Y0129837D01*
X0234793Y0129793D01*
X0234837Y0129751D01*
X0234883Y0129713D01*
X0234932Y0129677D01*
X0234983Y0129644D01*
X0235035Y0129615D01*
X0235090Y0129588D01*
X0235145Y0129565D01*
X0235202Y0129545D01*
X0235261Y0129529D01*
X0235320Y0129516D01*
X0235379Y0129507D01*
X0235440Y0129502D01*
X0235500Y0129500D01*
X0275300Y0137000D02*
X0275300Y0115000D01*
X0277200Y0115000D01*
X0292400Y0107100D02*
X0292400Y0103100D01*
X0297500Y0083000D02*
X0274500Y0083000D01*
X0283500Y0079500D02*
X0283500Y0076000D01*
X0281000Y0076000D01*
X0283500Y0076000D02*
X0283500Y0072500D01*
X0285000Y0072500D02*
X0285000Y0079500D01*
X0287000Y0079500D01*
X0287000Y0072500D01*
X0285000Y0072500D01*
X0288500Y0072500D02*
X0288500Y0076000D01*
X0291000Y0076000D01*
X0288500Y0076000D02*
X0288500Y0079500D01*
X0297500Y0083000D02*
X0297670Y0082998D01*
X0297841Y0082992D01*
X0298011Y0082981D01*
X0298181Y0082967D01*
X0298350Y0082948D01*
X0298519Y0082925D01*
X0298688Y0082899D01*
X0298855Y0082868D01*
X0299022Y0082833D01*
X0299188Y0082793D01*
X0299353Y0082750D01*
X0299517Y0082703D01*
X0299679Y0082652D01*
X0299841Y0082597D01*
X0300001Y0082538D01*
X0300159Y0082475D01*
X0300316Y0082409D01*
X0300471Y0082338D01*
X0300625Y0082264D01*
X0300776Y0082186D01*
X0300926Y0082104D01*
X0301074Y0082019D01*
X0301219Y0081930D01*
X0301362Y0081838D01*
X0301503Y0081742D01*
X0301642Y0081643D01*
X0301778Y0081540D01*
X0301912Y0081435D01*
X0302043Y0081326D01*
X0302171Y0081213D01*
X0302297Y0081098D01*
X0302420Y0080980D01*
X0302539Y0080859D01*
X0302656Y0080734D01*
X0302770Y0080607D01*
X0302881Y0080478D01*
X0302988Y0080345D01*
X0303092Y0080210D01*
X0303193Y0080073D01*
X0303291Y0079933D01*
X0303385Y0079791D01*
X0303475Y0079647D01*
X0303562Y0079500D01*
X0303646Y0079351D01*
X0303725Y0079201D01*
X0303801Y0079048D01*
X0303874Y0078894D01*
X0303942Y0078738D01*
X0304007Y0078580D01*
X0304068Y0078421D01*
X0304125Y0078260D01*
X0304178Y0078098D01*
X0304227Y0077935D01*
X0304272Y0077771D01*
X0304313Y0077605D01*
X0304351Y0077439D01*
X0304384Y0077271D01*
X0304412Y0077103D01*
X0304437Y0076935D01*
X0304458Y0076766D01*
X0304475Y0076596D01*
X0304487Y0076426D01*
X0304495Y0076256D01*
X0304499Y0076085D01*
X0304499Y0075915D01*
X0304495Y0075744D01*
X0304487Y0075574D01*
X0304475Y0075404D01*
X0304458Y0075234D01*
X0304437Y0075065D01*
X0304412Y0074897D01*
X0304384Y0074729D01*
X0304351Y0074561D01*
X0304313Y0074395D01*
X0304272Y0074229D01*
X0304227Y0074065D01*
X0304178Y0073902D01*
X0304125Y0073740D01*
X0304068Y0073579D01*
X0304007Y0073420D01*
X0303942Y0073262D01*
X0303874Y0073106D01*
X0303801Y0072952D01*
X0303725Y0072799D01*
X0303646Y0072649D01*
X0303562Y0072500D01*
X0303475Y0072353D01*
X0303385Y0072209D01*
X0303291Y0072067D01*
X0303193Y0071927D01*
X0303092Y0071790D01*
X0302988Y0071655D01*
X0302881Y0071522D01*
X0302770Y0071393D01*
X0302656Y0071266D01*
X0302539Y0071141D01*
X0302420Y0071020D01*
X0302297Y0070902D01*
X0302171Y0070787D01*
X0302043Y0070674D01*
X0301912Y0070565D01*
X0301778Y0070460D01*
X0301642Y0070357D01*
X0301503Y0070258D01*
X0301362Y0070162D01*
X0301219Y0070070D01*
X0301074Y0069981D01*
X0300926Y0069896D01*
X0300776Y0069814D01*
X0300625Y0069736D01*
X0300471Y0069662D01*
X0300316Y0069591D01*
X0300159Y0069525D01*
X0300001Y0069462D01*
X0299841Y0069403D01*
X0299679Y0069348D01*
X0299517Y0069297D01*
X0299353Y0069250D01*
X0299188Y0069207D01*
X0299022Y0069167D01*
X0298855Y0069132D01*
X0298688Y0069101D01*
X0298519Y0069075D01*
X0298350Y0069052D01*
X0298181Y0069033D01*
X0298011Y0069019D01*
X0297841Y0069008D01*
X0297670Y0069002D01*
X0297500Y0069000D01*
X0274500Y0069000D01*
X0274330Y0069002D01*
X0274159Y0069008D01*
X0273989Y0069019D01*
X0273819Y0069033D01*
X0273650Y0069052D01*
X0273481Y0069075D01*
X0273312Y0069101D01*
X0273145Y0069132D01*
X0272978Y0069167D01*
X0272812Y0069207D01*
X0272647Y0069250D01*
X0272483Y0069297D01*
X0272321Y0069348D01*
X0272159Y0069403D01*
X0271999Y0069462D01*
X0271841Y0069525D01*
X0271684Y0069591D01*
X0271529Y0069662D01*
X0271375Y0069736D01*
X0271224Y0069814D01*
X0271074Y0069896D01*
X0270926Y0069981D01*
X0270781Y0070070D01*
X0270638Y0070162D01*
X0270497Y0070258D01*
X0270358Y0070357D01*
X0270222Y0070460D01*
X0270088Y0070565D01*
X0269957Y0070674D01*
X0269829Y0070787D01*
X0269703Y0070902D01*
X0269580Y0071020D01*
X0269461Y0071141D01*
X0269344Y0071266D01*
X0269230Y0071393D01*
X0269119Y0071522D01*
X0269012Y0071655D01*
X0268908Y0071790D01*
X0268807Y0071927D01*
X0268709Y0072067D01*
X0268615Y0072209D01*
X0268525Y0072353D01*
X0268438Y0072500D01*
X0268354Y0072649D01*
X0268275Y0072799D01*
X0268199Y0072952D01*
X0268126Y0073106D01*
X0268058Y0073262D01*
X0267993Y0073420D01*
X0267932Y0073579D01*
X0267875Y0073740D01*
X0267822Y0073902D01*
X0267773Y0074065D01*
X0267728Y0074229D01*
X0267687Y0074395D01*
X0267649Y0074561D01*
X0267616Y0074729D01*
X0267588Y0074897D01*
X0267563Y0075065D01*
X0267542Y0075234D01*
X0267525Y0075404D01*
X0267513Y0075574D01*
X0267505Y0075744D01*
X0267501Y0075915D01*
X0267501Y0076085D01*
X0267505Y0076256D01*
X0267513Y0076426D01*
X0267525Y0076596D01*
X0267542Y0076766D01*
X0267563Y0076935D01*
X0267588Y0077103D01*
X0267616Y0077271D01*
X0267649Y0077439D01*
X0267687Y0077605D01*
X0267728Y0077771D01*
X0267773Y0077935D01*
X0267822Y0078098D01*
X0267875Y0078260D01*
X0267932Y0078421D01*
X0267993Y0078580D01*
X0268058Y0078738D01*
X0268126Y0078894D01*
X0268199Y0079048D01*
X0268275Y0079201D01*
X0268354Y0079351D01*
X0268438Y0079500D01*
X0268525Y0079647D01*
X0268615Y0079791D01*
X0268709Y0079933D01*
X0268807Y0080073D01*
X0268908Y0080210D01*
X0269012Y0080345D01*
X0269119Y0080478D01*
X0269230Y0080607D01*
X0269344Y0080734D01*
X0269461Y0080859D01*
X0269580Y0080980D01*
X0269703Y0081098D01*
X0269829Y0081213D01*
X0269957Y0081326D01*
X0270088Y0081435D01*
X0270222Y0081540D01*
X0270358Y0081643D01*
X0270497Y0081742D01*
X0270638Y0081838D01*
X0270781Y0081930D01*
X0270926Y0082019D01*
X0271074Y0082104D01*
X0271224Y0082186D01*
X0271375Y0082264D01*
X0271529Y0082338D01*
X0271684Y0082409D01*
X0271841Y0082475D01*
X0271999Y0082538D01*
X0272159Y0082597D01*
X0272321Y0082652D01*
X0272483Y0082703D01*
X0272647Y0082750D01*
X0272812Y0082793D01*
X0272978Y0082833D01*
X0273145Y0082868D01*
X0273312Y0082899D01*
X0273481Y0082925D01*
X0273650Y0082948D01*
X0273819Y0082967D01*
X0273989Y0082981D01*
X0274159Y0082992D01*
X0274330Y0082998D01*
X0274500Y0083000D01*
X0314800Y0115000D02*
X0316700Y0115000D01*
X0316700Y0124800D01*
X0316700Y0127200D01*
X0316700Y0137000D01*
X0314800Y0137000D01*
X0316700Y0127200D02*
X0316631Y0127198D01*
X0316563Y0127192D01*
X0316495Y0127182D01*
X0316428Y0127169D01*
X0316362Y0127151D01*
X0316297Y0127130D01*
X0316233Y0127105D01*
X0316171Y0127077D01*
X0316110Y0127045D01*
X0316051Y0127010D01*
X0315995Y0126971D01*
X0315940Y0126929D01*
X0315889Y0126884D01*
X0315839Y0126836D01*
X0315793Y0126786D01*
X0315750Y0126733D01*
X0315709Y0126677D01*
X0315672Y0126620D01*
X0315639Y0126560D01*
X0315608Y0126498D01*
X0315582Y0126435D01*
X0315559Y0126371D01*
X0315539Y0126305D01*
X0315524Y0126238D01*
X0315512Y0126171D01*
X0315504Y0126103D01*
X0315500Y0126034D01*
X0315500Y0125966D01*
X0315504Y0125897D01*
X0315512Y0125829D01*
X0315524Y0125762D01*
X0315539Y0125695D01*
X0315559Y0125629D01*
X0315582Y0125565D01*
X0315608Y0125502D01*
X0315639Y0125440D01*
X0315672Y0125380D01*
X0315709Y0125323D01*
X0315750Y0125267D01*
X0315793Y0125214D01*
X0315839Y0125164D01*
X0315889Y0125116D01*
X0315940Y0125071D01*
X0315995Y0125029D01*
X0316051Y0124990D01*
X0316110Y0124955D01*
X0316171Y0124923D01*
X0316233Y0124895D01*
X0316297Y0124870D01*
X0316362Y0124849D01*
X0316428Y0124831D01*
X0316495Y0124818D01*
X0316563Y0124808D01*
X0316631Y0124802D01*
X0316700Y0124800D01*
X0289700Y0144800D02*
X0289700Y0148800D01*
X0277200Y0137000D02*
X0275300Y0137000D01*
X0362500Y0083100D02*
X0362500Y0078900D01*
X0367200Y0077600D02*
X0369800Y0077600D01*
X0374500Y0078900D02*
X0374500Y0079800D01*
X0374500Y0082200D01*
X0374500Y0083100D01*
X0374500Y0082200D02*
X0374431Y0082198D01*
X0374363Y0082192D01*
X0374295Y0082182D01*
X0374228Y0082169D01*
X0374162Y0082151D01*
X0374097Y0082130D01*
X0374033Y0082105D01*
X0373971Y0082077D01*
X0373910Y0082045D01*
X0373851Y0082010D01*
X0373795Y0081971D01*
X0373740Y0081929D01*
X0373689Y0081884D01*
X0373639Y0081836D01*
X0373593Y0081786D01*
X0373550Y0081733D01*
X0373509Y0081677D01*
X0373472Y0081620D01*
X0373439Y0081560D01*
X0373408Y0081498D01*
X0373382Y0081435D01*
X0373359Y0081371D01*
X0373339Y0081305D01*
X0373324Y0081238D01*
X0373312Y0081171D01*
X0373304Y0081103D01*
X0373300Y0081034D01*
X0373300Y0080966D01*
X0373304Y0080897D01*
X0373312Y0080829D01*
X0373324Y0080762D01*
X0373339Y0080695D01*
X0373359Y0080629D01*
X0373382Y0080565D01*
X0373408Y0080502D01*
X0373439Y0080440D01*
X0373472Y0080380D01*
X0373509Y0080323D01*
X0373550Y0080267D01*
X0373593Y0080214D01*
X0373639Y0080164D01*
X0373689Y0080116D01*
X0373740Y0080071D01*
X0373795Y0080029D01*
X0373851Y0079990D01*
X0373910Y0079955D01*
X0373971Y0079923D01*
X0374033Y0079895D01*
X0374097Y0079870D01*
X0374162Y0079849D01*
X0374228Y0079831D01*
X0374295Y0079818D01*
X0374363Y0079808D01*
X0374431Y0079802D01*
X0374500Y0079800D01*
X0360853Y0027705D02*
X0357651Y0027705D01*
X0357651Y0021300D01*
X0360853Y0021300D01*
X0361921Y0022368D01*
X0361921Y0023435D01*
X0360853Y0024503D01*
X0357651Y0024503D01*
X0355476Y0026638D02*
X0354408Y0027705D01*
X0352273Y0027705D01*
X0351205Y0026638D01*
X0351205Y0022368D01*
X0352273Y0021300D01*
X0354408Y0021300D01*
X0355476Y0022368D01*
X0349030Y0024503D02*
X0349030Y0026638D01*
X0347962Y0027705D01*
X0344760Y0027705D01*
X0344760Y0021300D01*
X0344760Y0023435D02*
X0347962Y0023435D01*
X0349030Y0024503D01*
X0360853Y0024503D02*
X0361921Y0025570D01*
X0361921Y0026638D01*
X0360853Y0027705D01*
X0336152Y0025570D02*
X0334017Y0025570D01*
X0335085Y0026638D02*
X0335085Y0022368D01*
X0336152Y0021300D01*
X0331842Y0021300D02*
X0331842Y0024503D01*
X0330774Y0025570D01*
X0327572Y0025570D01*
X0327572Y0021300D01*
X0325397Y0023435D02*
X0321126Y0023435D01*
X0321126Y0022368D02*
X0321126Y0024503D01*
X0322194Y0025570D01*
X0324329Y0025570D01*
X0325397Y0024503D01*
X0325397Y0023435D01*
X0324329Y0021300D02*
X0322194Y0021300D01*
X0321126Y0022368D01*
X0318951Y0021300D02*
X0318951Y0024503D01*
X0317883Y0025570D01*
X0316816Y0024503D01*
X0316816Y0021300D01*
X0314681Y0021300D02*
X0314681Y0025570D01*
X0315748Y0025570D01*
X0316816Y0024503D01*
X0312506Y0024503D02*
X0312506Y0023435D01*
X0308235Y0023435D01*
X0308235Y0022368D02*
X0308235Y0024503D01*
X0309303Y0025570D01*
X0311438Y0025570D01*
X0312506Y0024503D01*
X0311438Y0021300D02*
X0309303Y0021300D01*
X0308235Y0022368D01*
X0306067Y0025570D02*
X0304999Y0025570D01*
X0302864Y0023435D01*
X0302864Y0021300D02*
X0302864Y0025570D01*
X0300689Y0025570D02*
X0300689Y0021300D01*
X0297486Y0021300D01*
X0296418Y0022368D01*
X0296418Y0025570D01*
X0294243Y0025570D02*
X0291041Y0025570D01*
X0289973Y0024503D01*
X0291041Y0023435D01*
X0293176Y0023435D01*
X0294243Y0022368D01*
X0293176Y0021300D01*
X0289973Y0021300D01*
X0287798Y0021300D02*
X0287798Y0024503D01*
X0286730Y0025570D01*
X0284595Y0025570D01*
X0284595Y0023435D02*
X0287798Y0023435D01*
X0287798Y0021300D02*
X0284595Y0021300D01*
X0283527Y0022368D01*
X0284595Y0023435D01*
X0281352Y0023435D02*
X0277082Y0023435D01*
X0277082Y0022368D02*
X0277082Y0024503D01*
X0278150Y0025570D01*
X0280285Y0025570D01*
X0281352Y0024503D01*
X0281352Y0023435D01*
X0280285Y0021300D02*
X0278150Y0021300D01*
X0277082Y0022368D01*
X0274907Y0021300D02*
X0274907Y0027705D01*
X0272772Y0025570D01*
X0270636Y0027705D01*
X0270636Y0021300D01*
X0262016Y0023435D02*
X0262016Y0027705D01*
X0262016Y0023435D02*
X0259881Y0021300D01*
X0257745Y0023435D01*
X0257745Y0027705D01*
X0255570Y0026638D02*
X0255570Y0024503D01*
X0254503Y0023435D01*
X0251300Y0023435D01*
X0251300Y0021300D02*
X0251300Y0027705D01*
X0254503Y0027705D01*
X0255570Y0026638D01*
X0369100Y0162600D02*
X0372900Y0162600D01*
X0372900Y0174400D02*
X0372200Y0174400D01*
X0369800Y0174400D01*
X0369100Y0174400D01*
X0369800Y0174400D02*
X0369802Y0174331D01*
X0369808Y0174263D01*
X0369818Y0174195D01*
X0369831Y0174128D01*
X0369849Y0174062D01*
X0369870Y0173997D01*
X0369895Y0173933D01*
X0369923Y0173871D01*
X0369955Y0173810D01*
X0369990Y0173751D01*
X0370029Y0173695D01*
X0370071Y0173640D01*
X0370116Y0173589D01*
X0370164Y0173539D01*
X0370214Y0173493D01*
X0370267Y0173450D01*
X0370323Y0173409D01*
X0370380Y0173372D01*
X0370440Y0173339D01*
X0370502Y0173308D01*
X0370565Y0173282D01*
X0370629Y0173259D01*
X0370695Y0173239D01*
X0370762Y0173224D01*
X0370829Y0173212D01*
X0370897Y0173204D01*
X0370966Y0173200D01*
X0371034Y0173200D01*
X0371103Y0173204D01*
X0371171Y0173212D01*
X0371238Y0173224D01*
X0371305Y0173239D01*
X0371371Y0173259D01*
X0371435Y0173282D01*
X0371498Y0173308D01*
X0371560Y0173339D01*
X0371620Y0173372D01*
X0371677Y0173409D01*
X0371733Y0173450D01*
X0371786Y0173493D01*
X0371836Y0173539D01*
X0371884Y0173589D01*
X0371929Y0173640D01*
X0371971Y0173695D01*
X0372010Y0173751D01*
X0372045Y0173810D01*
X0372077Y0173871D01*
X0372105Y0173933D01*
X0372130Y0173997D01*
X0372151Y0174062D01*
X0372169Y0174128D01*
X0372182Y0174195D01*
X0372192Y0174263D01*
X0372198Y0174331D01*
X0372200Y0174400D01*
X0376374Y0226500D02*
X0358874Y0226500D01*
X0358874Y0231000D01*
X0376374Y0231000D01*
X0376374Y0227500D01*
X0377874Y0227500D01*
X0377874Y0233000D01*
X0378874Y0233000D02*
X0378874Y0226500D01*
X0376374Y0226500D01*
X0376374Y0227500D01*
X0377874Y0249000D02*
X0377874Y0254500D01*
X0376374Y0254500D01*
X0376374Y0251000D01*
X0358874Y0251000D01*
X0358874Y0255500D01*
X0376374Y0255500D01*
X0378874Y0255500D01*
X0378874Y0249000D01*
X0376374Y0254500D02*
X0376374Y0255500D01*
X0348374Y0241000D02*
X0322374Y0241000D01*
X0311874Y0251000D02*
X0311874Y0255500D01*
X0294374Y0255500D01*
X0291874Y0255500D01*
X0291874Y0249000D01*
X0292874Y0249000D02*
X0292874Y0254500D01*
X0294374Y0254500D01*
X0294374Y0251000D01*
X0311874Y0251000D01*
X0294374Y0254500D02*
X0294374Y0255500D01*
X0292874Y0233000D02*
X0292874Y0227500D01*
X0294374Y0227500D01*
X0294374Y0231000D01*
X0311874Y0231000D01*
X0311874Y0226500D01*
X0294374Y0226500D01*
X0291874Y0226500D01*
X0291874Y0233000D01*
X0294374Y0227500D02*
X0294374Y0226500D01*
X0301990Y0307368D02*
X0301990Y0311638D01*
X0299855Y0309503D02*
X0304125Y0309503D01*
X0332550Y0309503D02*
X0336820Y0309503D01*
X0334685Y0311638D02*
X0334685Y0307368D01*
X0374855Y0309503D02*
X0379125Y0309503D01*
X0260570Y0309503D02*
X0256300Y0309503D01*
D12*
X0271141Y0310676D02*
X0271141Y0307607D01*
X0272676Y0306072D01*
X0274210Y0307607D01*
X0274210Y0310676D01*
X0275745Y0309909D02*
X0276512Y0310676D01*
X0278047Y0310676D01*
X0278814Y0309909D01*
X0278814Y0306839D01*
X0278047Y0306072D01*
X0276512Y0306072D01*
X0275745Y0306839D01*
X0275745Y0309909D01*
X0280349Y0310676D02*
X0280349Y0306839D01*
X0281116Y0306072D01*
X0282651Y0306072D01*
X0283418Y0306839D01*
X0283418Y0310676D01*
X0284953Y0310676D02*
X0288022Y0310676D01*
X0286487Y0310676D02*
X0286487Y0306072D01*
X0235800Y0292314D02*
X0234265Y0290012D01*
X0232731Y0292314D01*
X0231196Y0290012D02*
X0235800Y0290012D01*
X0235033Y0288477D02*
X0235800Y0287710D01*
X0235800Y0286175D01*
X0235033Y0285408D01*
X0231963Y0288477D01*
X0235033Y0288477D01*
X0235033Y0285408D02*
X0231963Y0285408D01*
X0231196Y0286175D01*
X0231196Y0287710D01*
X0231963Y0288477D01*
X0231196Y0283873D02*
X0231963Y0282339D01*
X0233498Y0280804D01*
X0233498Y0283106D01*
X0234265Y0283873D01*
X0235033Y0283873D01*
X0235800Y0283106D01*
X0235800Y0281571D01*
X0235033Y0280804D01*
X0233498Y0280804D01*
X0233498Y0279269D02*
X0235033Y0279269D01*
X0235800Y0278502D01*
X0235800Y0276967D01*
X0235033Y0276200D01*
X0233498Y0276200D02*
X0232731Y0277735D01*
X0232731Y0278502D01*
X0233498Y0279269D01*
X0231196Y0279269D02*
X0231196Y0276200D01*
X0233498Y0276200D01*
X0231963Y0267165D02*
X0235033Y0264096D01*
X0235800Y0264863D01*
X0235800Y0266398D01*
X0235033Y0267165D01*
X0231963Y0267165D01*
X0231196Y0266398D01*
X0231196Y0264863D01*
X0231963Y0264096D01*
X0235033Y0264096D01*
X0233498Y0262561D02*
X0233498Y0259492D01*
X0231196Y0261794D01*
X0235800Y0261794D01*
X0235033Y0257957D02*
X0235800Y0257190D01*
X0235800Y0254888D01*
X0231196Y0254888D01*
X0231196Y0257190D01*
X0231963Y0257957D01*
X0232731Y0257957D01*
X0233498Y0257190D01*
X0233498Y0254888D01*
X0232731Y0253354D02*
X0231963Y0253354D01*
X0231196Y0252586D01*
X0231196Y0251052D01*
X0231963Y0250284D01*
X0231963Y0248750D02*
X0233498Y0248750D01*
X0234265Y0247982D01*
X0234265Y0245680D01*
X0234265Y0247215D02*
X0235800Y0248750D01*
X0235800Y0250284D02*
X0232731Y0253354D01*
X0235800Y0253354D02*
X0235800Y0250284D01*
X0231963Y0248750D02*
X0231196Y0247982D01*
X0231196Y0245680D01*
X0235800Y0245680D01*
X0233498Y0257190D02*
X0234265Y0257957D01*
X0235033Y0257957D01*
X0205800Y0231460D02*
X0205033Y0232227D01*
X0204265Y0232227D01*
X0203498Y0231460D01*
X0203498Y0229158D01*
X0202731Y0227623D02*
X0203498Y0226856D01*
X0204265Y0227623D01*
X0205033Y0227623D01*
X0205800Y0226856D01*
X0205800Y0225321D01*
X0205033Y0224554D01*
X0205800Y0223019D02*
X0204265Y0221485D01*
X0204265Y0222252D02*
X0204265Y0219950D01*
X0205800Y0219950D02*
X0201196Y0219950D01*
X0201196Y0222252D01*
X0201963Y0223019D01*
X0203498Y0223019D01*
X0204265Y0222252D01*
X0201963Y0224554D02*
X0201196Y0225321D01*
X0201196Y0226856D01*
X0201963Y0227623D01*
X0202731Y0227623D01*
X0203498Y0226856D02*
X0203498Y0226089D01*
X0201196Y0229158D02*
X0201196Y0231460D01*
X0201963Y0232227D01*
X0202731Y0232227D01*
X0203498Y0231460D01*
X0205800Y0231460D02*
X0205800Y0229158D01*
X0201196Y0229158D01*
X0197050Y0242326D02*
X0192446Y0242326D01*
X0192446Y0244628D01*
X0193213Y0245396D01*
X0194748Y0245396D01*
X0195515Y0244628D01*
X0195515Y0242326D01*
X0195515Y0243861D02*
X0197050Y0245396D01*
X0197050Y0246930D02*
X0193981Y0250000D01*
X0193213Y0250000D01*
X0192446Y0249232D01*
X0192446Y0247698D01*
X0193213Y0246930D01*
X0197050Y0246930D02*
X0197050Y0250000D01*
X0197050Y0251534D02*
X0192446Y0251534D01*
X0192446Y0253836D01*
X0193213Y0254604D01*
X0193981Y0254604D01*
X0194748Y0253836D01*
X0194748Y0251534D01*
X0197050Y0251534D02*
X0197050Y0253836D01*
X0196283Y0254604D01*
X0195515Y0254604D01*
X0194748Y0253836D01*
X0194748Y0256138D02*
X0194748Y0259207D01*
X0193213Y0260742D02*
X0192446Y0261509D01*
X0192446Y0263044D01*
X0193213Y0263811D01*
X0196283Y0260742D01*
X0197050Y0261509D01*
X0197050Y0263044D01*
X0196283Y0263811D01*
X0193213Y0263811D01*
X0193213Y0265346D02*
X0192446Y0266113D01*
X0192446Y0267648D01*
X0193213Y0268415D01*
X0196283Y0265346D01*
X0197050Y0266113D01*
X0197050Y0267648D01*
X0196283Y0268415D01*
X0193213Y0268415D01*
X0193213Y0265346D02*
X0196283Y0265346D01*
X0196283Y0260742D02*
X0193213Y0260742D01*
X0192446Y0258440D02*
X0194748Y0256138D01*
X0197050Y0258440D02*
X0192446Y0258440D01*
X0188300Y0259207D02*
X0185231Y0259207D01*
X0183696Y0257673D01*
X0185231Y0256138D01*
X0188300Y0256138D01*
X0188300Y0254604D02*
X0188300Y0251534D01*
X0185231Y0254604D01*
X0184463Y0254604D01*
X0183696Y0253836D01*
X0183696Y0252302D01*
X0184463Y0251534D01*
X0184463Y0250000D02*
X0185998Y0250000D01*
X0186765Y0249232D01*
X0186765Y0246930D01*
X0186765Y0248465D02*
X0188300Y0250000D01*
X0188300Y0246930D02*
X0183696Y0246930D01*
X0183696Y0249232D01*
X0184463Y0250000D01*
X0185998Y0256138D02*
X0185998Y0259207D01*
X0185998Y0260742D02*
X0183696Y0263044D01*
X0188300Y0263044D01*
X0185998Y0263811D02*
X0185998Y0260742D01*
X0184463Y0265346D02*
X0183696Y0266113D01*
X0183696Y0267648D01*
X0184463Y0268415D01*
X0187533Y0265346D01*
X0188300Y0266113D01*
X0188300Y0267648D01*
X0187533Y0268415D01*
X0184463Y0268415D01*
X0184463Y0265346D02*
X0187533Y0265346D01*
X0187533Y0276200D02*
X0188300Y0276967D01*
X0188300Y0278502D01*
X0187533Y0279269D01*
X0185998Y0279269D01*
X0185231Y0278502D01*
X0185231Y0277735D01*
X0185998Y0276200D01*
X0183696Y0276200D01*
X0183696Y0279269D01*
X0185998Y0280804D02*
X0184463Y0282339D01*
X0183696Y0283873D01*
X0184463Y0285408D02*
X0183696Y0286175D01*
X0183696Y0287710D01*
X0184463Y0288477D01*
X0187533Y0285408D01*
X0188300Y0286175D01*
X0188300Y0287710D01*
X0187533Y0288477D01*
X0184463Y0288477D01*
X0183696Y0290012D02*
X0188300Y0290012D01*
X0186765Y0290012D02*
X0185231Y0292314D01*
X0186765Y0290012D02*
X0188300Y0292314D01*
X0191196Y0292314D02*
X0192731Y0293848D01*
X0191196Y0295383D01*
X0195800Y0295383D01*
X0195800Y0292314D02*
X0191196Y0292314D01*
X0191963Y0290779D02*
X0191196Y0290012D01*
X0191196Y0288477D01*
X0191963Y0287710D01*
X0192731Y0287710D01*
X0193498Y0288477D01*
X0193498Y0290779D01*
X0195033Y0290779D02*
X0191963Y0290779D01*
X0195033Y0290779D02*
X0195800Y0290012D01*
X0195800Y0288477D01*
X0195033Y0287710D01*
X0193498Y0286175D02*
X0193498Y0283106D01*
X0191196Y0285408D01*
X0195800Y0285408D01*
X0195800Y0281571D02*
X0195800Y0280804D01*
X0195033Y0280804D01*
X0195033Y0281571D01*
X0195800Y0281571D01*
X0195033Y0279269D02*
X0195800Y0278502D01*
X0195800Y0276967D01*
X0195033Y0276200D01*
X0193498Y0276200D02*
X0192731Y0277735D01*
X0192731Y0278502D01*
X0193498Y0279269D01*
X0195033Y0279269D01*
X0193498Y0276200D02*
X0191196Y0276200D01*
X0191196Y0279269D01*
X0188300Y0281571D02*
X0188300Y0283106D01*
X0187533Y0283873D01*
X0186765Y0283873D01*
X0185998Y0283106D01*
X0185998Y0280804D01*
X0187533Y0280804D01*
X0188300Y0281571D01*
X0187533Y0285408D02*
X0184463Y0285408D01*
X0148300Y0286658D02*
X0143696Y0286658D01*
X0145998Y0284356D01*
X0145998Y0287425D01*
X0145231Y0288960D02*
X0145998Y0289727D01*
X0145998Y0292029D01*
X0144463Y0292029D02*
X0143696Y0291262D01*
X0143696Y0289727D01*
X0144463Y0288960D01*
X0145231Y0288960D01*
X0147533Y0288960D02*
X0148300Y0289727D01*
X0148300Y0291262D01*
X0147533Y0292029D01*
X0144463Y0292029D01*
X0143696Y0293564D02*
X0145231Y0295098D01*
X0143696Y0296633D01*
X0148300Y0296633D01*
X0148300Y0293564D02*
X0143696Y0293564D01*
X0147533Y0282821D02*
X0148300Y0282821D01*
X0148300Y0282054D01*
X0147533Y0282054D01*
X0147533Y0282821D01*
X0147533Y0280519D02*
X0145998Y0280519D01*
X0145231Y0279752D01*
X0145231Y0278985D01*
X0145998Y0277450D01*
X0143696Y0277450D01*
X0143696Y0280519D01*
X0147533Y0280519D02*
X0148300Y0279752D01*
X0148300Y0278217D01*
X0147533Y0277450D01*
X0147533Y0269665D02*
X0144463Y0269665D01*
X0147533Y0266596D01*
X0148300Y0267363D01*
X0148300Y0268898D01*
X0147533Y0269665D01*
X0147533Y0266596D02*
X0144463Y0266596D01*
X0143696Y0267363D01*
X0143696Y0268898D01*
X0144463Y0269665D01*
X0144463Y0265061D02*
X0147533Y0261992D01*
X0148300Y0262759D01*
X0148300Y0264294D01*
X0147533Y0265061D01*
X0144463Y0265061D01*
X0143696Y0264294D01*
X0143696Y0262759D01*
X0144463Y0261992D01*
X0147533Y0261992D01*
X0145998Y0260457D02*
X0145998Y0257388D01*
X0143696Y0259690D01*
X0148300Y0259690D01*
X0148300Y0255854D02*
X0145231Y0255854D01*
X0143696Y0254319D01*
X0145231Y0252784D01*
X0148300Y0252784D01*
X0148300Y0251250D02*
X0148300Y0248180D01*
X0145231Y0251250D01*
X0144463Y0251250D01*
X0143696Y0250482D01*
X0143696Y0248948D01*
X0144463Y0248180D01*
X0144463Y0246646D02*
X0145998Y0246646D01*
X0146765Y0245878D01*
X0146765Y0243576D01*
X0148300Y0243576D02*
X0143696Y0243576D01*
X0143696Y0245878D01*
X0144463Y0246646D01*
X0146765Y0245111D02*
X0148300Y0246646D01*
X0145998Y0252784D02*
X0145998Y0255854D01*
X0137165Y0259967D02*
X0136398Y0259200D01*
X0134863Y0259200D01*
X0134096Y0259967D01*
X0134096Y0260735D01*
X0134863Y0261502D01*
X0136398Y0261502D01*
X0137165Y0260735D01*
X0137165Y0259967D01*
X0136398Y0261502D02*
X0137165Y0262269D01*
X0137165Y0263037D01*
X0136398Y0263804D01*
X0134863Y0263804D01*
X0134096Y0263037D01*
X0134096Y0262269D01*
X0134863Y0261502D01*
X0132561Y0259200D02*
X0129492Y0259200D01*
X0131027Y0259200D02*
X0131027Y0263804D01*
X0129492Y0262269D01*
X0127957Y0263037D02*
X0127190Y0263804D01*
X0125656Y0263804D01*
X0124888Y0263037D01*
X0124888Y0259967D01*
X0125656Y0259200D01*
X0127190Y0259200D01*
X0127957Y0259967D01*
X0124665Y0266950D02*
X0122363Y0266950D01*
X0121596Y0267717D01*
X0121596Y0270019D01*
X0120061Y0270787D02*
X0116992Y0267717D01*
X0117759Y0266950D01*
X0119294Y0266950D01*
X0120061Y0267717D01*
X0120061Y0270787D01*
X0119294Y0271554D01*
X0117759Y0271554D01*
X0116992Y0270787D01*
X0116992Y0267717D01*
X0115457Y0266950D02*
X0112388Y0266950D01*
X0113923Y0266950D02*
X0113923Y0271554D01*
X0112388Y0270019D01*
X0124665Y0270019D02*
X0124665Y0266950D01*
X0125656Y0247554D02*
X0124888Y0246787D01*
X0124888Y0243717D01*
X0125656Y0242950D01*
X0127190Y0242950D01*
X0127957Y0243717D01*
X0129492Y0242950D02*
X0132561Y0242950D01*
X0131027Y0242950D02*
X0131027Y0247554D01*
X0129492Y0246019D01*
X0127957Y0246787D02*
X0127190Y0247554D01*
X0125656Y0247554D01*
X0134096Y0246787D02*
X0134096Y0246019D01*
X0134863Y0245252D01*
X0137165Y0245252D01*
X0137165Y0246787D02*
X0136398Y0247554D01*
X0134863Y0247554D01*
X0134096Y0246787D01*
X0137165Y0246787D02*
X0137165Y0243717D01*
X0136398Y0242950D01*
X0134863Y0242950D01*
X0134096Y0243717D01*
X0122165Y0238769D02*
X0122165Y0235700D01*
X0119863Y0235700D01*
X0119096Y0236467D01*
X0119096Y0238769D01*
X0117561Y0235700D02*
X0114492Y0235700D01*
X0112957Y0235700D02*
X0112190Y0235700D01*
X0112190Y0236467D01*
X0112957Y0236467D01*
X0112957Y0235700D01*
X0110656Y0236467D02*
X0110656Y0239537D01*
X0107586Y0236467D01*
X0108354Y0235700D01*
X0109888Y0235700D01*
X0110656Y0236467D01*
X0110656Y0239537D02*
X0109888Y0240304D01*
X0108354Y0240304D01*
X0107586Y0239537D01*
X0107586Y0236467D01*
X0114492Y0238769D02*
X0116027Y0240304D01*
X0116027Y0235700D01*
X0095915Y0235700D02*
X0095915Y0238769D01*
X0092846Y0238769D02*
X0092846Y0236467D01*
X0093613Y0235700D01*
X0095915Y0235700D01*
X0091311Y0235700D02*
X0088242Y0235700D01*
X0086707Y0235700D02*
X0085940Y0235700D01*
X0085940Y0236467D01*
X0086707Y0236467D01*
X0086707Y0235700D01*
X0084406Y0236467D02*
X0083638Y0235700D01*
X0082104Y0235700D01*
X0081336Y0236467D01*
X0084406Y0239537D01*
X0084406Y0236467D01*
X0084406Y0239537D02*
X0083638Y0240304D01*
X0082104Y0240304D01*
X0081336Y0239537D01*
X0081336Y0236467D01*
X0078415Y0242950D02*
X0075346Y0242950D01*
X0073811Y0242950D02*
X0070742Y0242950D01*
X0073811Y0246019D01*
X0073811Y0246787D01*
X0073044Y0247554D01*
X0071509Y0247554D01*
X0070742Y0246787D01*
X0069207Y0246787D02*
X0068440Y0247554D01*
X0066906Y0247554D01*
X0066138Y0246787D01*
X0066138Y0243717D01*
X0066906Y0242950D01*
X0068440Y0242950D01*
X0069207Y0243717D01*
X0075346Y0246019D02*
X0076881Y0247554D01*
X0076881Y0242950D01*
X0088242Y0238769D02*
X0089777Y0240304D01*
X0089777Y0235700D01*
X0077648Y0259200D02*
X0076113Y0259200D01*
X0075346Y0259967D01*
X0078415Y0263037D01*
X0078415Y0259967D01*
X0077648Y0259200D01*
X0075346Y0259967D02*
X0075346Y0263037D01*
X0076113Y0263804D01*
X0077648Y0263804D01*
X0078415Y0263037D01*
X0073811Y0263037D02*
X0073044Y0263804D01*
X0071509Y0263804D01*
X0070742Y0263037D01*
X0069207Y0263037D02*
X0068440Y0263804D01*
X0066906Y0263804D01*
X0066138Y0263037D01*
X0066138Y0259967D01*
X0066906Y0259200D01*
X0068440Y0259200D01*
X0069207Y0259967D01*
X0070742Y0259200D02*
X0073811Y0262269D01*
X0073811Y0263037D01*
X0073811Y0259200D02*
X0070742Y0259200D01*
X0051550Y0256898D02*
X0051550Y0255363D01*
X0050783Y0254596D01*
X0051550Y0253061D02*
X0050015Y0251527D01*
X0050015Y0252294D02*
X0050015Y0249992D01*
X0051550Y0249992D02*
X0046946Y0249992D01*
X0046946Y0252294D01*
X0047713Y0253061D01*
X0049248Y0253061D01*
X0050015Y0252294D01*
X0047713Y0254596D02*
X0046946Y0255363D01*
X0046946Y0256898D01*
X0047713Y0257665D01*
X0048481Y0257665D01*
X0049248Y0256898D01*
X0050015Y0257665D01*
X0050783Y0257665D01*
X0051550Y0256898D01*
X0049248Y0256898D02*
X0049248Y0256131D01*
X0048998Y0258854D02*
X0048998Y0261923D01*
X0050533Y0263457D02*
X0050533Y0264225D01*
X0051300Y0264225D01*
X0051300Y0263457D01*
X0050533Y0263457D01*
X0050533Y0265759D02*
X0051300Y0265759D01*
X0050533Y0265759D02*
X0047463Y0268829D01*
X0046696Y0268829D01*
X0046696Y0265759D01*
X0046696Y0261156D02*
X0048998Y0258854D01*
X0051300Y0261156D02*
X0046696Y0261156D01*
X0046696Y0270363D02*
X0051300Y0270363D01*
X0049765Y0270363D02*
X0048231Y0272665D01*
X0049765Y0270363D02*
X0051300Y0272665D01*
X0020050Y0272009D02*
X0019283Y0272009D01*
X0016213Y0275079D01*
X0015446Y0275079D01*
X0015446Y0272009D01*
X0019283Y0270475D02*
X0020050Y0270475D01*
X0020050Y0269707D01*
X0019283Y0269707D01*
X0019283Y0270475D01*
X0017748Y0268173D02*
X0017748Y0265104D01*
X0015446Y0267406D01*
X0020050Y0267406D01*
X0020300Y0262665D02*
X0020300Y0259596D01*
X0017231Y0262665D01*
X0016463Y0262665D01*
X0015696Y0261898D01*
X0015696Y0260363D01*
X0016463Y0259596D01*
X0016463Y0258061D02*
X0017998Y0258061D01*
X0018765Y0257294D01*
X0018765Y0254992D01*
X0018765Y0256527D02*
X0020300Y0258061D01*
X0020300Y0254992D02*
X0015696Y0254992D01*
X0015696Y0257294D01*
X0016463Y0258061D01*
X0034481Y0240915D02*
X0037550Y0240915D01*
X0037550Y0238613D01*
X0036783Y0237846D01*
X0034481Y0237846D01*
X0037550Y0236311D02*
X0037550Y0233242D01*
X0037550Y0231707D02*
X0037550Y0230940D01*
X0036783Y0230940D01*
X0036783Y0231707D01*
X0037550Y0231707D01*
X0036783Y0229406D02*
X0033713Y0229406D01*
X0036783Y0226336D01*
X0037550Y0227104D01*
X0037550Y0228638D01*
X0036783Y0229406D01*
X0033713Y0229406D02*
X0032946Y0228638D01*
X0032946Y0227104D01*
X0033713Y0226336D01*
X0036783Y0226336D01*
X0034481Y0233242D02*
X0032946Y0234777D01*
X0037550Y0234777D01*
X0020300Y0235061D02*
X0020300Y0231992D01*
X0017231Y0235061D01*
X0016463Y0235061D01*
X0015696Y0234294D01*
X0015696Y0232759D01*
X0016463Y0231992D01*
X0016463Y0230457D02*
X0015696Y0229690D01*
X0015696Y0228156D01*
X0016463Y0227388D01*
X0019533Y0227388D01*
X0020300Y0228156D01*
X0020300Y0229690D01*
X0019533Y0230457D01*
X0019533Y0236596D02*
X0020300Y0237363D01*
X0020300Y0238898D01*
X0019533Y0239665D01*
X0018765Y0239665D01*
X0017998Y0238898D01*
X0017998Y0236596D01*
X0019533Y0236596D01*
X0017998Y0236596D02*
X0016463Y0238131D01*
X0015696Y0239665D01*
X0020713Y0222165D02*
X0023783Y0219096D01*
X0024550Y0219863D01*
X0024550Y0221398D01*
X0023783Y0222165D01*
X0020713Y0222165D01*
X0019946Y0221398D01*
X0019946Y0219863D01*
X0020713Y0219096D01*
X0023783Y0219096D01*
X0023783Y0217561D02*
X0022248Y0217561D01*
X0021481Y0216794D01*
X0021481Y0216027D01*
X0022248Y0214492D01*
X0019946Y0214492D01*
X0019946Y0217561D01*
X0023783Y0217561D02*
X0024550Y0216794D01*
X0024550Y0215259D01*
X0023783Y0214492D01*
X0023783Y0212957D02*
X0024550Y0212190D01*
X0024550Y0210655D01*
X0023783Y0209888D01*
X0023015Y0209888D01*
X0022248Y0210655D01*
X0022248Y0212190D01*
X0023015Y0212957D01*
X0023783Y0212957D01*
X0022248Y0212190D02*
X0021481Y0212957D01*
X0020713Y0212957D01*
X0019946Y0212190D01*
X0019946Y0210655D01*
X0020713Y0209888D01*
X0021481Y0209888D01*
X0022248Y0210655D01*
X0022248Y0208354D02*
X0022248Y0205284D01*
X0019946Y0207586D01*
X0024550Y0207586D01*
X0024550Y0203750D02*
X0024550Y0200680D01*
X0024550Y0199146D02*
X0019946Y0196076D01*
X0021481Y0194542D02*
X0024550Y0194542D01*
X0024550Y0196076D02*
X0019946Y0199146D01*
X0021481Y0200680D02*
X0019946Y0202215D01*
X0024550Y0202215D01*
X0022248Y0194542D02*
X0022248Y0191472D01*
X0021481Y0191472D02*
X0019946Y0193007D01*
X0021481Y0194542D01*
X0021481Y0191472D02*
X0024550Y0191472D01*
X0024550Y0189938D02*
X0019946Y0189938D01*
X0021481Y0188403D01*
X0019946Y0186869D01*
X0024550Y0186869D01*
X0032231Y0183279D02*
X0035300Y0183279D01*
X0035300Y0180977D01*
X0034533Y0180210D01*
X0032231Y0180210D01*
X0035300Y0178675D02*
X0035300Y0175606D01*
X0035300Y0177141D02*
X0030696Y0177141D01*
X0032231Y0175606D01*
X0034533Y0174071D02*
X0035300Y0174071D01*
X0035300Y0173304D01*
X0034533Y0173304D01*
X0034533Y0174071D01*
X0034533Y0171769D02*
X0035300Y0171002D01*
X0035300Y0169467D01*
X0034533Y0168700D01*
X0031463Y0171769D01*
X0034533Y0171769D01*
X0034533Y0168700D02*
X0031463Y0168700D01*
X0030696Y0169467D01*
X0030696Y0171002D01*
X0031463Y0171769D01*
X0020050Y0172252D02*
X0020050Y0170717D01*
X0019283Y0169950D01*
X0016213Y0169950D01*
X0015446Y0170717D01*
X0015446Y0172252D01*
X0016213Y0173019D01*
X0016213Y0174554D02*
X0015446Y0175321D01*
X0015446Y0176856D01*
X0016213Y0177623D01*
X0016981Y0177623D01*
X0020050Y0174554D01*
X0020050Y0177623D01*
X0020050Y0179158D02*
X0019283Y0179158D01*
X0016213Y0182227D01*
X0015446Y0182227D01*
X0015446Y0179158D01*
X0019283Y0173019D02*
X0020050Y0172252D01*
X0031696Y0162606D02*
X0033998Y0160304D01*
X0033998Y0163373D01*
X0036300Y0162606D02*
X0031696Y0162606D01*
X0032463Y0158769D02*
X0033998Y0158769D01*
X0034765Y0158002D01*
X0034765Y0155700D01*
X0034765Y0157235D02*
X0036300Y0158769D01*
X0036300Y0155700D02*
X0031696Y0155700D01*
X0031696Y0158002D01*
X0032463Y0158769D01*
X0032231Y0152012D02*
X0033765Y0149710D01*
X0035300Y0152012D01*
X0035300Y0149710D02*
X0030696Y0149710D01*
X0030696Y0148175D02*
X0031463Y0148175D01*
X0034533Y0145106D01*
X0035300Y0145106D01*
X0035300Y0143571D02*
X0035300Y0142804D01*
X0034533Y0142804D01*
X0034533Y0143571D01*
X0035300Y0143571D01*
X0035300Y0140502D02*
X0030696Y0140502D01*
X0032998Y0138200D01*
X0032998Y0141269D01*
X0030696Y0145106D02*
X0030696Y0148175D01*
X0020050Y0147519D02*
X0018515Y0145985D01*
X0018515Y0146752D02*
X0018515Y0144450D01*
X0020050Y0144450D02*
X0015446Y0144450D01*
X0015446Y0146752D01*
X0016213Y0147519D01*
X0017748Y0147519D01*
X0018515Y0146752D01*
X0017748Y0149054D02*
X0015446Y0149054D01*
X0015446Y0152123D01*
X0016981Y0151356D02*
X0017748Y0152123D01*
X0019283Y0152123D01*
X0020050Y0151356D01*
X0020050Y0149821D01*
X0019283Y0149054D01*
X0017748Y0149054D02*
X0016981Y0150589D01*
X0016981Y0151356D01*
X0046946Y0153002D02*
X0049248Y0150700D01*
X0049248Y0153769D01*
X0050783Y0155304D02*
X0050783Y0156071D01*
X0051550Y0156071D01*
X0051550Y0155304D01*
X0050783Y0155304D01*
X0050783Y0157606D02*
X0051550Y0157606D01*
X0050783Y0157606D02*
X0047713Y0160675D01*
X0046946Y0160675D01*
X0046946Y0157606D01*
X0046946Y0153002D02*
X0051550Y0153002D01*
X0051550Y0162210D02*
X0046946Y0162210D01*
X0048481Y0164512D02*
X0050015Y0162210D01*
X0051550Y0164512D01*
X0071696Y0167277D02*
X0076300Y0167277D01*
X0076300Y0168811D02*
X0076300Y0165742D01*
X0076300Y0164207D02*
X0076300Y0163440D01*
X0075533Y0163440D01*
X0075533Y0164207D01*
X0076300Y0164207D01*
X0075533Y0161906D02*
X0076300Y0161138D01*
X0076300Y0159604D01*
X0075533Y0158836D01*
X0072463Y0161906D01*
X0075533Y0161906D01*
X0072463Y0161906D02*
X0071696Y0161138D01*
X0071696Y0159604D01*
X0072463Y0158836D01*
X0075533Y0158836D01*
X0076300Y0154665D02*
X0073231Y0154665D01*
X0073231Y0151596D02*
X0075533Y0151596D01*
X0076300Y0152363D01*
X0076300Y0154665D01*
X0075533Y0150061D02*
X0072463Y0150061D01*
X0075533Y0146992D01*
X0076300Y0147759D01*
X0076300Y0149294D01*
X0075533Y0150061D01*
X0075533Y0146992D02*
X0072463Y0146992D01*
X0071696Y0147759D01*
X0071696Y0149294D01*
X0072463Y0150061D01*
X0076300Y0145457D02*
X0076300Y0142388D01*
X0076300Y0143923D02*
X0071696Y0143923D01*
X0073231Y0142388D01*
X0078638Y0141217D02*
X0078638Y0144287D01*
X0079406Y0145054D01*
X0080940Y0145054D01*
X0081707Y0144287D01*
X0083242Y0144287D02*
X0084009Y0145054D01*
X0085544Y0145054D01*
X0086311Y0144287D01*
X0086311Y0143519D01*
X0083242Y0140450D01*
X0086311Y0140450D01*
X0087846Y0141217D02*
X0088613Y0140450D01*
X0090148Y0140450D01*
X0090915Y0141217D01*
X0090915Y0142752D01*
X0090148Y0143519D01*
X0089381Y0143519D01*
X0087846Y0142752D01*
X0087846Y0145054D01*
X0090915Y0145054D01*
X0081707Y0141217D02*
X0080940Y0140450D01*
X0079406Y0140450D01*
X0078638Y0141217D01*
X0104888Y0141217D02*
X0105656Y0140450D01*
X0107190Y0140450D01*
X0107957Y0141217D01*
X0109492Y0140450D02*
X0112561Y0143519D01*
X0112561Y0144287D01*
X0111794Y0145054D01*
X0110259Y0145054D01*
X0109492Y0144287D01*
X0107957Y0144287D02*
X0107190Y0145054D01*
X0105656Y0145054D01*
X0104888Y0144287D01*
X0104888Y0141217D01*
X0109492Y0140450D02*
X0112561Y0140450D01*
X0114096Y0141217D02*
X0114863Y0140450D01*
X0116398Y0140450D01*
X0117165Y0141217D01*
X0117165Y0141985D01*
X0116398Y0142752D01*
X0115631Y0142752D01*
X0116398Y0142752D02*
X0117165Y0143519D01*
X0117165Y0144287D01*
X0116398Y0145054D01*
X0114863Y0145054D01*
X0114096Y0144287D01*
X0124196Y0145259D02*
X0124196Y0146794D01*
X0124963Y0147561D01*
X0128033Y0144492D01*
X0128800Y0145259D01*
X0128800Y0146794D01*
X0128033Y0147561D01*
X0124963Y0147561D01*
X0125731Y0149096D02*
X0128033Y0149096D01*
X0128800Y0149863D01*
X0128800Y0152165D01*
X0125731Y0152165D01*
X0123279Y0156700D02*
X0120977Y0156700D01*
X0120210Y0157467D01*
X0120210Y0159769D01*
X0123279Y0159769D02*
X0123279Y0156700D01*
X0118675Y0156700D02*
X0115606Y0156700D01*
X0117141Y0156700D02*
X0117141Y0161304D01*
X0115606Y0159769D01*
X0114071Y0157467D02*
X0114071Y0156700D01*
X0113304Y0156700D01*
X0113304Y0157467D01*
X0114071Y0157467D01*
X0111769Y0157467D02*
X0111002Y0156700D01*
X0109467Y0156700D01*
X0108700Y0157467D01*
X0111769Y0160537D01*
X0111769Y0157467D01*
X0108700Y0157467D02*
X0108700Y0160537D01*
X0109467Y0161304D01*
X0111002Y0161304D01*
X0111769Y0160537D01*
X0111992Y0171700D02*
X0115061Y0174769D01*
X0115061Y0175537D01*
X0114294Y0176304D01*
X0112759Y0176304D01*
X0111992Y0175537D01*
X0110457Y0175537D02*
X0109690Y0176304D01*
X0108156Y0176304D01*
X0107388Y0175537D01*
X0107388Y0172467D01*
X0108156Y0171700D01*
X0109690Y0171700D01*
X0110457Y0172467D01*
X0111992Y0171700D02*
X0115061Y0171700D01*
X0116596Y0171700D02*
X0119665Y0174769D01*
X0119665Y0175537D01*
X0118898Y0176304D01*
X0117363Y0176304D01*
X0116596Y0175537D01*
X0116596Y0171700D02*
X0119665Y0171700D01*
X0133700Y0176700D02*
X0136769Y0179769D01*
X0136769Y0180537D01*
X0136002Y0181304D01*
X0134467Y0181304D01*
X0133700Y0180537D01*
X0133700Y0176700D02*
X0136769Y0176700D01*
X0138304Y0176700D02*
X0141373Y0179769D01*
X0141373Y0180537D01*
X0140606Y0181304D01*
X0139071Y0181304D01*
X0138304Y0180537D01*
X0138304Y0176700D02*
X0141373Y0176700D01*
X0142908Y0176700D02*
X0145210Y0176700D01*
X0145977Y0177467D01*
X0145977Y0179002D01*
X0145210Y0179769D01*
X0142908Y0179769D01*
X0142908Y0175165D01*
X0144050Y0173460D02*
X0142515Y0171158D01*
X0140981Y0173460D01*
X0139446Y0171158D02*
X0144050Y0171158D01*
X0143283Y0169623D02*
X0144050Y0168856D01*
X0144050Y0167321D01*
X0143283Y0166554D01*
X0140213Y0169623D01*
X0143283Y0169623D01*
X0143283Y0166554D02*
X0140213Y0166554D01*
X0139446Y0167321D01*
X0139446Y0168856D01*
X0140213Y0169623D01*
X0144050Y0165019D02*
X0144050Y0161950D01*
X0144050Y0163485D02*
X0139446Y0163485D01*
X0140981Y0161950D01*
X0141498Y0158373D02*
X0141498Y0156071D01*
X0140731Y0155304D01*
X0139963Y0155304D01*
X0139196Y0156071D01*
X0139196Y0157606D01*
X0139963Y0158373D01*
X0143033Y0158373D01*
X0143800Y0157606D01*
X0143800Y0156071D01*
X0143033Y0155304D01*
X0143800Y0153769D02*
X0142265Y0152235D01*
X0142265Y0153002D02*
X0142265Y0150700D01*
X0143800Y0150700D02*
X0139196Y0150700D01*
X0139196Y0153002D01*
X0139963Y0153769D01*
X0141498Y0153769D01*
X0142265Y0153002D01*
X0128033Y0144492D02*
X0124963Y0144492D01*
X0124196Y0145259D01*
X0124196Y0141423D02*
X0128800Y0141423D01*
X0128800Y0142957D02*
X0128800Y0139888D01*
X0125731Y0139888D02*
X0124196Y0141423D01*
X0144946Y0128873D02*
X0149550Y0125804D01*
X0149550Y0124269D02*
X0148015Y0122735D01*
X0148015Y0123502D02*
X0148015Y0121200D01*
X0149550Y0121200D02*
X0144946Y0121200D01*
X0144946Y0123502D01*
X0145713Y0124269D01*
X0147248Y0124269D01*
X0148015Y0123502D01*
X0144946Y0125804D02*
X0149550Y0128873D01*
X0156196Y0128873D02*
X0160800Y0125804D01*
X0160800Y0128873D02*
X0156196Y0125804D01*
X0156196Y0124269D02*
X0156196Y0121200D01*
X0156196Y0122735D02*
X0160800Y0122735D01*
X0152833Y0107054D02*
X0153601Y0106287D01*
X0153601Y0105519D01*
X0152833Y0104752D01*
X0151299Y0104752D01*
X0150531Y0105519D01*
X0150531Y0106287D01*
X0151299Y0107054D01*
X0152833Y0107054D01*
X0152833Y0104752D02*
X0153601Y0103985D01*
X0153601Y0103217D01*
X0152833Y0102450D01*
X0151299Y0102450D01*
X0150531Y0103217D01*
X0150531Y0103985D01*
X0151299Y0104752D01*
X0148997Y0105519D02*
X0148997Y0106287D01*
X0148229Y0107054D01*
X0146695Y0107054D01*
X0145927Y0106287D01*
X0144393Y0106287D02*
X0144393Y0105519D01*
X0143626Y0104752D01*
X0144393Y0103985D01*
X0144393Y0103217D01*
X0143626Y0102450D01*
X0142091Y0102450D01*
X0141324Y0103217D01*
X0139789Y0102450D02*
X0139789Y0105519D01*
X0138254Y0107054D01*
X0136720Y0105519D01*
X0136720Y0102450D01*
X0135185Y0103217D02*
X0135185Y0104752D01*
X0133650Y0104752D01*
X0132116Y0106287D02*
X0132116Y0103217D01*
X0132883Y0102450D01*
X0134418Y0102450D01*
X0135185Y0103217D01*
X0136720Y0104752D02*
X0139789Y0104752D01*
X0141324Y0106287D02*
X0142091Y0107054D01*
X0143626Y0107054D01*
X0144393Y0106287D01*
X0143626Y0104752D02*
X0142858Y0104752D01*
X0145927Y0102450D02*
X0148997Y0105519D01*
X0148997Y0102450D02*
X0145927Y0102450D01*
X0135185Y0106287D02*
X0134418Y0107054D01*
X0132883Y0107054D01*
X0132116Y0106287D01*
X0130581Y0107054D02*
X0127512Y0107054D01*
X0127512Y0102450D01*
X0130581Y0102450D01*
X0129046Y0104752D02*
X0127512Y0104752D01*
X0125977Y0107054D02*
X0125977Y0102450D01*
X0122908Y0102450D02*
X0122908Y0107054D01*
X0124442Y0105519D01*
X0125977Y0107054D01*
X0121373Y0107054D02*
X0118304Y0107054D01*
X0119839Y0107054D02*
X0119839Y0102450D01*
X0116769Y0102450D02*
X0116769Y0105519D01*
X0115235Y0107054D01*
X0113700Y0105519D01*
X0113700Y0102450D01*
X0113700Y0104752D02*
X0116769Y0104752D01*
X0145696Y0086398D02*
X0147998Y0084096D01*
X0147998Y0087165D01*
X0150300Y0086398D02*
X0145696Y0086398D01*
X0146463Y0082561D02*
X0147231Y0082561D01*
X0147998Y0081794D01*
X0148765Y0082561D01*
X0149533Y0082561D01*
X0150300Y0081794D01*
X0150300Y0080259D01*
X0149533Y0079492D01*
X0149533Y0077957D02*
X0150300Y0077190D01*
X0150300Y0075656D01*
X0149533Y0074888D01*
X0146463Y0074888D01*
X0145696Y0075656D01*
X0145696Y0077190D01*
X0146463Y0077957D01*
X0146463Y0079492D02*
X0145696Y0080259D01*
X0145696Y0081794D01*
X0146463Y0082561D01*
X0147998Y0081794D02*
X0147998Y0081027D01*
X0161696Y0081027D02*
X0166300Y0081027D01*
X0166300Y0082561D02*
X0166300Y0079492D01*
X0166300Y0077957D02*
X0165533Y0077957D01*
X0165533Y0077190D01*
X0166300Y0077190D01*
X0166300Y0077957D01*
X0165533Y0075656D02*
X0166300Y0074888D01*
X0166300Y0073354D01*
X0165533Y0072586D01*
X0162463Y0075656D01*
X0165533Y0075656D01*
X0162463Y0075656D02*
X0161696Y0074888D01*
X0161696Y0073354D01*
X0162463Y0072586D01*
X0165533Y0072586D01*
X0163231Y0079492D02*
X0161696Y0081027D01*
X0163231Y0084096D02*
X0165533Y0084096D01*
X0166300Y0084863D01*
X0166300Y0087165D01*
X0163231Y0087165D01*
X0179196Y0087863D02*
X0179196Y0089398D01*
X0179963Y0090165D01*
X0183033Y0087096D01*
X0183800Y0087863D01*
X0183800Y0089398D01*
X0183033Y0090165D01*
X0179963Y0090165D01*
X0179196Y0087863D02*
X0179963Y0087096D01*
X0183033Y0087096D01*
X0183033Y0085561D02*
X0179963Y0085561D01*
X0183033Y0082492D01*
X0183800Y0083259D01*
X0183800Y0084794D01*
X0183033Y0085561D01*
X0183033Y0082492D02*
X0179963Y0082492D01*
X0179196Y0083259D01*
X0179196Y0084794D01*
X0179963Y0085561D01*
X0183800Y0080957D02*
X0183800Y0077888D01*
X0183800Y0079423D02*
X0179196Y0079423D01*
X0180731Y0077888D01*
X0179446Y0073915D02*
X0180213Y0072381D01*
X0181748Y0070846D01*
X0181748Y0073148D01*
X0182515Y0073915D01*
X0183283Y0073915D01*
X0184050Y0073148D01*
X0184050Y0071613D01*
X0183283Y0070846D01*
X0181748Y0070846D01*
X0181748Y0069311D02*
X0182515Y0068544D01*
X0182515Y0066242D01*
X0182515Y0067777D02*
X0184050Y0069311D01*
X0181748Y0069311D02*
X0180213Y0069311D01*
X0179446Y0068544D01*
X0179446Y0066242D01*
X0184050Y0066242D01*
X0170165Y0060537D02*
X0170165Y0059769D01*
X0169398Y0059002D01*
X0167863Y0059002D01*
X0167096Y0059769D01*
X0167096Y0060537D01*
X0167863Y0061304D01*
X0169398Y0061304D01*
X0170165Y0060537D01*
X0169398Y0059002D02*
X0170165Y0058235D01*
X0170165Y0057467D01*
X0169398Y0056700D01*
X0167863Y0056700D01*
X0167096Y0057467D01*
X0167096Y0058235D01*
X0167863Y0059002D01*
X0165561Y0059002D02*
X0165561Y0060537D01*
X0164794Y0061304D01*
X0162492Y0061304D01*
X0162492Y0056700D01*
X0162492Y0058235D02*
X0164794Y0058235D01*
X0165561Y0059002D01*
X0164027Y0058235D02*
X0165561Y0056700D01*
X0165759Y0045304D02*
X0167294Y0045304D01*
X0168061Y0044537D01*
X0164992Y0041467D01*
X0165759Y0040700D01*
X0167294Y0040700D01*
X0168061Y0041467D01*
X0168061Y0044537D01*
X0169596Y0044537D02*
X0170363Y0045304D01*
X0171898Y0045304D01*
X0172665Y0044537D01*
X0169596Y0041467D01*
X0170363Y0040700D01*
X0171898Y0040700D01*
X0172665Y0041467D01*
X0172665Y0044537D01*
X0169596Y0044537D02*
X0169596Y0041467D01*
X0164992Y0041467D02*
X0164992Y0044537D01*
X0165759Y0045304D01*
X0161923Y0045304D02*
X0160388Y0043769D01*
X0161923Y0045304D02*
X0161923Y0040700D01*
X0161161Y0040224D02*
X0160393Y0040991D01*
X0158859Y0040991D01*
X0158091Y0040224D01*
X0158091Y0039456D01*
X0158859Y0038689D01*
X0160393Y0038689D01*
X0161161Y0037922D01*
X0161161Y0037154D01*
X0160393Y0036387D01*
X0158859Y0036387D01*
X0158091Y0037154D01*
X0156557Y0037154D02*
X0156557Y0040991D01*
X0153487Y0040991D02*
X0153487Y0037154D01*
X0154255Y0036387D01*
X0155789Y0036387D01*
X0156557Y0037154D01*
X0151953Y0037154D02*
X0151185Y0036387D01*
X0148883Y0036387D01*
X0148883Y0040991D01*
X0151185Y0040991D01*
X0151953Y0040224D01*
X0151953Y0039456D01*
X0151185Y0038689D01*
X0148883Y0038689D01*
X0147349Y0038689D02*
X0144279Y0038689D01*
X0142745Y0040991D02*
X0139676Y0040991D01*
X0139676Y0036387D01*
X0142745Y0036387D01*
X0141210Y0038689D02*
X0139676Y0038689D01*
X0138141Y0038689D02*
X0137374Y0037922D01*
X0135072Y0037922D01*
X0136606Y0037922D02*
X0138141Y0036387D01*
X0138141Y0038689D02*
X0138141Y0040224D01*
X0137374Y0040991D01*
X0135072Y0040991D01*
X0135072Y0036387D01*
X0133537Y0036387D02*
X0132002Y0036387D01*
X0132770Y0036387D02*
X0132770Y0040991D01*
X0133537Y0040991D02*
X0132002Y0040991D01*
X0130468Y0040991D02*
X0130468Y0036387D01*
X0128933Y0037922D01*
X0127398Y0036387D01*
X0127398Y0040991D01*
X0124329Y0040991D02*
X0124329Y0036387D01*
X0122794Y0036387D02*
X0125864Y0036387D01*
X0122794Y0039456D02*
X0124329Y0040991D01*
X0110533Y0026727D02*
X0111300Y0025960D01*
X0111300Y0024425D01*
X0110533Y0023658D01*
X0107463Y0026727D01*
X0110533Y0026727D01*
X0110533Y0023658D02*
X0107463Y0023658D01*
X0106696Y0024425D01*
X0106696Y0025960D01*
X0107463Y0026727D01*
X0111300Y0022123D02*
X0111300Y0019054D01*
X0111300Y0020589D02*
X0106696Y0020589D01*
X0108231Y0019054D01*
X0108998Y0017519D02*
X0109765Y0016752D01*
X0109765Y0014450D01*
X0109765Y0015985D02*
X0111300Y0017519D01*
X0108998Y0017519D02*
X0107463Y0017519D01*
X0106696Y0016752D01*
X0106696Y0014450D01*
X0111300Y0014450D01*
X0113259Y0009054D02*
X0116329Y0009054D01*
X0116329Y0008287D01*
X0113259Y0005217D01*
X0113259Y0004450D01*
X0111725Y0004450D02*
X0110957Y0004450D01*
X0110957Y0005217D01*
X0111725Y0005217D01*
X0111725Y0004450D01*
X0108656Y0004450D02*
X0108656Y0009054D01*
X0106354Y0006752D01*
X0109423Y0006752D01*
X0102165Y0008967D02*
X0101398Y0008200D01*
X0099096Y0008200D01*
X0097561Y0008200D02*
X0094492Y0008200D01*
X0097561Y0011269D01*
X0097561Y0012037D01*
X0096794Y0012804D01*
X0095259Y0012804D01*
X0094492Y0012037D01*
X0092957Y0012037D02*
X0092190Y0012804D01*
X0090656Y0012804D01*
X0089888Y0012037D01*
X0092957Y0012037D02*
X0092957Y0011269D01*
X0089888Y0008200D01*
X0092957Y0008200D01*
X0099096Y0006665D02*
X0099096Y0011269D01*
X0101398Y0011269D01*
X0102165Y0010502D01*
X0102165Y0008967D01*
X0091300Y0016967D02*
X0090533Y0016200D01*
X0087463Y0016200D01*
X0086696Y0016967D01*
X0086696Y0018502D01*
X0087463Y0019269D01*
X0087463Y0020804D02*
X0086696Y0021571D01*
X0086696Y0023106D01*
X0087463Y0023873D01*
X0088231Y0023873D01*
X0088998Y0023106D01*
X0089765Y0023873D01*
X0090533Y0023873D01*
X0091300Y0023106D01*
X0091300Y0021571D01*
X0090533Y0020804D01*
X0090533Y0019269D02*
X0091300Y0018502D01*
X0091300Y0016967D01*
X0088998Y0022339D02*
X0088998Y0023106D01*
X0087463Y0025408D02*
X0086696Y0026175D01*
X0086696Y0027710D01*
X0087463Y0028477D01*
X0088231Y0028477D01*
X0088998Y0027710D01*
X0089765Y0028477D01*
X0090533Y0028477D01*
X0091300Y0027710D01*
X0091300Y0026175D01*
X0090533Y0025408D01*
X0088998Y0026942D02*
X0088998Y0027710D01*
X0076300Y0028477D02*
X0076300Y0025408D01*
X0073231Y0028477D01*
X0072463Y0028477D01*
X0071696Y0027710D01*
X0071696Y0026175D01*
X0072463Y0025408D01*
X0072463Y0023873D02*
X0073231Y0023873D01*
X0073998Y0023106D01*
X0074765Y0023873D01*
X0075533Y0023873D01*
X0076300Y0023106D01*
X0076300Y0021571D01*
X0075533Y0020804D01*
X0075533Y0019269D02*
X0076300Y0018502D01*
X0076300Y0016967D01*
X0075533Y0016200D01*
X0072463Y0016200D01*
X0071696Y0016967D01*
X0071696Y0018502D01*
X0072463Y0019269D01*
X0072463Y0020804D02*
X0071696Y0021571D01*
X0071696Y0023106D01*
X0072463Y0023873D01*
X0073998Y0023106D02*
X0073998Y0022339D01*
X0075259Y0012804D02*
X0074492Y0012037D01*
X0075259Y0012804D02*
X0076794Y0012804D01*
X0077561Y0012037D01*
X0077561Y0011269D01*
X0074492Y0008200D01*
X0077561Y0008200D01*
X0079096Y0008200D02*
X0081398Y0008200D01*
X0082165Y0008967D01*
X0082165Y0010502D01*
X0081398Y0011269D01*
X0079096Y0011269D01*
X0079096Y0006665D01*
X0072957Y0008200D02*
X0069888Y0008200D01*
X0072957Y0011269D01*
X0072957Y0012037D01*
X0072190Y0012804D01*
X0070656Y0012804D01*
X0069888Y0012037D01*
X0033400Y0034200D02*
X0033400Y0038804D01*
X0031866Y0038804D02*
X0034935Y0038804D01*
X0030331Y0038804D02*
X0027262Y0038804D01*
X0027262Y0034200D01*
X0030331Y0034200D01*
X0028796Y0036502D02*
X0027262Y0036502D01*
X0025727Y0035735D02*
X0025727Y0034967D01*
X0024960Y0034200D01*
X0023425Y0034200D01*
X0022658Y0034967D01*
X0021123Y0034200D02*
X0018054Y0034200D01*
X0018054Y0038804D01*
X0021123Y0038804D01*
X0022658Y0038037D02*
X0022658Y0037269D01*
X0023425Y0036502D01*
X0024960Y0036502D01*
X0025727Y0035735D01*
X0025727Y0038037D02*
X0024960Y0038804D01*
X0023425Y0038804D01*
X0022658Y0038037D01*
X0019589Y0036502D02*
X0018054Y0036502D01*
X0016519Y0036502D02*
X0015752Y0035735D01*
X0013450Y0035735D01*
X0014985Y0035735D02*
X0016519Y0034200D01*
X0016519Y0036502D02*
X0016519Y0038037D01*
X0015752Y0038804D01*
X0013450Y0038804D01*
X0013450Y0034200D01*
X0036398Y0068217D02*
X0039467Y0071287D01*
X0037933Y0071287D02*
X0037933Y0068217D01*
X0039467Y0068217D02*
X0036398Y0071287D01*
X0036398Y0069752D02*
X0039467Y0069752D01*
X0061156Y0070700D02*
X0064225Y0070700D01*
X0062690Y0070700D02*
X0062690Y0075304D01*
X0061156Y0073769D01*
X0065759Y0074537D02*
X0065759Y0071467D01*
X0068829Y0074537D01*
X0068829Y0071467D01*
X0068061Y0070700D01*
X0066527Y0070700D01*
X0065759Y0071467D01*
X0065759Y0074537D02*
X0066527Y0075304D01*
X0068061Y0075304D01*
X0068829Y0074537D01*
X0070363Y0075304D02*
X0070363Y0070700D01*
X0070363Y0072235D02*
X0072665Y0073769D01*
X0070363Y0072235D02*
X0072665Y0070700D01*
X0072777Y0086700D02*
X0072777Y0091304D01*
X0071242Y0089769D01*
X0069707Y0089002D02*
X0068940Y0088235D01*
X0066638Y0088235D01*
X0068173Y0088235D02*
X0069707Y0086700D01*
X0071242Y0086700D02*
X0074311Y0086700D01*
X0075846Y0086700D02*
X0078915Y0086700D01*
X0077381Y0086700D02*
X0077381Y0091304D01*
X0075846Y0089769D01*
X0069707Y0090537D02*
X0069707Y0089002D01*
X0069707Y0090537D02*
X0068940Y0091304D01*
X0066638Y0091304D01*
X0066638Y0086700D01*
X0018019Y0101967D02*
X0014950Y0105037D01*
X0016485Y0105037D02*
X0016485Y0101967D01*
X0014950Y0101967D02*
X0018019Y0105037D01*
X0018019Y0103502D02*
X0014950Y0103502D01*
X0073231Y0165742D02*
X0071696Y0167277D01*
X0073231Y0170346D02*
X0075533Y0170346D01*
X0076300Y0171113D01*
X0076300Y0173415D01*
X0073231Y0173415D01*
X0079888Y0172467D02*
X0080656Y0171700D01*
X0082190Y0171700D01*
X0082957Y0172467D01*
X0084492Y0171700D02*
X0087561Y0174769D01*
X0087561Y0175537D01*
X0086794Y0176304D01*
X0085259Y0176304D01*
X0084492Y0175537D01*
X0082957Y0175537D02*
X0082190Y0176304D01*
X0080656Y0176304D01*
X0079888Y0175537D01*
X0079888Y0172467D01*
X0084492Y0171700D02*
X0087561Y0171700D01*
X0089096Y0174002D02*
X0092165Y0174002D01*
X0091398Y0171700D02*
X0091398Y0176304D01*
X0089096Y0174002D01*
X0132450Y0192717D02*
X0133217Y0191950D01*
X0134752Y0191950D01*
X0135519Y0192717D01*
X0137054Y0192717D02*
X0137821Y0191950D01*
X0139356Y0191950D01*
X0140123Y0192717D01*
X0140123Y0193485D01*
X0139356Y0194252D01*
X0138589Y0194252D01*
X0139356Y0194252D02*
X0140123Y0195019D01*
X0140123Y0195787D01*
X0139356Y0196554D01*
X0137821Y0196554D01*
X0137054Y0195787D01*
X0135519Y0195787D02*
X0134752Y0196554D01*
X0133217Y0196554D01*
X0132450Y0195787D01*
X0132450Y0192717D01*
X0141658Y0191950D02*
X0144727Y0191950D01*
X0143192Y0191950D02*
X0143192Y0196554D01*
X0141658Y0195019D01*
X0162450Y0197450D02*
X0164752Y0197450D01*
X0165519Y0198217D01*
X0165519Y0201287D01*
X0164752Y0202054D01*
X0162450Y0202054D01*
X0162450Y0197450D01*
X0167054Y0198217D02*
X0167821Y0197450D01*
X0169356Y0197450D01*
X0170123Y0198217D01*
X0170123Y0198985D01*
X0169356Y0199752D01*
X0167821Y0199752D01*
X0167054Y0200519D01*
X0167054Y0201287D01*
X0167821Y0202054D01*
X0169356Y0202054D01*
X0170123Y0201287D01*
X0171658Y0201287D02*
X0172425Y0202054D01*
X0173960Y0202054D01*
X0174727Y0201287D01*
X0174727Y0200519D01*
X0173960Y0199752D01*
X0174727Y0198985D01*
X0174727Y0198217D01*
X0173960Y0197450D01*
X0172425Y0197450D01*
X0171658Y0198217D01*
X0173192Y0199752D02*
X0173960Y0199752D01*
X0176262Y0201287D02*
X0177029Y0202054D01*
X0178564Y0202054D01*
X0179331Y0201287D01*
X0179331Y0200519D01*
X0176262Y0197450D01*
X0179331Y0197450D01*
X0180866Y0198217D02*
X0181633Y0197450D01*
X0183168Y0197450D01*
X0183935Y0198217D01*
X0183935Y0198985D01*
X0183168Y0199752D01*
X0182400Y0199752D01*
X0183168Y0199752D02*
X0183935Y0200519D01*
X0183935Y0201287D01*
X0183168Y0202054D01*
X0181633Y0202054D01*
X0180866Y0201287D01*
X0185470Y0199752D02*
X0188539Y0199752D01*
X0187772Y0202054D02*
X0185470Y0199752D01*
X0187772Y0197450D02*
X0187772Y0202054D01*
X0205086Y0197037D02*
X0205086Y0193967D01*
X0208156Y0197037D01*
X0208156Y0193967D01*
X0207388Y0193200D01*
X0205854Y0193200D01*
X0205086Y0193967D01*
X0205086Y0197037D02*
X0205854Y0197804D01*
X0207388Y0197804D01*
X0208156Y0197037D01*
X0209690Y0193967D02*
X0210457Y0193967D01*
X0210457Y0193200D01*
X0209690Y0193200D01*
X0209690Y0193967D01*
X0211992Y0193200D02*
X0215061Y0193200D01*
X0213527Y0193200D02*
X0213527Y0197804D01*
X0211992Y0196269D01*
X0216596Y0196269D02*
X0216596Y0193967D01*
X0217363Y0193200D01*
X0219665Y0193200D01*
X0219665Y0196269D01*
X0224406Y0200450D02*
X0225940Y0200450D01*
X0226707Y0201217D01*
X0228242Y0200450D02*
X0231311Y0200450D01*
X0229777Y0200450D02*
X0229777Y0205054D01*
X0228242Y0203519D01*
X0226707Y0204287D02*
X0225940Y0205054D01*
X0224406Y0205054D01*
X0223638Y0204287D01*
X0223638Y0201217D01*
X0224406Y0200450D01*
X0232846Y0202752D02*
X0235915Y0202752D01*
X0235148Y0200450D02*
X0235148Y0205054D01*
X0232846Y0202752D01*
X0242586Y0201467D02*
X0245656Y0204537D01*
X0245656Y0201467D01*
X0244888Y0200700D01*
X0243354Y0200700D01*
X0242586Y0201467D01*
X0242586Y0204537D01*
X0243354Y0205304D01*
X0244888Y0205304D01*
X0245656Y0204537D01*
X0247190Y0201467D02*
X0247957Y0201467D01*
X0247957Y0200700D01*
X0247190Y0200700D01*
X0247190Y0201467D01*
X0249492Y0200700D02*
X0252561Y0200700D01*
X0251027Y0200700D02*
X0251027Y0205304D01*
X0249492Y0203769D01*
X0250061Y0207950D02*
X0246992Y0207950D01*
X0248527Y0207950D02*
X0248527Y0212554D01*
X0246992Y0211019D01*
X0245457Y0211787D02*
X0244690Y0212554D01*
X0243156Y0212554D01*
X0242388Y0211787D01*
X0242388Y0208717D01*
X0243156Y0207950D01*
X0244690Y0207950D01*
X0245457Y0208717D01*
X0251596Y0207950D02*
X0254665Y0211019D01*
X0254665Y0211787D01*
X0253898Y0212554D01*
X0252363Y0212554D01*
X0251596Y0211787D01*
X0251596Y0207950D02*
X0254665Y0207950D01*
X0254096Y0203769D02*
X0254096Y0201467D01*
X0254863Y0200700D01*
X0257165Y0200700D01*
X0257165Y0203769D01*
X0273700Y0204537D02*
X0273700Y0201467D01*
X0274467Y0200700D01*
X0276002Y0200700D01*
X0276769Y0201467D01*
X0278304Y0200700D02*
X0281373Y0200700D01*
X0279839Y0200700D02*
X0279839Y0205304D01*
X0278304Y0203769D01*
X0276769Y0204537D02*
X0276002Y0205304D01*
X0274467Y0205304D01*
X0273700Y0204537D01*
X0282908Y0204537D02*
X0282908Y0201467D01*
X0285977Y0204537D01*
X0285977Y0201467D01*
X0285210Y0200700D01*
X0283675Y0200700D01*
X0282908Y0201467D01*
X0282908Y0204537D02*
X0283675Y0205304D01*
X0285210Y0205304D01*
X0285977Y0204537D01*
X0289446Y0200891D02*
X0294050Y0200891D01*
X0294050Y0202425D02*
X0294050Y0199356D01*
X0294050Y0197821D02*
X0294050Y0197054D01*
X0293283Y0197054D01*
X0293283Y0197821D01*
X0294050Y0197821D01*
X0293283Y0195519D02*
X0290213Y0195519D01*
X0293283Y0192450D01*
X0294050Y0193217D01*
X0294050Y0194752D01*
X0293283Y0195519D01*
X0293283Y0192450D02*
X0290213Y0192450D01*
X0289446Y0193217D01*
X0289446Y0194752D01*
X0290213Y0195519D01*
X0290981Y0199356D02*
X0289446Y0200891D01*
X0290981Y0203960D02*
X0293283Y0203960D01*
X0294050Y0204727D01*
X0294050Y0207029D01*
X0290981Y0207029D01*
X0290408Y0211200D02*
X0288873Y0211200D01*
X0288106Y0211967D01*
X0291175Y0215037D01*
X0291175Y0211967D01*
X0290408Y0211200D01*
X0292710Y0211967D02*
X0295779Y0215037D01*
X0295779Y0211967D01*
X0295012Y0211200D01*
X0293477Y0211200D01*
X0292710Y0211967D01*
X0292710Y0215037D01*
X0293477Y0215804D01*
X0295012Y0215804D01*
X0295779Y0215037D01*
X0297314Y0215804D02*
X0297314Y0213502D01*
X0298848Y0214269D01*
X0299616Y0214269D01*
X0300383Y0213502D01*
X0300383Y0211967D01*
X0299616Y0211200D01*
X0298081Y0211200D01*
X0297314Y0211967D01*
X0297314Y0215804D02*
X0300383Y0215804D01*
X0291175Y0215037D02*
X0290408Y0215804D01*
X0288873Y0215804D01*
X0288106Y0215037D01*
X0288106Y0211967D01*
X0286571Y0211967D02*
X0286571Y0211200D01*
X0285804Y0211200D01*
X0285804Y0211967D01*
X0286571Y0211967D01*
X0284269Y0211967D02*
X0284269Y0215037D01*
X0281200Y0211967D01*
X0281967Y0211200D01*
X0283502Y0211200D01*
X0284269Y0211967D01*
X0281200Y0211967D02*
X0281200Y0215037D01*
X0281967Y0215804D01*
X0283502Y0215804D01*
X0284269Y0215037D01*
X0284269Y0218700D02*
X0282735Y0220235D01*
X0283502Y0220235D02*
X0281200Y0220235D01*
X0281200Y0218700D02*
X0281200Y0223304D01*
X0283502Y0223304D01*
X0284269Y0222537D01*
X0284269Y0221002D01*
X0283502Y0220235D01*
X0285804Y0221769D02*
X0287339Y0223304D01*
X0287339Y0218700D01*
X0288873Y0218700D02*
X0285804Y0218700D01*
X0297463Y0200123D02*
X0298231Y0200123D01*
X0298998Y0199356D01*
X0299765Y0200123D01*
X0300533Y0200123D01*
X0301300Y0199356D01*
X0301300Y0197821D01*
X0300533Y0197054D01*
X0300533Y0195519D02*
X0301300Y0194752D01*
X0301300Y0193217D01*
X0300533Y0192450D01*
X0297463Y0192450D01*
X0296696Y0193217D01*
X0296696Y0194752D01*
X0297463Y0195519D01*
X0297463Y0197054D02*
X0296696Y0197821D01*
X0296696Y0199356D01*
X0297463Y0200123D01*
X0298998Y0199356D02*
X0298998Y0198589D01*
X0293283Y0190581D02*
X0291748Y0190581D01*
X0290981Y0189814D01*
X0290981Y0187512D01*
X0295585Y0187512D01*
X0294050Y0187512D02*
X0294050Y0189814D01*
X0293283Y0190581D01*
X0296696Y0189356D02*
X0298998Y0187054D01*
X0298998Y0190123D01*
X0301300Y0189356D02*
X0296696Y0189356D01*
X0297463Y0185519D02*
X0296696Y0184752D01*
X0296696Y0183217D01*
X0297463Y0182450D01*
X0300533Y0182450D01*
X0301300Y0183217D01*
X0301300Y0184752D01*
X0300533Y0185519D01*
X0294050Y0185210D02*
X0294050Y0183675D01*
X0293283Y0182908D01*
X0290213Y0185977D01*
X0293283Y0185977D01*
X0294050Y0185210D01*
X0293283Y0182908D02*
X0290213Y0182908D01*
X0289446Y0183675D01*
X0289446Y0185210D01*
X0290213Y0185977D01*
X0290213Y0181373D02*
X0293283Y0178304D01*
X0294050Y0179071D01*
X0294050Y0180606D01*
X0293283Y0181373D01*
X0290213Y0181373D01*
X0289446Y0180606D01*
X0289446Y0179071D01*
X0290213Y0178304D01*
X0293283Y0178304D01*
X0294050Y0176769D02*
X0294050Y0173700D01*
X0294050Y0175235D02*
X0289446Y0175235D01*
X0290981Y0173700D01*
X0296696Y0173502D02*
X0296696Y0171967D01*
X0297463Y0171200D01*
X0300533Y0171200D01*
X0301300Y0171967D01*
X0301300Y0173502D01*
X0300533Y0174269D01*
X0300533Y0175804D02*
X0301300Y0176571D01*
X0301300Y0178106D01*
X0300533Y0178873D01*
X0298998Y0178873D01*
X0298231Y0178106D01*
X0298231Y0177339D01*
X0298998Y0175804D01*
X0296696Y0175804D01*
X0296696Y0178873D01*
X0297463Y0174269D02*
X0296696Y0173502D01*
X0304950Y0168519D02*
X0306485Y0170054D01*
X0306485Y0165450D01*
X0308019Y0165450D02*
X0304950Y0165450D01*
X0309554Y0166217D02*
X0309554Y0169287D01*
X0310321Y0170054D01*
X0311856Y0170054D01*
X0312623Y0169287D01*
X0309554Y0166217D01*
X0310321Y0165450D01*
X0311856Y0165450D01*
X0312623Y0166217D01*
X0312623Y0169287D01*
X0314158Y0169287D02*
X0314925Y0170054D01*
X0316460Y0170054D01*
X0317227Y0169287D01*
X0314158Y0166217D01*
X0314925Y0165450D01*
X0316460Y0165450D01*
X0317227Y0166217D01*
X0317227Y0169287D01*
X0318762Y0168519D02*
X0321064Y0168519D01*
X0321831Y0167752D01*
X0321831Y0166217D01*
X0321064Y0165450D01*
X0318762Y0165450D01*
X0318762Y0163915D02*
X0318762Y0168519D01*
X0314158Y0169287D02*
X0314158Y0166217D01*
X0321463Y0179950D02*
X0320696Y0180717D01*
X0320696Y0182252D01*
X0321463Y0183019D01*
X0324533Y0179950D01*
X0325300Y0180717D01*
X0325300Y0182252D01*
X0324533Y0183019D01*
X0321463Y0183019D01*
X0321463Y0179950D02*
X0324533Y0179950D01*
X0324533Y0184554D02*
X0324533Y0185321D01*
X0325300Y0185321D01*
X0325300Y0184554D01*
X0324533Y0184554D01*
X0325300Y0186856D02*
X0325300Y0189925D01*
X0325300Y0188391D02*
X0320696Y0188391D01*
X0322231Y0186856D01*
X0322231Y0191460D02*
X0324533Y0191460D01*
X0325300Y0192227D01*
X0325300Y0194529D01*
X0322231Y0194529D01*
X0319727Y0201700D02*
X0319727Y0204769D01*
X0319727Y0201700D02*
X0317425Y0201700D01*
X0316658Y0202467D01*
X0316658Y0204769D01*
X0315123Y0205537D02*
X0315123Y0206304D01*
X0312054Y0206304D01*
X0309752Y0206304D02*
X0307450Y0204002D01*
X0310519Y0204002D01*
X0312054Y0202467D02*
X0312054Y0201700D01*
X0312054Y0202467D02*
X0315123Y0205537D01*
X0309752Y0206304D02*
X0309752Y0201700D01*
X0334492Y0194287D02*
X0334492Y0191217D01*
X0335259Y0190450D01*
X0336794Y0190450D01*
X0337561Y0191217D01*
X0339096Y0190450D02*
X0342165Y0190450D01*
X0340631Y0190450D02*
X0340631Y0195054D01*
X0339096Y0193519D01*
X0337561Y0194287D02*
X0336794Y0195054D01*
X0335259Y0195054D01*
X0334492Y0194287D01*
X0346696Y0184294D02*
X0347463Y0185061D01*
X0350533Y0181992D01*
X0351300Y0182759D01*
X0351300Y0184294D01*
X0350533Y0185061D01*
X0347463Y0185061D01*
X0346696Y0184294D02*
X0346696Y0182759D01*
X0347463Y0181992D01*
X0350533Y0181992D01*
X0351300Y0180457D02*
X0351300Y0177388D01*
X0351300Y0178923D02*
X0346696Y0178923D01*
X0348231Y0177388D01*
X0348231Y0186596D02*
X0350533Y0186596D01*
X0351300Y0187363D01*
X0351300Y0189665D01*
X0348231Y0189665D01*
X0362388Y0192467D02*
X0363156Y0191700D01*
X0364690Y0191700D01*
X0365457Y0192467D01*
X0366992Y0191700D02*
X0370061Y0191700D01*
X0368527Y0191700D02*
X0368527Y0196304D01*
X0366992Y0194769D01*
X0365457Y0195537D02*
X0364690Y0196304D01*
X0363156Y0196304D01*
X0362388Y0195537D01*
X0362388Y0192467D01*
X0371596Y0192467D02*
X0372363Y0191700D01*
X0373898Y0191700D01*
X0374665Y0192467D01*
X0374665Y0193235D01*
X0373898Y0194002D01*
X0371596Y0194002D01*
X0371596Y0192467D01*
X0371596Y0194002D02*
X0373131Y0195537D01*
X0374665Y0196304D01*
X0374641Y0181304D02*
X0374641Y0176700D01*
X0376175Y0176700D02*
X0373106Y0176700D01*
X0371571Y0176700D02*
X0370804Y0176700D01*
X0370804Y0177467D01*
X0371571Y0177467D01*
X0371571Y0176700D01*
X0369269Y0177467D02*
X0368502Y0176700D01*
X0366967Y0176700D01*
X0366200Y0177467D01*
X0369269Y0180537D01*
X0369269Y0177467D01*
X0366200Y0177467D02*
X0366200Y0180537D01*
X0366967Y0181304D01*
X0368502Y0181304D01*
X0369269Y0180537D01*
X0373106Y0179769D02*
X0374641Y0181304D01*
X0377710Y0179769D02*
X0377710Y0177467D01*
X0378477Y0176700D01*
X0380779Y0176700D01*
X0380779Y0179769D01*
X0375915Y0158804D02*
X0372846Y0158804D01*
X0369777Y0158804D02*
X0368242Y0157269D01*
X0366707Y0158037D02*
X0365940Y0158804D01*
X0364406Y0158804D01*
X0363638Y0158037D01*
X0363638Y0154967D01*
X0364406Y0154200D01*
X0365940Y0154200D01*
X0366707Y0154967D01*
X0368242Y0154200D02*
X0371311Y0154200D01*
X0369777Y0154200D02*
X0369777Y0158804D01*
X0372846Y0154967D02*
X0372846Y0154200D01*
X0372846Y0154967D02*
X0375915Y0158037D01*
X0375915Y0158804D01*
X0358800Y0154665D02*
X0355731Y0154665D01*
X0355731Y0151596D02*
X0358033Y0151596D01*
X0358800Y0152363D01*
X0358800Y0154665D01*
X0358800Y0150061D02*
X0358800Y0146992D01*
X0358800Y0145457D02*
X0358800Y0144690D01*
X0358033Y0144690D01*
X0358033Y0145457D01*
X0358800Y0145457D01*
X0358033Y0143156D02*
X0358800Y0142388D01*
X0358800Y0140854D01*
X0358033Y0140086D01*
X0354963Y0143156D01*
X0358033Y0143156D01*
X0354963Y0143156D02*
X0354196Y0142388D01*
X0354196Y0140854D01*
X0354963Y0140086D01*
X0358033Y0140086D01*
X0355731Y0146992D02*
X0354196Y0148527D01*
X0358800Y0148527D01*
X0345779Y0157950D02*
X0345779Y0161019D01*
X0345779Y0157950D02*
X0343477Y0157950D01*
X0342710Y0158717D01*
X0342710Y0161019D01*
X0341175Y0157950D02*
X0338106Y0157950D01*
X0339641Y0157950D02*
X0339641Y0162554D01*
X0338106Y0161019D01*
X0336571Y0158717D02*
X0336571Y0157950D01*
X0335804Y0157950D01*
X0335804Y0158717D01*
X0336571Y0158717D01*
X0334269Y0158717D02*
X0333502Y0157950D01*
X0331967Y0157950D01*
X0331200Y0158717D01*
X0334269Y0161787D01*
X0334269Y0158717D01*
X0331200Y0158717D02*
X0331200Y0161787D01*
X0331967Y0162554D01*
X0333502Y0162554D01*
X0334269Y0161787D01*
X0334294Y0164200D02*
X0335061Y0164967D01*
X0334294Y0164200D02*
X0332759Y0164200D01*
X0331992Y0164967D01*
X0331992Y0168037D01*
X0332759Y0168804D01*
X0334294Y0168804D01*
X0335061Y0168037D01*
X0336596Y0168037D02*
X0337363Y0168804D01*
X0338898Y0168804D01*
X0339665Y0168037D01*
X0339665Y0167269D01*
X0336596Y0164200D01*
X0339665Y0164200D01*
X0363156Y0132554D02*
X0362388Y0131787D01*
X0362388Y0128717D01*
X0363156Y0127950D01*
X0364690Y0127950D01*
X0365457Y0128717D01*
X0366992Y0128717D02*
X0367759Y0127950D01*
X0369294Y0127950D01*
X0370061Y0128717D01*
X0370061Y0129485D01*
X0369294Y0130252D01*
X0368527Y0130252D01*
X0369294Y0130252D02*
X0370061Y0131019D01*
X0370061Y0131787D01*
X0369294Y0132554D01*
X0367759Y0132554D01*
X0366992Y0131787D01*
X0365457Y0131787D02*
X0364690Y0132554D01*
X0363156Y0132554D01*
X0371596Y0132554D02*
X0371596Y0130252D01*
X0373131Y0131019D01*
X0373898Y0131019D01*
X0374665Y0130252D01*
X0374665Y0128717D01*
X0373898Y0127950D01*
X0372363Y0127950D01*
X0371596Y0128717D01*
X0371596Y0132554D02*
X0374665Y0132554D01*
X0382946Y0134777D02*
X0387550Y0134777D01*
X0387550Y0136311D02*
X0387550Y0133242D01*
X0384481Y0133242D02*
X0382946Y0134777D01*
X0384481Y0137846D02*
X0386783Y0137846D01*
X0387550Y0138613D01*
X0387550Y0140915D01*
X0384481Y0140915D01*
X0380210Y0116304D02*
X0378675Y0116304D01*
X0377908Y0115537D01*
X0377908Y0114769D01*
X0378675Y0114002D01*
X0380210Y0114002D01*
X0380977Y0113235D01*
X0380977Y0112467D01*
X0380210Y0111700D01*
X0378675Y0111700D01*
X0377908Y0112467D01*
X0377908Y0113235D01*
X0378675Y0114002D01*
X0380210Y0114002D02*
X0380977Y0114769D01*
X0380977Y0115537D01*
X0380210Y0116304D01*
X0376373Y0115537D02*
X0375606Y0116304D01*
X0374071Y0116304D01*
X0373304Y0115537D01*
X0371769Y0115537D02*
X0371002Y0116304D01*
X0369467Y0116304D01*
X0368700Y0115537D01*
X0368700Y0112467D01*
X0369467Y0111700D01*
X0371002Y0111700D01*
X0371769Y0112467D01*
X0373304Y0111700D02*
X0376373Y0114769D01*
X0376373Y0115537D01*
X0376373Y0111700D02*
X0373304Y0111700D01*
X0372165Y0098769D02*
X0372165Y0095700D01*
X0369863Y0095700D01*
X0369096Y0096467D01*
X0369096Y0098769D01*
X0367561Y0095700D02*
X0364492Y0095700D01*
X0366027Y0095700D02*
X0366027Y0100304D01*
X0364492Y0098769D01*
X0357800Y0099269D02*
X0357800Y0096200D01*
X0357800Y0097735D02*
X0353196Y0097735D01*
X0354731Y0096200D01*
X0353963Y0100804D02*
X0353196Y0101571D01*
X0353196Y0103106D01*
X0353963Y0103873D01*
X0357033Y0100804D01*
X0357800Y0101571D01*
X0357800Y0103106D01*
X0357033Y0103873D01*
X0353963Y0103873D01*
X0354731Y0105408D02*
X0354731Y0107710D01*
X0355498Y0108477D01*
X0357800Y0108477D01*
X0357800Y0105408D02*
X0354731Y0105408D01*
X0353963Y0100804D02*
X0357033Y0100804D01*
X0343800Y0100804D02*
X0340731Y0103873D01*
X0339963Y0103873D01*
X0339196Y0103106D01*
X0339196Y0101571D01*
X0339963Y0100804D01*
X0339963Y0099269D02*
X0339196Y0098502D01*
X0339196Y0096967D01*
X0339963Y0096200D01*
X0343033Y0096200D01*
X0343800Y0096967D01*
X0343800Y0098502D01*
X0343033Y0099269D01*
X0343800Y0100804D02*
X0343800Y0103873D01*
X0343033Y0105408D02*
X0343800Y0106175D01*
X0343800Y0107710D01*
X0343033Y0108477D01*
X0339963Y0108477D01*
X0339196Y0107710D01*
X0339196Y0106175D01*
X0339963Y0105408D01*
X0340731Y0105408D01*
X0341498Y0106175D01*
X0341498Y0108477D01*
X0348156Y0072554D02*
X0347388Y0071787D01*
X0347388Y0068717D01*
X0348156Y0067950D01*
X0349690Y0067950D01*
X0350457Y0068717D01*
X0351992Y0068717D02*
X0352759Y0067950D01*
X0354294Y0067950D01*
X0355061Y0068717D01*
X0355061Y0069485D01*
X0354294Y0070252D01*
X0353527Y0070252D01*
X0354294Y0070252D02*
X0355061Y0071019D01*
X0355061Y0071787D01*
X0354294Y0072554D01*
X0352759Y0072554D01*
X0351992Y0071787D01*
X0350457Y0071787D02*
X0349690Y0072554D01*
X0348156Y0072554D01*
X0356596Y0071787D02*
X0356596Y0068717D01*
X0359665Y0071787D01*
X0359665Y0068717D01*
X0358898Y0067950D01*
X0357363Y0067950D01*
X0356596Y0068717D01*
X0356596Y0071787D02*
X0357363Y0072554D01*
X0358898Y0072554D01*
X0359665Y0071787D01*
X0360259Y0057804D02*
X0359492Y0057037D01*
X0360259Y0057804D02*
X0361794Y0057804D01*
X0362561Y0057037D01*
X0362561Y0056269D01*
X0359492Y0053200D01*
X0362561Y0053200D01*
X0364096Y0053967D02*
X0364863Y0053200D01*
X0367165Y0053200D01*
X0367165Y0056269D01*
X0364096Y0056269D02*
X0364096Y0053967D01*
X0357957Y0053967D02*
X0357957Y0053200D01*
X0357190Y0053200D01*
X0357190Y0053967D01*
X0357957Y0053967D01*
X0355656Y0053200D02*
X0352586Y0053200D01*
X0355656Y0056269D01*
X0355656Y0057037D01*
X0354888Y0057804D01*
X0353354Y0057804D01*
X0352586Y0057037D01*
X0339863Y0018304D02*
X0338328Y0017537D01*
X0336794Y0016002D01*
X0339095Y0016002D01*
X0339863Y0015235D01*
X0339863Y0014467D01*
X0339095Y0013700D01*
X0337561Y0013700D01*
X0336794Y0014467D01*
X0336794Y0016002D01*
X0335259Y0013700D02*
X0332190Y0013700D01*
X0333724Y0013700D02*
X0333724Y0018304D01*
X0332190Y0016769D01*
X0330655Y0017537D02*
X0327586Y0014467D01*
X0328353Y0013700D01*
X0329888Y0013700D01*
X0330655Y0014467D01*
X0330655Y0017537D01*
X0329888Y0018304D01*
X0328353Y0018304D01*
X0327586Y0017537D01*
X0327586Y0014467D01*
X0326051Y0013700D02*
X0322982Y0013700D01*
X0326051Y0016769D01*
X0326051Y0017537D01*
X0325284Y0018304D01*
X0323749Y0018304D01*
X0322982Y0017537D01*
X0316843Y0016002D02*
X0316843Y0013700D01*
X0316843Y0016002D02*
X0316076Y0016769D01*
X0314541Y0016769D01*
X0313774Y0016002D01*
X0312239Y0016769D02*
X0309937Y0016769D01*
X0309170Y0016002D01*
X0309170Y0014467D01*
X0309937Y0013700D01*
X0312239Y0013700D01*
X0313774Y0013700D02*
X0313774Y0018304D01*
X0307635Y0016769D02*
X0306868Y0016769D01*
X0305333Y0015235D01*
X0305333Y0016769D02*
X0305333Y0013700D01*
X0303799Y0013700D02*
X0303799Y0016002D01*
X0303031Y0016769D01*
X0301497Y0016769D01*
X0301497Y0015235D02*
X0300729Y0014467D01*
X0301497Y0013700D01*
X0303799Y0013700D01*
X0303799Y0015235D02*
X0301497Y0015235D01*
X0299195Y0013700D02*
X0299195Y0018304D01*
X0297660Y0016769D01*
X0296126Y0018304D01*
X0296126Y0013700D01*
X0297660Y0011571D02*
X0297660Y0010804D01*
X0297660Y0009269D02*
X0297660Y0006200D01*
X0296893Y0006200D02*
X0298427Y0006200D01*
X0299962Y0006200D02*
X0302264Y0006200D01*
X0303031Y0006967D01*
X0302264Y0007735D01*
X0300729Y0007735D01*
X0299962Y0008502D01*
X0300729Y0009269D01*
X0303031Y0009269D01*
X0297660Y0009269D02*
X0296893Y0009269D01*
X0294591Y0010804D02*
X0294591Y0006200D01*
X0293824Y0006200D02*
X0295358Y0006200D01*
X0292289Y0006200D02*
X0292289Y0008502D01*
X0291522Y0009269D01*
X0289987Y0009269D01*
X0289987Y0007735D02*
X0292289Y0007735D01*
X0292289Y0006200D02*
X0289987Y0006200D01*
X0289220Y0006967D01*
X0289987Y0007735D01*
X0287685Y0008502D02*
X0287685Y0006200D01*
X0287685Y0008502D02*
X0286918Y0009269D01*
X0285383Y0009269D01*
X0284616Y0008502D01*
X0283081Y0009269D02*
X0280779Y0009269D01*
X0280012Y0008502D01*
X0280012Y0006967D01*
X0280779Y0006200D01*
X0283081Y0006200D01*
X0284616Y0006200D02*
X0284616Y0010804D01*
X0280012Y0013700D02*
X0280012Y0018304D01*
X0277710Y0016002D01*
X0280779Y0016002D01*
X0276175Y0014467D02*
X0276175Y0013700D01*
X0275408Y0013700D01*
X0275408Y0014467D01*
X0276175Y0014467D01*
X0273873Y0013700D02*
X0270804Y0013700D01*
X0273873Y0016769D01*
X0273873Y0017537D01*
X0273106Y0018304D01*
X0271571Y0018304D01*
X0270804Y0017537D01*
X0269269Y0016769D02*
X0267735Y0013700D01*
X0266200Y0016769D01*
X0266200Y0010804D02*
X0268502Y0010804D01*
X0269269Y0010037D01*
X0269269Y0008502D01*
X0268502Y0007735D01*
X0266200Y0007735D01*
X0266200Y0006200D02*
X0266200Y0010804D01*
X0271571Y0009269D02*
X0273106Y0009269D01*
X0273873Y0008502D01*
X0273873Y0006200D01*
X0271571Y0006200D01*
X0270804Y0006967D01*
X0271571Y0007735D01*
X0273873Y0007735D01*
X0275408Y0008502D02*
X0276175Y0009269D01*
X0278477Y0009269D01*
X0277710Y0007735D02*
X0276175Y0007735D01*
X0275408Y0008502D01*
X0275408Y0006200D02*
X0277710Y0006200D01*
X0278477Y0006967D01*
X0277710Y0007735D01*
X0286918Y0016002D02*
X0289987Y0016002D01*
X0293824Y0010804D02*
X0294591Y0010804D01*
X0309170Y0010037D02*
X0309170Y0009269D01*
X0309937Y0008502D01*
X0311472Y0008502D01*
X0312239Y0007735D01*
X0312239Y0006967D01*
X0311472Y0006200D01*
X0309937Y0006200D01*
X0309170Y0006967D01*
X0309170Y0010037D02*
X0309937Y0010804D01*
X0311472Y0010804D01*
X0312239Y0010037D01*
X0313774Y0009269D02*
X0314541Y0009269D01*
X0314541Y0006200D01*
X0313774Y0006200D02*
X0315309Y0006200D01*
X0316843Y0006967D02*
X0316843Y0008502D01*
X0317610Y0009269D01*
X0319912Y0009269D01*
X0319912Y0010804D02*
X0319912Y0006200D01*
X0317610Y0006200D01*
X0316843Y0006967D01*
X0314541Y0010804D02*
X0314541Y0011571D01*
X0321447Y0008502D02*
X0322214Y0009269D01*
X0323749Y0009269D01*
X0324516Y0008502D01*
X0324516Y0007735D01*
X0321447Y0007735D01*
X0321447Y0008502D02*
X0321447Y0006967D01*
X0322214Y0006200D01*
X0323749Y0006200D01*
X0326051Y0006200D02*
X0326051Y0009269D01*
X0326051Y0007735D02*
X0327586Y0009269D01*
X0328353Y0009269D01*
X0329888Y0009269D02*
X0330655Y0009269D01*
X0330655Y0006200D01*
X0329888Y0006200D02*
X0331422Y0006200D01*
X0332957Y0006967D02*
X0332957Y0008502D01*
X0333724Y0009269D01*
X0336026Y0009269D01*
X0337561Y0009269D02*
X0338328Y0009269D01*
X0338328Y0006200D01*
X0337561Y0006200D02*
X0339095Y0006200D01*
X0340630Y0006200D02*
X0342932Y0006200D01*
X0343699Y0006967D01*
X0342932Y0007735D01*
X0341397Y0007735D01*
X0340630Y0008502D01*
X0341397Y0009269D01*
X0343699Y0009269D01*
X0338328Y0010804D02*
X0338328Y0011571D01*
X0336026Y0010804D02*
X0336026Y0006200D01*
X0333724Y0006200D01*
X0332957Y0006967D01*
X0330655Y0010804D02*
X0330655Y0011571D01*
X0303477Y0034967D02*
X0302710Y0034200D01*
X0300408Y0034200D01*
X0300408Y0032665D02*
X0300408Y0037269D01*
X0302710Y0037269D01*
X0303477Y0036502D01*
X0303477Y0034967D01*
X0298873Y0034967D02*
X0298106Y0034200D01*
X0296571Y0034200D01*
X0295804Y0034967D01*
X0295804Y0035735D01*
X0296571Y0036502D01*
X0298106Y0036502D01*
X0298873Y0035735D01*
X0298873Y0034967D01*
X0298106Y0036502D02*
X0298873Y0037269D01*
X0298873Y0038037D01*
X0298106Y0038804D01*
X0296571Y0038804D01*
X0295804Y0038037D01*
X0295804Y0037269D01*
X0296571Y0036502D01*
X0294269Y0034200D02*
X0291200Y0034200D01*
X0292735Y0034200D02*
X0292735Y0038804D01*
X0291200Y0037269D01*
X0283477Y0036502D02*
X0283477Y0034967D01*
X0282710Y0034200D01*
X0280408Y0034200D01*
X0280408Y0032665D02*
X0280408Y0037269D01*
X0282710Y0037269D01*
X0283477Y0036502D01*
X0278873Y0037269D02*
X0278873Y0038037D01*
X0278106Y0038804D01*
X0276571Y0038804D01*
X0275804Y0038037D01*
X0275804Y0037269D01*
X0276571Y0036502D01*
X0278106Y0036502D01*
X0278873Y0035735D01*
X0278873Y0034967D01*
X0278106Y0034200D01*
X0276571Y0034200D01*
X0275804Y0034967D01*
X0275804Y0035735D01*
X0276571Y0036502D01*
X0278106Y0036502D02*
X0278873Y0037269D01*
X0274269Y0034200D02*
X0271200Y0034200D01*
X0272735Y0034200D02*
X0272735Y0038804D01*
X0271200Y0037269D01*
X0269533Y0044492D02*
X0266463Y0044492D01*
X0265696Y0045259D01*
X0265696Y0046794D01*
X0266463Y0047561D01*
X0266463Y0049096D02*
X0267231Y0049096D01*
X0267998Y0049863D01*
X0267998Y0052165D01*
X0266463Y0052165D02*
X0265696Y0051398D01*
X0265696Y0049863D01*
X0266463Y0049096D01*
X0266463Y0052165D02*
X0269533Y0052165D01*
X0270300Y0051398D01*
X0270300Y0049863D01*
X0269533Y0049096D01*
X0269533Y0047561D02*
X0270300Y0046794D01*
X0270300Y0045259D01*
X0269533Y0044492D01*
X0249529Y0057537D02*
X0249529Y0058304D01*
X0249529Y0057537D02*
X0247994Y0056002D01*
X0247994Y0053700D01*
X0247994Y0056002D02*
X0246460Y0057537D01*
X0246460Y0058304D01*
X0244925Y0057537D02*
X0244925Y0056002D01*
X0244158Y0055235D01*
X0241856Y0055235D01*
X0243390Y0055235D02*
X0244925Y0053700D01*
X0241856Y0053700D02*
X0241856Y0058304D01*
X0244158Y0058304D01*
X0244925Y0057537D01*
X0240321Y0058304D02*
X0237252Y0058304D01*
X0237252Y0053700D01*
X0240321Y0053700D01*
X0238787Y0056002D02*
X0237252Y0056002D01*
X0235717Y0058304D02*
X0232648Y0058304D01*
X0231113Y0058304D02*
X0228044Y0058304D01*
X0229579Y0058304D02*
X0229579Y0053700D01*
X0226509Y0053700D02*
X0226509Y0056769D01*
X0224975Y0058304D01*
X0223440Y0056769D01*
X0223440Y0053700D01*
X0221906Y0054467D02*
X0221138Y0053700D01*
X0218836Y0053700D01*
X0218836Y0058304D01*
X0221138Y0058304D01*
X0221906Y0057537D01*
X0221906Y0056769D01*
X0221138Y0056002D01*
X0218836Y0056002D01*
X0221138Y0056002D02*
X0221906Y0055235D01*
X0221906Y0054467D01*
X0223440Y0056002D02*
X0226509Y0056002D01*
X0231113Y0050804D02*
X0232648Y0050804D01*
X0233415Y0050037D01*
X0233415Y0049269D01*
X0232648Y0048502D01*
X0233415Y0047735D01*
X0233415Y0046967D01*
X0232648Y0046200D01*
X0231113Y0046200D01*
X0230346Y0046967D01*
X0231881Y0048502D02*
X0232648Y0048502D01*
X0234950Y0047735D02*
X0236485Y0046200D01*
X0238019Y0047735D01*
X0238019Y0050804D01*
X0234950Y0050804D02*
X0234950Y0047735D01*
X0231113Y0050804D02*
X0230346Y0050037D01*
X0234183Y0053700D02*
X0234183Y0058304D01*
X0222665Y0068967D02*
X0221898Y0068200D01*
X0220363Y0068200D01*
X0219596Y0068967D01*
X0222665Y0072037D01*
X0222665Y0068967D01*
X0219596Y0068967D02*
X0219596Y0072037D01*
X0220363Y0072804D01*
X0221898Y0072804D01*
X0222665Y0072037D01*
X0218061Y0072037D02*
X0218061Y0068967D01*
X0217294Y0068200D01*
X0215759Y0068200D01*
X0214992Y0068967D01*
X0218061Y0072037D01*
X0217294Y0072804D01*
X0215759Y0072804D01*
X0214992Y0072037D01*
X0214992Y0068967D01*
X0213457Y0068200D02*
X0210388Y0068200D01*
X0211923Y0068200D02*
X0211923Y0072804D01*
X0210388Y0071269D01*
X0212492Y0084200D02*
X0212492Y0088804D01*
X0214794Y0088804D01*
X0215561Y0088037D01*
X0215561Y0086502D01*
X0214794Y0085735D01*
X0212492Y0085735D01*
X0214027Y0085735D02*
X0215561Y0084200D01*
X0217096Y0084200D02*
X0217096Y0084967D01*
X0220165Y0088037D01*
X0220165Y0088804D01*
X0217096Y0088804D01*
X0239446Y0094009D02*
X0240213Y0093242D01*
X0243283Y0093242D01*
X0244050Y0094009D01*
X0244050Y0095544D01*
X0243283Y0096311D01*
X0243283Y0097846D02*
X0244050Y0098613D01*
X0244050Y0100148D01*
X0243283Y0100915D01*
X0242515Y0100915D01*
X0241748Y0100148D01*
X0241748Y0097846D01*
X0243283Y0097846D01*
X0241748Y0097846D02*
X0240213Y0099381D01*
X0239446Y0100915D01*
X0240213Y0096311D02*
X0239446Y0095544D01*
X0239446Y0094009D01*
X0243700Y0109200D02*
X0246769Y0109200D01*
X0245235Y0109200D02*
X0245235Y0113804D01*
X0243700Y0112269D01*
X0248304Y0113037D02*
X0248304Y0109967D01*
X0251373Y0113037D01*
X0251373Y0109967D01*
X0250606Y0109200D01*
X0249071Y0109200D01*
X0248304Y0109967D01*
X0248304Y0113037D02*
X0249071Y0113804D01*
X0250606Y0113804D01*
X0251373Y0113037D01*
X0252908Y0112269D02*
X0252908Y0109967D01*
X0253675Y0109200D01*
X0255977Y0109200D01*
X0255977Y0112269D01*
X0258700Y0113037D02*
X0258700Y0109967D01*
X0261769Y0113037D01*
X0261769Y0109967D01*
X0261002Y0109200D01*
X0259467Y0109200D01*
X0258700Y0109967D01*
X0258700Y0113037D02*
X0259467Y0113804D01*
X0261002Y0113804D01*
X0261769Y0113037D01*
X0263304Y0109967D02*
X0264071Y0109967D01*
X0264071Y0109200D01*
X0263304Y0109200D01*
X0263304Y0109967D01*
X0265606Y0109200D02*
X0268675Y0109200D01*
X0267141Y0109200D02*
X0267141Y0113804D01*
X0265606Y0112269D01*
X0270210Y0112269D02*
X0270210Y0109967D01*
X0270977Y0109200D01*
X0273279Y0109200D01*
X0273279Y0112269D01*
X0267713Y0100915D02*
X0270783Y0097846D01*
X0271550Y0097846D01*
X0270783Y0096311D02*
X0271550Y0095544D01*
X0271550Y0094009D01*
X0270783Y0093242D01*
X0267713Y0093242D01*
X0266946Y0094009D01*
X0266946Y0095544D01*
X0267713Y0096311D01*
X0266946Y0097846D02*
X0266946Y0100915D01*
X0267713Y0100915D01*
X0303963Y0052165D02*
X0304731Y0052165D01*
X0305498Y0051398D01*
X0305498Y0049863D01*
X0304731Y0049096D01*
X0303963Y0049096D01*
X0303196Y0049863D01*
X0303196Y0051398D01*
X0303963Y0052165D01*
X0305498Y0051398D02*
X0306265Y0052165D01*
X0307033Y0052165D01*
X0307800Y0051398D01*
X0307800Y0049863D01*
X0307033Y0049096D01*
X0306265Y0049096D01*
X0305498Y0049863D01*
X0303963Y0047561D02*
X0303196Y0046794D01*
X0303196Y0045259D01*
X0303963Y0044492D01*
X0307033Y0044492D01*
X0307800Y0045259D01*
X0307800Y0046794D01*
X0307033Y0047561D01*
X0226596Y0148700D02*
X0226596Y0149467D01*
X0229665Y0152537D01*
X0229665Y0153304D01*
X0226596Y0153304D01*
X0225061Y0153304D02*
X0225061Y0148700D01*
X0221992Y0153304D01*
X0221992Y0148700D01*
X0220457Y0148700D02*
X0218923Y0148700D01*
X0219690Y0148700D02*
X0219690Y0153304D01*
X0218923Y0153304D02*
X0220457Y0153304D01*
X0217388Y0151769D02*
X0217388Y0148700D01*
X0217388Y0151002D02*
X0214319Y0151002D01*
X0214319Y0151769D02*
X0215854Y0153304D01*
X0217388Y0151769D01*
X0214319Y0151769D02*
X0214319Y0148700D01*
X0214319Y0161200D02*
X0214319Y0164269D01*
X0215854Y0165804D01*
X0217388Y0164269D01*
X0217388Y0161200D01*
X0218923Y0161200D02*
X0220457Y0161200D01*
X0219690Y0161200D02*
X0219690Y0165804D01*
X0218923Y0165804D02*
X0220457Y0165804D01*
X0221992Y0165804D02*
X0225061Y0161200D01*
X0225061Y0165804D01*
X0226596Y0163502D02*
X0228898Y0163502D01*
X0229665Y0162735D01*
X0229665Y0161967D01*
X0228898Y0161200D01*
X0227363Y0161200D01*
X0226596Y0161967D01*
X0226596Y0163502D01*
X0228131Y0165037D01*
X0229665Y0165804D01*
X0221992Y0165804D02*
X0221992Y0161200D01*
X0217388Y0163502D02*
X0214319Y0163502D01*
X0223156Y0176700D02*
X0224690Y0176700D01*
X0225457Y0177467D01*
X0226992Y0176700D02*
X0230061Y0176700D01*
X0228527Y0176700D02*
X0228527Y0181304D01*
X0226992Y0179769D01*
X0225457Y0180537D02*
X0224690Y0181304D01*
X0223156Y0181304D01*
X0222388Y0180537D01*
X0222388Y0177467D01*
X0223156Y0176700D01*
X0218898Y0183200D02*
X0216596Y0183200D01*
X0216596Y0181665D02*
X0216596Y0186269D01*
X0218898Y0186269D01*
X0219665Y0185502D01*
X0219665Y0183967D01*
X0218898Y0183200D01*
X0215061Y0183967D02*
X0214294Y0183200D01*
X0212759Y0183200D01*
X0211992Y0183967D01*
X0215061Y0187037D01*
X0215061Y0183967D01*
X0211992Y0183967D02*
X0211992Y0187037D01*
X0212759Y0187804D01*
X0214294Y0187804D01*
X0215061Y0187037D01*
X0210457Y0187037D02*
X0210457Y0183967D01*
X0209690Y0183200D01*
X0208155Y0183200D01*
X0207388Y0183967D01*
X0210457Y0187037D01*
X0209690Y0187804D01*
X0208155Y0187804D01*
X0207388Y0187037D01*
X0207388Y0183967D01*
X0205854Y0183200D02*
X0202784Y0183200D01*
X0204319Y0183200D02*
X0204319Y0187804D01*
X0202784Y0186269D01*
X0231596Y0181304D02*
X0231596Y0179002D01*
X0233131Y0179769D01*
X0233898Y0179769D01*
X0234665Y0179002D01*
X0234665Y0177467D01*
X0233898Y0176700D01*
X0232363Y0176700D01*
X0231596Y0177467D01*
X0231596Y0181304D02*
X0234665Y0181304D01*
X0248638Y0180537D02*
X0248638Y0177467D01*
X0249406Y0176700D01*
X0250940Y0176700D01*
X0251707Y0177467D01*
X0253242Y0176700D02*
X0256311Y0176700D01*
X0254777Y0176700D02*
X0254777Y0181304D01*
X0253242Y0179769D01*
X0251707Y0180537D02*
X0250940Y0181304D01*
X0249406Y0181304D01*
X0248638Y0180537D01*
X0250235Y0173804D02*
X0248700Y0172269D01*
X0250235Y0173804D02*
X0250235Y0169200D01*
X0251769Y0169200D02*
X0248700Y0169200D01*
X0253304Y0169967D02*
X0256373Y0173037D01*
X0256373Y0169967D01*
X0255606Y0169200D01*
X0254071Y0169200D01*
X0253304Y0169967D01*
X0253304Y0173037D01*
X0254071Y0173804D01*
X0255606Y0173804D01*
X0256373Y0173037D01*
X0257908Y0173037D02*
X0257908Y0169967D01*
X0260977Y0173037D01*
X0260977Y0169967D01*
X0260210Y0169200D01*
X0258675Y0169200D01*
X0257908Y0169967D01*
X0257908Y0173037D02*
X0258675Y0173804D01*
X0260210Y0173804D01*
X0260977Y0173037D01*
X0262512Y0172269D02*
X0264814Y0172269D01*
X0265581Y0171502D01*
X0265581Y0169967D01*
X0264814Y0169200D01*
X0262512Y0169200D01*
X0262512Y0167665D02*
X0262512Y0172269D01*
X0260148Y0176700D02*
X0258613Y0176700D01*
X0257846Y0177467D01*
X0259381Y0179002D02*
X0260148Y0179002D01*
X0260915Y0178235D01*
X0260915Y0177467D01*
X0260148Y0176700D01*
X0260148Y0179002D02*
X0260915Y0179769D01*
X0260915Y0180537D01*
X0260148Y0181304D01*
X0258613Y0181304D01*
X0257846Y0180537D01*
X0272450Y0179537D02*
X0272450Y0176467D01*
X0273217Y0175700D01*
X0274752Y0175700D01*
X0275519Y0176467D01*
X0277054Y0175700D02*
X0280123Y0175700D01*
X0278589Y0175700D02*
X0278589Y0180304D01*
X0277054Y0178769D01*
X0275519Y0179537D02*
X0274752Y0180304D01*
X0273217Y0180304D01*
X0272450Y0179537D01*
X0281658Y0178769D02*
X0283192Y0180304D01*
X0283192Y0175700D01*
X0281658Y0175700D02*
X0284727Y0175700D01*
X0227050Y0222450D02*
X0227050Y0225519D01*
X0227050Y0223985D02*
X0222446Y0223985D01*
X0223981Y0222450D01*
X0225515Y0227054D02*
X0223981Y0229356D01*
X0225515Y0227054D02*
X0227050Y0229356D01*
X0227050Y0227054D02*
X0222446Y0227054D01*
X0178300Y0228106D02*
X0176765Y0225804D01*
X0175231Y0228106D01*
X0173696Y0225804D02*
X0178300Y0225804D01*
X0178300Y0224269D02*
X0178300Y0221200D01*
X0178300Y0222735D02*
X0173696Y0222735D01*
X0175231Y0221200D01*
X0158300Y0219950D02*
X0153696Y0219950D01*
X0153696Y0222252D01*
X0154463Y0223019D01*
X0155998Y0223019D01*
X0156765Y0222252D01*
X0156765Y0219950D01*
X0156765Y0221485D02*
X0158300Y0223019D01*
X0157533Y0224554D02*
X0158300Y0225321D01*
X0158300Y0226856D01*
X0157533Y0227623D01*
X0156765Y0227623D01*
X0155998Y0226856D01*
X0155998Y0226089D01*
X0155998Y0226856D02*
X0155231Y0227623D01*
X0154463Y0227623D01*
X0153696Y0226856D01*
X0153696Y0225321D01*
X0154463Y0224554D01*
X0155231Y0229158D02*
X0153696Y0230692D01*
X0155231Y0232227D01*
X0158300Y0232227D01*
X0155998Y0232227D02*
X0155998Y0229158D01*
X0155231Y0229158D02*
X0158300Y0229158D01*
X0099665Y0266950D02*
X0099665Y0270019D01*
X0096596Y0270019D02*
X0096596Y0267717D01*
X0097363Y0266950D01*
X0099665Y0266950D01*
X0095061Y0267717D02*
X0095061Y0270787D01*
X0091992Y0267717D01*
X0092759Y0266950D01*
X0094294Y0266950D01*
X0095061Y0267717D01*
X0091992Y0267717D02*
X0091992Y0270787D01*
X0092759Y0271554D01*
X0094294Y0271554D01*
X0095061Y0270787D01*
X0090457Y0266950D02*
X0087388Y0266950D01*
X0088923Y0266950D02*
X0088923Y0271554D01*
X0087388Y0270019D01*
X0089950Y0298217D02*
X0093019Y0301287D01*
X0091485Y0301287D02*
X0091485Y0298217D01*
X0093019Y0298217D02*
X0089950Y0301287D01*
X0089950Y0299752D02*
X0093019Y0299752D01*
X0020050Y0278915D02*
X0018515Y0276613D01*
X0016981Y0278915D01*
X0015446Y0276613D02*
X0020050Y0276613D01*
X0151185Y0038689D02*
X0151953Y0037922D01*
X0151953Y0037154D01*
X0160388Y0040700D02*
X0163457Y0040700D01*
X0120165Y0007519D02*
X0117863Y0005985D01*
X0120165Y0004450D01*
X0117863Y0004450D02*
X0117863Y0009054D01*
X0345170Y0306328D02*
X0346705Y0307863D01*
X0346705Y0310932D01*
X0348239Y0310932D02*
X0350541Y0310932D01*
X0351309Y0310165D01*
X0351309Y0308630D01*
X0350541Y0307863D01*
X0348239Y0307863D01*
X0348239Y0306328D02*
X0348239Y0310932D01*
X0352843Y0309397D02*
X0354378Y0310932D01*
X0355913Y0309397D01*
X0355913Y0306328D01*
X0357447Y0306328D02*
X0357447Y0310932D01*
X0360516Y0306328D01*
X0360516Y0310932D01*
X0362051Y0310932D02*
X0362051Y0306328D01*
X0365120Y0306328D01*
X0366655Y0306328D02*
X0369724Y0306328D01*
X0366655Y0306328D02*
X0366655Y0310932D01*
X0365120Y0310932D02*
X0362051Y0310932D01*
X0362051Y0308630D02*
X0363586Y0308630D01*
X0355913Y0308630D02*
X0352843Y0308630D01*
X0352843Y0309397D02*
X0352843Y0306328D01*
X0345170Y0306328D02*
X0343635Y0307863D01*
X0343635Y0310932D01*
D13*
X0362750Y0177970D02*
X0365886Y0174834D01*
X0364318Y0174834D02*
X0364318Y0177970D01*
X0365886Y0177970D02*
X0362750Y0174834D01*
X0362750Y0176402D02*
X0365886Y0176402D01*
X0317870Y0143350D02*
X0314734Y0140214D01*
X0314734Y0141782D02*
X0317870Y0141782D01*
X0317870Y0140214D02*
X0314734Y0143350D01*
X0316302Y0143350D02*
X0316302Y0140214D01*
X0374834Y0089250D02*
X0377970Y0086114D01*
X0377970Y0087682D02*
X0374834Y0087682D01*
X0374834Y0086114D02*
X0377970Y0089250D01*
X0376402Y0089250D02*
X0376402Y0086114D01*
X0158978Y0032869D02*
X0158978Y0030934D01*
X0158494Y0030450D01*
X0157043Y0030450D01*
X0157043Y0033352D01*
X0158494Y0033352D01*
X0158978Y0032869D01*
X0156031Y0033352D02*
X0156031Y0030450D01*
X0154097Y0033352D01*
X0154097Y0030450D01*
X0153085Y0030934D02*
X0153085Y0031901D01*
X0152117Y0031901D01*
X0151150Y0030934D02*
X0151150Y0032869D01*
X0151634Y0033352D01*
X0152601Y0033352D01*
X0153085Y0032869D01*
X0153085Y0030934D02*
X0152601Y0030450D01*
X0151634Y0030450D01*
X0151150Y0030934D01*
X0143085Y0030450D02*
X0143085Y0033352D01*
X0141150Y0033352D02*
X0141150Y0030450D01*
X0142117Y0031417D01*
X0143085Y0030450D01*
X0140138Y0030450D02*
X0138203Y0030450D01*
X0139171Y0030450D02*
X0139171Y0033352D01*
X0138203Y0032385D01*
X0131388Y0031417D02*
X0131388Y0033352D01*
X0131388Y0031417D02*
X0130421Y0030450D01*
X0129453Y0031417D01*
X0129453Y0033352D01*
X0128442Y0033352D02*
X0126507Y0033352D01*
X0126507Y0031901D01*
X0127474Y0032385D01*
X0127958Y0032385D01*
X0128442Y0031901D01*
X0128442Y0030934D01*
X0127958Y0030450D01*
X0126991Y0030450D01*
X0126507Y0030934D01*
X0124170Y0224414D02*
X0121034Y0227550D01*
X0121034Y0225982D02*
X0124170Y0225982D01*
X0124170Y0227550D02*
X0121034Y0224414D01*
X0122602Y0224414D02*
X0122602Y0227550D01*
D14*
X0123750Y0221850D02*
X0126753Y0221850D01*
X0128254Y0220349D01*
X0126753Y0218847D01*
X0123750Y0218847D01*
X0123750Y0217246D02*
X0123750Y0214994D01*
X0124501Y0214244D01*
X0127503Y0214244D01*
X0128254Y0214994D01*
X0128254Y0217246D01*
X0123750Y0217246D01*
X0126002Y0218847D02*
X0126002Y0221850D01*
X0124501Y0212642D02*
X0123750Y0211892D01*
X0123750Y0210390D01*
X0124501Y0209640D01*
X0128254Y0209640D01*
X0128254Y0208038D02*
X0123750Y0208038D01*
X0123750Y0205036D02*
X0128254Y0205036D01*
X0126753Y0206537D01*
X0128254Y0208038D01*
X0128254Y0203434D02*
X0126002Y0203434D01*
X0126753Y0201933D01*
X0126753Y0201182D01*
X0126002Y0200432D01*
X0124501Y0200432D01*
X0123750Y0201182D01*
X0123750Y0202684D01*
X0124501Y0203434D01*
X0128254Y0203434D02*
X0128254Y0200432D01*
X0127503Y0198830D02*
X0124501Y0198830D01*
X0127503Y0195828D01*
X0124501Y0195828D01*
X0123750Y0196578D01*
X0123750Y0198080D01*
X0124501Y0198830D01*
X0127503Y0198830D02*
X0128254Y0198080D01*
X0128254Y0196578D01*
X0127503Y0195828D01*
X0127503Y0194226D02*
X0128254Y0193476D01*
X0128254Y0191975D01*
X0127503Y0191224D01*
X0124501Y0194226D01*
X0123750Y0193476D01*
X0123750Y0191975D01*
X0124501Y0191224D01*
X0127503Y0191224D01*
X0127503Y0189623D02*
X0124501Y0189623D01*
X0127503Y0186620D01*
X0124501Y0186620D01*
X0123750Y0187371D01*
X0123750Y0188872D01*
X0124501Y0189623D01*
X0127503Y0189623D02*
X0128254Y0188872D01*
X0128254Y0187371D01*
X0127503Y0186620D01*
X0127503Y0194226D02*
X0124501Y0194226D01*
X0124501Y0212642D02*
X0128254Y0212642D01*
X0163134Y0239801D02*
X0163885Y0239050D01*
X0164636Y0239050D01*
X0165386Y0239801D01*
X0165386Y0243554D01*
X0164636Y0243554D02*
X0166137Y0243554D01*
X0167738Y0243554D02*
X0167738Y0239050D01*
X0167738Y0240551D02*
X0169990Y0240551D01*
X0170741Y0241302D01*
X0170741Y0242803D01*
X0169990Y0243554D01*
X0167738Y0243554D01*
X0172342Y0242803D02*
X0173093Y0243554D01*
X0174594Y0243554D01*
X0175345Y0242803D01*
X0175345Y0242053D01*
X0172342Y0239050D01*
X0175345Y0239050D01*
X0176946Y0239050D02*
X0176946Y0242053D01*
X0178447Y0243554D01*
X0179949Y0242053D01*
X0179949Y0239050D01*
X0179949Y0241302D02*
X0176946Y0241302D01*
X0210634Y0239801D02*
X0211385Y0239050D01*
X0212136Y0239050D01*
X0212886Y0239801D01*
X0212886Y0243554D01*
X0212136Y0243554D02*
X0213637Y0243554D01*
X0215238Y0243554D02*
X0215238Y0239050D01*
X0215238Y0240551D02*
X0217490Y0240551D01*
X0218241Y0241302D01*
X0218241Y0242803D01*
X0217490Y0243554D01*
X0215238Y0243554D01*
X0219842Y0242803D02*
X0220593Y0243554D01*
X0222094Y0243554D01*
X0222845Y0242803D01*
X0222845Y0242053D01*
X0219842Y0239050D01*
X0222845Y0239050D01*
X0224446Y0239050D02*
X0226698Y0239050D01*
X0227449Y0239801D01*
X0227449Y0240551D01*
X0226698Y0241302D01*
X0224446Y0241302D01*
X0224446Y0243554D02*
X0226698Y0243554D01*
X0227449Y0242803D01*
X0227449Y0242053D01*
X0226698Y0241302D01*
X0224446Y0239050D02*
X0224446Y0243554D01*
X0251472Y0265065D02*
X0251472Y0304435D01*
X0310528Y0304435D01*
X0310528Y0265065D01*
X0251472Y0265065D01*
X0215264Y0299201D02*
X0214514Y0298450D01*
X0212262Y0298450D01*
X0212262Y0302954D01*
X0214514Y0302954D01*
X0215264Y0302203D01*
X0215264Y0301453D01*
X0214514Y0300702D01*
X0212262Y0300702D01*
X0214514Y0300702D02*
X0215264Y0299951D01*
X0215264Y0299201D01*
X0210660Y0298450D02*
X0207658Y0298450D01*
X0209159Y0298450D02*
X0209159Y0302954D01*
X0207658Y0301453D01*
X0206056Y0302203D02*
X0206056Y0300702D01*
X0205306Y0299951D01*
X0203054Y0299951D01*
X0203054Y0298450D02*
X0203054Y0302954D01*
X0205306Y0302954D01*
X0206056Y0302203D01*
X0201453Y0302954D02*
X0199951Y0302954D01*
X0200702Y0302954D02*
X0200702Y0299201D01*
X0199951Y0298450D01*
X0199201Y0298450D01*
X0198450Y0299201D01*
X0167764Y0298450D02*
X0167764Y0301453D01*
X0166263Y0302954D01*
X0164762Y0301453D01*
X0164762Y0298450D01*
X0163160Y0298450D02*
X0160158Y0298450D01*
X0161659Y0298450D02*
X0161659Y0302954D01*
X0160158Y0301453D01*
X0158556Y0302203D02*
X0158556Y0300702D01*
X0157806Y0299951D01*
X0155554Y0299951D01*
X0155554Y0298450D02*
X0155554Y0302954D01*
X0157806Y0302954D01*
X0158556Y0302203D01*
X0164762Y0300702D02*
X0167764Y0300702D01*
X0153953Y0302954D02*
X0152451Y0302954D01*
X0153202Y0302954D02*
X0153202Y0299201D01*
X0152451Y0298450D01*
X0151701Y0298450D01*
X0150950Y0299201D01*
X0095861Y0308750D02*
X0095861Y0313254D01*
X0092859Y0313254D02*
X0092859Y0308750D01*
X0091257Y0309501D02*
X0091257Y0312503D01*
X0090507Y0313254D01*
X0089005Y0313254D01*
X0088255Y0312503D01*
X0088255Y0309501D01*
X0089005Y0308750D01*
X0090507Y0308750D01*
X0091257Y0309501D01*
X0092859Y0313254D02*
X0095861Y0308750D01*
X0086653Y0309501D02*
X0085903Y0308750D01*
X0084401Y0308750D01*
X0083651Y0309501D01*
X0083651Y0312503D01*
X0084401Y0313254D01*
X0085903Y0313254D01*
X0086653Y0312503D01*
X0082049Y0307999D02*
X0079047Y0307999D01*
X0077445Y0309501D02*
X0077445Y0312503D01*
X0076695Y0313254D01*
X0074443Y0313254D01*
X0074443Y0308750D01*
X0076695Y0308750D01*
X0077445Y0309501D01*
X0072841Y0308750D02*
X0069839Y0308750D01*
X0069839Y0313254D01*
X0072841Y0313254D01*
X0071340Y0311002D02*
X0069839Y0311002D01*
X0068238Y0313254D02*
X0065235Y0313254D01*
X0066736Y0313254D02*
X0066736Y0308750D01*
X0063634Y0308750D02*
X0063634Y0311753D01*
X0062132Y0313254D01*
X0060631Y0311753D01*
X0060631Y0308750D01*
X0059030Y0308750D02*
X0056027Y0308750D01*
X0056027Y0313254D01*
X0054426Y0312503D02*
X0054426Y0309501D01*
X0053675Y0308750D01*
X0052174Y0308750D01*
X0051423Y0309501D01*
X0051423Y0312503D01*
X0052174Y0313254D01*
X0053675Y0313254D01*
X0054426Y0312503D01*
X0049822Y0312503D02*
X0049071Y0313254D01*
X0047570Y0313254D01*
X0046819Y0312503D01*
X0046819Y0311753D01*
X0047570Y0311002D01*
X0049071Y0311002D01*
X0049822Y0310251D01*
X0049822Y0309501D01*
X0049071Y0308750D01*
X0047570Y0308750D01*
X0046819Y0309501D01*
X0045251Y0308750D02*
X0043750Y0308750D01*
X0044501Y0308750D02*
X0044501Y0313254D01*
X0045251Y0313254D02*
X0043750Y0313254D01*
X0060631Y0311002D02*
X0063634Y0311002D01*
X0066399Y0220284D02*
X0066401Y0220347D01*
X0066407Y0220409D01*
X0066417Y0220471D01*
X0066430Y0220533D01*
X0066448Y0220593D01*
X0066469Y0220652D01*
X0066494Y0220710D01*
X0066523Y0220766D01*
X0066555Y0220820D01*
X0066590Y0220872D01*
X0066628Y0220921D01*
X0066670Y0220969D01*
X0066714Y0221013D01*
X0066762Y0221055D01*
X0066811Y0221093D01*
X0066863Y0221128D01*
X0066917Y0221160D01*
X0066973Y0221189D01*
X0067031Y0221214D01*
X0067090Y0221235D01*
X0067150Y0221253D01*
X0067212Y0221266D01*
X0067274Y0221276D01*
X0067336Y0221282D01*
X0067399Y0221284D01*
X0067462Y0221282D01*
X0067524Y0221276D01*
X0067586Y0221266D01*
X0067648Y0221253D01*
X0067708Y0221235D01*
X0067767Y0221214D01*
X0067825Y0221189D01*
X0067881Y0221160D01*
X0067935Y0221128D01*
X0067987Y0221093D01*
X0068036Y0221055D01*
X0068084Y0221013D01*
X0068128Y0220969D01*
X0068170Y0220921D01*
X0068208Y0220872D01*
X0068243Y0220820D01*
X0068275Y0220766D01*
X0068304Y0220710D01*
X0068329Y0220652D01*
X0068350Y0220593D01*
X0068368Y0220533D01*
X0068381Y0220471D01*
X0068391Y0220409D01*
X0068397Y0220347D01*
X0068399Y0220284D01*
X0068397Y0220221D01*
X0068391Y0220159D01*
X0068381Y0220097D01*
X0068368Y0220035D01*
X0068350Y0219975D01*
X0068329Y0219916D01*
X0068304Y0219858D01*
X0068275Y0219802D01*
X0068243Y0219748D01*
X0068208Y0219696D01*
X0068170Y0219647D01*
X0068128Y0219599D01*
X0068084Y0219555D01*
X0068036Y0219513D01*
X0067987Y0219475D01*
X0067935Y0219440D01*
X0067881Y0219408D01*
X0067825Y0219379D01*
X0067767Y0219354D01*
X0067708Y0219333D01*
X0067648Y0219315D01*
X0067586Y0219302D01*
X0067524Y0219292D01*
X0067462Y0219286D01*
X0067399Y0219284D01*
X0067336Y0219286D01*
X0067274Y0219292D01*
X0067212Y0219302D01*
X0067150Y0219315D01*
X0067090Y0219333D01*
X0067031Y0219354D01*
X0066973Y0219379D01*
X0066917Y0219408D01*
X0066863Y0219440D01*
X0066811Y0219475D01*
X0066762Y0219513D01*
X0066714Y0219555D01*
X0066670Y0219599D01*
X0066628Y0219647D01*
X0066590Y0219696D01*
X0066555Y0219748D01*
X0066523Y0219802D01*
X0066494Y0219858D01*
X0066469Y0219916D01*
X0066448Y0219975D01*
X0066430Y0220035D01*
X0066417Y0220097D01*
X0066407Y0220159D01*
X0066401Y0220221D01*
X0066399Y0220284D01*
X0008250Y0168027D02*
X0003746Y0168027D01*
X0003746Y0165024D02*
X0008250Y0168027D01*
X0008250Y0165024D02*
X0003746Y0165024D01*
X0004497Y0163423D02*
X0003746Y0162672D01*
X0003746Y0161171D01*
X0004497Y0160420D01*
X0007499Y0160420D01*
X0008250Y0161171D01*
X0008250Y0162672D01*
X0007499Y0163423D01*
X0004497Y0163423D01*
X0004497Y0158819D02*
X0003746Y0158068D01*
X0003746Y0156567D01*
X0004497Y0155816D01*
X0007499Y0155816D01*
X0008250Y0156567D01*
X0008250Y0158068D01*
X0007499Y0158819D01*
X0009001Y0154215D02*
X0009001Y0151212D01*
X0007499Y0149611D02*
X0008250Y0148860D01*
X0008250Y0146609D01*
X0003746Y0146609D01*
X0003746Y0148860D01*
X0004497Y0149611D01*
X0007499Y0149611D01*
X0008250Y0145007D02*
X0008250Y0142005D01*
X0003746Y0142005D01*
X0003746Y0145007D01*
X0005998Y0143506D02*
X0005998Y0142005D01*
X0003746Y0140403D02*
X0003746Y0137401D01*
X0003746Y0138902D02*
X0008250Y0138902D01*
X0008250Y0135799D02*
X0005247Y0135799D01*
X0003746Y0134298D01*
X0005247Y0132797D01*
X0008250Y0132797D01*
X0008250Y0131195D02*
X0008250Y0128193D01*
X0003746Y0128193D01*
X0004497Y0126591D02*
X0003746Y0125841D01*
X0003746Y0124340D01*
X0004497Y0123589D01*
X0007499Y0123589D01*
X0008250Y0124340D01*
X0008250Y0125841D01*
X0007499Y0126591D01*
X0004497Y0126591D01*
X0004497Y0121988D02*
X0003746Y0121237D01*
X0003746Y0119736D01*
X0004497Y0118985D01*
X0005247Y0118985D01*
X0005998Y0119736D01*
X0005998Y0121237D01*
X0006749Y0121988D01*
X0007499Y0121988D01*
X0008250Y0121237D01*
X0008250Y0119736D01*
X0007499Y0118985D01*
X0008250Y0117417D02*
X0008250Y0115916D01*
X0008250Y0116666D02*
X0003746Y0116666D01*
X0003746Y0115916D02*
X0003746Y0117417D01*
X0005998Y0114314D02*
X0005998Y0111312D01*
X0008250Y0109710D02*
X0003746Y0109710D01*
X0003746Y0106708D02*
X0008250Y0109710D01*
X0008250Y0106708D02*
X0003746Y0106708D01*
X0004497Y0105106D02*
X0003746Y0104356D01*
X0003746Y0102855D01*
X0004497Y0102104D01*
X0007499Y0102104D01*
X0008250Y0102855D01*
X0008250Y0104356D01*
X0007499Y0105106D01*
X0004497Y0105106D01*
X0003746Y0100503D02*
X0008250Y0100503D01*
X0003746Y0097500D01*
X0008250Y0097500D01*
X0008498Y0089030D02*
X0006997Y0089030D01*
X0006246Y0088279D01*
X0006246Y0086027D01*
X0010750Y0086027D01*
X0009249Y0086027D02*
X0009249Y0088279D01*
X0008498Y0089030D01*
X0009249Y0084426D02*
X0009999Y0084426D01*
X0010750Y0083675D01*
X0010750Y0082174D01*
X0009999Y0081423D01*
X0009999Y0079822D02*
X0010750Y0079071D01*
X0010750Y0077570D01*
X0009999Y0076819D01*
X0006997Y0076819D01*
X0006246Y0077570D01*
X0006246Y0079071D01*
X0006997Y0079822D01*
X0006997Y0081423D02*
X0007747Y0081423D01*
X0008498Y0082174D01*
X0008498Y0083675D01*
X0009249Y0084426D01*
X0006997Y0084426D02*
X0006246Y0083675D01*
X0006246Y0082174D01*
X0006997Y0081423D01*
X0006246Y0075251D02*
X0006246Y0073750D01*
X0006246Y0074501D02*
X0010750Y0074501D01*
X0010750Y0075251D02*
X0010750Y0073750D01*
X0058496Y0046856D02*
X0058496Y0045355D01*
X0059247Y0044604D01*
X0059247Y0043003D02*
X0062249Y0043003D01*
X0063000Y0042252D01*
X0063000Y0040751D01*
X0062249Y0040000D01*
X0059247Y0040000D01*
X0058496Y0040751D01*
X0058496Y0042252D01*
X0059247Y0043003D01*
X0061499Y0041501D02*
X0063000Y0043003D01*
X0063000Y0044604D02*
X0059997Y0047606D01*
X0059247Y0047606D01*
X0058496Y0046856D01*
X0063000Y0047606D02*
X0063000Y0044604D01*
X0076980Y0056500D02*
X0079983Y0056500D01*
X0078482Y0056500D02*
X0078482Y0061004D01*
X0076980Y0059503D01*
X0081584Y0058752D02*
X0083086Y0060253D01*
X0084587Y0061004D01*
X0086188Y0061004D02*
X0087689Y0059503D01*
X0089191Y0061004D01*
X0089191Y0056500D01*
X0090792Y0056500D02*
X0090792Y0061004D01*
X0090792Y0058752D02*
X0093795Y0058752D01*
X0095396Y0059503D02*
X0098399Y0059503D01*
X0095396Y0056500D01*
X0098399Y0056500D01*
X0093795Y0056500D02*
X0093795Y0061004D01*
X0086188Y0061004D02*
X0086188Y0056500D01*
X0084587Y0057251D02*
X0083836Y0056500D01*
X0082335Y0056500D01*
X0081584Y0057251D01*
X0081584Y0058752D01*
X0083836Y0058752D01*
X0084587Y0058001D01*
X0084587Y0057251D01*
X0125094Y0028205D02*
X0125094Y0002063D01*
X0156906Y0002063D01*
X0156906Y0028205D01*
X0125094Y0028205D01*
X0200773Y0117000D02*
X0200022Y0117751D01*
X0200773Y0117000D02*
X0202274Y0117000D01*
X0203025Y0117751D01*
X0203025Y0118501D01*
X0202274Y0119252D01*
X0200773Y0119252D01*
X0200022Y0120003D01*
X0200022Y0120753D01*
X0200773Y0121504D01*
X0202274Y0121504D01*
X0203025Y0120753D01*
X0206128Y0121504D02*
X0207629Y0121504D01*
X0206878Y0121504D02*
X0206878Y0117751D01*
X0206128Y0117000D01*
X0205377Y0117000D01*
X0204626Y0117751D01*
X0209230Y0117000D02*
X0212233Y0117000D01*
X0210732Y0117000D02*
X0210732Y0121504D01*
X0209230Y0120003D01*
X0213834Y0119252D02*
X0216837Y0119252D01*
X0218438Y0118501D02*
X0220690Y0118501D01*
X0221441Y0119252D01*
X0221441Y0120753D01*
X0220690Y0121504D01*
X0218438Y0121504D01*
X0218438Y0117000D01*
X0219939Y0118501D02*
X0221441Y0117000D01*
X0223042Y0117751D02*
X0223793Y0117000D01*
X0225294Y0117000D01*
X0226045Y0117751D01*
X0226045Y0118501D01*
X0225294Y0119252D01*
X0223793Y0119252D01*
X0223042Y0120003D01*
X0223042Y0120753D01*
X0223793Y0121504D01*
X0225294Y0121504D01*
X0226045Y0120753D01*
X0227646Y0121504D02*
X0230649Y0121504D01*
X0229147Y0121504D02*
X0229147Y0117000D01*
X0229148Y0133000D02*
X0229899Y0133751D01*
X0229148Y0133000D02*
X0227647Y0133000D01*
X0226896Y0133751D01*
X0226896Y0136753D01*
X0227647Y0137504D01*
X0229148Y0137504D01*
X0229899Y0136753D01*
X0225295Y0137504D02*
X0225295Y0133000D01*
X0222292Y0137504D01*
X0222292Y0133000D01*
X0219189Y0133000D02*
X0219189Y0135252D01*
X0220691Y0136753D01*
X0220691Y0137504D01*
X0219189Y0135252D02*
X0217688Y0136753D01*
X0217688Y0137504D01*
X0216087Y0136753D02*
X0215336Y0137504D01*
X0213835Y0137504D01*
X0213084Y0136753D01*
X0213084Y0136003D01*
X0213835Y0135252D01*
X0215336Y0135252D01*
X0216087Y0134501D01*
X0216087Y0133751D01*
X0215336Y0133000D01*
X0213835Y0133000D01*
X0213084Y0133751D01*
X0211483Y0135252D02*
X0208480Y0135252D01*
X0206879Y0136003D02*
X0206879Y0136753D01*
X0206128Y0137504D01*
X0204627Y0137504D01*
X0203876Y0136753D01*
X0202275Y0137504D02*
X0200774Y0137504D01*
X0201524Y0137504D02*
X0201524Y0133751D01*
X0200774Y0133000D01*
X0200023Y0133000D01*
X0199272Y0133751D01*
X0197671Y0133751D02*
X0196920Y0133000D01*
X0195419Y0133000D01*
X0194669Y0133751D01*
X0195419Y0135252D02*
X0196920Y0135252D01*
X0197671Y0134501D01*
X0197671Y0133751D01*
X0195419Y0135252D02*
X0194669Y0136003D01*
X0194669Y0136753D01*
X0195419Y0137504D01*
X0196920Y0137504D01*
X0197671Y0136753D01*
X0203876Y0133000D02*
X0206879Y0136003D01*
X0206879Y0133000D02*
X0203876Y0133000D01*
X0311250Y0073503D02*
X0311250Y0070501D01*
X0312001Y0069750D01*
X0313502Y0069750D01*
X0314253Y0070501D01*
X0314253Y0073503D01*
X0313502Y0074254D01*
X0312001Y0074254D01*
X0311250Y0073503D01*
X0312751Y0071251D02*
X0314253Y0069750D01*
X0315854Y0069750D02*
X0318856Y0069750D01*
X0317355Y0069750D02*
X0317355Y0074254D01*
X0315854Y0072753D01*
X0313003Y0066754D02*
X0310000Y0066754D01*
X0313003Y0066754D02*
X0313003Y0066003D01*
X0310000Y0063001D01*
X0310000Y0062250D01*
X0314604Y0062250D02*
X0315355Y0062250D01*
X0315355Y0063001D01*
X0314604Y0063001D01*
X0314604Y0062250D01*
X0316906Y0063001D02*
X0316906Y0064502D01*
X0319158Y0064502D01*
X0319908Y0063751D01*
X0319908Y0063001D01*
X0319158Y0062250D01*
X0317657Y0062250D01*
X0316906Y0063001D01*
X0316906Y0064502D02*
X0318407Y0066003D01*
X0319908Y0066754D01*
X0321510Y0066003D02*
X0321510Y0065253D01*
X0322260Y0064502D01*
X0323762Y0064502D01*
X0324512Y0063751D01*
X0324512Y0063001D01*
X0323762Y0062250D01*
X0322260Y0062250D01*
X0321510Y0063001D01*
X0321510Y0063751D01*
X0322260Y0064502D01*
X0323762Y0064502D02*
X0324512Y0065253D01*
X0324512Y0066003D01*
X0323762Y0066754D01*
X0322260Y0066754D01*
X0321510Y0066003D01*
X0326114Y0066754D02*
X0326114Y0062250D01*
X0329116Y0062250D02*
X0329116Y0066754D01*
X0327615Y0065253D01*
X0326114Y0066754D01*
X0330718Y0066754D02*
X0330718Y0062250D01*
X0330718Y0064502D02*
X0333720Y0064502D01*
X0335322Y0065253D02*
X0338324Y0065253D01*
X0335322Y0062250D01*
X0338324Y0062250D01*
X0333720Y0062250D02*
X0333720Y0066754D01*
X0324800Y0082200D02*
X0320296Y0082200D01*
X0320296Y0084452D01*
X0321047Y0085203D01*
X0324049Y0085203D01*
X0324800Y0084452D01*
X0324800Y0082200D01*
X0324049Y0086804D02*
X0321047Y0089806D01*
X0324049Y0089806D01*
X0324800Y0089056D01*
X0324800Y0087555D01*
X0324049Y0086804D01*
X0321047Y0086804D01*
X0320296Y0087555D01*
X0320296Y0089056D01*
X0321047Y0089806D01*
X0322548Y0091408D02*
X0322548Y0094410D01*
X0320296Y0096012D02*
X0320296Y0098264D01*
X0321047Y0099014D01*
X0324049Y0099014D01*
X0324800Y0098264D01*
X0324800Y0096012D01*
X0320296Y0096012D01*
X0321047Y0100616D02*
X0320296Y0101366D01*
X0320296Y0102868D01*
X0321047Y0103618D01*
X0321797Y0103618D01*
X0322548Y0102868D01*
X0323299Y0103618D01*
X0324049Y0103618D01*
X0324800Y0102868D01*
X0324800Y0101366D01*
X0324049Y0100616D01*
X0322548Y0102117D02*
X0322548Y0102868D01*
X0323254Y0108724D02*
X0322503Y0110225D01*
X0321002Y0111726D01*
X0321002Y0109475D01*
X0320251Y0108724D01*
X0319501Y0108724D01*
X0318750Y0109475D01*
X0318750Y0110976D01*
X0319501Y0111726D01*
X0321002Y0111726D01*
X0321002Y0113328D02*
X0319501Y0113328D01*
X0318750Y0114078D01*
X0318750Y0115580D01*
X0319501Y0116330D01*
X0321002Y0116330D02*
X0321753Y0114829D01*
X0321753Y0114078D01*
X0321002Y0113328D01*
X0323254Y0113328D02*
X0323254Y0116330D01*
X0321002Y0116330D01*
X0321753Y0117932D02*
X0322503Y0117932D01*
X0323254Y0118682D01*
X0323254Y0120184D01*
X0322503Y0120934D01*
X0321753Y0117932D02*
X0318750Y0120934D01*
X0318750Y0117932D01*
X0318750Y0122536D02*
X0318750Y0125538D01*
X0318750Y0124037D02*
X0323254Y0124037D01*
X0321753Y0125538D01*
X0322503Y0127140D02*
X0323254Y0127890D01*
X0323254Y0129392D01*
X0322503Y0130142D01*
X0321753Y0130142D01*
X0321002Y0129392D01*
X0321002Y0127890D01*
X0320251Y0127140D01*
X0319501Y0127140D01*
X0318750Y0127890D01*
X0318750Y0129392D01*
X0319501Y0130142D01*
X0319501Y0131744D02*
X0322503Y0131744D01*
X0323254Y0132494D01*
X0323254Y0134746D01*
X0318750Y0134746D01*
X0318750Y0132494D01*
X0319501Y0131744D01*
X0318750Y0136347D02*
X0321753Y0136347D01*
X0323254Y0137849D01*
X0321753Y0139350D01*
X0318750Y0139350D01*
X0321002Y0139350D02*
X0321002Y0136347D01*
X0382496Y0156651D02*
X0383997Y0158153D01*
X0387000Y0158153D01*
X0387000Y0159754D02*
X0382496Y0159754D01*
X0382496Y0162006D01*
X0383247Y0162756D01*
X0386249Y0162756D01*
X0387000Y0162006D01*
X0387000Y0159754D01*
X0384748Y0158153D02*
X0384748Y0155150D01*
X0383997Y0155150D02*
X0382496Y0156651D01*
X0383997Y0155150D02*
X0387000Y0155150D01*
X0387000Y0164358D02*
X0382496Y0164358D01*
X0382496Y0166610D01*
X0383247Y0167360D01*
X0384748Y0167360D01*
X0385499Y0166610D01*
X0385499Y0164358D01*
X0385499Y0165859D02*
X0387000Y0167360D01*
X0386249Y0168962D02*
X0387000Y0169712D01*
X0387000Y0171214D01*
X0386249Y0171964D01*
X0385499Y0171964D01*
X0384748Y0171214D01*
X0384748Y0170463D01*
X0384748Y0171214D02*
X0383997Y0171964D01*
X0383247Y0171964D01*
X0382496Y0171214D01*
X0382496Y0169712D01*
X0383247Y0168962D01*
X0384748Y0173566D02*
X0384748Y0176568D01*
X0383247Y0178170D02*
X0382496Y0178920D01*
X0382496Y0180422D01*
X0383247Y0181172D01*
X0383997Y0181172D01*
X0387000Y0178170D01*
X0387000Y0181172D01*
X0386249Y0182774D02*
X0387000Y0183524D01*
X0387000Y0185025D01*
X0386249Y0185776D01*
X0384748Y0185776D01*
X0383997Y0185025D01*
X0383997Y0184275D01*
X0384748Y0182774D01*
X0382496Y0182774D01*
X0382496Y0185776D01*
X0382496Y0175818D02*
X0384748Y0173566D01*
X0387000Y0175818D02*
X0382496Y0175818D01*
X0347834Y0221250D02*
X0347834Y0224253D01*
X0346333Y0225754D01*
X0344832Y0224253D01*
X0344832Y0221250D01*
X0343230Y0222001D02*
X0342480Y0221250D01*
X0340979Y0221250D01*
X0340228Y0222001D01*
X0340228Y0223502D02*
X0341729Y0224253D01*
X0342480Y0224253D01*
X0343230Y0223502D01*
X0343230Y0222001D01*
X0344832Y0223502D02*
X0347834Y0223502D01*
X0343230Y0225754D02*
X0340228Y0225754D01*
X0340228Y0223502D01*
X0338627Y0221250D02*
X0335624Y0221250D01*
X0337125Y0221250D02*
X0337125Y0225754D01*
X0335624Y0224253D01*
X0329023Y0221250D02*
X0326020Y0221250D01*
X0327521Y0221250D02*
X0327521Y0225754D01*
X0326020Y0224253D01*
X0324419Y0225754D02*
X0321416Y0225754D01*
X0321416Y0221250D01*
X0321416Y0223502D02*
X0322917Y0223502D01*
X0326472Y0265065D02*
X0385528Y0265065D01*
X0385528Y0304435D01*
X0326472Y0304435D01*
X0326472Y0265065D01*
X0377500Y0084350D02*
X0377500Y0081347D01*
X0377500Y0079746D02*
X0382004Y0079746D01*
X0382004Y0077494D01*
X0381253Y0076744D01*
X0379752Y0076744D01*
X0379001Y0077494D01*
X0379001Y0079746D01*
X0377500Y0084350D02*
X0382004Y0084350D01*
X0381253Y0075142D02*
X0382004Y0074392D01*
X0382004Y0072890D01*
X0381253Y0072140D01*
X0380503Y0072140D01*
X0377500Y0075142D01*
X0377500Y0072140D01*
X0378251Y0070538D02*
X0377500Y0069788D01*
X0377500Y0068286D01*
X0378251Y0067536D01*
X0381253Y0067536D01*
X0382004Y0068286D01*
X0382004Y0069788D01*
X0381253Y0070538D01*
X0380503Y0070538D01*
X0379752Y0069788D01*
X0379752Y0067536D01*
X0380503Y0065934D02*
X0379752Y0065184D01*
X0379752Y0063682D01*
X0379001Y0062932D01*
X0378251Y0062932D01*
X0377500Y0063682D01*
X0377500Y0065184D01*
X0378251Y0065934D01*
X0379001Y0065934D01*
X0379752Y0065184D01*
X0380503Y0065934D02*
X0381253Y0065934D01*
X0382004Y0065184D01*
X0382004Y0063682D01*
X0381253Y0062932D01*
X0380503Y0062932D01*
X0379752Y0063682D01*
X0379752Y0061330D02*
X0380503Y0059829D01*
X0380503Y0059078D01*
X0379752Y0058328D01*
X0378251Y0058328D01*
X0377500Y0059078D01*
X0377500Y0060580D01*
X0378251Y0061330D01*
X0379752Y0061330D02*
X0382004Y0061330D01*
X0382004Y0058328D01*
X0005998Y0132797D02*
X0005998Y0135799D01*
D15*
X0016000Y0096000D02*
X0031000Y0096000D01*
X0033500Y0093500D01*
X0033500Y0088500D01*
X0031000Y0086000D01*
X0016000Y0086000D01*
X0013500Y0088500D01*
X0013500Y0093500D01*
X0016000Y0096000D01*
X0016000Y0086000D02*
X0013500Y0083500D01*
X0013500Y0078500D01*
X0016000Y0076000D01*
X0031000Y0076000D01*
X0033500Y0078500D01*
X0033500Y0083500D01*
X0031000Y0086000D01*
X0031000Y0076000D02*
X0033500Y0073500D01*
X0033500Y0068500D01*
X0031000Y0066000D01*
X0016000Y0066000D01*
X0013500Y0068500D01*
X0013500Y0073500D01*
X0016000Y0076000D01*
X0017437Y0061000D02*
X0029563Y0061000D01*
X0033500Y0055882D02*
X0033500Y0046000D01*
X0029563Y0041000D02*
X0017437Y0041000D01*
X0013500Y0046118D02*
X0013500Y0055882D01*
X0018500Y0051000D02*
X0018502Y0051141D01*
X0018508Y0051282D01*
X0018518Y0051422D01*
X0018532Y0051562D01*
X0018550Y0051702D01*
X0018571Y0051841D01*
X0018597Y0051980D01*
X0018626Y0052118D01*
X0018660Y0052254D01*
X0018697Y0052390D01*
X0018738Y0052525D01*
X0018783Y0052659D01*
X0018832Y0052791D01*
X0018884Y0052922D01*
X0018940Y0053051D01*
X0019000Y0053178D01*
X0019063Y0053304D01*
X0019129Y0053428D01*
X0019200Y0053551D01*
X0019273Y0053671D01*
X0019350Y0053789D01*
X0019430Y0053905D01*
X0019514Y0054018D01*
X0019600Y0054129D01*
X0019690Y0054238D01*
X0019783Y0054344D01*
X0019878Y0054447D01*
X0019977Y0054548D01*
X0020078Y0054646D01*
X0020182Y0054741D01*
X0020289Y0054833D01*
X0020398Y0054922D01*
X0020510Y0055007D01*
X0020624Y0055090D01*
X0020740Y0055170D01*
X0020859Y0055246D01*
X0020980Y0055318D01*
X0021102Y0055388D01*
X0021227Y0055453D01*
X0021353Y0055516D01*
X0021481Y0055574D01*
X0021611Y0055629D01*
X0021742Y0055681D01*
X0021875Y0055728D01*
X0022009Y0055772D01*
X0022144Y0055813D01*
X0022280Y0055849D01*
X0022417Y0055881D01*
X0022555Y0055910D01*
X0022693Y0055935D01*
X0022833Y0055955D01*
X0022973Y0055972D01*
X0023113Y0055985D01*
X0023254Y0055994D01*
X0023394Y0055999D01*
X0023535Y0056000D01*
X0023676Y0055997D01*
X0023817Y0055990D01*
X0023957Y0055979D01*
X0024097Y0055964D01*
X0024237Y0055945D01*
X0024376Y0055923D01*
X0024514Y0055896D01*
X0024652Y0055866D01*
X0024788Y0055831D01*
X0024924Y0055793D01*
X0025058Y0055751D01*
X0025192Y0055705D01*
X0025324Y0055656D01*
X0025454Y0055602D01*
X0025583Y0055545D01*
X0025710Y0055485D01*
X0025836Y0055421D01*
X0025959Y0055353D01*
X0026081Y0055282D01*
X0026201Y0055208D01*
X0026318Y0055130D01*
X0026433Y0055049D01*
X0026546Y0054965D01*
X0026657Y0054878D01*
X0026765Y0054787D01*
X0026870Y0054694D01*
X0026973Y0054597D01*
X0027073Y0054498D01*
X0027170Y0054396D01*
X0027264Y0054291D01*
X0027355Y0054184D01*
X0027443Y0054074D01*
X0027528Y0053962D01*
X0027610Y0053847D01*
X0027689Y0053730D01*
X0027764Y0053611D01*
X0027836Y0053490D01*
X0027904Y0053367D01*
X0027969Y0053242D01*
X0028031Y0053115D01*
X0028088Y0052986D01*
X0028143Y0052856D01*
X0028193Y0052725D01*
X0028240Y0052592D01*
X0028283Y0052458D01*
X0028322Y0052322D01*
X0028357Y0052186D01*
X0028389Y0052049D01*
X0028416Y0051911D01*
X0028440Y0051772D01*
X0028460Y0051632D01*
X0028476Y0051492D01*
X0028488Y0051352D01*
X0028496Y0051211D01*
X0028500Y0051070D01*
X0028500Y0050930D01*
X0028496Y0050789D01*
X0028488Y0050648D01*
X0028476Y0050508D01*
X0028460Y0050368D01*
X0028440Y0050228D01*
X0028416Y0050089D01*
X0028389Y0049951D01*
X0028357Y0049814D01*
X0028322Y0049678D01*
X0028283Y0049542D01*
X0028240Y0049408D01*
X0028193Y0049275D01*
X0028143Y0049144D01*
X0028088Y0049014D01*
X0028031Y0048885D01*
X0027969Y0048758D01*
X0027904Y0048633D01*
X0027836Y0048510D01*
X0027764Y0048389D01*
X0027689Y0048270D01*
X0027610Y0048153D01*
X0027528Y0048038D01*
X0027443Y0047926D01*
X0027355Y0047816D01*
X0027264Y0047709D01*
X0027170Y0047604D01*
X0027073Y0047502D01*
X0026973Y0047403D01*
X0026870Y0047306D01*
X0026765Y0047213D01*
X0026657Y0047122D01*
X0026546Y0047035D01*
X0026433Y0046951D01*
X0026318Y0046870D01*
X0026201Y0046792D01*
X0026081Y0046718D01*
X0025959Y0046647D01*
X0025836Y0046579D01*
X0025710Y0046515D01*
X0025583Y0046455D01*
X0025454Y0046398D01*
X0025324Y0046344D01*
X0025192Y0046295D01*
X0025058Y0046249D01*
X0024924Y0046207D01*
X0024788Y0046169D01*
X0024652Y0046134D01*
X0024514Y0046104D01*
X0024376Y0046077D01*
X0024237Y0046055D01*
X0024097Y0046036D01*
X0023957Y0046021D01*
X0023817Y0046010D01*
X0023676Y0046003D01*
X0023535Y0046000D01*
X0023394Y0046001D01*
X0023254Y0046006D01*
X0023113Y0046015D01*
X0022973Y0046028D01*
X0022833Y0046045D01*
X0022693Y0046065D01*
X0022555Y0046090D01*
X0022417Y0046119D01*
X0022280Y0046151D01*
X0022144Y0046187D01*
X0022009Y0046228D01*
X0021875Y0046272D01*
X0021742Y0046319D01*
X0021611Y0046371D01*
X0021481Y0046426D01*
X0021353Y0046484D01*
X0021227Y0046547D01*
X0021102Y0046612D01*
X0020980Y0046682D01*
X0020859Y0046754D01*
X0020740Y0046830D01*
X0020624Y0046910D01*
X0020510Y0046993D01*
X0020398Y0047078D01*
X0020289Y0047167D01*
X0020182Y0047259D01*
X0020078Y0047354D01*
X0019977Y0047452D01*
X0019878Y0047553D01*
X0019783Y0047656D01*
X0019690Y0047762D01*
X0019600Y0047871D01*
X0019514Y0047982D01*
X0019430Y0048095D01*
X0019350Y0048211D01*
X0019273Y0048329D01*
X0019200Y0048449D01*
X0019129Y0048572D01*
X0019063Y0048696D01*
X0019000Y0048822D01*
X0018940Y0048949D01*
X0018884Y0049078D01*
X0018832Y0049209D01*
X0018783Y0049341D01*
X0018738Y0049475D01*
X0018697Y0049610D01*
X0018660Y0049746D01*
X0018626Y0049882D01*
X0018597Y0050020D01*
X0018571Y0050159D01*
X0018550Y0050298D01*
X0018532Y0050438D01*
X0018518Y0050578D01*
X0018508Y0050718D01*
X0018502Y0050859D01*
X0018500Y0051000D01*
X0034819Y0068500D02*
X0034819Y0073500D01*
X0109701Y0067201D02*
X0109701Y0093402D01*
X0111098Y0094799D01*
X0137299Y0094799D01*
X0137299Y0067201D01*
X0109701Y0067201D01*
X0108500Y0095500D02*
X0108502Y0095549D01*
X0108508Y0095597D01*
X0108518Y0095645D01*
X0108532Y0095692D01*
X0108549Y0095738D01*
X0108570Y0095782D01*
X0108595Y0095824D01*
X0108623Y0095864D01*
X0108655Y0095902D01*
X0108689Y0095937D01*
X0108726Y0095969D01*
X0108765Y0095998D01*
X0108807Y0096024D01*
X0108851Y0096046D01*
X0108896Y0096064D01*
X0108943Y0096079D01*
X0108990Y0096090D01*
X0109039Y0096097D01*
X0109088Y0096100D01*
X0109137Y0096099D01*
X0109185Y0096094D01*
X0109234Y0096085D01*
X0109281Y0096072D01*
X0109327Y0096055D01*
X0109371Y0096035D01*
X0109414Y0096011D01*
X0109455Y0095984D01*
X0109493Y0095953D01*
X0109529Y0095920D01*
X0109561Y0095884D01*
X0109591Y0095845D01*
X0109618Y0095804D01*
X0109641Y0095760D01*
X0109660Y0095715D01*
X0109676Y0095669D01*
X0109688Y0095622D01*
X0109696Y0095573D01*
X0109700Y0095524D01*
X0109700Y0095476D01*
X0109696Y0095427D01*
X0109688Y0095378D01*
X0109676Y0095331D01*
X0109660Y0095285D01*
X0109641Y0095240D01*
X0109618Y0095196D01*
X0109591Y0095155D01*
X0109561Y0095116D01*
X0109529Y0095080D01*
X0109493Y0095047D01*
X0109455Y0095016D01*
X0109414Y0094989D01*
X0109371Y0094965D01*
X0109327Y0094945D01*
X0109281Y0094928D01*
X0109234Y0094915D01*
X0109185Y0094906D01*
X0109137Y0094901D01*
X0109088Y0094900D01*
X0109039Y0094903D01*
X0108990Y0094910D01*
X0108943Y0094921D01*
X0108896Y0094936D01*
X0108851Y0094954D01*
X0108807Y0094976D01*
X0108765Y0095002D01*
X0108726Y0095031D01*
X0108689Y0095063D01*
X0108655Y0095098D01*
X0108623Y0095136D01*
X0108595Y0095176D01*
X0108570Y0095218D01*
X0108549Y0095262D01*
X0108532Y0095308D01*
X0108518Y0095355D01*
X0108508Y0095403D01*
X0108502Y0095451D01*
X0108500Y0095500D01*
X0143185Y0111315D02*
X0145685Y0108815D01*
X0150685Y0108815D01*
X0153185Y0111315D01*
X0155685Y0108815D01*
X0160685Y0108815D01*
X0163185Y0111315D01*
X0163185Y0116315D01*
X0160685Y0118815D01*
X0155685Y0118815D01*
X0153185Y0116315D01*
X0150685Y0118815D01*
X0145685Y0118815D01*
X0143185Y0116315D01*
X0143185Y0111315D01*
X0199000Y0051000D02*
X0223000Y0051000D01*
X0235000Y0039000D01*
X0235000Y0009000D01*
X0234938Y0008844D01*
X0234871Y0008689D01*
X0234802Y0008536D01*
X0234728Y0008384D01*
X0234651Y0008235D01*
X0234570Y0008087D01*
X0234486Y0007941D01*
X0234398Y0007798D01*
X0234307Y0007656D01*
X0234213Y0007517D01*
X0234115Y0007380D01*
X0234014Y0007246D01*
X0233909Y0007114D01*
X0233802Y0006984D01*
X0233691Y0006858D01*
X0233577Y0006734D01*
X0233461Y0006612D01*
X0233341Y0006494D01*
X0233219Y0006378D01*
X0233094Y0006266D01*
X0232966Y0006156D01*
X0232835Y0006050D01*
X0232702Y0005947D01*
X0232567Y0005847D01*
X0232429Y0005750D01*
X0232289Y0005657D01*
X0232147Y0005567D01*
X0232002Y0005481D01*
X0231856Y0005398D01*
X0231707Y0005319D01*
X0231557Y0005243D01*
X0231405Y0005171D01*
X0231251Y0005103D01*
X0231096Y0005038D01*
X0230939Y0004977D01*
X0230781Y0004920D01*
X0230621Y0004867D01*
X0230460Y0004818D01*
X0230298Y0004772D01*
X0230135Y0004731D01*
X0229971Y0004693D01*
X0229806Y0004660D01*
X0229640Y0004630D01*
X0229474Y0004604D01*
X0229307Y0004583D01*
X0229140Y0004565D01*
X0228972Y0004552D01*
X0228804Y0004543D01*
X0228636Y0004537D01*
X0228467Y0004536D01*
X0228299Y0004539D01*
X0228131Y0004546D01*
X0227963Y0004557D01*
X0227795Y0004572D01*
X0227628Y0004591D01*
X0227462Y0004614D01*
X0227295Y0004641D01*
X0227130Y0004672D01*
X0226965Y0004707D01*
X0226802Y0004746D01*
X0226639Y0004789D01*
X0226477Y0004836D01*
X0226317Y0004887D01*
X0226158Y0004942D01*
X0226000Y0005000D01*
X0225633Y0005358D01*
X0225258Y0005707D01*
X0224874Y0006047D01*
X0224482Y0006378D01*
X0224082Y0006699D01*
X0223675Y0007010D01*
X0223260Y0007311D01*
X0222839Y0007602D01*
X0222410Y0007883D01*
X0221974Y0008154D01*
X0221532Y0008414D01*
X0221084Y0008663D01*
X0220631Y0008901D01*
X0220171Y0009128D01*
X0219706Y0009344D01*
X0219236Y0009549D01*
X0218761Y0009742D01*
X0218282Y0009924D01*
X0217798Y0010094D01*
X0217311Y0010252D01*
X0216820Y0010399D01*
X0216325Y0010534D01*
X0215827Y0010656D01*
X0215327Y0010767D01*
X0214824Y0010866D01*
X0214318Y0010952D01*
X0213811Y0011026D01*
X0213302Y0011088D01*
X0212792Y0011137D01*
X0212281Y0011174D01*
X0211769Y0011199D01*
X0211256Y0011211D01*
X0210744Y0011211D01*
X0210231Y0011199D01*
X0209719Y0011174D01*
X0209208Y0011137D01*
X0208698Y0011088D01*
X0208189Y0011026D01*
X0207682Y0010952D01*
X0207176Y0010866D01*
X0206673Y0010767D01*
X0206173Y0010656D01*
X0205675Y0010534D01*
X0205180Y0010399D01*
X0204689Y0010252D01*
X0204202Y0010094D01*
X0203718Y0009924D01*
X0203239Y0009742D01*
X0202764Y0009549D01*
X0202294Y0009344D01*
X0201829Y0009128D01*
X0201369Y0008901D01*
X0200916Y0008663D01*
X0200468Y0008414D01*
X0200026Y0008154D01*
X0199590Y0007883D01*
X0199161Y0007602D01*
X0198740Y0007311D01*
X0198325Y0007010D01*
X0197918Y0006699D01*
X0197518Y0006378D01*
X0197126Y0006047D01*
X0196742Y0005707D01*
X0196367Y0005358D01*
X0196000Y0005000D01*
X0195842Y0004942D01*
X0195683Y0004887D01*
X0195523Y0004836D01*
X0195361Y0004789D01*
X0195198Y0004746D01*
X0195035Y0004707D01*
X0194870Y0004672D01*
X0194705Y0004641D01*
X0194538Y0004614D01*
X0194372Y0004591D01*
X0194205Y0004572D01*
X0194037Y0004557D01*
X0193869Y0004546D01*
X0193701Y0004539D01*
X0193533Y0004536D01*
X0193364Y0004537D01*
X0193196Y0004543D01*
X0193028Y0004552D01*
X0192860Y0004565D01*
X0192693Y0004583D01*
X0192526Y0004604D01*
X0192360Y0004630D01*
X0192194Y0004660D01*
X0192029Y0004693D01*
X0191865Y0004731D01*
X0191702Y0004772D01*
X0191540Y0004818D01*
X0191379Y0004867D01*
X0191219Y0004920D01*
X0191061Y0004977D01*
X0190904Y0005038D01*
X0190749Y0005103D01*
X0190595Y0005171D01*
X0190443Y0005243D01*
X0190293Y0005319D01*
X0190144Y0005398D01*
X0189998Y0005481D01*
X0189853Y0005567D01*
X0189711Y0005657D01*
X0189571Y0005750D01*
X0189433Y0005847D01*
X0189298Y0005947D01*
X0189165Y0006050D01*
X0189034Y0006156D01*
X0188906Y0006266D01*
X0188781Y0006378D01*
X0188659Y0006494D01*
X0188539Y0006612D01*
X0188423Y0006734D01*
X0188309Y0006858D01*
X0188198Y0006984D01*
X0188091Y0007114D01*
X0187986Y0007246D01*
X0187885Y0007380D01*
X0187787Y0007517D01*
X0187693Y0007656D01*
X0187602Y0007798D01*
X0187514Y0007941D01*
X0187430Y0008087D01*
X0187349Y0008235D01*
X0187272Y0008384D01*
X0187198Y0008536D01*
X0187129Y0008689D01*
X0187062Y0008844D01*
X0187000Y0009000D01*
X0187000Y0039000D01*
X0199000Y0051000D01*
X0264957Y0213402D02*
X0272043Y0213402D01*
X0274799Y0224819D02*
X0274799Y0227181D01*
X0262201Y0227181D02*
X0262201Y0224819D01*
X0264957Y0238598D02*
X0272043Y0238598D01*
X0228500Y0248500D02*
X0226000Y0246000D01*
X0221000Y0246000D01*
X0218500Y0248500D01*
X0216000Y0246000D01*
X0211000Y0246000D01*
X0208500Y0248500D01*
X0206000Y0246000D01*
X0201000Y0246000D01*
X0198500Y0248500D01*
X0198500Y0253500D01*
X0201000Y0256000D01*
X0206000Y0256000D01*
X0208500Y0253500D01*
X0211000Y0256000D01*
X0216000Y0256000D01*
X0218500Y0253500D01*
X0221000Y0256000D01*
X0226000Y0256000D01*
X0228500Y0253500D01*
X0228500Y0248500D01*
X0226000Y0286000D02*
X0221000Y0286000D01*
X0218500Y0288500D01*
X0216000Y0286000D01*
X0211000Y0286000D01*
X0208500Y0288500D01*
X0206000Y0286000D01*
X0201000Y0286000D01*
X0198500Y0288500D01*
X0198500Y0293500D01*
X0201000Y0296000D01*
X0206000Y0296000D01*
X0208500Y0293500D01*
X0211000Y0296000D01*
X0216000Y0296000D01*
X0218500Y0293500D01*
X0221000Y0296000D01*
X0226000Y0296000D01*
X0228500Y0293500D01*
X0228500Y0288500D01*
X0226000Y0286000D01*
X0181000Y0288500D02*
X0178500Y0286000D01*
X0173500Y0286000D01*
X0171000Y0288500D01*
X0168500Y0286000D01*
X0163500Y0286000D01*
X0161000Y0288500D01*
X0158500Y0286000D01*
X0153500Y0286000D01*
X0151000Y0288500D01*
X0151000Y0293500D01*
X0153500Y0296000D01*
X0158500Y0296000D01*
X0161000Y0293500D01*
X0163500Y0296000D01*
X0168500Y0296000D01*
X0171000Y0293500D01*
X0173500Y0296000D01*
X0178500Y0296000D01*
X0181000Y0293500D01*
X0181000Y0288500D01*
X0178500Y0256000D02*
X0173500Y0256000D01*
X0171000Y0253500D01*
X0168500Y0256000D01*
X0163500Y0256000D01*
X0161000Y0253500D01*
X0158500Y0256000D01*
X0153500Y0256000D01*
X0151000Y0253500D01*
X0151000Y0248500D01*
X0153500Y0246000D01*
X0158500Y0246000D01*
X0161000Y0248500D01*
X0163500Y0246000D01*
X0168500Y0246000D01*
X0171000Y0248500D01*
X0173500Y0246000D01*
X0178500Y0246000D01*
X0181000Y0248500D01*
X0181000Y0253500D01*
X0178500Y0256000D01*
D16*
X0314374Y0252500D02*
X0356374Y0252500D01*
X0356374Y0229500D02*
X0314374Y0229500D01*
D17*
X0313124Y0230750D03*
X0313124Y0251250D03*
X0357624Y0251250D03*
X0357624Y0230750D03*
D18*
X0367624Y0250000D03*
D19*
X0335374Y0248500D03*
X0335374Y0233500D03*
D20*
X0304624Y0233250D03*
X0304624Y0248750D03*
X0366124Y0248750D03*
X0366124Y0233250D03*
D21*
X0366874Y0232000D03*
X0303874Y0232000D03*
X0303874Y0250000D03*
D22*
X0297500Y0085000D02*
X0274500Y0085000D01*
X0274281Y0084997D01*
X0274062Y0084989D01*
X0273843Y0084976D01*
X0273625Y0084957D01*
X0273407Y0084933D01*
X0273190Y0084904D01*
X0272973Y0084870D01*
X0272758Y0084830D01*
X0272543Y0084785D01*
X0272330Y0084734D01*
X0272118Y0084679D01*
X0271907Y0084618D01*
X0271698Y0084553D01*
X0271491Y0084482D01*
X0271285Y0084406D01*
X0271081Y0084325D01*
X0270879Y0084240D01*
X0270680Y0084149D01*
X0270483Y0084054D01*
X0270288Y0083953D01*
X0270095Y0083848D01*
X0269905Y0083739D01*
X0269718Y0083625D01*
X0269534Y0083506D01*
X0269353Y0083383D01*
X0269175Y0083255D01*
X0268999Y0083123D01*
X0268828Y0082987D01*
X0268659Y0082847D01*
X0268494Y0082703D01*
X0268333Y0082555D01*
X0268175Y0082403D01*
X0268021Y0082247D01*
X0267871Y0082087D01*
X0267724Y0081924D01*
X0267582Y0081757D01*
X0267444Y0081587D01*
X0267310Y0081413D01*
X0267180Y0081237D01*
X0267055Y0081057D01*
X0266934Y0080874D01*
X0266818Y0080688D01*
X0266706Y0080500D01*
X0266599Y0080309D01*
X0266496Y0080115D01*
X0266398Y0079919D01*
X0266305Y0079721D01*
X0266217Y0079520D01*
X0266134Y0079317D01*
X0266055Y0079112D01*
X0265982Y0078906D01*
X0265914Y0078698D01*
X0265851Y0078488D01*
X0265793Y0078276D01*
X0265740Y0078064D01*
X0265692Y0077850D01*
X0265650Y0077635D01*
X0265613Y0077419D01*
X0265581Y0077202D01*
X0265554Y0076984D01*
X0265533Y0076766D01*
X0265517Y0076548D01*
X0265506Y0076329D01*
X0265501Y0076110D01*
X0265501Y0075890D01*
X0265506Y0075671D01*
X0265517Y0075452D01*
X0265533Y0075234D01*
X0265554Y0075016D01*
X0265581Y0074798D01*
X0265613Y0074581D01*
X0265650Y0074365D01*
X0265692Y0074150D01*
X0265740Y0073936D01*
X0265793Y0073724D01*
X0265851Y0073512D01*
X0265914Y0073302D01*
X0265982Y0073094D01*
X0266055Y0072888D01*
X0266134Y0072683D01*
X0266217Y0072480D01*
X0266305Y0072279D01*
X0266398Y0072081D01*
X0266496Y0071885D01*
X0266599Y0071691D01*
X0266706Y0071500D01*
X0266818Y0071312D01*
X0266934Y0071126D01*
X0267055Y0070943D01*
X0267180Y0070763D01*
X0267310Y0070587D01*
X0267444Y0070413D01*
X0267582Y0070243D01*
X0267724Y0070076D01*
X0267871Y0069913D01*
X0268021Y0069753D01*
X0268175Y0069597D01*
X0268333Y0069445D01*
X0268494Y0069297D01*
X0268659Y0069153D01*
X0268828Y0069013D01*
X0268999Y0068877D01*
X0269175Y0068745D01*
X0269353Y0068617D01*
X0269534Y0068494D01*
X0269718Y0068375D01*
X0269905Y0068261D01*
X0270095Y0068152D01*
X0270288Y0068047D01*
X0270483Y0067946D01*
X0270680Y0067851D01*
X0270879Y0067760D01*
X0271081Y0067675D01*
X0271285Y0067594D01*
X0271491Y0067518D01*
X0271698Y0067447D01*
X0271907Y0067382D01*
X0272118Y0067321D01*
X0272330Y0067266D01*
X0272543Y0067215D01*
X0272758Y0067170D01*
X0272973Y0067130D01*
X0273190Y0067096D01*
X0273407Y0067067D01*
X0273625Y0067043D01*
X0273843Y0067024D01*
X0274062Y0067011D01*
X0274281Y0067003D01*
X0274500Y0067000D01*
X0297500Y0067000D01*
X0297719Y0067003D01*
X0297938Y0067011D01*
X0298157Y0067024D01*
X0298375Y0067043D01*
X0298593Y0067067D01*
X0298810Y0067096D01*
X0299027Y0067130D01*
X0299242Y0067170D01*
X0299457Y0067215D01*
X0299670Y0067266D01*
X0299882Y0067321D01*
X0300093Y0067382D01*
X0300302Y0067447D01*
X0300509Y0067518D01*
X0300715Y0067594D01*
X0300919Y0067675D01*
X0301121Y0067760D01*
X0301320Y0067851D01*
X0301517Y0067946D01*
X0301712Y0068047D01*
X0301905Y0068152D01*
X0302095Y0068261D01*
X0302282Y0068375D01*
X0302466Y0068494D01*
X0302647Y0068617D01*
X0302825Y0068745D01*
X0303001Y0068877D01*
X0303172Y0069013D01*
X0303341Y0069153D01*
X0303506Y0069297D01*
X0303667Y0069445D01*
X0303825Y0069597D01*
X0303979Y0069753D01*
X0304129Y0069913D01*
X0304276Y0070076D01*
X0304418Y0070243D01*
X0304556Y0070413D01*
X0304690Y0070587D01*
X0304820Y0070763D01*
X0304945Y0070943D01*
X0305066Y0071126D01*
X0305182Y0071312D01*
X0305294Y0071500D01*
X0305401Y0071691D01*
X0305504Y0071885D01*
X0305602Y0072081D01*
X0305695Y0072279D01*
X0305783Y0072480D01*
X0305866Y0072683D01*
X0305945Y0072888D01*
X0306018Y0073094D01*
X0306086Y0073302D01*
X0306149Y0073512D01*
X0306207Y0073724D01*
X0306260Y0073936D01*
X0306308Y0074150D01*
X0306350Y0074365D01*
X0306387Y0074581D01*
X0306419Y0074798D01*
X0306446Y0075016D01*
X0306467Y0075234D01*
X0306483Y0075452D01*
X0306494Y0075671D01*
X0306499Y0075890D01*
X0306499Y0076110D01*
X0306494Y0076329D01*
X0306483Y0076548D01*
X0306467Y0076766D01*
X0306446Y0076984D01*
X0306419Y0077202D01*
X0306387Y0077419D01*
X0306350Y0077635D01*
X0306308Y0077850D01*
X0306260Y0078064D01*
X0306207Y0078276D01*
X0306149Y0078488D01*
X0306086Y0078698D01*
X0306018Y0078906D01*
X0305945Y0079112D01*
X0305866Y0079317D01*
X0305783Y0079520D01*
X0305695Y0079721D01*
X0305602Y0079919D01*
X0305504Y0080115D01*
X0305401Y0080309D01*
X0305294Y0080500D01*
X0305182Y0080688D01*
X0305066Y0080874D01*
X0304945Y0081057D01*
X0304820Y0081237D01*
X0304690Y0081413D01*
X0304556Y0081587D01*
X0304418Y0081757D01*
X0304276Y0081924D01*
X0304129Y0082087D01*
X0303979Y0082247D01*
X0303825Y0082403D01*
X0303667Y0082555D01*
X0303506Y0082703D01*
X0303341Y0082847D01*
X0303172Y0082987D01*
X0303001Y0083123D01*
X0302825Y0083255D01*
X0302647Y0083383D01*
X0302466Y0083506D01*
X0302282Y0083625D01*
X0302095Y0083739D01*
X0301905Y0083848D01*
X0301712Y0083953D01*
X0301517Y0084054D01*
X0301320Y0084149D01*
X0301121Y0084240D01*
X0300919Y0084325D01*
X0300715Y0084406D01*
X0300509Y0084482D01*
X0300302Y0084553D01*
X0300093Y0084618D01*
X0299882Y0084679D01*
X0299670Y0084734D01*
X0299457Y0084785D01*
X0299242Y0084830D01*
X0299027Y0084870D01*
X0298810Y0084904D01*
X0298593Y0084933D01*
X0298375Y0084957D01*
X0298157Y0084976D01*
X0297938Y0084989D01*
X0297719Y0084997D01*
X0297500Y0085000D01*
X0100000Y0052500D02*
X0077000Y0052500D01*
X0076781Y0052497D01*
X0076562Y0052489D01*
X0076343Y0052476D01*
X0076125Y0052457D01*
X0075907Y0052433D01*
X0075690Y0052404D01*
X0075473Y0052370D01*
X0075258Y0052330D01*
X0075043Y0052285D01*
X0074830Y0052234D01*
X0074618Y0052179D01*
X0074407Y0052118D01*
X0074198Y0052053D01*
X0073991Y0051982D01*
X0073785Y0051906D01*
X0073581Y0051825D01*
X0073379Y0051740D01*
X0073180Y0051649D01*
X0072983Y0051554D01*
X0072788Y0051453D01*
X0072595Y0051348D01*
X0072405Y0051239D01*
X0072218Y0051125D01*
X0072034Y0051006D01*
X0071853Y0050883D01*
X0071675Y0050755D01*
X0071499Y0050623D01*
X0071328Y0050487D01*
X0071159Y0050347D01*
X0070994Y0050203D01*
X0070833Y0050055D01*
X0070675Y0049903D01*
X0070521Y0049747D01*
X0070371Y0049587D01*
X0070224Y0049424D01*
X0070082Y0049257D01*
X0069944Y0049087D01*
X0069810Y0048913D01*
X0069680Y0048737D01*
X0069555Y0048557D01*
X0069434Y0048374D01*
X0069318Y0048188D01*
X0069206Y0048000D01*
X0069099Y0047809D01*
X0068996Y0047615D01*
X0068898Y0047419D01*
X0068805Y0047221D01*
X0068717Y0047020D01*
X0068634Y0046817D01*
X0068555Y0046612D01*
X0068482Y0046406D01*
X0068414Y0046198D01*
X0068351Y0045988D01*
X0068293Y0045776D01*
X0068240Y0045564D01*
X0068192Y0045350D01*
X0068150Y0045135D01*
X0068113Y0044919D01*
X0068081Y0044702D01*
X0068054Y0044484D01*
X0068033Y0044266D01*
X0068017Y0044048D01*
X0068006Y0043829D01*
X0068001Y0043610D01*
X0068001Y0043390D01*
X0068006Y0043171D01*
X0068017Y0042952D01*
X0068033Y0042734D01*
X0068054Y0042516D01*
X0068081Y0042298D01*
X0068113Y0042081D01*
X0068150Y0041865D01*
X0068192Y0041650D01*
X0068240Y0041436D01*
X0068293Y0041224D01*
X0068351Y0041012D01*
X0068414Y0040802D01*
X0068482Y0040594D01*
X0068555Y0040388D01*
X0068634Y0040183D01*
X0068717Y0039980D01*
X0068805Y0039779D01*
X0068898Y0039581D01*
X0068996Y0039385D01*
X0069099Y0039191D01*
X0069206Y0039000D01*
X0069318Y0038812D01*
X0069434Y0038626D01*
X0069555Y0038443D01*
X0069680Y0038263D01*
X0069810Y0038087D01*
X0069944Y0037913D01*
X0070082Y0037743D01*
X0070224Y0037576D01*
X0070371Y0037413D01*
X0070521Y0037253D01*
X0070675Y0037097D01*
X0070833Y0036945D01*
X0070994Y0036797D01*
X0071159Y0036653D01*
X0071328Y0036513D01*
X0071499Y0036377D01*
X0071675Y0036245D01*
X0071853Y0036117D01*
X0072034Y0035994D01*
X0072218Y0035875D01*
X0072405Y0035761D01*
X0072595Y0035652D01*
X0072788Y0035547D01*
X0072983Y0035446D01*
X0073180Y0035351D01*
X0073379Y0035260D01*
X0073581Y0035175D01*
X0073785Y0035094D01*
X0073991Y0035018D01*
X0074198Y0034947D01*
X0074407Y0034882D01*
X0074618Y0034821D01*
X0074830Y0034766D01*
X0075043Y0034715D01*
X0075258Y0034670D01*
X0075473Y0034630D01*
X0075690Y0034596D01*
X0075907Y0034567D01*
X0076125Y0034543D01*
X0076343Y0034524D01*
X0076562Y0034511D01*
X0076781Y0034503D01*
X0077000Y0034500D01*
X0100000Y0034500D01*
X0100219Y0034503D01*
X0100438Y0034511D01*
X0100657Y0034524D01*
X0100875Y0034543D01*
X0101093Y0034567D01*
X0101310Y0034596D01*
X0101527Y0034630D01*
X0101742Y0034670D01*
X0101957Y0034715D01*
X0102170Y0034766D01*
X0102382Y0034821D01*
X0102593Y0034882D01*
X0102802Y0034947D01*
X0103009Y0035018D01*
X0103215Y0035094D01*
X0103419Y0035175D01*
X0103621Y0035260D01*
X0103820Y0035351D01*
X0104017Y0035446D01*
X0104212Y0035547D01*
X0104405Y0035652D01*
X0104595Y0035761D01*
X0104782Y0035875D01*
X0104966Y0035994D01*
X0105147Y0036117D01*
X0105325Y0036245D01*
X0105501Y0036377D01*
X0105672Y0036513D01*
X0105841Y0036653D01*
X0106006Y0036797D01*
X0106167Y0036945D01*
X0106325Y0037097D01*
X0106479Y0037253D01*
X0106629Y0037413D01*
X0106776Y0037576D01*
X0106918Y0037743D01*
X0107056Y0037913D01*
X0107190Y0038087D01*
X0107320Y0038263D01*
X0107445Y0038443D01*
X0107566Y0038626D01*
X0107682Y0038812D01*
X0107794Y0039000D01*
X0107901Y0039191D01*
X0108004Y0039385D01*
X0108102Y0039581D01*
X0108195Y0039779D01*
X0108283Y0039980D01*
X0108366Y0040183D01*
X0108445Y0040388D01*
X0108518Y0040594D01*
X0108586Y0040802D01*
X0108649Y0041012D01*
X0108707Y0041224D01*
X0108760Y0041436D01*
X0108808Y0041650D01*
X0108850Y0041865D01*
X0108887Y0042081D01*
X0108919Y0042298D01*
X0108946Y0042516D01*
X0108967Y0042734D01*
X0108983Y0042952D01*
X0108994Y0043171D01*
X0108999Y0043390D01*
X0108999Y0043610D01*
X0108994Y0043829D01*
X0108983Y0044048D01*
X0108967Y0044266D01*
X0108946Y0044484D01*
X0108919Y0044702D01*
X0108887Y0044919D01*
X0108850Y0045135D01*
X0108808Y0045350D01*
X0108760Y0045564D01*
X0108707Y0045776D01*
X0108649Y0045988D01*
X0108586Y0046198D01*
X0108518Y0046406D01*
X0108445Y0046612D01*
X0108366Y0046817D01*
X0108283Y0047020D01*
X0108195Y0047221D01*
X0108102Y0047419D01*
X0108004Y0047615D01*
X0107901Y0047809D01*
X0107794Y0048000D01*
X0107682Y0048188D01*
X0107566Y0048374D01*
X0107445Y0048557D01*
X0107320Y0048737D01*
X0107190Y0048913D01*
X0107056Y0049087D01*
X0106918Y0049257D01*
X0106776Y0049424D01*
X0106629Y0049587D01*
X0106479Y0049747D01*
X0106325Y0049903D01*
X0106167Y0050055D01*
X0106006Y0050203D01*
X0105841Y0050347D01*
X0105672Y0050487D01*
X0105501Y0050623D01*
X0105325Y0050755D01*
X0105147Y0050883D01*
X0104966Y0051006D01*
X0104782Y0051125D01*
X0104595Y0051239D01*
X0104405Y0051348D01*
X0104212Y0051453D01*
X0104017Y0051554D01*
X0103820Y0051649D01*
X0103621Y0051740D01*
X0103419Y0051825D01*
X0103215Y0051906D01*
X0103009Y0051982D01*
X0102802Y0052053D01*
X0102593Y0052118D01*
X0102382Y0052179D01*
X0102170Y0052234D01*
X0101957Y0052285D01*
X0101742Y0052330D01*
X0101527Y0052370D01*
X0101310Y0052404D01*
X0101093Y0052433D01*
X0100875Y0052457D01*
X0100657Y0052476D01*
X0100438Y0052489D01*
X0100219Y0052497D01*
X0100000Y0052500D01*
D23*
X0158736Y0142909D02*
X0188264Y0142909D01*
X0163776Y0190941D02*
X0163778Y0190997D01*
X0163784Y0191052D01*
X0163794Y0191106D01*
X0163807Y0191160D01*
X0163825Y0191213D01*
X0163846Y0191264D01*
X0163870Y0191314D01*
X0163898Y0191362D01*
X0163930Y0191408D01*
X0163964Y0191452D01*
X0164002Y0191493D01*
X0164042Y0191531D01*
X0164085Y0191566D01*
X0164130Y0191598D01*
X0164178Y0191627D01*
X0164227Y0191653D01*
X0164278Y0191675D01*
X0164330Y0191693D01*
X0164384Y0191707D01*
X0164439Y0191718D01*
X0164494Y0191725D01*
X0164549Y0191728D01*
X0164605Y0191727D01*
X0164660Y0191722D01*
X0164715Y0191713D01*
X0164769Y0191701D01*
X0164822Y0191684D01*
X0164874Y0191664D01*
X0164924Y0191640D01*
X0164972Y0191613D01*
X0165019Y0191583D01*
X0165063Y0191549D01*
X0165105Y0191512D01*
X0165143Y0191472D01*
X0165180Y0191430D01*
X0165213Y0191385D01*
X0165242Y0191339D01*
X0165269Y0191290D01*
X0165291Y0191239D01*
X0165311Y0191187D01*
X0165326Y0191133D01*
X0165338Y0191079D01*
X0165346Y0191024D01*
X0165350Y0190969D01*
X0165350Y0190913D01*
X0165346Y0190858D01*
X0165338Y0190803D01*
X0165326Y0190749D01*
X0165311Y0190695D01*
X0165291Y0190643D01*
X0165269Y0190592D01*
X0165242Y0190543D01*
X0165213Y0190497D01*
X0165180Y0190452D01*
X0165143Y0190410D01*
X0165105Y0190370D01*
X0165063Y0190333D01*
X0165019Y0190299D01*
X0164972Y0190269D01*
X0164924Y0190242D01*
X0164874Y0190218D01*
X0164822Y0190198D01*
X0164769Y0190181D01*
X0164715Y0190169D01*
X0164660Y0190160D01*
X0164605Y0190155D01*
X0164549Y0190154D01*
X0164494Y0190157D01*
X0164439Y0190164D01*
X0164384Y0190175D01*
X0164330Y0190189D01*
X0164278Y0190207D01*
X0164227Y0190229D01*
X0164178Y0190255D01*
X0164130Y0190284D01*
X0164085Y0190316D01*
X0164042Y0190351D01*
X0164002Y0190389D01*
X0163964Y0190430D01*
X0163930Y0190474D01*
X0163898Y0190520D01*
X0163870Y0190568D01*
X0163846Y0190618D01*
X0163825Y0190669D01*
X0163807Y0190722D01*
X0163794Y0190776D01*
X0163784Y0190830D01*
X0163778Y0190885D01*
X0163776Y0190941D01*
X0158736Y0194091D02*
X0188264Y0194091D01*
M02*
