%
M48
M72
T01C0.02362
T02C0.03200
T03C0.04000
T04C0.04331
T05C0.05200
T06C0.05512
T07C0.12598
%
T01
X46000Y26000
X46000Y43500
X66000Y26000
X56000Y61000
X78500Y71000
X93500Y86000
X78500Y96000
X78500Y103500
X61000Y108500
X66000Y118500
X78500Y131000
X88500Y141000
X94750Y133500
X101000Y141000
X111000Y131000
X118500Y138500
X101000Y126000
X99750Y117250
X96000Y108500
X106000Y108500
X111000Y113500
X116000Y111000
X121000Y113500
X138500Y132250
X138500Y146000
X167250Y138500
X173500Y131000
X191000Y138500
X213500Y126000
X198500Y113500
X191000Y111000
X183500Y103500
X178500Y98500
X193500Y83500
X206000Y103500
X221000Y103500
X236000Y103500
X248500Y83500
X281000Y91000
X298500Y91000
X256000Y121000
X251000Y126000
X258500Y131000
X313500Y161000
X351000Y133500
X343500Y123500
X363500Y116000
X376000Y123500
X378500Y93500
X361000Y93500
X351000Y63500
X372250Y48500
X286000Y51000
X211000Y56000
X203500Y61000
X181000Y58500
X148500Y53500
X138500Y53500
X148500Y63500
X113500Y56000
X103500Y63500
X146000Y96000
X156000Y98500
X66000Y163500
X61000Y171000
X56000Y166000
X39750Y169750
X26000Y162250
X13500Y191000
X11000Y227250
X26000Y251000
X41000Y246000
X71000Y216000
X71000Y196000
X146000Y196000
X196000Y211000
X231000Y218500
X247250Y234750
X246000Y247250
X257250Y247250
X258500Y262250
X258500Y272250
X268500Y276000
X246000Y276000
X246000Y288500
X246000Y262250
X281000Y251000
X302250Y247250
X302250Y234750
X282250Y231000
X323500Y233500
X323500Y251000
X331000Y277250
X318500Y278500
X318500Y286000
X318500Y293500
X332250Y297250
X306000Y276000
X301000Y297250
X353500Y257250
X366000Y252250
X367250Y264750
X366000Y277250
X381000Y271000
X381000Y258500
X366000Y234750
X351000Y226000
X381000Y226000
X333500Y196000
X358500Y161000
X366000Y301000
X381000Y301000
X111000Y271000
X96000Y281000
X86000Y271000
X51000Y91000
T02
X79000Y43500
X98000Y43500
X276500Y76000
X295500Y76000
T03
X331000Y88500
X331000Y98500
X331000Y108500
X331000Y118500
X238500Y151000
X238500Y161000
X158185Y113815
X148185Y113815
X48500Y113500
X48500Y123500
X38500Y123500
X28500Y123500
X28500Y113500
X38500Y113500
X18500Y113500
X18500Y123500
X18500Y91000
X18500Y81000
X18500Y71000
X28500Y71000
X28500Y81000
X28500Y91000
X156000Y251000
X166000Y251000
X176000Y251000
X203500Y251000
X213500Y251000
X223500Y251000
X223500Y291000
X213500Y291000
X203500Y291000
X176000Y291000
X166000Y291000
X156000Y291000
X83500Y288500
X83500Y298500
X73500Y298500
X63500Y298500
X63500Y288500
X73500Y288500
X53500Y288500
X53500Y298500
T04
X131000Y16000
X141000Y16000
X151000Y16000
X151000Y6000
X141000Y6000
X131000Y6000
T05
X289748Y241000
X316362Y241000
X354386Y241000
X381000Y241000
T06
X375685Y284750
X336315Y284750
X300685Y284750
X261315Y284750
T07
X20685Y20685
X20685Y296276
X375016Y20685
M30
