G75*
%MOIN*%
%OFA0B0*%
%FSLAX25Y25*%
%IPPOS*%
%LPD*%
%AMOC8*
5,1,8,0,0,1.08239X$1,22.5*
%
%ADD10C,0.00500*%
%ADD11C,0.00400*%
%ADD12C,0.07400*%
%ADD13C,0.10000*%
%ADD14OC8,0.07400*%
%ADD15C,0.05200*%
%ADD16OC8,0.06600*%
%ADD17C,0.10000*%
%ADD18C,0.07600*%
%ADD19C,0.02400*%
%ADD20C,0.03962*%
%ADD21C,0.01600*%
D10*
X0268892Y0033750D02*
X0269909Y0034768D01*
X0269909Y0038838D01*
X0268892Y0037820D02*
X0270927Y0037820D01*
X0272934Y0037820D02*
X0272934Y0033750D01*
X0275986Y0033750D01*
X0277004Y0034768D01*
X0277004Y0037820D01*
X0279011Y0036803D02*
X0279011Y0034768D01*
X0280028Y0033750D01*
X0283081Y0033750D01*
X0285088Y0033750D02*
X0285088Y0036803D01*
X0286106Y0037820D01*
X0289158Y0037820D01*
X0289158Y0033750D01*
X0291175Y0033750D02*
X0293210Y0033750D01*
X0292192Y0033750D02*
X0292192Y0039855D01*
X0291175Y0039855D02*
X0293210Y0039855D01*
X0301294Y0033750D02*
X0305364Y0033750D01*
X0305364Y0039855D01*
X0307371Y0039855D02*
X0311441Y0039855D01*
X0311441Y0033750D01*
X0307371Y0033750D01*
X0309406Y0036803D02*
X0311441Y0036803D01*
X0313448Y0039855D02*
X0313448Y0033750D01*
X0317518Y0039855D01*
X0317518Y0033750D01*
X0319525Y0033750D02*
X0319525Y0037820D01*
X0321561Y0039855D01*
X0323596Y0037820D01*
X0323596Y0033750D01*
X0323596Y0036803D02*
X0319525Y0036803D01*
X0325603Y0036803D02*
X0326620Y0035785D01*
X0329673Y0035785D01*
X0331680Y0035785D02*
X0331680Y0039855D01*
X0329673Y0039855D02*
X0326620Y0039855D01*
X0325603Y0038838D01*
X0325603Y0036803D01*
X0329673Y0033750D02*
X0329673Y0039855D01*
X0331680Y0035785D02*
X0333715Y0033750D01*
X0335750Y0035785D01*
X0335750Y0039855D01*
X0283081Y0037820D02*
X0283081Y0031715D01*
X0283081Y0037820D02*
X0280028Y0037820D01*
X0279011Y0036803D01*
D11*
X0279018Y0030804D02*
X0278251Y0030037D01*
X0278251Y0029269D01*
X0279018Y0028502D01*
X0280553Y0028502D01*
X0281320Y0029269D01*
X0281320Y0030037D01*
X0280553Y0030804D01*
X0279018Y0030804D01*
X0279018Y0028502D02*
X0278251Y0027735D01*
X0278251Y0026967D01*
X0279018Y0026200D01*
X0280553Y0026200D01*
X0281320Y0026967D01*
X0281320Y0027735D01*
X0280553Y0028502D01*
X0282855Y0028502D02*
X0282855Y0030037D01*
X0283622Y0030804D01*
X0285157Y0030804D01*
X0285924Y0030037D01*
X0285924Y0026967D01*
X0285157Y0026200D01*
X0283622Y0026200D01*
X0282855Y0026967D01*
X0283622Y0027735D02*
X0283622Y0029269D01*
X0285157Y0029269D01*
X0285157Y0027735D01*
X0283622Y0027735D01*
X0282855Y0028502D01*
X0287459Y0027735D02*
X0287459Y0030804D01*
X0290528Y0030804D02*
X0290528Y0027735D01*
X0288993Y0026200D01*
X0287459Y0027735D01*
X0292063Y0026967D02*
X0292063Y0030037D01*
X0295132Y0026967D01*
X0294365Y0026200D01*
X0292830Y0026200D01*
X0292063Y0026967D01*
X0295132Y0026967D02*
X0295132Y0030037D01*
X0294365Y0030804D01*
X0292830Y0030804D01*
X0292063Y0030037D01*
X0296667Y0028502D02*
X0299736Y0028502D01*
X0297434Y0030804D01*
X0297434Y0026200D01*
X0298969Y0023304D02*
X0298201Y0022537D01*
X0298201Y0021002D01*
X0298969Y0020235D01*
X0298969Y0021769D01*
X0300503Y0021769D01*
X0300503Y0020235D01*
X0298969Y0020235D01*
X0298201Y0019467D02*
X0298969Y0018700D01*
X0300503Y0018700D01*
X0301271Y0019467D01*
X0301271Y0022537D01*
X0300503Y0023304D01*
X0298969Y0023304D01*
X0296667Y0021769D02*
X0295132Y0023304D01*
X0295132Y0018700D01*
X0296667Y0018700D02*
X0293597Y0018700D01*
X0292063Y0019467D02*
X0291295Y0018700D01*
X0289761Y0018700D01*
X0288993Y0019467D01*
X0288993Y0021002D01*
X0289761Y0021769D01*
X0290528Y0021769D01*
X0292063Y0021002D01*
X0292063Y0023304D01*
X0288993Y0023304D01*
X0287459Y0021769D02*
X0285924Y0023304D01*
X0284390Y0021769D01*
X0284390Y0018700D01*
X0284390Y0021002D02*
X0287459Y0021002D01*
X0287459Y0021769D02*
X0287459Y0018700D01*
X0276716Y0026200D02*
X0276716Y0029269D01*
X0275182Y0030804D01*
X0273647Y0029269D01*
X0273647Y0026200D01*
X0273647Y0028502D02*
X0276716Y0028502D01*
X0302805Y0023304D02*
X0302805Y0020235D01*
X0304340Y0018700D01*
X0305874Y0020235D01*
X0305874Y0023304D01*
X0308176Y0023304D02*
X0310478Y0021002D01*
X0307409Y0021002D01*
X0308176Y0018700D02*
X0308176Y0023304D01*
X0308176Y0026200D02*
X0309711Y0026200D01*
X0308944Y0026200D02*
X0308944Y0030804D01*
X0309711Y0030804D01*
X0312013Y0029269D02*
X0311246Y0028502D01*
X0311246Y0026200D01*
X0313548Y0026200D01*
X0314315Y0026967D01*
X0313548Y0027735D01*
X0311246Y0027735D01*
X0312013Y0029269D02*
X0313548Y0029269D01*
X0315850Y0028502D02*
X0315850Y0026200D01*
X0315850Y0028502D02*
X0316617Y0029269D01*
X0318919Y0029269D01*
X0318919Y0026200D01*
X0320454Y0026200D02*
X0321988Y0026200D01*
X0321221Y0026200D02*
X0321221Y0029269D01*
X0321988Y0029269D01*
X0323523Y0028502D02*
X0324290Y0029269D01*
X0325058Y0028502D01*
X0325058Y0026200D01*
X0326592Y0026200D02*
X0326592Y0029269D01*
X0325825Y0029269D01*
X0325058Y0028502D01*
X0323523Y0028502D02*
X0323523Y0026200D01*
X0328127Y0026967D02*
X0328127Y0028502D01*
X0328894Y0029269D01*
X0330429Y0029269D01*
X0331196Y0028502D01*
X0331196Y0026967D01*
X0330429Y0026200D01*
X0328894Y0026200D01*
X0328127Y0026967D01*
X0321221Y0030804D02*
X0321221Y0031571D01*
X0312780Y0023304D02*
X0315082Y0021002D01*
X0312013Y0021002D01*
X0312780Y0018700D02*
X0312780Y0023304D01*
X0306642Y0026200D02*
X0306642Y0026967D01*
X0305875Y0026967D01*
X0305875Y0026200D01*
X0306642Y0026200D01*
X0306642Y0028502D02*
X0306642Y0029269D01*
X0305875Y0029269D01*
X0305875Y0028502D01*
X0306642Y0028502D01*
X0321221Y0021769D02*
X0321221Y0021002D01*
X0321988Y0021002D01*
X0321988Y0021769D01*
X0321221Y0021769D01*
X0321221Y0019467D02*
X0321221Y0018700D01*
X0321988Y0018700D01*
X0321988Y0019467D01*
X0321221Y0019467D01*
X0323523Y0018700D02*
X0326592Y0021769D01*
X0328127Y0021002D02*
X0328127Y0018700D01*
X0330429Y0018700D01*
X0331196Y0019467D01*
X0330429Y0020235D01*
X0328127Y0020235D01*
X0328127Y0021002D02*
X0328894Y0021769D01*
X0330429Y0021769D01*
X0332731Y0023304D02*
X0332731Y0018700D01*
X0335800Y0018700D02*
X0335800Y0023304D01*
X0334265Y0021769D01*
X0332731Y0023304D01*
X0332731Y0026200D02*
X0332731Y0030804D01*
X0335800Y0030804D02*
X0332731Y0026200D01*
X0335800Y0026200D02*
X0335800Y0030804D01*
X0326592Y0018700D02*
X0323523Y0021769D01*
X0064612Y0010804D02*
X0064612Y0006200D01*
X0062310Y0006200D01*
X0061543Y0006967D01*
X0061543Y0007735D01*
X0062310Y0008502D01*
X0064612Y0008502D01*
X0064612Y0010804D02*
X0062310Y0010804D01*
X0061543Y0010037D01*
X0061543Y0009269D01*
X0062310Y0008502D01*
X0060008Y0010037D02*
X0060008Y0006967D01*
X0059241Y0006200D01*
X0057706Y0006200D01*
X0056939Y0006967D01*
X0056939Y0010037D01*
X0057706Y0010804D01*
X0059241Y0010804D01*
X0060008Y0010037D01*
X0055404Y0010804D02*
X0052335Y0010804D01*
X0053869Y0010804D02*
X0053869Y0006200D01*
X0049265Y0006200D02*
X0049265Y0010804D01*
X0047731Y0010804D02*
X0050800Y0010804D01*
X0046196Y0010037D02*
X0046196Y0006967D01*
X0045429Y0006200D01*
X0043894Y0006200D01*
X0043127Y0006967D01*
X0043127Y0010037D01*
X0043894Y0010804D01*
X0045429Y0010804D01*
X0046196Y0010037D01*
X0041592Y0010804D02*
X0040058Y0009269D01*
X0038523Y0010804D01*
X0038523Y0006200D01*
X0041592Y0006200D02*
X0041592Y0010804D01*
D12*
X0148185Y0113815D03*
X0158185Y0113815D03*
X0238500Y0151000D03*
X0238500Y0161000D03*
X0331000Y0118500D03*
X0331000Y0108500D03*
X0331000Y0098500D03*
X0331000Y0088500D03*
X0223500Y0251000D03*
X0213500Y0251000D03*
X0203500Y0251000D03*
X0176000Y0251000D03*
X0166000Y0251000D03*
X0156000Y0251000D03*
X0156000Y0291000D03*
X0166000Y0291000D03*
X0176000Y0291000D03*
X0203500Y0291000D03*
X0213500Y0291000D03*
X0223500Y0291000D03*
D13*
X0289748Y0246000D02*
X0289748Y0236000D01*
X0316362Y0236000D02*
X0316362Y0246000D01*
X0354386Y0246000D02*
X0354386Y0236000D01*
X0381000Y0236000D02*
X0381000Y0246000D01*
D14*
X0028500Y0091000D03*
X0028500Y0081000D03*
X0028500Y0071000D03*
X0018500Y0071000D03*
X0018500Y0081000D03*
X0018500Y0091000D03*
D15*
X0079000Y0043500D03*
X0098000Y0043500D03*
X0276500Y0076000D03*
X0295500Y0076000D03*
D16*
X0048500Y0113500D03*
X0048500Y0123500D03*
X0038500Y0123500D03*
X0028500Y0123500D03*
X0028500Y0113500D03*
X0038500Y0113500D03*
X0018500Y0113500D03*
X0018500Y0123500D03*
X0053500Y0288500D03*
X0053500Y0298500D03*
X0063500Y0298500D03*
X0073500Y0298500D03*
X0073500Y0288500D03*
X0063500Y0288500D03*
X0083500Y0288500D03*
X0083500Y0298500D03*
D17*
X0261315Y0284750D03*
X0300685Y0284750D03*
X0336315Y0284750D03*
X0375685Y0284750D03*
D18*
X0151000Y0016000D03*
X0141000Y0016000D03*
X0131000Y0016000D03*
D19*
X0010521Y0008812D02*
X0009397Y0009654D01*
X0008404Y0010647D01*
X0007562Y0011771D01*
X0006889Y0013004D01*
X0006399Y0014320D01*
X0006200Y0015233D01*
X0006200Y0058209D01*
X0006461Y0057948D01*
X0030448Y0033961D01*
X0031461Y0032948D01*
X0032784Y0032400D01*
X0159216Y0032400D01*
X0160539Y0032948D01*
X0181310Y0053719D01*
X0181951Y0053719D01*
X0183708Y0054447D01*
X0184500Y0055239D01*
X0184500Y0050157D01*
X0164343Y0030000D01*
X0135204Y0030000D01*
X0133734Y0029391D01*
X0132609Y0028266D01*
X0127609Y0023266D01*
X0127000Y0021796D01*
X0127000Y0021334D01*
X0125405Y0019739D01*
X0124400Y0017313D01*
X0124400Y0014687D01*
X0125405Y0012261D01*
X0126125Y0011541D01*
X0124756Y0010172D01*
X0123635Y0007465D01*
X0123635Y0007250D01*
X0067612Y0007250D01*
X0067612Y0011401D01*
X0067155Y0012503D01*
X0066311Y0013347D01*
X0065209Y0013804D01*
X0061713Y0013804D01*
X0060775Y0013415D01*
X0060492Y0013533D01*
X0059837Y0013804D01*
X0057109Y0013804D01*
X0056555Y0013574D01*
X0056001Y0013804D01*
X0051738Y0013804D01*
X0051567Y0013733D01*
X0051397Y0013804D01*
X0047134Y0013804D01*
X0046580Y0013574D01*
X0046026Y0013804D01*
X0043297Y0013804D01*
X0042743Y0013574D01*
X0042189Y0013804D01*
X0040995Y0013804D01*
X0040526Y0013609D01*
X0040058Y0013415D01*
X0039120Y0013804D01*
X0037926Y0013804D01*
X0036824Y0013347D01*
X0035980Y0012503D01*
X0035523Y0011401D01*
X0035523Y0007250D01*
X0015843Y0007250D01*
X0014442Y0007350D01*
X0013070Y0007649D01*
X0011754Y0008139D01*
X0010521Y0008812D01*
X0011651Y0008196D02*
X0035523Y0008196D01*
X0035523Y0010594D02*
X0026205Y0010594D01*
X0025124Y0009969D02*
X0027746Y0011483D01*
X0029887Y0013624D01*
X0031401Y0016247D01*
X0032184Y0019171D01*
X0032184Y0022199D01*
X0031401Y0025124D01*
X0029887Y0027746D01*
X0027746Y0029887D01*
X0025124Y0031401D01*
X0022199Y0032184D01*
X0019171Y0032184D01*
X0016247Y0031401D01*
X0013624Y0029887D01*
X0011483Y0027746D01*
X0009969Y0025124D01*
X0009186Y0022199D01*
X0009186Y0019171D01*
X0009969Y0016247D01*
X0011483Y0013624D01*
X0013624Y0011483D01*
X0016247Y0009969D01*
X0019171Y0009186D01*
X0022199Y0009186D01*
X0025124Y0009969D01*
X0029255Y0012993D02*
X0036469Y0012993D01*
X0031814Y0017790D02*
X0124597Y0017790D01*
X0124400Y0015391D02*
X0030907Y0015391D01*
X0032184Y0020188D02*
X0125854Y0020188D01*
X0127328Y0022587D02*
X0032080Y0022587D01*
X0031438Y0024985D02*
X0129328Y0024985D01*
X0131727Y0027384D02*
X0030096Y0027384D01*
X0027850Y0029782D02*
X0134678Y0029782D01*
X0136000Y0026000D02*
X0166000Y0026000D01*
X0188500Y0048500D01*
X0188500Y0088500D01*
X0191000Y0091000D01*
X0191000Y0111000D01*
X0195319Y0108933D02*
X0324500Y0108933D01*
X0324500Y0109793D02*
X0324500Y0107207D01*
X0325490Y0104818D01*
X0326808Y0103500D01*
X0325490Y0102182D01*
X0324500Y0099793D01*
X0324500Y0097207D01*
X0325490Y0094818D01*
X0326808Y0093500D01*
X0325490Y0092182D01*
X0324500Y0089793D01*
X0324500Y0087207D01*
X0325490Y0084818D01*
X0327318Y0082990D01*
X0329707Y0082000D01*
X0332293Y0082000D01*
X0334682Y0082990D01*
X0336510Y0084818D01*
X0337500Y0087207D01*
X0337500Y0089793D01*
X0336510Y0092182D01*
X0335192Y0093500D01*
X0336510Y0094818D01*
X0337500Y0097207D01*
X0337500Y0099793D01*
X0336510Y0102182D01*
X0335192Y0103500D01*
X0336510Y0104818D01*
X0337500Y0107207D01*
X0337500Y0109793D01*
X0336510Y0112182D01*
X0335192Y0113500D01*
X0336510Y0114818D01*
X0337500Y0117207D01*
X0337500Y0119793D01*
X0336510Y0122182D01*
X0334682Y0124010D01*
X0332293Y0125000D01*
X0329707Y0125000D01*
X0327318Y0124010D01*
X0325490Y0122182D01*
X0324500Y0119793D01*
X0324500Y0117207D01*
X0325490Y0114818D01*
X0326808Y0113500D01*
X0325490Y0112182D01*
X0324500Y0109793D01*
X0325137Y0111332D02*
X0195781Y0111332D01*
X0195781Y0111951D02*
X0195053Y0113708D01*
X0193708Y0115053D01*
X0191951Y0115781D01*
X0190049Y0115781D01*
X0188292Y0115053D01*
X0186947Y0113708D01*
X0186219Y0111951D01*
X0186219Y0110049D01*
X0186947Y0108292D01*
X0187000Y0108238D01*
X0187000Y0106761D01*
X0186208Y0107553D01*
X0184451Y0108281D01*
X0182549Y0108281D01*
X0180792Y0107553D01*
X0180338Y0107100D01*
X0156561Y0107100D01*
X0156810Y0107349D01*
X0156892Y0107315D01*
X0159478Y0107315D01*
X0161867Y0108305D01*
X0163695Y0110133D01*
X0164685Y0112522D01*
X0164685Y0115108D01*
X0163736Y0117400D01*
X0252838Y0117400D01*
X0253292Y0116947D01*
X0255049Y0116219D01*
X0256951Y0116219D01*
X0258708Y0116947D01*
X0260053Y0118292D01*
X0260781Y0120049D01*
X0260781Y0121951D01*
X0260053Y0123708D01*
X0258708Y0125053D01*
X0256951Y0125781D01*
X0255781Y0125781D01*
X0255781Y0126951D01*
X0255777Y0126962D01*
X0255792Y0126947D01*
X0257549Y0126219D01*
X0259451Y0126219D01*
X0261208Y0126947D01*
X0262553Y0128292D01*
X0263281Y0130049D01*
X0263281Y0131951D01*
X0262553Y0133708D01*
X0261761Y0134500D01*
X0326843Y0134500D01*
X0338719Y0122624D01*
X0338719Y0122549D01*
X0339447Y0120792D01*
X0340792Y0119447D01*
X0342549Y0118719D01*
X0344451Y0118719D01*
X0346208Y0119447D01*
X0346261Y0119500D01*
X0373238Y0119500D01*
X0373292Y0119447D01*
X0375049Y0118719D01*
X0376951Y0118719D01*
X0378708Y0119447D01*
X0380053Y0120792D01*
X0380781Y0122549D01*
X0380781Y0124451D01*
X0380053Y0126208D01*
X0378708Y0127553D01*
X0376951Y0128281D01*
X0375049Y0128281D01*
X0373292Y0127553D01*
X0373238Y0127500D01*
X0346261Y0127500D01*
X0346208Y0127553D01*
X0344451Y0128281D01*
X0344376Y0128281D01*
X0331891Y0140766D01*
X0330766Y0141891D01*
X0329296Y0142500D01*
X0193761Y0142500D01*
X0193708Y0142553D01*
X0191951Y0143281D01*
X0190049Y0143281D01*
X0188292Y0142553D01*
X0188238Y0142500D01*
X0170011Y0142500D01*
X0169958Y0142553D01*
X0168201Y0143281D01*
X0166299Y0143281D01*
X0164542Y0142553D01*
X0164488Y0142500D01*
X0121261Y0142500D01*
X0121208Y0142553D01*
X0119451Y0143281D01*
X0117549Y0143281D01*
X0115792Y0142553D01*
X0115739Y0142500D01*
X0110204Y0142500D01*
X0108734Y0141891D01*
X0107609Y0140766D01*
X0107609Y0140766D01*
X0104343Y0137500D01*
X0097511Y0137500D01*
X0097458Y0137553D01*
X0095701Y0138281D01*
X0093799Y0138281D01*
X0092042Y0137553D01*
X0091988Y0137500D01*
X0087657Y0137500D01*
X0080000Y0145157D01*
X0080000Y0191796D01*
X0079391Y0193266D01*
X0075781Y0196876D01*
X0075781Y0196951D01*
X0075053Y0198708D01*
X0073708Y0200053D01*
X0071951Y0200781D01*
X0070049Y0200781D01*
X0068292Y0200053D01*
X0066947Y0198708D01*
X0066219Y0196951D01*
X0066219Y0195049D01*
X0066947Y0193292D01*
X0068292Y0191947D01*
X0070049Y0191219D01*
X0070124Y0191219D01*
X0072000Y0189343D01*
X0072000Y0187500D01*
X0040204Y0187500D01*
X0038734Y0186891D01*
X0037609Y0185766D01*
X0031234Y0179391D01*
X0030109Y0178266D01*
X0022609Y0170766D01*
X0022000Y0169296D01*
X0022000Y0165011D01*
X0021947Y0164958D01*
X0021219Y0163201D01*
X0021219Y0161299D01*
X0021947Y0159542D01*
X0023292Y0158197D01*
X0025049Y0157469D01*
X0026951Y0157469D01*
X0028708Y0158197D01*
X0030053Y0159542D01*
X0030781Y0161299D01*
X0030781Y0163201D01*
X0030053Y0164958D01*
X0030000Y0165011D01*
X0030000Y0166843D01*
X0033500Y0170343D01*
X0034969Y0168874D01*
X0034969Y0168799D01*
X0035697Y0167042D01*
X0037042Y0165697D01*
X0038799Y0164969D01*
X0040701Y0164969D01*
X0042458Y0165697D01*
X0043803Y0167042D01*
X0044531Y0168799D01*
X0044531Y0170701D01*
X0043803Y0172458D01*
X0042458Y0173803D01*
X0040701Y0174531D01*
X0040626Y0174531D01*
X0039157Y0176000D01*
X0042657Y0179500D01*
X0072000Y0179500D01*
X0072000Y0142704D01*
X0072609Y0141234D01*
X0078062Y0135781D01*
X0077549Y0135781D01*
X0075792Y0135053D01*
X0074447Y0133708D01*
X0073719Y0131951D01*
X0073719Y0130049D01*
X0074447Y0128292D01*
X0075792Y0126947D01*
X0077549Y0126219D01*
X0078190Y0126219D01*
X0092400Y0112009D01*
X0092400Y0111661D01*
X0091947Y0111208D01*
X0091219Y0109451D01*
X0091219Y0107549D01*
X0091405Y0107100D01*
X0081661Y0107100D01*
X0081208Y0107553D01*
X0079451Y0108281D01*
X0077549Y0108281D01*
X0075792Y0107553D01*
X0074447Y0106208D01*
X0073719Y0104451D01*
X0073719Y0102549D01*
X0074447Y0100792D01*
X0075489Y0099750D01*
X0074447Y0098708D01*
X0073719Y0096951D01*
X0073719Y0095049D01*
X0074447Y0093292D01*
X0075792Y0091947D01*
X0077549Y0091219D01*
X0079451Y0091219D01*
X0081208Y0091947D01*
X0081661Y0092400D01*
X0129509Y0092400D01*
X0144900Y0077009D01*
X0144900Y0066661D01*
X0144447Y0066208D01*
X0143719Y0064451D01*
X0143719Y0062549D01*
X0144447Y0060792D01*
X0145792Y0059447D01*
X0147549Y0058719D01*
X0149451Y0058719D01*
X0151208Y0059447D01*
X0152553Y0060792D01*
X0153281Y0062549D01*
X0153281Y0064451D01*
X0152553Y0066208D01*
X0152100Y0066661D01*
X0152100Y0079216D01*
X0151552Y0080539D01*
X0150539Y0081552D01*
X0133039Y0099052D01*
X0131716Y0099600D01*
X0081661Y0099600D01*
X0081511Y0099750D01*
X0081661Y0099900D01*
X0173905Y0099900D01*
X0173719Y0099451D01*
X0173719Y0097549D01*
X0174447Y0095792D01*
X0174900Y0095338D01*
X0174900Y0074991D01*
X0157009Y0057100D01*
X0151661Y0057100D01*
X0151208Y0057553D01*
X0149451Y0058281D01*
X0147549Y0058281D01*
X0145792Y0057553D01*
X0144447Y0056208D01*
X0143719Y0054451D01*
X0143719Y0052549D01*
X0144447Y0050792D01*
X0145792Y0049447D01*
X0147549Y0048719D01*
X0149451Y0048719D01*
X0151208Y0049447D01*
X0151661Y0049900D01*
X0159216Y0049900D01*
X0160539Y0050448D01*
X0180539Y0070448D01*
X0181552Y0071461D01*
X0182100Y0072784D01*
X0182100Y0095338D01*
X0182553Y0095792D01*
X0183281Y0097549D01*
X0183281Y0098719D01*
X0184451Y0098719D01*
X0186208Y0099447D01*
X0187000Y0100239D01*
X0187000Y0092657D01*
X0186234Y0091891D01*
X0185109Y0090766D01*
X0184500Y0089296D01*
X0184500Y0061761D01*
X0183708Y0062553D01*
X0181951Y0063281D01*
X0180049Y0063281D01*
X0178292Y0062553D01*
X0176947Y0061208D01*
X0176219Y0059451D01*
X0176219Y0058810D01*
X0157009Y0039600D01*
X0101737Y0039600D01*
X0102578Y0040441D01*
X0103400Y0042426D01*
X0103400Y0044574D01*
X0102578Y0046559D01*
X0101737Y0047400D01*
X0136716Y0047400D01*
X0138039Y0047948D01*
X0138810Y0048719D01*
X0139451Y0048719D01*
X0141208Y0049447D01*
X0142553Y0050792D01*
X0143281Y0052549D01*
X0143281Y0054451D01*
X0142553Y0056208D01*
X0141208Y0057553D01*
X0139451Y0058281D01*
X0137549Y0058281D01*
X0135792Y0057553D01*
X0134447Y0056208D01*
X0133781Y0054600D01*
X0118095Y0054600D01*
X0118281Y0055049D01*
X0118281Y0056951D01*
X0117553Y0058708D01*
X0116208Y0060053D01*
X0114451Y0060781D01*
X0112549Y0060781D01*
X0110792Y0060053D01*
X0110338Y0059600D01*
X0106361Y0059600D01*
X0107553Y0060792D01*
X0108281Y0062549D01*
X0108281Y0064451D01*
X0107553Y0066208D01*
X0106208Y0067553D01*
X0104451Y0068281D01*
X0102549Y0068281D01*
X0100792Y0067553D01*
X0100338Y0067100D01*
X0081361Y0067100D01*
X0082553Y0068292D01*
X0083281Y0070049D01*
X0083281Y0070690D01*
X0093810Y0081219D01*
X0094451Y0081219D01*
X0096208Y0081947D01*
X0097553Y0083292D01*
X0098281Y0085049D01*
X0098281Y0086951D01*
X0097553Y0088708D01*
X0096208Y0090053D01*
X0094451Y0090781D01*
X0092549Y0090781D01*
X0090792Y0090053D01*
X0089447Y0088708D01*
X0088719Y0086951D01*
X0088719Y0086310D01*
X0078190Y0075781D01*
X0077549Y0075781D01*
X0075792Y0075053D01*
X0074447Y0073708D01*
X0073719Y0071951D01*
X0073719Y0070872D01*
X0069600Y0074991D01*
X0069600Y0115338D01*
X0070053Y0115792D01*
X0070781Y0117549D01*
X0070781Y0119451D01*
X0070053Y0121208D01*
X0069600Y0121661D01*
X0069600Y0160338D01*
X0070053Y0160792D01*
X0070781Y0162549D01*
X0070781Y0164451D01*
X0070053Y0166208D01*
X0068708Y0167553D01*
X0066951Y0168281D01*
X0065049Y0168281D01*
X0065038Y0168277D01*
X0065053Y0168292D01*
X0065781Y0170049D01*
X0065781Y0171951D01*
X0065053Y0173708D01*
X0063708Y0175053D01*
X0061951Y0175781D01*
X0060049Y0175781D01*
X0058292Y0175053D01*
X0056947Y0173708D01*
X0056219Y0171951D01*
X0056219Y0170781D01*
X0055049Y0170781D01*
X0053292Y0170053D01*
X0051947Y0168708D01*
X0051219Y0166951D01*
X0051219Y0165049D01*
X0051947Y0163292D01*
X0052400Y0162838D01*
X0052400Y0134600D01*
X0040284Y0134600D01*
X0038961Y0134052D01*
X0037948Y0133039D01*
X0035448Y0130539D01*
X0034900Y0129216D01*
X0034900Y0128527D01*
X0033500Y0127127D01*
X0031027Y0129600D01*
X0025973Y0129600D01*
X0022400Y0126027D01*
X0022400Y0120973D01*
X0024873Y0118500D01*
X0023500Y0117127D01*
X0021027Y0119600D01*
X0015973Y0119600D01*
X0012400Y0116027D01*
X0012400Y0110973D01*
X0015973Y0107400D01*
X0021027Y0107400D01*
X0023500Y0109873D01*
X0025973Y0107400D01*
X0031027Y0107400D01*
X0033500Y0109873D01*
X0035973Y0107400D01*
X0041027Y0107400D01*
X0043500Y0109873D01*
X0045973Y0107400D01*
X0051027Y0107400D01*
X0052400Y0108773D01*
X0052400Y0095595D01*
X0051951Y0095781D01*
X0050049Y0095781D01*
X0048292Y0095053D01*
X0046947Y0093708D01*
X0046219Y0091951D01*
X0046219Y0090049D01*
X0046947Y0088292D01*
X0047400Y0087838D01*
X0047400Y0065284D01*
X0047948Y0063961D01*
X0051219Y0060690D01*
X0051219Y0060049D01*
X0051947Y0058292D01*
X0053292Y0056947D01*
X0055049Y0056219D01*
X0056951Y0056219D01*
X0058708Y0056947D01*
X0060053Y0058292D01*
X0060365Y0059044D01*
X0070448Y0048961D01*
X0071461Y0047948D01*
X0072784Y0047400D01*
X0075263Y0047400D01*
X0074422Y0046559D01*
X0073600Y0044574D01*
X0073600Y0042426D01*
X0074422Y0040441D01*
X0075263Y0039600D01*
X0034991Y0039600D01*
X0012100Y0062491D01*
X0012100Y0068208D01*
X0015808Y0064500D01*
X0021192Y0064500D01*
X0023500Y0066808D01*
X0025808Y0064500D01*
X0031192Y0064500D01*
X0035000Y0068308D01*
X0035000Y0073692D01*
X0032692Y0076000D01*
X0035000Y0078308D01*
X0035000Y0083692D01*
X0032692Y0086000D01*
X0035000Y0088308D01*
X0035000Y0093692D01*
X0031192Y0097500D01*
X0025808Y0097500D01*
X0022000Y0093692D01*
X0022000Y0088308D01*
X0024308Y0086000D01*
X0023500Y0085192D01*
X0021192Y0087500D01*
X0015808Y0087500D01*
X0012908Y0084600D01*
X0012784Y0084600D01*
X0011461Y0084052D01*
X0010448Y0083039D01*
X0006200Y0078791D01*
X0006200Y0193017D01*
X0006399Y0193930D01*
X0006889Y0195246D01*
X0007562Y0196479D01*
X0008404Y0197603D01*
X0009397Y0198596D01*
X0010521Y0199438D01*
X0011754Y0200111D01*
X0013070Y0200601D01*
X0014442Y0200900D01*
X0015843Y0201000D01*
X0379907Y0201000D01*
X0381308Y0200900D01*
X0382680Y0200601D01*
X0383996Y0200111D01*
X0385229Y0199438D01*
X0386353Y0198596D01*
X0387346Y0197603D01*
X0388188Y0196479D01*
X0388861Y0195246D01*
X0389351Y0193930D01*
X0389501Y0193243D01*
X0389501Y0015007D01*
X0389351Y0014320D01*
X0388861Y0013004D01*
X0388188Y0011771D01*
X0387346Y0010647D01*
X0386353Y0009654D01*
X0385229Y0008812D01*
X0383996Y0008139D01*
X0382680Y0007649D01*
X0381308Y0007350D01*
X0379907Y0007250D01*
X0158365Y0007250D01*
X0158365Y0007465D01*
X0157244Y0010172D01*
X0155172Y0012244D01*
X0152465Y0013365D01*
X0149535Y0013365D01*
X0146828Y0012244D01*
X0146000Y0011416D01*
X0145875Y0011541D01*
X0146595Y0012261D01*
X0147600Y0014687D01*
X0147600Y0017313D01*
X0146595Y0019739D01*
X0144739Y0021595D01*
X0143761Y0022000D01*
X0166796Y0022000D01*
X0168266Y0022609D01*
X0191891Y0046234D01*
X0192500Y0047704D01*
X0192500Y0066909D01*
X0198719Y0060690D01*
X0198719Y0060049D01*
X0199447Y0058292D01*
X0200792Y0056947D01*
X0202549Y0056219D01*
X0204451Y0056219D01*
X0206208Y0056947D01*
X0207553Y0058292D01*
X0208281Y0060049D01*
X0208281Y0061951D01*
X0207553Y0063708D01*
X0206208Y0065053D01*
X0204451Y0065781D01*
X0203810Y0065781D01*
X0197100Y0072491D01*
X0197100Y0080338D01*
X0197553Y0080792D01*
X0198281Y0082549D01*
X0198281Y0084451D01*
X0197553Y0086208D01*
X0196208Y0087553D01*
X0194451Y0088281D01*
X0193938Y0088281D01*
X0194391Y0088734D01*
X0195000Y0090204D01*
X0195000Y0108238D01*
X0195053Y0108292D01*
X0195781Y0110049D01*
X0195781Y0111951D01*
X0195031Y0113730D02*
X0326578Y0113730D01*
X0324947Y0116129D02*
X0164262Y0116129D01*
X0164685Y0113730D02*
X0186969Y0113730D01*
X0186219Y0111332D02*
X0164192Y0111332D01*
X0162495Y0108933D02*
X0186681Y0108933D01*
X0195000Y0106534D02*
X0202273Y0106534D01*
X0201947Y0106208D02*
X0201219Y0104451D01*
X0201219Y0102549D01*
X0201947Y0100792D01*
X0203292Y0099447D01*
X0205049Y0098719D01*
X0206951Y0098719D01*
X0208708Y0099447D01*
X0209161Y0099900D01*
X0217838Y0099900D01*
X0218292Y0099447D01*
X0220049Y0098719D01*
X0221951Y0098719D01*
X0223708Y0099447D01*
X0225053Y0100792D01*
X0225781Y0102549D01*
X0225781Y0104451D01*
X0225053Y0106208D01*
X0223708Y0107553D01*
X0221951Y0108281D01*
X0220049Y0108281D01*
X0218292Y0107553D01*
X0217838Y0107100D01*
X0209161Y0107100D01*
X0208708Y0107553D01*
X0206951Y0108281D01*
X0205049Y0108281D01*
X0203292Y0107553D01*
X0201947Y0106208D01*
X0201219Y0104136D02*
X0195000Y0104136D01*
X0195000Y0101737D02*
X0201555Y0101737D01*
X0203552Y0099339D02*
X0195000Y0099339D01*
X0195000Y0096940D02*
X0296903Y0096940D01*
X0297549Y0095781D02*
X0295792Y0095053D01*
X0295338Y0094600D01*
X0284161Y0094600D01*
X0283708Y0095053D01*
X0281951Y0095781D01*
X0280049Y0095781D01*
X0278292Y0095053D01*
X0276947Y0093708D01*
X0276219Y0091951D01*
X0276219Y0090049D01*
X0276947Y0088292D01*
X0278292Y0086947D01*
X0280049Y0086219D01*
X0281951Y0086219D01*
X0283708Y0086947D01*
X0284161Y0087400D01*
X0295338Y0087400D01*
X0295792Y0086947D01*
X0297549Y0086219D01*
X0299451Y0086219D01*
X0301208Y0086947D01*
X0302553Y0088292D01*
X0303281Y0090049D01*
X0303281Y0090562D01*
X0348734Y0045109D01*
X0350204Y0044500D01*
X0369488Y0044500D01*
X0369542Y0044447D01*
X0371299Y0043719D01*
X0373201Y0043719D01*
X0374958Y0044447D01*
X0376303Y0045792D01*
X0377031Y0047549D01*
X0377031Y0049451D01*
X0376303Y0051208D01*
X0374958Y0052553D01*
X0373201Y0053281D01*
X0371299Y0053281D01*
X0369542Y0052553D01*
X0369488Y0052500D01*
X0352657Y0052500D01*
X0299391Y0105766D01*
X0298266Y0106891D01*
X0296796Y0107500D01*
X0238761Y0107500D01*
X0238708Y0107553D01*
X0236951Y0108281D01*
X0235049Y0108281D01*
X0233292Y0107553D01*
X0231947Y0106208D01*
X0231219Y0104451D01*
X0231219Y0102549D01*
X0231947Y0100792D01*
X0233292Y0099447D01*
X0235049Y0098719D01*
X0236951Y0098719D01*
X0238708Y0099447D01*
X0238761Y0099500D01*
X0294343Y0099500D01*
X0298062Y0095781D01*
X0297549Y0095781D01*
X0294504Y0099339D02*
X0238448Y0099339D01*
X0236000Y0103500D02*
X0296000Y0103500D01*
X0351000Y0048500D01*
X0372250Y0048500D01*
X0376626Y0046572D02*
X0389501Y0046572D01*
X0389501Y0048970D02*
X0377031Y0048970D01*
X0376143Y0051369D02*
X0389501Y0051369D01*
X0389501Y0053767D02*
X0351390Y0053767D01*
X0348991Y0056166D02*
X0389501Y0056166D01*
X0389501Y0058564D02*
X0346593Y0058564D01*
X0344194Y0060963D02*
X0389501Y0060963D01*
X0389501Y0063361D02*
X0341796Y0063361D01*
X0339397Y0065760D02*
X0389501Y0065760D01*
X0389501Y0068158D02*
X0336999Y0068158D01*
X0334600Y0070557D02*
X0389501Y0070557D01*
X0389501Y0072955D02*
X0332202Y0072955D01*
X0329803Y0075354D02*
X0389501Y0075354D01*
X0389501Y0077752D02*
X0327404Y0077752D01*
X0325006Y0080151D02*
X0389501Y0080151D01*
X0389501Y0082549D02*
X0333619Y0082549D01*
X0336564Y0084948D02*
X0389501Y0084948D01*
X0389501Y0087346D02*
X0337500Y0087346D01*
X0337500Y0089745D02*
X0357994Y0089745D01*
X0358292Y0089447D02*
X0360049Y0088719D01*
X0361951Y0088719D01*
X0363708Y0089447D01*
X0364161Y0089900D01*
X0375338Y0089900D01*
X0375792Y0089447D01*
X0377549Y0088719D01*
X0379451Y0088719D01*
X0381208Y0089447D01*
X0382553Y0090792D01*
X0383281Y0092549D01*
X0383281Y0094451D01*
X0382553Y0096208D01*
X0381208Y0097553D01*
X0379451Y0098281D01*
X0377549Y0098281D01*
X0375792Y0097553D01*
X0375338Y0097100D01*
X0364161Y0097100D01*
X0363708Y0097553D01*
X0361951Y0098281D01*
X0360049Y0098281D01*
X0358292Y0097553D01*
X0356947Y0096208D01*
X0356219Y0094451D01*
X0356219Y0092549D01*
X0356947Y0090792D01*
X0358292Y0089447D01*
X0356387Y0092143D02*
X0336526Y0092143D01*
X0336234Y0094542D02*
X0356257Y0094542D01*
X0357679Y0096940D02*
X0337390Y0096940D01*
X0337500Y0099339D02*
X0389501Y0099339D01*
X0389501Y0101737D02*
X0336695Y0101737D01*
X0335828Y0104136D02*
X0389501Y0104136D01*
X0389501Y0106534D02*
X0337221Y0106534D01*
X0337500Y0108933D02*
X0389501Y0108933D01*
X0389501Y0111332D02*
X0336863Y0111332D01*
X0335422Y0113730D02*
X0389501Y0113730D01*
X0389501Y0116129D02*
X0337053Y0116129D01*
X0337500Y0118527D02*
X0389501Y0118527D01*
X0389501Y0120926D02*
X0380109Y0120926D01*
X0380781Y0123324D02*
X0389501Y0123324D01*
X0389501Y0125723D02*
X0380254Y0125723D01*
X0377337Y0128121D02*
X0389501Y0128121D01*
X0389501Y0130520D02*
X0342137Y0130520D01*
X0339739Y0132918D02*
X0389501Y0132918D01*
X0389501Y0135317D02*
X0337340Y0135317D01*
X0334942Y0137715D02*
X0389501Y0137715D01*
X0389501Y0140114D02*
X0332543Y0140114D01*
X0328500Y0138500D02*
X0191000Y0138500D01*
X0167250Y0138500D01*
X0118500Y0138500D01*
X0111000Y0138500D01*
X0106000Y0133500D01*
X0094750Y0133500D01*
X0086000Y0133500D01*
X0076000Y0143500D01*
X0076000Y0183500D01*
X0041000Y0183500D01*
X0033500Y0176000D01*
X0039750Y0169750D01*
X0036241Y0166497D02*
X0030000Y0166497D01*
X0030409Y0164099D02*
X0051612Y0164099D01*
X0051219Y0166497D02*
X0043259Y0166497D01*
X0044531Y0168896D02*
X0052134Y0168896D01*
X0056219Y0171294D02*
X0044285Y0171294D01*
X0042569Y0173693D02*
X0056940Y0173693D01*
X0065060Y0173693D02*
X0072000Y0173693D01*
X0072000Y0176091D02*
X0039248Y0176091D01*
X0041647Y0178490D02*
X0072000Y0178490D01*
X0076000Y0183500D02*
X0076000Y0191000D01*
X0071000Y0196000D01*
X0066520Y0197678D02*
X0008479Y0197678D01*
X0006908Y0195279D02*
X0066219Y0195279D01*
X0067358Y0192881D02*
X0006200Y0192881D01*
X0006200Y0190482D02*
X0070861Y0190482D01*
X0072000Y0188084D02*
X0006200Y0188084D01*
X0006200Y0185685D02*
X0037529Y0185685D01*
X0035130Y0183287D02*
X0006200Y0183287D01*
X0006200Y0180888D02*
X0032731Y0180888D01*
X0030333Y0178490D02*
X0006200Y0178490D01*
X0006200Y0176091D02*
X0027934Y0176091D01*
X0025536Y0173693D02*
X0006200Y0173693D01*
X0006200Y0171294D02*
X0023137Y0171294D01*
X0022000Y0168896D02*
X0006200Y0168896D01*
X0006200Y0166497D02*
X0022000Y0166497D01*
X0021591Y0164099D02*
X0006200Y0164099D01*
X0006200Y0161700D02*
X0021219Y0161700D01*
X0022187Y0159302D02*
X0006200Y0159302D01*
X0006200Y0156903D02*
X0052400Y0156903D01*
X0052400Y0154505D02*
X0006200Y0154505D01*
X0006200Y0152106D02*
X0052400Y0152106D01*
X0052400Y0149708D02*
X0006200Y0149708D01*
X0006200Y0147309D02*
X0052400Y0147309D01*
X0052400Y0144911D02*
X0006200Y0144911D01*
X0006200Y0142512D02*
X0052400Y0142512D01*
X0052400Y0140114D02*
X0006200Y0140114D01*
X0006200Y0137715D02*
X0052400Y0137715D01*
X0052400Y0135317D02*
X0006200Y0135317D01*
X0006200Y0132918D02*
X0037827Y0132918D01*
X0035440Y0130520D02*
X0006200Y0130520D01*
X0006200Y0128121D02*
X0024494Y0128121D01*
X0022400Y0125723D02*
X0006200Y0125723D01*
X0006200Y0123324D02*
X0022400Y0123324D01*
X0022448Y0120926D02*
X0006200Y0120926D01*
X0006200Y0118527D02*
X0014900Y0118527D01*
X0012502Y0116129D02*
X0006200Y0116129D01*
X0006200Y0113730D02*
X0012400Y0113730D01*
X0012400Y0111332D02*
X0006200Y0111332D01*
X0006200Y0108933D02*
X0014440Y0108933D01*
X0022560Y0108933D02*
X0024440Y0108933D01*
X0032560Y0108933D02*
X0034440Y0108933D01*
X0042560Y0108933D02*
X0044440Y0108933D01*
X0052400Y0106534D02*
X0006200Y0106534D01*
X0006200Y0104136D02*
X0052400Y0104136D01*
X0052400Y0101737D02*
X0006200Y0101737D01*
X0006200Y0099339D02*
X0052400Y0099339D01*
X0052400Y0096940D02*
X0031752Y0096940D01*
X0034150Y0094542D02*
X0047780Y0094542D01*
X0046299Y0092143D02*
X0035000Y0092143D01*
X0035000Y0089745D02*
X0046345Y0089745D01*
X0047400Y0087346D02*
X0034039Y0087346D01*
X0033744Y0084948D02*
X0047400Y0084948D01*
X0047400Y0082549D02*
X0035000Y0082549D01*
X0035000Y0080151D02*
X0047400Y0080151D01*
X0047400Y0077752D02*
X0034445Y0077752D01*
X0033339Y0075354D02*
X0047400Y0075354D01*
X0047400Y0072955D02*
X0035000Y0072955D01*
X0035000Y0070557D02*
X0047400Y0070557D01*
X0047400Y0068158D02*
X0034851Y0068158D01*
X0032452Y0065760D02*
X0047400Y0065760D01*
X0048548Y0063361D02*
X0012100Y0063361D01*
X0012100Y0065760D02*
X0014548Y0065760D01*
X0012149Y0068158D02*
X0012100Y0068158D01*
X0013628Y0060963D02*
X0050946Y0060963D01*
X0051834Y0058564D02*
X0016027Y0058564D01*
X0018425Y0056166D02*
X0063243Y0056166D01*
X0060845Y0058564D02*
X0060166Y0058564D01*
X0065642Y0053767D02*
X0020824Y0053767D01*
X0023222Y0051369D02*
X0068040Y0051369D01*
X0070439Y0048970D02*
X0025621Y0048970D01*
X0028019Y0046572D02*
X0074435Y0046572D01*
X0073600Y0044173D02*
X0030418Y0044173D01*
X0032816Y0041775D02*
X0073870Y0041775D01*
X0102565Y0046572D02*
X0163981Y0046572D01*
X0166379Y0048970D02*
X0150058Y0048970D01*
X0146942Y0048970D02*
X0140058Y0048970D01*
X0142792Y0051369D02*
X0144208Y0051369D01*
X0143719Y0053767D02*
X0143281Y0053767D01*
X0142571Y0056166D02*
X0144429Y0056166D01*
X0144376Y0060963D02*
X0107624Y0060963D01*
X0108281Y0063361D02*
X0143719Y0063361D01*
X0144261Y0065760D02*
X0107739Y0065760D01*
X0104747Y0068158D02*
X0144900Y0068158D01*
X0144900Y0070557D02*
X0083281Y0070557D01*
X0082420Y0068158D02*
X0102253Y0068158D01*
X0090344Y0077752D02*
X0144156Y0077752D01*
X0144900Y0075354D02*
X0087945Y0075354D01*
X0085547Y0072955D02*
X0144900Y0072955D01*
X0152100Y0072955D02*
X0172864Y0072955D01*
X0174900Y0075354D02*
X0152100Y0075354D01*
X0152100Y0077752D02*
X0174900Y0077752D01*
X0174900Y0080151D02*
X0151713Y0080151D01*
X0149542Y0082549D02*
X0174900Y0082549D01*
X0174900Y0084948D02*
X0147143Y0084948D01*
X0144745Y0087346D02*
X0174900Y0087346D01*
X0174900Y0089745D02*
X0142346Y0089745D01*
X0139948Y0092143D02*
X0174900Y0092143D01*
X0174900Y0094542D02*
X0137549Y0094542D01*
X0135151Y0096940D02*
X0173971Y0096940D01*
X0173719Y0099339D02*
X0132346Y0099339D01*
X0129765Y0092143D02*
X0081405Y0092143D01*
X0075595Y0092143D02*
X0069600Y0092143D01*
X0069600Y0089745D02*
X0090483Y0089745D01*
X0088883Y0087346D02*
X0069600Y0087346D01*
X0069600Y0084948D02*
X0087357Y0084948D01*
X0084958Y0082549D02*
X0069600Y0082549D01*
X0069600Y0080151D02*
X0082560Y0080151D01*
X0080161Y0077752D02*
X0069600Y0077752D01*
X0069600Y0075354D02*
X0076518Y0075354D01*
X0074135Y0072955D02*
X0071636Y0072955D01*
X0092742Y0080151D02*
X0141758Y0080151D01*
X0139359Y0082549D02*
X0096811Y0082549D01*
X0098239Y0084948D02*
X0136961Y0084948D01*
X0134562Y0087346D02*
X0098117Y0087346D01*
X0096517Y0089745D02*
X0132164Y0089745D01*
X0152100Y0070557D02*
X0170466Y0070557D01*
X0168067Y0068158D02*
X0152100Y0068158D01*
X0152739Y0065760D02*
X0165669Y0065760D01*
X0163270Y0063361D02*
X0153281Y0063361D01*
X0152624Y0060963D02*
X0160872Y0060963D01*
X0158473Y0058564D02*
X0117613Y0058564D01*
X0118281Y0056166D02*
X0134429Y0056166D01*
X0161460Y0051369D02*
X0168778Y0051369D01*
X0171176Y0053767D02*
X0163858Y0053767D01*
X0166257Y0056166D02*
X0173575Y0056166D01*
X0175973Y0058564D02*
X0168655Y0058564D01*
X0171054Y0060963D02*
X0176845Y0060963D01*
X0173452Y0063361D02*
X0184500Y0063361D01*
X0184500Y0065760D02*
X0175851Y0065760D01*
X0178249Y0068158D02*
X0184500Y0068158D01*
X0184500Y0070557D02*
X0180648Y0070557D01*
X0182100Y0072955D02*
X0184500Y0072955D01*
X0184500Y0075354D02*
X0182100Y0075354D01*
X0182100Y0077752D02*
X0184500Y0077752D01*
X0184500Y0080151D02*
X0182100Y0080151D01*
X0182100Y0082549D02*
X0184500Y0082549D01*
X0184500Y0084948D02*
X0182100Y0084948D01*
X0182100Y0087346D02*
X0184500Y0087346D01*
X0184686Y0089745D02*
X0182100Y0089745D01*
X0182100Y0092143D02*
X0186487Y0092143D01*
X0187000Y0094542D02*
X0182100Y0094542D01*
X0183029Y0096940D02*
X0187000Y0096940D01*
X0187000Y0099339D02*
X0185948Y0099339D01*
X0195000Y0094542D02*
X0277780Y0094542D01*
X0276299Y0092143D02*
X0195000Y0092143D01*
X0194810Y0089745D02*
X0276345Y0089745D01*
X0277892Y0087346D02*
X0196415Y0087346D01*
X0198075Y0084948D02*
X0308895Y0084948D01*
X0306497Y0087346D02*
X0301608Y0087346D01*
X0303155Y0089745D02*
X0304098Y0089745D01*
X0310615Y0094542D02*
X0325766Y0094542D01*
X0325474Y0092143D02*
X0313013Y0092143D01*
X0315412Y0089745D02*
X0324500Y0089745D01*
X0324500Y0087346D02*
X0317810Y0087346D01*
X0320209Y0084948D02*
X0325436Y0084948D01*
X0322607Y0082549D02*
X0328381Y0082549D01*
X0320888Y0072955D02*
X0300084Y0072955D01*
X0300078Y0072941D02*
X0300900Y0074926D01*
X0300900Y0077074D01*
X0300078Y0079059D01*
X0298559Y0080578D01*
X0296574Y0081400D01*
X0294426Y0081400D01*
X0292441Y0080578D01*
X0290922Y0079059D01*
X0290100Y0077074D01*
X0290100Y0074926D01*
X0290922Y0072941D01*
X0292441Y0071422D01*
X0294426Y0070600D01*
X0296574Y0070600D01*
X0298559Y0071422D01*
X0300078Y0072941D01*
X0300900Y0075354D02*
X0318489Y0075354D01*
X0316091Y0077752D02*
X0300619Y0077752D01*
X0298986Y0080151D02*
X0313692Y0080151D01*
X0311294Y0082549D02*
X0198281Y0082549D01*
X0197100Y0080151D02*
X0273014Y0080151D01*
X0273441Y0080578D02*
X0271922Y0079059D01*
X0271100Y0077074D01*
X0271100Y0074926D01*
X0271922Y0072941D01*
X0273441Y0071422D01*
X0275426Y0070600D01*
X0277574Y0070600D01*
X0279559Y0071422D01*
X0281078Y0072941D01*
X0281900Y0074926D01*
X0281900Y0077074D01*
X0281078Y0079059D01*
X0279559Y0080578D01*
X0277574Y0081400D01*
X0275426Y0081400D01*
X0273441Y0080578D01*
X0271381Y0077752D02*
X0197100Y0077752D01*
X0197100Y0075354D02*
X0271100Y0075354D01*
X0271916Y0072955D02*
X0197100Y0072955D01*
X0199034Y0070557D02*
X0323286Y0070557D01*
X0325685Y0068158D02*
X0201433Y0068158D01*
X0204502Y0065760D02*
X0328083Y0065760D01*
X0330482Y0063361D02*
X0207697Y0063361D01*
X0208281Y0060963D02*
X0332880Y0060963D01*
X0335279Y0058564D02*
X0207666Y0058564D01*
X0199334Y0058564D02*
X0192500Y0058564D01*
X0192500Y0056166D02*
X0337677Y0056166D01*
X0340076Y0053767D02*
X0192500Y0053767D01*
X0192500Y0051369D02*
X0342474Y0051369D01*
X0344873Y0048970D02*
X0192500Y0048970D01*
X0192031Y0046572D02*
X0347271Y0046572D01*
X0341552Y0043039D02*
X0340539Y0044052D01*
X0339216Y0044600D01*
X0265284Y0044600D01*
X0263961Y0044052D01*
X0262948Y0043039D01*
X0262400Y0041716D01*
X0262400Y0012784D01*
X0262948Y0011461D01*
X0263961Y0010448D01*
X0265284Y0009900D01*
X0339216Y0009900D01*
X0340539Y0010448D01*
X0341552Y0011461D01*
X0342100Y0012784D01*
X0342100Y0014216D01*
X0342100Y0041716D01*
X0341552Y0043039D01*
X0342076Y0041775D02*
X0389501Y0041775D01*
X0389501Y0044173D02*
X0374298Y0044173D01*
X0370202Y0044173D02*
X0340246Y0044173D01*
X0342100Y0039376D02*
X0389501Y0039376D01*
X0389501Y0036978D02*
X0342100Y0036978D01*
X0342100Y0034579D02*
X0389501Y0034579D01*
X0389501Y0032181D02*
X0376543Y0032181D01*
X0376530Y0032184D02*
X0373502Y0032184D01*
X0370577Y0031401D01*
X0367955Y0029887D01*
X0365814Y0027746D01*
X0364300Y0025124D01*
X0363517Y0022199D01*
X0363517Y0019171D01*
X0364300Y0016247D01*
X0365814Y0013624D01*
X0367955Y0011483D01*
X0370577Y0009969D01*
X0373502Y0009186D01*
X0376530Y0009186D01*
X0379454Y0009969D01*
X0382076Y0011483D01*
X0384217Y0013624D01*
X0385731Y0016247D01*
X0386515Y0019171D01*
X0386515Y0022199D01*
X0385731Y0025124D01*
X0384217Y0027746D01*
X0382076Y0029887D01*
X0379454Y0031401D01*
X0376530Y0032184D01*
X0373488Y0032181D02*
X0342100Y0032181D01*
X0342100Y0029782D02*
X0367851Y0029782D01*
X0365605Y0027384D02*
X0342100Y0027384D01*
X0342100Y0024985D02*
X0364263Y0024985D01*
X0363620Y0022587D02*
X0342100Y0022587D01*
X0342100Y0020188D02*
X0363517Y0020188D01*
X0363887Y0017790D02*
X0342100Y0017790D01*
X0342100Y0015391D02*
X0364794Y0015391D01*
X0366446Y0012993D02*
X0342100Y0012993D01*
X0340685Y0010594D02*
X0369495Y0010594D01*
X0380536Y0010594D02*
X0387293Y0010594D01*
X0388854Y0012993D02*
X0383586Y0012993D01*
X0385237Y0015391D02*
X0389501Y0015391D01*
X0389501Y0017790D02*
X0386145Y0017790D01*
X0386515Y0020188D02*
X0389501Y0020188D01*
X0389501Y0022587D02*
X0386411Y0022587D01*
X0385768Y0024985D02*
X0389501Y0024985D01*
X0389501Y0027384D02*
X0384426Y0027384D01*
X0382181Y0029782D02*
X0389501Y0029782D01*
X0384099Y0008196D02*
X0158063Y0008196D01*
X0156822Y0010594D02*
X0263815Y0010594D01*
X0262400Y0012993D02*
X0153365Y0012993D01*
X0148635Y0012993D02*
X0146898Y0012993D01*
X0147600Y0015391D02*
X0262400Y0015391D01*
X0262400Y0017790D02*
X0147403Y0017790D01*
X0146146Y0020188D02*
X0262400Y0020188D01*
X0262400Y0022587D02*
X0168212Y0022587D01*
X0170642Y0024985D02*
X0262400Y0024985D01*
X0262400Y0027384D02*
X0173040Y0027384D01*
X0175439Y0029782D02*
X0262400Y0029782D01*
X0262400Y0032181D02*
X0177837Y0032181D01*
X0180236Y0034579D02*
X0262400Y0034579D01*
X0262400Y0036978D02*
X0182635Y0036978D01*
X0185033Y0039376D02*
X0262400Y0039376D01*
X0262424Y0041775D02*
X0187432Y0041775D01*
X0189830Y0044173D02*
X0264254Y0044173D01*
X0281084Y0072955D02*
X0290916Y0072955D01*
X0290100Y0075354D02*
X0281900Y0075354D01*
X0281619Y0077752D02*
X0290381Y0077752D01*
X0292014Y0080151D02*
X0279986Y0080151D01*
X0284108Y0087346D02*
X0295392Y0087346D01*
X0308216Y0096940D02*
X0324610Y0096940D01*
X0324500Y0099339D02*
X0305818Y0099339D01*
X0303419Y0101737D02*
X0325305Y0101737D01*
X0326172Y0104136D02*
X0301021Y0104136D01*
X0298622Y0106534D02*
X0324779Y0106534D01*
X0324500Y0118527D02*
X0260151Y0118527D01*
X0260781Y0120926D02*
X0324969Y0120926D01*
X0326632Y0123324D02*
X0260212Y0123324D01*
X0257092Y0125723D02*
X0335621Y0125723D01*
X0335368Y0123324D02*
X0338019Y0123324D01*
X0337031Y0120926D02*
X0339391Y0120926D01*
X0343500Y0123500D02*
X0328500Y0138500D01*
X0328425Y0132918D02*
X0262881Y0132918D01*
X0263281Y0130520D02*
X0330824Y0130520D01*
X0333222Y0128121D02*
X0262383Y0128121D01*
X0244010Y0147318D02*
X0242182Y0145490D01*
X0239793Y0144500D01*
X0237207Y0144500D01*
X0234818Y0145490D01*
X0232990Y0147318D01*
X0232000Y0149707D01*
X0232000Y0152293D01*
X0232990Y0154682D01*
X0234308Y0156000D01*
X0232990Y0157318D01*
X0232000Y0159707D01*
X0232000Y0162293D01*
X0232990Y0164682D01*
X0234818Y0166510D01*
X0237207Y0167500D01*
X0239793Y0167500D01*
X0242182Y0166510D01*
X0244010Y0164682D01*
X0245000Y0162293D01*
X0245000Y0159707D01*
X0244010Y0157318D01*
X0242692Y0156000D01*
X0244010Y0154682D01*
X0245000Y0152293D01*
X0245000Y0149707D01*
X0244010Y0147318D01*
X0244002Y0147309D02*
X0389501Y0147309D01*
X0389501Y0144911D02*
X0240784Y0144911D01*
X0236216Y0144911D02*
X0080246Y0144911D01*
X0080000Y0147309D02*
X0232998Y0147309D01*
X0232000Y0149708D02*
X0080000Y0149708D01*
X0080000Y0152106D02*
X0232000Y0152106D01*
X0232916Y0154505D02*
X0080000Y0154505D01*
X0080000Y0156903D02*
X0233404Y0156903D01*
X0232168Y0159302D02*
X0080000Y0159302D01*
X0080000Y0161700D02*
X0232000Y0161700D01*
X0232748Y0164099D02*
X0080000Y0164099D01*
X0080000Y0166497D02*
X0234805Y0166497D01*
X0242195Y0166497D02*
X0389501Y0166497D01*
X0389501Y0164099D02*
X0362163Y0164099D01*
X0362553Y0163708D02*
X0361208Y0165053D01*
X0359451Y0165781D01*
X0357549Y0165781D01*
X0355792Y0165053D01*
X0355338Y0164600D01*
X0316661Y0164600D01*
X0316208Y0165053D01*
X0314451Y0165781D01*
X0312549Y0165781D01*
X0310792Y0165053D01*
X0309447Y0163708D01*
X0308719Y0161951D01*
X0308719Y0160049D01*
X0309447Y0158292D01*
X0310792Y0156947D01*
X0312549Y0156219D01*
X0314451Y0156219D01*
X0316208Y0156947D01*
X0316661Y0157400D01*
X0355338Y0157400D01*
X0355792Y0156947D01*
X0357549Y0156219D01*
X0359451Y0156219D01*
X0361208Y0156947D01*
X0362553Y0158292D01*
X0363281Y0160049D01*
X0363281Y0161951D01*
X0362553Y0163708D01*
X0363281Y0161700D02*
X0389501Y0161700D01*
X0389501Y0159302D02*
X0362972Y0159302D01*
X0361103Y0156903D02*
X0389501Y0156903D01*
X0389501Y0154505D02*
X0244084Y0154505D01*
X0243596Y0156903D02*
X0310897Y0156903D01*
X0309028Y0159302D02*
X0244832Y0159302D01*
X0245000Y0161700D02*
X0308719Y0161700D01*
X0309837Y0164099D02*
X0244252Y0164099D01*
X0245000Y0152106D02*
X0389501Y0152106D01*
X0389501Y0149708D02*
X0245000Y0149708D01*
X0208905Y0127400D02*
X0208719Y0126951D01*
X0208719Y0125049D01*
X0208905Y0124600D01*
X0115284Y0124600D01*
X0113961Y0124052D01*
X0109600Y0119691D01*
X0109600Y0124509D01*
X0111310Y0126219D01*
X0111951Y0126219D01*
X0113708Y0126947D01*
X0115053Y0128292D01*
X0115781Y0130049D01*
X0115781Y0131951D01*
X0115053Y0133708D01*
X0114261Y0134500D01*
X0115739Y0134500D01*
X0115792Y0134447D01*
X0117549Y0133719D01*
X0119451Y0133719D01*
X0121208Y0134447D01*
X0121261Y0134500D01*
X0164488Y0134500D01*
X0164542Y0134447D01*
X0166299Y0133719D01*
X0168201Y0133719D01*
X0169958Y0134447D01*
X0170011Y0134500D01*
X0170239Y0134500D01*
X0169447Y0133708D01*
X0168719Y0131951D01*
X0168719Y0130049D01*
X0169447Y0128292D01*
X0170792Y0126947D01*
X0172549Y0126219D01*
X0174451Y0126219D01*
X0176208Y0126947D01*
X0176661Y0127400D01*
X0208905Y0127400D01*
X0208719Y0125723D02*
X0110814Y0125723D01*
X0109600Y0123324D02*
X0113233Y0123324D01*
X0110834Y0120926D02*
X0109600Y0120926D01*
X0114883Y0128121D02*
X0169617Y0128121D01*
X0168719Y0130520D02*
X0115781Y0130520D01*
X0115381Y0132918D02*
X0169119Y0132918D01*
X0169999Y0142512D02*
X0188251Y0142512D01*
X0193749Y0142512D02*
X0389501Y0142512D01*
X0374663Y0128121D02*
X0344837Y0128121D01*
X0343500Y0123500D02*
X0376000Y0123500D01*
X0381821Y0096940D02*
X0389501Y0096940D01*
X0389501Y0094542D02*
X0383243Y0094542D01*
X0383113Y0092143D02*
X0389501Y0092143D01*
X0389501Y0089745D02*
X0381506Y0089745D01*
X0375494Y0089745D02*
X0364006Y0089745D01*
X0355897Y0156903D02*
X0316103Y0156903D01*
X0262250Y0211000D02*
X0282250Y0231000D01*
X0276000Y0231257D02*
X0326000Y0231257D01*
X0326000Y0231000D02*
X0323500Y0228500D01*
X0276000Y0228500D01*
X0276000Y0251000D01*
X0281000Y0256000D01*
X0323500Y0256000D01*
X0326000Y0253500D01*
X0326000Y0231000D01*
X0326000Y0233656D02*
X0276000Y0233656D01*
X0276000Y0236054D02*
X0326000Y0236054D01*
X0326000Y0238453D02*
X0276000Y0238453D01*
X0276000Y0240851D02*
X0326000Y0240851D01*
X0326000Y0243250D02*
X0276000Y0243250D01*
X0276000Y0245648D02*
X0326000Y0245648D01*
X0326000Y0248047D02*
X0276000Y0248047D01*
X0276000Y0250445D02*
X0326000Y0250445D01*
X0326000Y0252844D02*
X0277844Y0252844D01*
X0280242Y0255242D02*
X0324258Y0255242D01*
X0346000Y0255242D02*
X0389501Y0255242D01*
X0389501Y0252844D02*
X0346000Y0252844D01*
X0346000Y0250445D02*
X0389501Y0250445D01*
X0389501Y0248047D02*
X0346000Y0248047D01*
X0346000Y0245648D02*
X0389501Y0245648D01*
X0389501Y0243250D02*
X0346000Y0243250D01*
X0346000Y0240851D02*
X0389501Y0240851D01*
X0389501Y0238453D02*
X0346000Y0238453D01*
X0346000Y0236054D02*
X0389501Y0236054D01*
X0389501Y0233656D02*
X0346000Y0233656D01*
X0346000Y0231257D02*
X0389501Y0231257D01*
X0389501Y0229501D02*
X0381000Y0221000D01*
X0351000Y0221000D01*
X0346000Y0226000D01*
X0346000Y0256000D01*
X0361000Y0271000D01*
X0361000Y0301000D01*
X0366000Y0306000D01*
X0383500Y0306000D01*
X0389501Y0299999D01*
X0389501Y0229501D01*
X0388859Y0228859D02*
X0346000Y0228859D01*
X0346000Y0226460D02*
X0386460Y0226460D01*
X0384062Y0224062D02*
X0347938Y0224062D01*
X0350337Y0221663D02*
X0381663Y0221663D01*
X0384059Y0200076D02*
X0073652Y0200076D01*
X0075480Y0197678D02*
X0387271Y0197678D01*
X0388842Y0195279D02*
X0077377Y0195279D01*
X0079550Y0192881D02*
X0389501Y0192881D01*
X0389501Y0190482D02*
X0080000Y0190482D01*
X0080000Y0188084D02*
X0389501Y0188084D01*
X0389501Y0185685D02*
X0080000Y0185685D01*
X0080000Y0183287D02*
X0389501Y0183287D01*
X0389501Y0180888D02*
X0080000Y0180888D01*
X0080000Y0178490D02*
X0389501Y0178490D01*
X0389501Y0176091D02*
X0080000Y0176091D01*
X0080000Y0173693D02*
X0389501Y0173693D01*
X0389501Y0171294D02*
X0080000Y0171294D01*
X0080000Y0168896D02*
X0389501Y0168896D01*
X0323859Y0228859D02*
X0276000Y0228859D01*
X0261000Y0228859D02*
X0248141Y0228859D01*
X0248500Y0228500D02*
X0261000Y0228500D01*
X0261000Y0258500D01*
X0271000Y0268500D01*
X0271000Y0291000D01*
X0266000Y0296000D01*
X0248500Y0296000D01*
X0241000Y0288500D01*
X0241000Y0236000D01*
X0248500Y0228500D01*
X0245743Y0231257D02*
X0261000Y0231257D01*
X0261000Y0233656D02*
X0243344Y0233656D01*
X0241000Y0236054D02*
X0261000Y0236054D01*
X0261000Y0238453D02*
X0241000Y0238453D01*
X0241000Y0240851D02*
X0261000Y0240851D01*
X0261000Y0243250D02*
X0241000Y0243250D01*
X0241000Y0245648D02*
X0261000Y0245648D01*
X0261000Y0248047D02*
X0241000Y0248047D01*
X0241000Y0250445D02*
X0261000Y0250445D01*
X0261000Y0252844D02*
X0241000Y0252844D01*
X0241000Y0255242D02*
X0261000Y0255242D01*
X0261000Y0257641D02*
X0241000Y0257641D01*
X0241000Y0260039D02*
X0262539Y0260039D01*
X0264938Y0262438D02*
X0241000Y0262438D01*
X0241000Y0264836D02*
X0267336Y0264836D01*
X0269735Y0267235D02*
X0241000Y0267235D01*
X0241000Y0269633D02*
X0271000Y0269633D01*
X0271000Y0272032D02*
X0241000Y0272032D01*
X0241000Y0274430D02*
X0271000Y0274430D01*
X0271000Y0276829D02*
X0241000Y0276829D01*
X0241000Y0279227D02*
X0271000Y0279227D01*
X0271000Y0281626D02*
X0241000Y0281626D01*
X0241000Y0284024D02*
X0271000Y0284024D01*
X0271000Y0286423D02*
X0241000Y0286423D01*
X0241321Y0288821D02*
X0271000Y0288821D01*
X0270780Y0291220D02*
X0243720Y0291220D01*
X0246118Y0293618D02*
X0268382Y0293618D01*
X0291000Y0293618D02*
X0346000Y0293618D01*
X0346000Y0296000D02*
X0346000Y0278500D01*
X0341000Y0273500D01*
X0296000Y0273500D01*
X0291000Y0278500D01*
X0291000Y0296000D01*
X0296000Y0301000D01*
X0341000Y0301000D01*
X0346000Y0296000D01*
X0345983Y0296017D02*
X0291017Y0296017D01*
X0293415Y0298415D02*
X0343585Y0298415D01*
X0341186Y0300814D02*
X0295814Y0300814D01*
X0291000Y0291220D02*
X0346000Y0291220D01*
X0346000Y0288821D02*
X0291000Y0288821D01*
X0291000Y0286423D02*
X0346000Y0286423D01*
X0346000Y0284024D02*
X0291000Y0284024D01*
X0291000Y0281626D02*
X0346000Y0281626D01*
X0346000Y0279227D02*
X0291000Y0279227D01*
X0292671Y0276829D02*
X0344329Y0276829D01*
X0341930Y0274430D02*
X0295070Y0274430D01*
X0246000Y0247250D02*
X0231000Y0232250D01*
X0231000Y0218500D01*
X0262250Y0211000D02*
X0196000Y0211000D01*
X0164501Y0142512D02*
X0121249Y0142512D01*
X0115751Y0142512D02*
X0082645Y0142512D01*
X0085043Y0140114D02*
X0106957Y0140114D01*
X0104558Y0137715D02*
X0097067Y0137715D01*
X0092433Y0137715D02*
X0087442Y0137715D01*
X0076428Y0135317D02*
X0069600Y0135317D01*
X0069600Y0137715D02*
X0076128Y0137715D01*
X0073729Y0140114D02*
X0069600Y0140114D01*
X0069600Y0142512D02*
X0072080Y0142512D01*
X0072000Y0144911D02*
X0069600Y0144911D01*
X0069600Y0147309D02*
X0072000Y0147309D01*
X0072000Y0149708D02*
X0069600Y0149708D01*
X0069600Y0152106D02*
X0072000Y0152106D01*
X0072000Y0154505D02*
X0069600Y0154505D01*
X0069600Y0156903D02*
X0072000Y0156903D01*
X0072000Y0159302D02*
X0069600Y0159302D01*
X0070430Y0161700D02*
X0072000Y0161700D01*
X0072000Y0164099D02*
X0070781Y0164099D01*
X0069764Y0166497D02*
X0072000Y0166497D01*
X0072000Y0168896D02*
X0065303Y0168896D01*
X0065781Y0171294D02*
X0072000Y0171294D01*
X0052400Y0161700D02*
X0030781Y0161700D01*
X0029813Y0159302D02*
X0052400Y0159302D01*
X0034947Y0168896D02*
X0032053Y0168896D01*
X0026000Y0168500D02*
X0026000Y0162250D01*
X0026000Y0168500D02*
X0033500Y0176000D01*
X0011691Y0200076D02*
X0068348Y0200076D01*
X0071000Y0216000D02*
X0071000Y0236000D01*
X0051000Y0236000D01*
X0041000Y0246000D01*
X0031000Y0246000D01*
X0026000Y0251000D01*
X0071000Y0236000D02*
X0096512Y0261512D01*
X0096512Y0280488D01*
X0096000Y0281000D01*
X0074119Y0132918D02*
X0069600Y0132918D01*
X0069600Y0130520D02*
X0073719Y0130520D01*
X0074617Y0128121D02*
X0069600Y0128121D01*
X0069600Y0125723D02*
X0078686Y0125723D01*
X0081085Y0123324D02*
X0069600Y0123324D01*
X0070170Y0120926D02*
X0083483Y0120926D01*
X0085882Y0118527D02*
X0070781Y0118527D01*
X0070193Y0116129D02*
X0088280Y0116129D01*
X0090679Y0113730D02*
X0069600Y0113730D01*
X0069600Y0111332D02*
X0092070Y0111332D01*
X0091219Y0108933D02*
X0069600Y0108933D01*
X0069600Y0106534D02*
X0074773Y0106534D01*
X0073719Y0104136D02*
X0069600Y0104136D01*
X0069600Y0101737D02*
X0074055Y0101737D01*
X0075077Y0099339D02*
X0069600Y0099339D01*
X0069600Y0096940D02*
X0073719Y0096940D01*
X0073929Y0094542D02*
X0069600Y0094542D01*
X0025248Y0096940D02*
X0006200Y0096940D01*
X0006200Y0094542D02*
X0022850Y0094542D01*
X0022000Y0092143D02*
X0006200Y0092143D01*
X0006200Y0089745D02*
X0022000Y0089745D01*
X0021346Y0087346D02*
X0022961Y0087346D01*
X0015654Y0087346D02*
X0006200Y0087346D01*
X0006200Y0084948D02*
X0013256Y0084948D01*
X0009958Y0082549D02*
X0006200Y0082549D01*
X0006200Y0080151D02*
X0007560Y0080151D01*
X0022452Y0065760D02*
X0024548Y0065760D01*
X0010642Y0053767D02*
X0006200Y0053767D01*
X0006200Y0051369D02*
X0013040Y0051369D01*
X0015439Y0048970D02*
X0006200Y0048970D01*
X0006200Y0046572D02*
X0017837Y0046572D01*
X0020236Y0044173D02*
X0006200Y0044173D01*
X0006200Y0041775D02*
X0022634Y0041775D01*
X0025033Y0039376D02*
X0006200Y0039376D01*
X0006200Y0036978D02*
X0027431Y0036978D01*
X0029830Y0034579D02*
X0006200Y0034579D01*
X0006200Y0032181D02*
X0019158Y0032181D01*
X0022212Y0032181D02*
X0166524Y0032181D01*
X0168922Y0034579D02*
X0162170Y0034579D01*
X0164569Y0036978D02*
X0171321Y0036978D01*
X0173719Y0039376D02*
X0166967Y0039376D01*
X0169366Y0041775D02*
X0176118Y0041775D01*
X0178516Y0044173D02*
X0171764Y0044173D01*
X0174163Y0046572D02*
X0180915Y0046572D01*
X0183313Y0048970D02*
X0176561Y0048970D01*
X0178960Y0051369D02*
X0184500Y0051369D01*
X0184500Y0053767D02*
X0182068Y0053767D01*
X0192500Y0060963D02*
X0198446Y0060963D01*
X0196048Y0063361D02*
X0192500Y0063361D01*
X0192500Y0065760D02*
X0193649Y0065760D01*
X0161582Y0044173D02*
X0103400Y0044173D01*
X0103130Y0041775D02*
X0159184Y0041775D01*
X0136000Y0026000D02*
X0131000Y0021000D01*
X0131000Y0016000D01*
X0125102Y0012993D02*
X0066666Y0012993D01*
X0067612Y0010594D02*
X0125178Y0010594D01*
X0123937Y0008196D02*
X0067612Y0008196D01*
X0015165Y0010594D02*
X0008457Y0010594D01*
X0006896Y0012993D02*
X0012115Y0012993D01*
X0010463Y0015391D02*
X0006200Y0015391D01*
X0006200Y0017790D02*
X0009556Y0017790D01*
X0009186Y0020188D02*
X0006200Y0020188D01*
X0006200Y0022587D02*
X0009290Y0022587D01*
X0009932Y0024985D02*
X0006200Y0024985D01*
X0006200Y0027384D02*
X0011274Y0027384D01*
X0013520Y0029782D02*
X0006200Y0029782D01*
X0006200Y0056166D02*
X0008243Y0056166D01*
X0022100Y0118527D02*
X0024846Y0118527D01*
X0032506Y0128121D02*
X0034494Y0128121D01*
X0208448Y0099339D02*
X0218552Y0099339D01*
X0223448Y0099339D02*
X0233552Y0099339D01*
X0231555Y0101737D02*
X0225445Y0101737D01*
X0225781Y0104136D02*
X0231219Y0104136D01*
X0232273Y0106534D02*
X0224727Y0106534D01*
X0347641Y0257641D02*
X0389501Y0257641D01*
X0389501Y0260039D02*
X0350039Y0260039D01*
X0352438Y0262438D02*
X0389501Y0262438D01*
X0389501Y0264836D02*
X0354836Y0264836D01*
X0357235Y0267235D02*
X0389501Y0267235D01*
X0389501Y0269633D02*
X0359633Y0269633D01*
X0361000Y0272032D02*
X0389501Y0272032D01*
X0389501Y0274430D02*
X0361000Y0274430D01*
X0361000Y0276829D02*
X0389501Y0276829D01*
X0389501Y0279227D02*
X0361000Y0279227D01*
X0361000Y0281626D02*
X0389501Y0281626D01*
X0389501Y0284024D02*
X0361000Y0284024D01*
X0361000Y0286423D02*
X0389501Y0286423D01*
X0389501Y0288821D02*
X0361000Y0288821D01*
X0361000Y0291220D02*
X0389501Y0291220D01*
X0389501Y0293618D02*
X0361000Y0293618D01*
X0361000Y0296017D02*
X0389501Y0296017D01*
X0389501Y0298415D02*
X0361000Y0298415D01*
X0361000Y0300814D02*
X0388686Y0300814D01*
X0386288Y0303212D02*
X0363212Y0303212D01*
X0365611Y0305611D02*
X0383889Y0305611D01*
D20*
X0381000Y0301000D03*
X0366000Y0301000D03*
X0366000Y0277250D03*
X0367250Y0264750D03*
X0353500Y0257250D03*
X0366000Y0252250D03*
X0381000Y0258500D03*
X0381000Y0271000D03*
X0366000Y0234750D03*
X0351000Y0226000D03*
X0323500Y0233500D03*
X0302250Y0234750D03*
X0302250Y0247250D03*
X0281000Y0251000D03*
X0257250Y0247250D03*
X0246000Y0247250D03*
X0247250Y0234750D03*
X0231000Y0218500D03*
X0196000Y0211000D03*
X0146000Y0196000D03*
X0138500Y0146000D03*
X0138500Y0132250D03*
X0118500Y0138500D03*
X0111000Y0131000D03*
X0101000Y0126000D03*
X0099750Y0117250D03*
X0096000Y0108500D03*
X0106000Y0108500D03*
X0111000Y0113500D03*
X0116000Y0111000D03*
X0121000Y0113500D03*
X0146000Y0096000D03*
X0156000Y0098500D03*
X0178500Y0098500D03*
X0183500Y0103500D03*
X0191000Y0111000D03*
X0198500Y0113500D03*
X0206000Y0103500D03*
X0221000Y0103500D03*
X0236000Y0103500D03*
X0248500Y0083500D03*
X0281000Y0091000D03*
X0298500Y0091000D03*
X0256000Y0121000D03*
X0251000Y0126000D03*
X0258500Y0131000D03*
X0213500Y0126000D03*
X0191000Y0138500D03*
X0173500Y0131000D03*
X0167250Y0138500D03*
X0193500Y0083500D03*
X0203500Y0061000D03*
X0211000Y0056000D03*
X0181000Y0058500D03*
X0148500Y0053500D03*
X0138500Y0053500D03*
X0148500Y0063500D03*
X0113500Y0056000D03*
X0103500Y0063500D03*
X0093500Y0086000D03*
X0078500Y0096000D03*
X0078500Y0103500D03*
X0061000Y0108500D03*
X0066000Y0118500D03*
X0078500Y0131000D03*
X0088500Y0141000D03*
X0094750Y0133500D03*
X0101000Y0141000D03*
X0066000Y0163500D03*
X0061000Y0171000D03*
X0056000Y0166000D03*
X0039750Y0169750D03*
X0026000Y0162250D03*
X0013500Y0191000D03*
X0011000Y0227250D03*
X0026000Y0251000D03*
X0041000Y0246000D03*
X0071000Y0216000D03*
X0071000Y0196000D03*
X0086000Y0271000D03*
X0096000Y0281000D03*
X0111000Y0271000D03*
X0246000Y0276000D03*
X0258500Y0272250D03*
X0268500Y0276000D03*
X0258500Y0262250D03*
X0246000Y0262250D03*
X0246000Y0288500D03*
X0301000Y0297250D03*
X0318500Y0293500D03*
X0318500Y0286000D03*
X0318500Y0278500D03*
X0331000Y0277250D03*
X0332250Y0297250D03*
X0306000Y0276000D03*
X0323500Y0251000D03*
X0282250Y0231000D03*
X0333500Y0196000D03*
X0313500Y0161000D03*
X0351000Y0133500D03*
X0343500Y0123500D03*
X0363500Y0116000D03*
X0376000Y0123500D03*
X0378500Y0093500D03*
X0361000Y0093500D03*
X0351000Y0063500D03*
X0372250Y0048500D03*
X0286000Y0051000D03*
X0358500Y0161000D03*
X0381000Y0226000D03*
X0078500Y0071000D03*
X0056000Y0061000D03*
X0046000Y0043500D03*
X0046000Y0026000D03*
X0066000Y0026000D03*
X0051000Y0091000D03*
D21*
X0051000Y0066000D01*
X0056000Y0061000D01*
X0056000Y0068500D02*
X0073500Y0051000D01*
X0136000Y0051000D01*
X0138500Y0053500D01*
X0148500Y0053500D02*
X0158500Y0053500D01*
X0178500Y0073500D01*
X0178500Y0098500D01*
X0183500Y0103500D02*
X0078500Y0103500D01*
X0078500Y0096000D02*
X0131000Y0096000D01*
X0148500Y0078500D01*
X0148500Y0063500D01*
X0158500Y0036000D02*
X0181000Y0058500D01*
X0193500Y0071000D02*
X0203500Y0061000D01*
X0193500Y0071000D02*
X0193500Y0083500D01*
X0206000Y0103500D02*
X0221000Y0103500D01*
X0213500Y0126000D02*
X0251000Y0126000D01*
X0256000Y0121000D02*
X0116000Y0121000D01*
X0111000Y0116000D01*
X0111000Y0113500D01*
X0116000Y0111000D02*
X0118500Y0108500D01*
X0152870Y0108500D01*
X0158185Y0113815D01*
X0148185Y0113815D02*
X0145370Y0113500D01*
X0121000Y0113500D01*
X0106000Y0108500D02*
X0106000Y0126000D01*
X0111000Y0131000D01*
X0101000Y0126000D02*
X0101000Y0118500D01*
X0099750Y0117250D01*
X0096000Y0113500D02*
X0078500Y0131000D01*
X0066000Y0118500D02*
X0066000Y0073500D01*
X0076000Y0063500D01*
X0103500Y0063500D01*
X0113500Y0056000D02*
X0076000Y0056000D01*
X0061000Y0071000D01*
X0061000Y0108500D01*
X0061000Y0171000D01*
X0056000Y0166000D02*
X0056000Y0131000D01*
X0041000Y0131000D01*
X0038500Y0128500D01*
X0038500Y0123500D01*
X0056000Y0131000D02*
X0056000Y0068500D01*
X0078500Y0071000D02*
X0093500Y0086000D01*
X0096000Y0108500D02*
X0096000Y0113500D01*
X0066000Y0118500D02*
X0066000Y0163500D01*
X0070129Y0211619D02*
X0071871Y0211619D01*
X0073482Y0212286D01*
X0074714Y0213518D01*
X0075381Y0215129D01*
X0075381Y0216871D01*
X0074714Y0218482D01*
X0074600Y0218596D01*
X0074600Y0234509D01*
X0099564Y0259473D01*
X0100112Y0260796D01*
X0100112Y0279478D01*
X0100381Y0280129D01*
X0100381Y0281871D01*
X0099714Y0283482D01*
X0098482Y0284714D01*
X0096871Y0285381D01*
X0095129Y0285381D01*
X0093518Y0284714D01*
X0092286Y0283482D01*
X0091619Y0281871D01*
X0091619Y0280129D01*
X0092286Y0278518D01*
X0092912Y0277892D01*
X0092912Y0263003D01*
X0069509Y0239600D01*
X0052491Y0239600D01*
X0045381Y0246710D01*
X0045381Y0246871D01*
X0044714Y0248482D01*
X0043482Y0249714D01*
X0041871Y0250381D01*
X0040129Y0250381D01*
X0038518Y0249714D01*
X0038404Y0249600D01*
X0032491Y0249600D01*
X0030381Y0251710D01*
X0030381Y0251871D01*
X0029714Y0253482D01*
X0028482Y0254714D01*
X0026871Y0255381D01*
X0025129Y0255381D01*
X0023518Y0254714D01*
X0022286Y0253482D01*
X0021619Y0251871D01*
X0021619Y0250129D01*
X0022286Y0248518D01*
X0023518Y0247286D01*
X0025129Y0246619D01*
X0025290Y0246619D01*
X0028961Y0242948D01*
X0030284Y0242400D01*
X0038404Y0242400D01*
X0038518Y0242286D01*
X0040129Y0241619D01*
X0040290Y0241619D01*
X0048961Y0232948D01*
X0050284Y0232400D01*
X0067400Y0232400D01*
X0067400Y0218596D01*
X0067286Y0218482D01*
X0066619Y0216871D01*
X0066619Y0215129D01*
X0067286Y0213518D01*
X0068518Y0212286D01*
X0070129Y0211619D01*
X0069200Y0212003D02*
X0011545Y0212003D01*
X0011754Y0211889D02*
X0010521Y0212562D01*
X0009397Y0213404D01*
X0008404Y0214397D01*
X0007562Y0215521D01*
X0006889Y0216754D01*
X0006399Y0218070D01*
X0006100Y0219442D01*
X0006000Y0220843D01*
X0006000Y0301157D01*
X0006100Y0302558D01*
X0006399Y0303930D01*
X0006889Y0305246D01*
X0007562Y0306479D01*
X0008404Y0307603D01*
X0009397Y0308596D01*
X0010521Y0309438D01*
X0011754Y0310111D01*
X0013070Y0310601D01*
X0014442Y0310900D01*
X0015843Y0311000D01*
X0123657Y0311000D01*
X0125058Y0310900D01*
X0126430Y0310601D01*
X0127746Y0310111D01*
X0128979Y0309438D01*
X0130103Y0308596D01*
X0131096Y0307603D01*
X0131938Y0306479D01*
X0132611Y0305246D01*
X0133101Y0303930D01*
X0133400Y0302558D01*
X0133500Y0301157D01*
X0133500Y0220843D01*
X0133400Y0219442D01*
X0133101Y0218070D01*
X0132611Y0216754D01*
X0131938Y0215521D01*
X0131096Y0214397D01*
X0130103Y0213404D01*
X0128979Y0212562D01*
X0127746Y0211889D01*
X0126430Y0211399D01*
X0125058Y0211100D01*
X0123657Y0211000D01*
X0015843Y0211000D01*
X0014442Y0211100D01*
X0013070Y0211399D01*
X0011754Y0211889D01*
X0009199Y0213602D02*
X0067251Y0213602D01*
X0066619Y0215201D02*
X0007803Y0215201D01*
X0006873Y0216799D02*
X0066619Y0216799D01*
X0067251Y0218398D02*
X0006327Y0218398D01*
X0006061Y0219996D02*
X0067400Y0219996D01*
X0067400Y0221595D02*
X0006000Y0221595D01*
X0006000Y0223193D02*
X0067400Y0223193D01*
X0067400Y0224792D02*
X0006000Y0224792D01*
X0006000Y0226390D02*
X0067400Y0226390D01*
X0067400Y0227989D02*
X0006000Y0227989D01*
X0006000Y0229587D02*
X0067400Y0229587D01*
X0067400Y0231186D02*
X0006000Y0231186D01*
X0006000Y0232784D02*
X0049356Y0232784D01*
X0047526Y0234383D02*
X0006000Y0234383D01*
X0006000Y0235981D02*
X0045928Y0235981D01*
X0044329Y0237580D02*
X0006000Y0237580D01*
X0006000Y0239178D02*
X0042731Y0239178D01*
X0041132Y0240777D02*
X0006000Y0240777D01*
X0006000Y0242375D02*
X0038429Y0242375D01*
X0040096Y0250368D02*
X0031723Y0250368D01*
X0030342Y0251966D02*
X0081875Y0251966D01*
X0080277Y0250368D02*
X0041904Y0250368D01*
X0044427Y0248769D02*
X0078678Y0248769D01*
X0077080Y0247171D02*
X0045257Y0247171D01*
X0046519Y0245572D02*
X0075481Y0245572D01*
X0073883Y0243974D02*
X0048117Y0243974D01*
X0049716Y0242375D02*
X0072284Y0242375D01*
X0070686Y0240777D02*
X0051314Y0240777D01*
X0027935Y0243974D02*
X0006000Y0243974D01*
X0006000Y0245572D02*
X0026337Y0245572D01*
X0023796Y0247171D02*
X0006000Y0247171D01*
X0006000Y0248769D02*
X0022182Y0248769D01*
X0021619Y0250368D02*
X0006000Y0250368D01*
X0006000Y0251966D02*
X0021658Y0251966D01*
X0022369Y0253565D02*
X0006000Y0253565D01*
X0006000Y0255163D02*
X0024603Y0255163D01*
X0027397Y0255163D02*
X0085072Y0255163D01*
X0083474Y0253565D02*
X0029631Y0253565D01*
X0006000Y0256762D02*
X0086671Y0256762D01*
X0088269Y0258360D02*
X0006000Y0258360D01*
X0006000Y0259959D02*
X0089868Y0259959D01*
X0091466Y0261557D02*
X0006000Y0261557D01*
X0006000Y0263156D02*
X0092912Y0263156D01*
X0092912Y0264754D02*
X0006000Y0264754D01*
X0006000Y0266353D02*
X0092912Y0266353D01*
X0092912Y0267951D02*
X0006000Y0267951D01*
X0006000Y0269550D02*
X0092912Y0269550D01*
X0092912Y0271148D02*
X0006000Y0271148D01*
X0006000Y0272747D02*
X0092912Y0272747D01*
X0092912Y0274345D02*
X0006000Y0274345D01*
X0006000Y0275944D02*
X0092912Y0275944D01*
X0092912Y0277542D02*
X0006000Y0277542D01*
X0006000Y0279141D02*
X0092028Y0279141D01*
X0091619Y0280739D02*
X0006000Y0280739D01*
X0006000Y0282338D02*
X0091812Y0282338D01*
X0092741Y0283937D02*
X0076998Y0283937D01*
X0075861Y0282800D02*
X0079200Y0286139D01*
X0079200Y0290861D01*
X0076561Y0293500D01*
X0078500Y0295439D01*
X0081139Y0292800D01*
X0085861Y0292800D01*
X0089200Y0296139D01*
X0089200Y0300861D01*
X0085861Y0304200D01*
X0081139Y0304200D01*
X0078500Y0301561D01*
X0075861Y0304200D01*
X0071139Y0304200D01*
X0068500Y0301561D01*
X0065861Y0304200D01*
X0061139Y0304200D01*
X0058500Y0301561D01*
X0055861Y0304200D01*
X0051139Y0304200D01*
X0047800Y0300861D01*
X0047800Y0296139D01*
X0050439Y0293500D01*
X0047800Y0290861D01*
X0047800Y0286139D01*
X0051139Y0282800D01*
X0055861Y0282800D01*
X0058500Y0285439D01*
X0061139Y0282800D01*
X0065861Y0282800D01*
X0068500Y0285439D01*
X0071139Y0282800D01*
X0075861Y0282800D01*
X0078596Y0285535D02*
X0133500Y0285535D01*
X0133500Y0283937D02*
X0099259Y0283937D01*
X0100188Y0282338D02*
X0133500Y0282338D01*
X0133500Y0280739D02*
X0100381Y0280739D01*
X0100112Y0279141D02*
X0133500Y0279141D01*
X0133500Y0277542D02*
X0100112Y0277542D01*
X0100112Y0275944D02*
X0133500Y0275944D01*
X0133500Y0274345D02*
X0100112Y0274345D01*
X0100112Y0272747D02*
X0133500Y0272747D01*
X0133500Y0271148D02*
X0100112Y0271148D01*
X0100112Y0269550D02*
X0133500Y0269550D01*
X0133500Y0267951D02*
X0100112Y0267951D01*
X0100112Y0266353D02*
X0133500Y0266353D01*
X0133500Y0264754D02*
X0100112Y0264754D01*
X0100112Y0263156D02*
X0133500Y0263156D01*
X0133500Y0261557D02*
X0100112Y0261557D01*
X0099765Y0259959D02*
X0133500Y0259959D01*
X0133500Y0258360D02*
X0098451Y0258360D01*
X0096853Y0256762D02*
X0133500Y0256762D01*
X0133500Y0255163D02*
X0095254Y0255163D01*
X0093656Y0253565D02*
X0133500Y0253565D01*
X0133500Y0251966D02*
X0092057Y0251966D01*
X0090459Y0250368D02*
X0133500Y0250368D01*
X0133500Y0248769D02*
X0088860Y0248769D01*
X0087262Y0247171D02*
X0133500Y0247171D01*
X0133500Y0245572D02*
X0085663Y0245572D01*
X0084065Y0243974D02*
X0133500Y0243974D01*
X0133500Y0242375D02*
X0082466Y0242375D01*
X0080868Y0240777D02*
X0133500Y0240777D01*
X0133500Y0239178D02*
X0079269Y0239178D01*
X0077671Y0237580D02*
X0133500Y0237580D01*
X0133500Y0235981D02*
X0076072Y0235981D01*
X0074600Y0234383D02*
X0133500Y0234383D01*
X0133500Y0232784D02*
X0074600Y0232784D01*
X0074600Y0231186D02*
X0133500Y0231186D01*
X0133500Y0229587D02*
X0074600Y0229587D01*
X0074600Y0227989D02*
X0133500Y0227989D01*
X0133500Y0226390D02*
X0074600Y0226390D01*
X0074600Y0224792D02*
X0133500Y0224792D01*
X0133500Y0223193D02*
X0074600Y0223193D01*
X0074600Y0221595D02*
X0133500Y0221595D01*
X0133439Y0219996D02*
X0074600Y0219996D01*
X0074749Y0218398D02*
X0133173Y0218398D01*
X0132627Y0216799D02*
X0075381Y0216799D01*
X0075381Y0215201D02*
X0131697Y0215201D01*
X0130301Y0213602D02*
X0074749Y0213602D01*
X0072800Y0212003D02*
X0127955Y0212003D01*
X0070002Y0283937D02*
X0066998Y0283937D01*
X0060002Y0283937D02*
X0056998Y0283937D01*
X0050002Y0283937D02*
X0006000Y0283937D01*
X0006000Y0285535D02*
X0017885Y0285535D01*
X0019224Y0285176D02*
X0016401Y0285933D01*
X0013870Y0287394D01*
X0011803Y0289461D01*
X0010342Y0291991D01*
X0009586Y0294814D01*
X0009586Y0297737D01*
X0010342Y0300560D01*
X0011803Y0303091D01*
X0013870Y0305157D01*
X0016401Y0306618D01*
X0019224Y0307375D01*
X0022146Y0307375D01*
X0024969Y0306618D01*
X0027500Y0305157D01*
X0029567Y0303091D01*
X0031028Y0300560D01*
X0031784Y0297737D01*
X0031784Y0294814D01*
X0031028Y0291991D01*
X0029567Y0289461D01*
X0027500Y0287394D01*
X0024969Y0285933D01*
X0022146Y0285176D01*
X0019224Y0285176D01*
X0023485Y0285535D02*
X0048404Y0285535D01*
X0047800Y0287134D02*
X0027049Y0287134D01*
X0028838Y0288732D02*
X0047800Y0288732D01*
X0047800Y0290331D02*
X0030069Y0290331D01*
X0030992Y0291929D02*
X0048868Y0291929D01*
X0050411Y0293528D02*
X0031439Y0293528D01*
X0031784Y0295126D02*
X0048813Y0295126D01*
X0047800Y0296725D02*
X0031784Y0296725D01*
X0031627Y0298323D02*
X0047800Y0298323D01*
X0047800Y0299922D02*
X0031199Y0299922D01*
X0030473Y0301520D02*
X0048459Y0301520D01*
X0050058Y0303119D02*
X0029539Y0303119D01*
X0027940Y0304717D02*
X0132808Y0304717D01*
X0133278Y0303119D02*
X0086942Y0303119D01*
X0088541Y0301520D02*
X0133474Y0301520D01*
X0133500Y0299922D02*
X0089200Y0299922D01*
X0089200Y0298323D02*
X0133500Y0298323D01*
X0133500Y0296725D02*
X0089200Y0296725D01*
X0088187Y0295126D02*
X0133500Y0295126D01*
X0133500Y0293528D02*
X0086589Y0293528D01*
X0080411Y0293528D02*
X0076589Y0293528D01*
X0078132Y0291929D02*
X0133500Y0291929D01*
X0133500Y0290331D02*
X0079200Y0290331D01*
X0079200Y0288732D02*
X0133500Y0288732D01*
X0133500Y0287134D02*
X0079200Y0287134D01*
X0078813Y0295126D02*
X0078187Y0295126D01*
X0076942Y0303119D02*
X0080058Y0303119D01*
X0070058Y0303119D02*
X0066942Y0303119D01*
X0060058Y0303119D02*
X0056942Y0303119D01*
X0025494Y0306316D02*
X0132027Y0306316D01*
X0130785Y0307914D02*
X0008715Y0307914D01*
X0007473Y0306316D02*
X0015877Y0306316D01*
X0013430Y0304717D02*
X0006692Y0304717D01*
X0006222Y0303119D02*
X0011831Y0303119D01*
X0010897Y0301520D02*
X0006026Y0301520D01*
X0006000Y0299922D02*
X0010171Y0299922D01*
X0009743Y0298323D02*
X0006000Y0298323D01*
X0006000Y0296725D02*
X0009586Y0296725D01*
X0009586Y0295126D02*
X0006000Y0295126D01*
X0006000Y0293528D02*
X0009931Y0293528D01*
X0010378Y0291929D02*
X0006000Y0291929D01*
X0006000Y0290331D02*
X0011301Y0290331D01*
X0012532Y0288732D02*
X0006000Y0288732D01*
X0006000Y0287134D02*
X0014321Y0287134D01*
X0010659Y0309513D02*
X0128841Y0309513D01*
X0313500Y0161000D02*
X0358500Y0161000D01*
X0361000Y0093500D02*
X0378500Y0093500D01*
X0298500Y0091000D02*
X0281000Y0091000D01*
X0258500Y0131000D02*
X0173500Y0131000D01*
X0158500Y0036000D02*
X0033500Y0036000D01*
X0008500Y0061000D01*
X0008500Y0076000D01*
X0013500Y0081000D01*
X0018500Y0081000D01*
M02*
